<svg width="91" height="68" viewBox="0 0 91 68" fill="none" xmlns="http://www.w3.org/2000/svg">
<g clip-path="url(#clip0_207_7682)">
<path d="M23.9741 55.4523C24.1129 55.08 24.1895 54.7039 24.3928 54.3646C27.1016 54.6307 30.5198 54.4068 33.082 53.125C34.791 52.2685 37.2254 50.7939 39.0936 48.6324C40.59 46.9124 41.399 45.1076 41.5325 43.2936C41.5613 43.1955 41.6402 42.3641 41.6667 42.0599C41.7865 41.1353 41.9185 40.1802 41.7658 39.2913C42.0134 39.2208 42.2415 39.1284 42.4367 39.0298C42.8758 38.8169 43.7438 38.2844 43.7438 38.2844C48.7654 36.1182 50.6952 31.5726 52.3763 27.5675C53.0509 25.9917 53.6591 24.3434 54.2325 22.7554C55.8848 18.3284 57.5964 13.7448 60.6893 9.78252C62.8562 7.00865 66.8483 3.55573 70.9051 2.98321C73.0073 2.68057 74.8587 3.23232 76.3971 4.59939C78.5348 6.51815 79.0341 9.50568 77.6095 11.8664C76.1995 14.2259 73.1046 15.4072 70.5768 14.5841C68.2167 13.8105 66.4309 11.085 67.56 8.58805C67.8545 7.97754 68.2279 7.57559 68.739 7.37739C69.7928 6.97248 71.2028 7.49574 72.1906 7.91676C72.1906 7.91676 72.8335 8.12163 72.9146 8.05161C73.0708 7.90913 72.3246 7.37985 72.3246 7.37985C71.2626 6.91485 69.7775 6.4287 68.5554 6.9005C67.8827 7.15767 67.364 7.69236 67.031 8.42536C65.7645 11.2032 67.7133 14.2276 70.3118 15.0861C73.1247 16.0095 76.5593 14.678 78.1195 12.0675C79.6644 9.50388 79.1465 6.27189 76.8425 4.21215C75.1713 2.73522 73.1682 2.14734 70.8691 2.47355C66.6196 3.06782 62.456 6.63943 60.2134 9.53149C57.062 13.5339 55.3388 18.173 53.6834 22.6518C53.0948 24.216 52.4884 25.8686 51.8205 27.4364C50.3966 30.8268 48.8151 34.5924 45.2936 36.89C46.1107 36.0259 46.9006 34.9916 47.6431 33.7756C51.0833 28.1452 50.5792 22.2518 46.334 18.0126C45.4352 17.1143 43.0043 15.1593 39.835 16.3673C37.5822 17.2392 35.4948 19.762 36.0723 21.9992C36.4166 23.301 37.6355 24.1331 39.1973 24.1018C40.7287 24.0936 42.0907 23.2641 42.7389 21.9572C43.087 21.248 43.3942 19.5567 42.461 18.8852C41.9834 18.5238 41.4812 18.4002 40.9996 18.4899C40.1569 18.6683 39.1791 19.8889 39.2037 20.2419C39.2097 20.3504 39.5527 20.0069 39.6484 19.971C39.9649 19.861 40.3694 18.9763 41.0327 18.8392C41.3925 18.7713 41.7898 18.8741 42.1943 19.1708C42.924 19.697 42.7049 21.2043 42.3878 21.8447C41.6805 23.2375 40.3023 23.7457 39.2343 23.7629C37.8505 23.7737 36.7527 23.0362 36.4668 21.8709C35.9221 19.8167 37.8685 17.4955 39.9523 16.7009C42.8862 15.5682 45.1862 17.4176 46.0277 18.2646C50.1944 22.391 50.667 28.1515 47.308 33.6411C46.273 35.3305 45.1792 36.6461 43.9877 37.6147C43.8383 37.6786 42.7176 38.5059 42.2718 38.7267C42.1168 38.8131 41.9168 38.8885 41.6735 38.9571C41.6687 38.8632 41.6255 38.7858 41.5939 38.6882C41.3873 38.1101 40.0933 36.7597 39.1324 36.8977C38.8489 36.9432 38.4488 37.1646 38.2853 37.8808C38.2111 38.2507 38.2444 38.5293 38.3381 38.7367C38.4585 38.9831 38.6156 39.1381 38.8045 39.2492C39.4344 39.601 40.4793 39.5886 41.3689 39.3902C41.5174 40.2103 41.1491 42.7153 41.1599 42.8824C41.1599 42.8824 41.0706 43.1225 41.0725 43.1267C39.9201 46.29 36.8367 47.0019 33.4938 48.0872C33.1303 48.2172 32.7474 48.3254 32.3608 48.4603C29.4313 49.4497 25.9544 50.9659 24.164 53.9827C22.8212 53.7942 21.5511 53.504 20.4811 53.1383C18.5463 52.4859 7.4365 52.9878 9.18795 53.5065C9.59869 53.6289 15.1045 53.0328 15.1935 53.0402C17.3404 53.1729 18.4502 52.84 20.3198 53.4698C21.3655 53.8256 22.6289 54.1238 23.9801 54.3087C23.8006 54.6328 23.6661 54.9679 23.5262 55.3256C22.5903 57.8258 22.7933 60.7935 23.927 63.3282C24.0335 63.5654 24.1527 63.7972 24.2762 64.0271C23.1463 61.3243 23.0547 57.9555 23.9851 55.4425L23.9741 55.4523ZM39.0541 38.9355C38.6873 38.7389 38.5615 38.4089 38.6766 37.9104C38.7636 37.4996 41.0225 38.2963 41.211 38.8317C41.242 38.9042 41.273 38.9768 41.304 39.0494C40.5138 39.2205 39.5866 39.2482 39.0566 38.9294L39.0541 38.9355ZM24.6083 54.0301C26.3021 51.3777 29.7429 49.8719 32.4651 48.9408C32.834 48.8235 33.8501 48.3893 34.2226 48.2805C37.1802 47.3094 39.4386 46.8643 40.9907 44.3532C39.9918 48.9149 34.6919 51.9422 32.911 52.8195C30.4836 54.0386 27.2208 54.2718 24.6126 54.0283L24.6083 54.0301Z" fill="#210002"/>
</g>
<defs>
<clipPath id="clip0_207_7682">
<rect width="38.663" height="82.3492" fill="white" transform="translate(75.7241) rotate(66.8602)"/>
</clipPath>
</defs>
</svg>
