<svg width="156" height="196" viewBox="0 0 156 196" fill="none" xmlns="http://www.w3.org/2000/svg">
<g clip-path="url(#clip0_82_2677)">
<path d="M71.4921 163.172C71.2115 162.364 70.8225 161.634 70.6944 160.792C75.5565 157.516 80.9239 152.453 83.4183 146.808C85.0798 143.041 87.0975 137.252 87.2322 131.099C87.356 126.19 86.2219 122.084 83.9539 118.889C83.867 118.686 82.8569 117.198 82.4835 116.657C81.4133 114.957 80.3217 113.19 78.8481 111.924C79.1624 111.467 79.4142 111.001 79.603 110.569C80.0398 109.613 80.7499 107.538 80.7499 107.538C86.1133 97.0497 83.0783 86.8549 80.3722 77.8986C79.3295 74.3568 78.0769 70.7856 76.8494 67.3623C73.5164 57.7452 70.0669 47.7867 69.7634 36.964C69.5537 29.385 71.4421 18.1737 77.3912 11.6553C80.4657 8.2677 84.2965 6.6427 88.7268 6.80075C94.9091 7.05218 99.8382 11.3267 100.713 17.201C101.611 23.0532 98.0942 29.262 92.7681 31.3648C87.7882 33.3198 81.083 31.2461 79.5304 25.5511C79.1813 24.1335 79.2497 22.9536 79.826 21.9232C81.0197 19.8047 84.0788 18.7381 86.2964 18.0814C86.2964 18.0814 87.6449 17.5391 87.6835 17.3115C87.7472 16.8606 85.782 17.0061 85.782 17.0061C83.3807 17.6917 80.248 18.9229 78.8667 21.3835C78.103 22.7336 77.9757 24.3331 78.4289 26.007C80.1388 32.3569 87.525 34.703 93.017 32.562C98.9542 30.2342 102.829 23.3099 101.836 16.8348C100.882 10.4586 95.5866 5.80385 88.9347 5.54657C84.1333 5.38837 80.001 7.16168 76.6318 10.8587C70.3928 17.6776 68.3827 29.3212 68.629 37.2003C68.8904 48.1701 72.3967 58.2366 75.7956 67.944C76.9652 71.3487 78.2266 74.9245 79.2696 78.4439C81.559 86.0265 84.1018 94.4485 81.409 103.096C81.5795 100.54 81.4713 97.7388 81.035 94.701C79.0187 80.6323 70.0931 71.5404 57.2274 70.3291C54.5024 70.0716 47.7836 70.1623 44.1802 76.5175C41.6369 81.0567 41.634 88.1098 45.6631 91.0313C48.0215 92.72 51.1871 92.4285 53.737 90.2329C56.2679 88.1177 57.3907 84.8712 56.6729 81.812C56.2776 80.1568 54.4662 76.9274 51.9954 77.0934C50.7066 77.149 49.7032 77.6329 49.0267 78.4429C47.8726 79.8955 47.9246 83.264 48.4499 83.8162C48.6088 83.9881 48.7067 82.9472 48.8164 82.7563C49.1909 82.1393 48.6481 80.1154 49.5612 78.9774C50.0652 78.3709 50.866 77.9962 51.9446 77.9336C53.8783 77.8057 55.5832 80.6088 55.9358 82.107C56.6731 85.39 55.0826 88.1253 53.3331 89.6196C51.0507 91.5367 48.2161 91.819 46.1421 90.277C42.4184 87.6142 42.4639 81.0894 44.8327 76.9103C48.1488 71.0032 54.5053 70.9169 57.0649 71.1679C69.6453 72.2996 78.3362 81.2142 80.2941 94.9378C80.8945 99.1628 80.8843 102.848 80.2357 106.091C80.0753 106.403 79.3503 109.314 78.9132 110.293C78.7746 110.649 78.546 111.048 78.2363 111.496C78.0995 111.347 77.9214 111.278 77.7351 111.159C76.5985 110.483 72.597 110.017 71.1912 111.565C70.7829 112.029 70.4227 112.946 71.1341 114.36C71.5187 115.075 71.9563 115.492 72.3964 115.708C72.9345 115.952 73.4081 115.993 73.8742 115.919C75.4028 115.638 77.1204 114.184 78.325 112.633C79.697 113.791 82.5237 118.455 82.7709 118.718C82.7709 118.718 82.9522 119.239 82.9611 119.243C85.3895 126.076 81.2477 131.49 77.1876 137.88C76.7627 138.594 76.2754 139.3 75.8187 140.054C72.3133 145.717 68.6222 153.006 69.7904 160.472C67.3026 162.002 64.7957 163.263 62.5174 164.125C58.41 165.697 40.6552 181.778 44.2748 180.236C45.1245 179.875 53.4469 171.329 53.6048 171.219C57.351 168.493 58.7365 166.417 62.7046 164.896C64.929 164.052 67.4356 162.813 69.9326 161.265C70.0794 162.05 70.3162 162.791 70.5747 163.577C72.4525 169.012 76.8627 173.66 82.2234 176.312C82.7257 176.56 83.2418 176.781 83.7624 176.993C78.1771 174.056 73.4015 168.59 71.497 163.141L71.4921 163.172ZM73.8581 115.055C72.9793 115.232 72.3176 114.857 71.8244 113.872C71.4051 113.07 76.2485 111.292 77.2962 111.923C77.4473 112.001 77.5984 112.079 77.7495 112.156C76.6725 113.525 75.1712 114.844 73.8538 115.042L73.8581 115.055ZM70.5932 159.941C69.7646 153.213 73.4102 145.99 76.6514 140.709C77.1029 140.008 78.1937 137.892 78.663 137.2C82.2401 131.529 85.3784 127.691 84.5087 121.391C89.1113 130.336 84.4677 142.635 82.7151 146.536C80.3585 151.891 75.2619 156.756 70.5977 159.932L70.5932 159.941Z" fill="#210002"/>
</g>
<defs>
<clipPath id="clip0_82_2677">
<rect width="83.28" height="177.38" fill="white" transform="translate(81.2966 0.0889893) rotate(27.2787)"/>
</clipPath>
</defs>
</svg>
