<svg width="58" height="105" viewBox="0 0 58 105" fill="none" xmlns="http://www.w3.org/2000/svg">
<path d="M15.4207 93.6905C16.1019 94.3768 17.5433 93.8474 18.4845 94.1975L16.9046 94.3992L16.1019 94.8725C15.6751 95.4775 18.7445 95.7745 19.1657 95.7156L17.8062 95.8837L18.1453 96.217L17.467 96.3851C18.0492 96.7744 18.3488 96.2814 18.705 96.2618C19.2702 96.2338 20.2086 96.5391 20.87 96.3879C21.4748 96.8444 19.4172 96.71 19.2561 96.7268L17.9786 97.0601L18.9989 97.2338L18.4902 97.5671L20.3612 97.7379L20.022 97.906V98.2421L20.5308 98.4102L19.6829 98.5782L20.7032 98.7519V98.9171L19.8525 99.0852C20.2142 99.186 21.1837 98.7939 21.0424 99.4241C20.7569 99.6398 19.7988 98.9452 19.8525 99.5082C20.1351 99.9535 21.1554 99.6286 21.0424 100.27L19.6829 100.438C20.0616 100.676 20.9887 100.505 21.2289 100.685C21.4861 100.878 21.1243 101.472 22.0457 101.304L22.269 102.27L24.2814 102.976L24.109 103.48L25.1293 103.816H23.9394C26.2033 104.511 27.7409 104.026 29.6458 102.808L32.28 100.78C32.3535 101.096 32.1019 101.18 31.9408 101.371C27.3989 106.754 23.4419 105.763 18.9113 100.951C10.3983 91.9091 2.8999 75.6159 1.31431 63.3756C-0.347594 50.5556 4.46289 41.4552 12.6113 31.9263C13.7899 30.5454 15.8786 29.4307 15.5705 27.3103C15.4207 26.8734 14.5643 27.1087 14.1912 26.484C14.0867 26.3076 13.5638 24.4253 13.5666 24.2489C13.5666 23.994 13.7249 23.7615 13.8888 23.5738C14.912 22.4086 19.5303 21.3919 21.1187 21.291C22.3538 21.2126 24.8806 21.5459 25.867 21.2742C26.4718 21.109 25.6183 20.6244 25.8868 20.2827C26.192 20.039 26.6047 20.151 26.958 19.9914C28.3372 19.3696 28.1026 19.7141 29.2671 19.4396C29.3971 19.4088 29.3717 19.1427 29.5017 19.1091C30.4994 18.8654 31.7571 19.5572 32.7887 19.4424C32.8651 18.997 32.7153 19.1455 32.4213 19.0587C31.336 18.7393 28.8686 18.7954 28.1761 17.8486C27.8907 17.4565 28.2355 17.2212 28.1139 16.9159C27.9528 16.5126 26.8534 16.042 26.9919 15.1597L27.331 14.8236C26.8873 14.1514 26.3729 13.3783 26.5623 12.5156L29.1371 12.4988C29.4989 12.3699 29.2021 11.9638 29.366 11.7565C29.8748 11.1207 31.0731 11.9554 31.7684 11.849L31.5989 10.8378C33.8289 10.3196 34.5609 11.7397 35.7706 13.1962L36.1493 12.7817C35.3975 11.4204 34.0126 9.17963 34.934 7.6447C35.4879 6.72318 36.0617 7.39822 36.3669 7.21895L37.3844 5.3423C37.7208 5.12383 37.8762 5.71763 38.238 5.53277C38.2945 5.50476 39.1679 4.7569 39.2103 4.70928C40.0638 3.66732 39.7925 2.59175 41.8133 3.40683C41.8868 2.7374 42.2543 2.30325 42.7602 1.89431L43.5205 2.39848C43.4216 0.91957 44.5351 1.52458 45.1739 1.26409C45.7392 1.03441 46.084 0.157706 46.3327 0.0372643C46.5984 -0.0943814 46.5673 0.157706 46.6238 0.252939C47.0167 0.902764 47.2371 1.67583 47.4406 2.40128L48.184 2.24163L48.461 2.48531V5.6084C48.9782 5.79606 48.9132 4.68127 49.3993 5.09862C49.5463 5.75965 49.6537 6.43188 49.7809 7.09851C49.8261 7.3394 49.7017 7.58028 49.7272 7.72033C49.7611 7.9192 50.3066 8.40656 50.4281 8.97236C50.674 10.104 50.4846 10.6613 50.0579 11.6613C49.6678 12.5744 48.3196 14.0533 48.1529 14.6779C48.0455 15.0869 48.167 15.4286 48.6305 15.395C48.3762 14.1962 49.306 14.0477 49.8261 13.4595C50.1285 13.115 50.2501 12.6024 50.5864 12.1879C51.9091 10.5437 52.2822 11.6781 52.5507 13.2046C53.229 13.3867 54.4218 12.087 54.7666 12.2663C55.1849 12.482 55.1001 13.2466 55.3036 13.5968C55.4619 13.8713 55.8463 13.9217 55.9311 14.1598C56.29 15.1653 54.9899 16.9411 55.0973 17.4873C55.1199 17.6022 55.428 17.5825 55.4506 17.6974C55.5975 18.4284 54.2239 19.56 53.9272 20.2351L54.4303 20.7196C54.5574 21.3975 52.5225 22.2322 51.8696 21.9829L52.025 22.5599C51.895 23.1173 48.3847 22.8764 47.6978 22.994C47.4067 23.0444 47.2202 23.1761 47.2711 23.4982C48.6673 24.1312 49.8176 23.2405 51.1856 24.3469C50.3744 25.0863 51.912 25.1508 52.497 25.4897C52.7231 25.6213 53.4015 26.1815 53.4891 26.372C53.7237 26.8846 53.1273 27.061 53.2432 27.3663C53.2601 27.414 53.9017 27.7389 54.0543 27.9882C54.9192 29.4082 52.6553 28.568 51.8639 28.7304L52.0307 29.7304C50.7277 30.341 49.6367 30.2962 48.2886 29.9124L48.4581 30.5847C47.9296 30.6211 47.4746 30.5959 46.9573 30.4698C46.1546 30.2737 45.6346 29.6351 44.8828 29.4054L45.0241 30.1701L44.6538 30.397C44.3542 30.3074 44.1621 30.1225 43.9557 29.9012C42.828 28.6968 41.8642 26.4392 40.6969 25.3692C40.5019 25.19 40.3154 25.0303 40.0299 25.0303C39.2103 25.0303 37.6558 27.8117 37.0481 28.4755C38.385 29.3522 39.4109 30.7303 39.8942 32.24C40.2447 33.3324 40.0073 34.6517 41.6014 34.9374C43.7918 35.3267 45.0835 34.7973 46.4853 37.0157C47.63 38.8251 47.5254 40.2116 47.0958 42.2311C51.8922 41.6093 54.0628 47.3373 52.5931 51.1382C52.3246 51.8356 51.4258 52.7571 51.5502 53.4098C51.6745 54.0624 52.1465 53.9391 52.4603 54.2108C54.0459 55.5889 53.9865 56.6897 53.4721 58.5972C55.1538 59.6783 56.5048 59.88 56.9316 62.0956C57.5166 65.1318 54.8231 66.5491 52.449 67.5379C52.5535 69.224 52.8277 70.5293 51.5276 71.8514C51.0697 72.3163 50.4366 72.5208 50.0183 73.0222C51.8074 75.0753 50.5157 79.1479 48.444 80.6072C47.4011 81.341 46.0501 81.4363 45.0495 82.1477C45.9342 83.3157 46.0246 85.8786 45.2898 87.1026C44.5097 88.4051 42.8111 88.5648 41.5505 89.1334C41.477 90.7467 41.5901 91.4582 40.6913 92.839C39.6173 94.4888 38.2663 95.1134 36.4461 95.7184C36.4178 97.0853 36.2737 98.2225 35.1572 99.1664C34.0408 100.11 30.7849 100.853 29.6091 99.7126C29.3095 99.4213 29.0834 98.553 28.7584 98.4466C26.274 98.5726 24.3605 98.3009 22.7467 96.3066C20.6891 93.7606 20.9152 90.2061 23.3939 88.0186C23.1367 87.0606 22.2747 86.5032 22.0994 85.4725C21.7461 83.3858 21.9892 80.9741 23.9224 79.7501C22.9615 77.8707 22.8428 75.7755 24.4397 74.2042C23.1819 73.2462 21.277 71.8065 21.0508 70.14C20.9745 69.577 21.1526 68.8095 21.0028 68.3305C20.8869 67.9552 19.7479 67.4118 19.4087 67.0421C18.1934 65.7116 19.1515 64.4988 18.7869 63.272C18.6993 62.9751 17.5405 61.9695 17.255 61.4149C15.5027 57.995 17.0459 53.4238 21.195 53.0176L21.0367 48.9786C17.0544 50.1186 13.9312 46.0488 14.5558 42.4132L11.673 41.3852L12.0121 41.8894L9.71145 40.5421C9.43447 40.7102 9.76798 40.9146 9.88103 41.0491C10.3954 41.6569 11.1755 42.0098 11.6701 42.6512C11.0201 42.9285 10.4407 41.8446 9.79907 41.9734L12.0121 43.5756C10.6102 43.4943 9.02464 41.2283 7.8404 41.2199L7.7867 41.6065L10.989 44.2534C9.72276 43.8136 8.75614 42.9789 7.75843 42.1415C7.62277 42.0294 7.41644 41.6989 7.24686 41.9734C8.04107 43.0686 9.40055 44.3066 10.6526 44.8416C11.4299 45.1721 12.4728 45.1833 13.0353 45.7715C12.1393 45.6903 11.3536 45.4914 10.5368 45.1273C9.47404 44.6539 8.82963 43.808 7.75561 43.4131L8.94833 45.0965L7.50123 44.4243C7.1762 44.7744 7.89975 44.934 8.1089 45.1777C8.23043 45.3178 8.11738 45.5474 8.26435 45.6819C8.49611 45.8948 9.01334 45.892 9.12074 46.2757L6.22654 44.9284L6.90769 45.6875L6.39895 45.8555L8.27 47.2896L5.03664 46.6174C4.68617 46.9479 6.71833 47.7994 6.73811 48.1327C6.36786 47.9619 4.34418 48.0403 4.70313 48.6341L6.90769 49.9898L4.35548 49.2307C6.01456 50.5332 8.0976 50.7769 10.011 51.3903C10.1891 51.4463 10.5254 51.4323 10.4859 51.676C8.35762 51.4715 6.41873 50.6172 4.35548 50.1606L6.22937 51.3398L5.10164 51.0513L3.33516 51.169C3.65737 51.281 6.73811 51.858 6.05696 52.5191L4.01632 52.1829C3.99371 52.7151 4.20286 52.9728 4.52507 53.3621L3.33516 53.5302L12.0178 55.0483L5.03664 54.208C5.11578 54.4041 5.3758 54.7038 5.55669 54.7878C5.90716 54.9503 6.58832 54.8131 6.73811 55.2164C6.00608 54.8999 5.3758 55.194 4.76248 55.2024C4.36962 55.208 3.38039 54.7038 3.50475 55.3844C5.28536 55.7738 7.06597 55.8522 8.87202 56.0595C9.12639 56.0903 9.39207 56.1939 9.12357 56.3956C7.06032 56.0203 5.04229 56.2387 2.99317 56.0595L3.15993 56.3144L8.60917 57.5748C8.01563 57.5692 7.41927 57.5916 6.8229 57.5748C5.64431 57.5412 4.3894 57.2975 3.25037 57.2331C3.06383 57.2219 2.60596 57.1239 2.65118 57.4067L3.84108 57.7513L3.6715 58.0818L5.54538 58.4235C5.58778 58.712 5.14121 58.6028 4.95467 58.5888C4.53072 58.5551 4.11807 58.3479 3.67433 58.4235L5.3758 59.0145L3.92588 58.9333L3.84391 59.2666C3.95697 59.3814 7.11685 59.8212 6.73811 60.1125L5.03664 59.9472L6.19262 60.6083L11.6758 60.7931L8.68831 61.1376L3.50192 60.7931C4.55616 61.7763 6.23219 61.5942 7.48993 61.8155C8.4622 61.9863 9.42316 62.4849 10.4831 62.3113C10.5226 62.6054 10.0987 62.4681 9.88951 62.4793C7.90823 62.5689 5.65279 62.0199 3.75629 61.4682C3.49061 61.6474 3.7789 61.8491 3.96827 61.9331C5.00555 62.3897 8.1089 62.7538 9.4062 62.9583C10.0958 63.0675 10.8053 63.174 11.5062 63.1571C11.5458 63.4512 11.119 63.314 10.9127 63.3252C8.60069 63.426 6.26894 62.7398 4.01349 62.737C4.02762 63.4849 6.85399 63.8322 7.56059 63.947C8.38871 64.0843 9.1914 64.2187 10.0393 64.1907L12.3598 64.6753C10.3417 64.8097 8.28414 64.1767 6.3085 63.9974C5.61322 63.9358 4.71726 64.1879 3.95697 64.0002C3.77043 63.9554 3.90892 63.6109 3.76195 63.6613C3.61497 63.7117 3.41148 63.947 3.67433 64.0843L7.24968 65.0086C5.90716 64.9778 4.46006 64.9526 3.24755 64.3364L3.16558 64.6697C6.17849 65.6752 9.35816 65.9637 12.5293 65.8545C12.5322 66.1738 12.6311 66.2046 12.2891 66.1682C11.4271 66.0786 10.582 66.2438 9.71428 66.1962C8.12586 66.1122 6.55722 65.7144 4.98294 65.5324L4.69747 66.0197L6.05978 66.3615L5.72062 66.8656C6.63919 66.9693 7.61711 67.2998 8.53286 67.3698C9.27337 67.4286 9.84712 67.1961 10.5791 67.3642C10.8787 67.4314 11.0794 67.2101 10.9974 67.7087C8.96529 67.7787 6.93878 67.4538 4.95467 67.0309L5.19774 67.2942L6.57136 67.874L4.18873 67.7087C4.18873 67.9748 4.72291 68.0168 4.93206 68.0672C6.55722 68.4734 8.14282 68.3894 9.80755 68.3838L7.93649 68.7171L12.5322 68.8879C12.5774 69.1092 12.2184 69.1568 12.0658 69.182C10.028 69.5098 7.79235 69.4593 5.72345 69.563C5.68105 69.8235 6.04283 69.7618 6.23502 69.8094C8.10042 70.2912 9.90365 70.1372 11.7662 70.4089C12.0658 70.4537 12.0517 70.3192 12.0234 70.7422H5.63865C5.50016 70.7422 4.65791 70.2576 4.53355 70.7422C5.87042 70.9298 7.19033 71.2744 8.53568 71.4172C8.88615 71.4536 10.4717 71.2716 10.4887 71.6721C10.5028 72.0138 9.99692 71.7925 9.87538 71.7785C8.66287 71.6525 7.4447 71.5461 6.23502 71.42L6.74377 71.7533H5.38146C5.73475 72.4144 6.69006 72.1567 7.29491 72.3051C7.56906 72.3723 7.82909 72.6412 8.23043 72.7253C9.149 72.9185 10.2315 72.9185 11.167 73.1062C11.2094 73.3947 10.7742 73.2715 10.5707 73.2771C9.13205 73.3051 7.67364 73.221 6.22937 73.2771C6.14175 73.7532 6.34242 73.5544 6.60245 73.658C7.18468 73.8877 7.82061 74.0333 8.43959 74.1229C8.18521 74.5879 7.31469 73.9997 6.90769 74.1229C6.49504 74.4283 9.52491 74.91 9.74254 74.9408C10.7742 75.0837 11.8228 75.1733 12.8685 75.1341C12.8572 75.3946 12.0997 75.473 11.933 75.4702C10.3135 75.4394 8.53003 74.8792 7.13946 74.8064C6.67876 74.784 5.74888 75.0277 6.44417 75.3414C7.34296 75.7475 8.62613 75.6999 9.58144 75.952C9.87538 76.0304 10.0534 75.8315 9.9743 76.3133L5.97499 75.6355L5.88738 75.9716L9.46273 76.8175H7.0801C7.09989 77.0584 7.84322 77.1144 8.03824 77.134C8.73353 77.2068 9.45991 77.1676 10.1552 77.2292C10.3813 77.2488 10.6131 77.0528 10.825 77.4085C9.50513 77.6382 8.23609 77.5878 6.91052 77.4925L9.46273 78.1676C9.46838 78.4533 9.55883 78.5345 9.22249 78.4925C8.51307 78.4028 7.78952 78.2516 7.0801 78.1676C8.00715 79.1787 9.51078 78.6241 10.5707 78.6577C11.5288 78.6857 12.5435 78.991 13.5497 78.8426C13.0183 79.5736 11.8058 79.0218 11.0879 79.0022C9.75385 78.9658 8.41132 79.0415 7.0801 79.0106L8.98225 79.7389L11.3366 80.0246C11.2688 80.5036 10.6894 80.1926 10.5707 80.1926H7.76126C7.83757 80.5428 8.95681 80.8677 9.20836 80.8677H12.8685C12.99 81.5231 12.323 81.0189 11.9471 81.0497C11.5373 81.0834 11.1162 81.3467 10.7233 81.3607C9.87256 81.3887 8.65722 81.0105 7.75843 81.0386C8.08064 81.5147 9.16596 81.6632 9.71993 81.708C10.6526 81.7864 15.3218 81.2682 15.5903 81.5455C15.7175 82.1785 14.9515 81.6912 14.5106 81.722C13.7814 81.7724 12.9476 81.9965 12.1817 81.9657L10.3106 82.3858H15.2483L13.968 82.7219H11.7577C11.4638 83.0356 9.79059 82.6099 9.8019 82.9768C9.81038 83.2093 11.9754 83.425 12.3513 83.5678C12.0234 84.2625 10.8392 83.495 10.4802 84.072L14.8187 84.4221L16.6078 84.2429C16.8876 84.4557 16.5908 84.551 16.3562 84.579C15.774 84.6518 15.0787 84.5342 14.4739 84.5734C14.2534 84.5874 14.0273 84.747 13.968 84.747H10.8166V84.9123C10.9777 84.8731 11.1614 85.0832 11.2433 85.0832H13.7136L12.5209 85.254C13.2783 86.5004 14.9063 85.296 15.8729 85.3072C16.2997 85.3128 16.6756 85.6209 17.1165 85.5901C16.9667 85.915 16.1499 85.8982 15.839 85.9206C14.3382 86.0215 12.8261 85.9963 11.3281 86.0971C11.7549 86.6741 12.6283 86.1951 13.1992 86.2652L12.6904 86.7693C13.1144 86.7861 13.544 86.7525 13.968 86.7693C14.1771 86.7777 14.6011 86.6405 14.5615 86.9374H11.8369L13.7079 87.8673L12.3485 88.1166C12.6904 88.1026 13.3857 88.4555 13.6231 88.4555H17.2833V88.6236H14.4739C14.3721 88.6236 14.0895 88.8589 13.8775 88.7944L14.3863 89.1278H12.6848C12.7922 89.4611 14.0697 89.8056 14.3015 89.8056H16.7717C16.7717 90.0913 16.2064 90.1277 16.0058 90.1445C15.0024 90.2257 14.016 90.0633 13.024 89.9764C13.6288 90.545 14.782 90.6291 15.5762 90.8195C15.6186 91.108 15.172 90.9988 14.9855 90.9848C14.6463 90.9568 14.3297 90.8335 13.9651 90.8111C13.7786 90.7999 13.3207 90.7019 13.3659 90.9848L15.579 91.4946L15.0674 92.1668C15.8645 91.7719 16.4269 92.8418 16.5145 92.8418H20.1747C20.0955 93.2032 19.8722 93.1107 19.6292 93.1359C18.004 93.3012 16.3675 92.769 14.7283 92.8446L16.1951 93.3292L19.1544 93.5197C18.9141 94.1443 18.0916 93.6877 17.8768 93.6877H15.4066L15.4207 93.6905ZM43.5176 24.3357H45.9003C45.7166 24.8371 44.374 24.0892 44.538 24.8399C45.3887 24.9659 46.2055 24.7362 47.0082 24.6746C47.1948 24.6606 47.6441 24.5514 47.5989 24.8399L45.7279 25.1788H48.7916C48.2886 25.9911 46.8669 25.3216 46.409 26.0219L49.812 27.3719C48.5288 27.3943 47.4096 26.5933 46.2366 26.1927C46.0472 26.3776 47.5622 27.8033 47.7798 27.9517C48.4214 28.3971 49.3032 28.5203 49.8741 28.9153C50.0776 29.0553 50.4677 29.7948 50.6627 29.5651C50.8379 29.3634 50.2727 28.9489 50.154 28.8032L50.4083 28.3859L51.0047 28.7192L50.6655 28.047L51.8583 28.2122L51.5191 27.7081H52.5394L52.2002 27.3663L52.5422 26.8622L51.8611 26.6941L52.7118 26.358L50.4988 26.6941C50.5129 25.8846 51.7791 26.3356 52.0307 25.683L50.2303 25.8342L50.0607 25.5037L49.648 25.683L49.8035 25.1872L49.4756 25.0107L49.8176 24.9239L49.4756 24.5065L49.8148 24.1676C48.3338 24.5598 45.4989 24.2405 47.1948 22.3134C47.9381 22.4646 49.5067 22.6439 50.2105 22.4758C50.4592 22.417 51.341 21.7056 51.5587 21.5935C51.8667 21.4339 53.0877 21.263 53.2206 21.1286C53.7576 20.5908 52.3557 21.0529 52.3698 20.8793C52.7655 20.5348 53.571 20.0558 53.8085 19.602C53.9498 19.3304 53.9102 18.6217 54.4105 18.266L53.3025 18.9382C52.986 18.5685 53.9582 18.1315 54.0685 17.8402L53.7293 17.6722C54.2465 17.112 55.0634 16.5686 55.0888 15.7311L54.0713 16.7423C54.0543 16.2913 54.5687 15.9776 54.7496 15.6415C54.987 15.2017 54.1391 15.7479 54.4133 15.3082C54.5716 15.0561 54.9955 14.9384 54.922 14.5463L53.7321 15.5574C53.5258 15.3334 55.1114 14.1149 54.7496 13.5323L54.1533 14.2074L54.0685 13.7032L52.6214 15.5574L53.2177 13.7032L52.7033 14.2074L52.4518 13.8713L51.5163 14.5435C51.7706 13.6164 52.0165 12.989 51.683 12.0142C51.033 12.2859 51.146 13.115 51.0019 13.7004L50.8323 12.8573C50.2953 13.143 50.3151 13.9777 50.3235 14.5435L49.4756 14.2074C49.3315 14.902 49.2015 15.6583 48.5118 16.0364C46.2366 15.3334 48.8567 12.9161 49.388 11.6781C49.6735 11.0115 49.9533 10.0255 49.9816 9.31688L49.6396 10.16L49.47 9.48774C49.2269 9.39811 49.3287 10.16 48.9641 9.82386C48.4384 9.33929 49.323 7.77074 49.2636 7.41502C49.2269 7.19374 48.8086 6.84643 48.9584 6.45149C48.8793 6.36746 48.1755 6.7736 48.1444 6.82402C47.989 7.08451 48.2999 7.6307 47.9381 7.6335C47.7826 7.14053 48.184 6.46269 48.1133 6.05935C48.0907 5.93051 47.7713 6.01734 47.7487 5.70083C47.7007 5.10142 48.0822 4.40398 47.9353 3.75415C47.5791 3.81577 47.8505 4.55243 47.2569 4.42639L47.0873 3.58329L46.9178 4.42639C46.5843 3.65612 47.1948 3.18556 47.0845 2.40408L46.5786 3.07912C46.6125 2.37607 46.9912 1.77387 46.3186 1.22488L45.5837 1.5806L45.5555 2.23883L45.2163 2.06797L45.383 3.24998L44.7132 3.24438L44.7047 2.743H44.3656L44.196 3.24718L43.854 2.57214L44.1903 3.92221L43.854 3.58609L42.9128 5.44034C42.3249 5.39272 42.7065 3.96423 41.9801 4.09307L42.3277 5.17985L41.6381 5.95011L41.1237 3.92501C40.8411 3.8774 40.9343 4.34236 40.9541 4.51322C41.0559 5.3255 41.7851 6.17419 40.468 6.25542C40.3493 6.18259 39.8999 4.77091 39.5918 5.10422C39.801 5.628 40.0271 6.00333 39.5918 6.45149H40.1062C39.9592 6.98367 39.8886 7.76234 40.0129 8.30293C40.061 8.5102 40.2447 9.11801 40.615 8.98357L40.3578 7.6363C41.6494 9.68941 40.6715 12.3923 40.9683 14.6247C41.087 15.5154 41.7031 16.6162 41.8981 17.5825C41.9999 18.0755 41.836 19.2547 42.2316 19.4452C42.6104 19.5208 42.633 18.9074 42.6556 18.6889C42.7347 17.8794 42.5086 17.1932 42.486 16.4089L43.1643 17.5881L42.828 15.395L43.3368 15.8992C43.43 15.0029 43.1757 13.7144 43.8342 13.0814C43.9303 12.7369 43.4526 12.4988 43.5007 12.1123C43.512 12.0226 43.8144 12.0394 43.8483 11.9078C44.0942 10.8938 43.5063 10.3084 43.495 9.74543C43.4866 9.26646 44.0349 8.73148 43.854 8.14047L44.0236 9.15162C44.7499 8.75108 44.1507 7.77915 44.1931 7.12652L44.7895 8.30573L44.8743 7.12652C45.1626 7.0537 44.9789 7.37581 45.0608 7.44583C45.1852 7.54947 45.8918 7.02008 45.7222 7.54387C45.4254 8.45418 44.6143 9.50175 44.7923 10.4961L44.3656 11.3448L44.7895 11.0087C44.9902 11.3868 44.2214 11.7761 44.2101 12.3083L44.5323 12.7761L44.0236 13.706L44.7895 12.8629L44.7047 13.5379C46.1631 12.8209 46.4034 10.9498 47.175 9.653C47.305 9.43452 47.1439 9.22725 47.5989 9.32248L46.4062 12.0198C46.9941 12.1375 47.2937 11.1319 47.4322 11.0115C47.5396 10.9162 47.8872 10.9835 47.7685 11.2608C47.3559 12.2159 45.6911 13.1346 45.0467 13.9637C44.5323 14.6275 43.6957 16.2605 43.5657 17.0504C43.5176 17.3417 43.6646 17.8458 43.6081 18.0139C43.5205 18.2744 43.2039 18.3668 43.1672 18.6973C43.1446 18.8934 43.3622 19.2099 43.3226 19.2631C43.2831 19.3163 43.0174 19.3248 42.9185 19.4536C42.8393 19.5572 42.9156 20.3555 42.4917 20.5516L42.8337 20.7168L42.3221 21.3078C42.5284 21.4871 43.8851 20.3919 44.1931 20.2407C44.374 20.1538 45.2389 19.8485 45.5526 19.7281C45.7561 19.6497 45.9851 19.8653 46.3299 19.6413C47.0139 19.1931 47.5961 17.3193 48.3677 16.7563C48.639 16.9131 48.3055 17.1344 48.2151 17.28C48.037 17.5601 46.7962 19.1063 47.5989 18.9494C48.4977 17.4845 49.3682 16.1288 50.7531 15.0701C50.9849 15.4118 50.4168 15.6527 50.284 15.9608C50.202 16.1569 50.3292 16.3865 50.2359 16.577C50.1144 16.8235 48.6023 18.2604 48.7945 18.4424C49.5943 18.1764 50.284 17.5965 50.9906 17.1596C51.1347 17.07 51.3608 16.7367 51.5163 17.0055C50.3179 18.0951 48.7323 19.0138 47.2598 19.7057C46.1999 20.2043 44.8036 20.2743 44.0236 21.2238L44.8771 21.1398L44.9563 21.4731L46.5786 20.6328L45.7279 21.3919C46.7114 21.6215 47.3587 20.1762 48.2801 19.9578L46.5786 21.5599C46.5503 21.686 46.751 21.672 46.8301 21.6412C47.9013 21.207 48.509 19.7337 50.0663 19.6133C50.2642 19.5992 50.4366 19.5824 50.2416 19.7869C49.7498 20.3051 48.6305 20.5656 48.2829 21.3022L50.8351 20.7112C49.453 21.686 47.4039 22.2826 45.7279 21.9801L46.4062 22.6523C45.3463 22.7055 44.5606 22.1957 43.6081 21.812L43.3424 22.1425L44.5323 22.6495C43.7353 22.7587 42.9382 21.7532 42.274 22.1453C42.1045 22.2462 42.1129 22.6859 41.4714 22.4814C41.3866 23.2433 42.2995 22.7643 42.4917 23.1537H41.1294C42.0027 24.0332 43.5855 23.0276 44.7047 23.4954L43.1728 23.6635L44.7047 23.8315L43.5148 24.3357H43.5176ZM30.4061 21.4675H32.9612C33.0827 21.2938 31.8193 20.8569 32.5287 20.7981L34.2359 21.4787L34.4083 21.1258L35.2703 21.63L35.5982 21.2994C35.8582 21.5907 36.0871 21.8792 36.5365 21.8036L35.3466 20.5376C35.9797 20.4591 36.562 21.5683 37.1357 21.9717V21.2994L37.8169 22.1425L37.9864 21.8064L38.5828 22.3134L36.1974 19.3612L36.285 19.1063C37.099 19.4396 37.4692 21.0726 38.4132 20.3723C37.3618 19.2883 35.8045 18.3892 34.4422 17.7282C33.2325 17.14 31.9578 16.8879 30.9233 16.1541L32.2828 16.577L31.6045 15.3978C31.8334 15.1681 32.5796 16.2101 32.8057 16.3193C33.5914 16.6974 33.3201 16.6722 33.8232 16.9999C33.9815 17.1036 34.5468 16.8879 34.7531 17.4201L34.9227 17.084L35.4342 17.5881L34.9227 15.902C35.7253 16.4902 36.2737 17.8542 37.1046 18.3052C37.2572 18.3864 37.5201 18.2632 37.5399 18.2856C37.961 18.7702 37.6586 18.9214 38.5319 19.6525C38.7326 19.8205 39.0322 20.7729 39.5212 20.9605L39.6059 20.4563C40.191 20.6496 39.7077 21.4423 40.1995 21.8036C40.7224 21.4255 40.1401 20.7981 40.2871 20.2883L40.9683 22.1425C41.6353 21.9689 40.7987 21.0081 40.9683 20.7925L41.6466 21.1286C41.8783 20.3191 41.2057 19.8765 40.9683 19.3556C40.7308 18.8346 41.6975 19.5488 41.4742 19.0222C40.9824 17.8542 38.4669 15.6891 38.3086 14.7228C38.2747 14.5211 38.32 14.171 38.4952 14.0421L38.922 15.2241L39.4307 14.8852L39.2555 15.4622C39.7981 15.6415 39.6512 16.1428 39.9395 16.507C40.126 16.7423 40.6037 16.451 40.7111 17.2604C40.9541 17.1176 41.3074 17.7702 41.4742 17.5853C41.8246 17.196 40.8524 16.4369 40.8241 16.3697C40.7252 16.1512 40.6008 14.8096 40.2447 14.1654C39.996 13.7116 39.5325 13.6024 39.4731 13.4959C39.3685 13.3139 39.4477 12.8937 39.3035 12.5688C39.1198 12.1543 37.8056 9.9443 37.9045 9.82386C38.2295 10.0255 38.351 10.2384 38.7467 9.99752C39.3064 11.0619 39.5833 12.5884 40.4567 13.3671C40.4765 12.6977 40.8693 11.3812 40.7704 10.793C40.6884 10.2972 39.9932 9.28047 39.8236 8.67826C39.5551 7.72873 39.7529 6.75399 39.1792 5.93891L39.2668 6.782L38.9248 6.27783L38.7609 6.66436C38.026 7.22176 38.0741 6.09296 37.3957 6.27783L37.2205 7.6279L36.8813 7.45704L36.7146 8.2273L36.2002 8.13207L36.5365 8.97516L35.519 7.79315C35.5897 8.43177 36.0447 8.89393 36.3669 9.39811C36.5789 9.72862 36.6241 9.70622 36.2821 9.98351L35.177 8.46819C35.1516 8.75949 35.1686 9.03398 35.2562 9.31688C35.6745 10.6557 36.4263 12.0534 37.0453 13.2803L36.5365 13.3643L36.8757 13.7844L36.5309 14.2046L35.8525 13.8713L36.3613 14.7144C35.2138 14.0477 34.5072 12.8349 33.9758 11.6781L33.8062 12.0142H33.4699L32.8707 11.1739C32.4298 11.6137 33.7215 12.2495 33.4671 12.524L32.6192 11.849V12.8601L31.7656 12.5268L32.6163 13.5351L30.4033 12.0198L31.0844 12.8601L30.0641 12.1879C29.9059 12.8685 30.2281 12.8013 30.5729 13.199C29.1484 12.7985 30.115 13.6668 30.0613 13.706L27.8483 12.6949C27.5487 12.9918 28.8177 13.5744 29.0382 13.5407L28.5294 13.8741C28.6453 13.8741 29.6911 14.2886 29.3773 14.5491L27.3339 13.8769C27.6222 14.4651 28.2355 14.6891 28.8658 14.72C28.9081 14.9692 28.6114 14.874 28.4531 15.0701C28.2496 15.3222 28.4983 15.6359 27.8454 15.6471L28.8658 16.0728L28.357 16.2409C28.5407 16.6918 29.1088 16.7535 29.5469 16.7479L29.0382 16.9159L29.8889 17.4229C29.9793 17.6554 29.2021 17.5741 29.5497 17.9243C29.7843 18.1595 34.1228 18.6861 33.5603 19.6189C32.704 20.2211 31.1523 19.9214 30.2309 19.6161L30.4005 20.2883L27.8483 19.7841C27.6787 20.4143 28.6312 20.0418 28.6962 20.4563L26.9919 20.5432C27.7663 20.9829 28.6594 20.9605 29.5186 20.9941L29.7165 21.4703L28.1846 21.7252C28.4955 22.291 29.5667 21.7924 29.6911 21.84C29.7504 21.8624 30.0557 22.5683 30.7368 22.319C30.6238 22.7952 29.4989 22.1845 29.3773 22.319L29.3886 22.7027L28.8658 22.826L30.0557 23.2461L29.5441 23.8343C30.4287 23.9155 31.4773 23.2993 32.3083 23.6803C32.54 23.7867 32.297 24.1844 33.1194 23.8371L32.0991 24.5093L33.9702 24.0052L33.5462 24.6802C34.185 24.739 34.9029 24.0472 35.4258 24.0108C35.8525 23.98 36.4856 24.2236 37.0368 24.0052L36.8644 24.3413C37.8649 24.0808 38.5517 24.0556 39.589 24.1732L38.7043 23.0304L37.8027 22.994L37.8903 22.6579L32.2715 22.8232L35.4201 22.3134L35.6773 21.9801C34.2472 21.672 32.7746 21.9297 31.336 21.8092C31.1297 21.7924 30.4231 21.7476 30.3976 21.4731L30.4061 21.4675ZM28.0235 22.3134C26.3418 21.8932 24.5584 21.8988 22.8202 21.9689C20.6128 22.0585 18.1199 22.3974 16.051 23.1929C15.7712 23.2993 14.7254 23.7951 15.0787 24.1704C20.2792 25.218 25.802 26.5821 31.0958 25.4393L31.1014 24.7838L31.596 24.4253C31.4773 24.1004 30.327 24.3581 29.8522 24.2965C28.7725 24.1564 27.5995 23.5402 28.0207 22.3162L28.0235 22.3134ZM42.6641 25.1788C42.5539 25.2852 41.3216 23.5402 40.7959 24.4197L44.114 28.8901L43.8596 27.8789L44.538 28.554L44.4532 27.8789L45.3944 29.0581L45.8155 28.554L47.1806 29.9012L46.4147 28.5511L47.1806 29.2262C47.3135 27.9854 48.0342 29.6323 48.7973 29.3942C49.0912 29.1702 45.01 25.9014 44.7952 25.5149L44.6284 26.0191C44.131 24.9911 43.3339 25.5317 42.7517 24.6718L42.6669 25.176L42.6641 25.1788ZM37.3872 25.0135C33.4529 25.5177 29.5497 26.5961 25.5476 26.3692C21.944 26.1647 18.1595 25.1676 14.57 24.7614C14.4908 25.1088 14.8159 25.0499 15.0448 25.1256C15.7457 25.358 16.9809 25.6297 17.5885 25.907C17.6253 25.9238 18.0295 26.4336 18.1453 26.5288L16.6134 26.3636C16.2488 26.6297 19.0809 26.9966 19.3381 26.8706C19.0243 27.5204 18.233 27.0834 17.7186 27.0386C17.5348 27.0218 17.0826 26.9182 17.1278 27.2039C18.2499 27.5428 19.4568 27.3019 20.6156 27.3775C24.9314 27.652 29.5384 27.8005 33.8515 27.1619C35.2336 26.9574 37.2318 26.6829 37.3872 25.0163V25.0135ZM39.0887 24.6746C38.1843 24.613 37.9243 25.6942 37.7292 26.3608C38.026 26.2936 39.2413 24.8175 39.0887 24.6746ZM14.2308 41.0407C15.856 41.3796 15.2992 40.5869 16.3873 39.8867C17.549 39.1388 19.5783 39.0744 20.9152 39.2256C21.6189 39.3069 22.6195 39.8643 23.3063 39.6598C23.5494 39.587 23.8376 39.1612 24.1598 38.982C25.0502 38.4862 27.2915 37.8196 27.4808 36.7076C27.5006 36.5871 26.9919 35.0718 26.989 34.5452C26.989 32.7302 27.8765 30.2625 29.4028 29.159L31.0901 28.0498L25.1321 28.3859L25.3837 28.722L26.8336 28.8901C25.9037 28.9965 24.7364 28.7584 23.8433 28.8789C23.4052 28.9377 23.7839 29.0805 22.6619 29.0609C21.1498 29.0357 19.6546 28.9377 18.151 28.8929C18.069 29.3774 18.2584 29.1702 18.5439 29.2514C19.4229 29.5007 20.4686 29.6519 21.3844 29.736C21.4296 30.0161 20.9717 29.918 20.7823 29.9096C20.3386 29.8956 19.9881 29.7668 19.5924 29.736C19.4059 29.722 18.9565 29.6127 19.0017 29.9012C19.567 29.8256 19.7055 29.9628 19.9514 30.4166L21.0424 30.2429L20.364 30.5763L22.0655 30.7499C22.0938 31.0496 21.4918 30.9292 21.3052 30.9124C20.4488 30.8451 19.5133 30.5594 18.6626 30.411C18.298 30.7079 19.3805 30.9656 19.5105 31.002C21.3985 31.5342 23.4052 31.3381 25.3017 31.7583L24.9625 31.4249L27.0032 31.5062L25.6437 31.7611L25.9829 32.0944C22.7241 32.2288 19.5585 31.4137 16.4495 30.5791C16.3506 31.0104 16.5682 30.8732 16.7689 31.016C17.2155 31.3297 17.7412 31.4838 18.151 31.8451L15.9379 31.2541C15.9464 32.128 16.9526 32.268 17.3003 32.9403C16.8282 33.0775 15.579 32.2876 15.3388 32.3129C15.0363 32.3437 14.8667 33.1111 13.8945 32.268C13.6005 32.5761 15.9408 34.3884 16.2771 34.548C15.8192 34.8169 13.9962 33.1728 13.8945 33.282C13.9595 34.1419 16.0114 34.6937 15.7627 35.5396L15.4264 35.6488L16.1047 36.321C15.627 36.2342 15.0985 35.8757 14.6887 35.6152C14.2534 35.3379 13.2727 34.436 12.9505 34.2987C12.0573 33.915 13.8719 35.674 13.7164 35.8169L12.5265 35.2259L15.5903 37.8392C14.1206 37.8924 12.6198 35.8029 11.5853 35.4808C11.4977 35.4527 11.3084 35.4359 11.3338 35.562L12.8657 36.828C12.0913 37.0157 11.8001 35.9709 11.1642 36.069C12.2778 37.2062 13.5327 38.3405 15.0787 38.8559L14.8413 39.1752L13.1229 38.3461L14.0584 39.3573L11.8454 38.8531C12.2637 39.741 13.7532 39.8811 14.3156 40.5365C14.5869 40.853 13.8436 40.4805 14.228 41.0435C12.8289 40.7522 11.6221 39.6122 10.1411 39.5254C10.4209 40.36 14.5135 42.4692 14.9091 42.0546L14.8865 41.4048C14.5841 41.2816 14.4371 41.346 14.2308 41.0435V41.0407ZM35.0046 32.4361C35.0442 31.8927 35.519 31.5314 35.7169 31.0356C36.9859 27.8565 33.1251 27.47 30.9714 28.5231C28.8742 29.5483 27.5458 32.5986 27.8935 34.8393C28.0744 36.0157 29.1851 36.5395 30.2337 35.8925C29.7985 35.4443 29.2445 35.7889 28.716 35.3771C28.3909 35.125 28.1252 34.5424 28.1959 34.1223C28.7612 34.0439 28.8714 34.8813 29.2134 35.0494C30.0585 35.4611 31.7854 34.6461 32.6192 34.2903C32.5146 35.2147 30.7594 34.943 30.9177 35.9765L33.1279 35.3043C33.2212 35.7524 33.012 35.5956 32.7916 35.7244C32.3563 35.9793 31.8589 36.1474 31.4264 36.3995C31.6469 36.9036 33.4614 36.3547 33.9787 36.5675C33.6225 36.884 33.3286 37.2818 32.947 37.5703C32.7972 37.6823 31.4434 38.2005 31.7656 38.5086L35.341 36.6544L33.3003 38.3433L33.3851 38.6795C34.185 38.7383 36.7485 36.2034 36.3613 35.1334L36.0249 35.0522C36.6467 34.5312 36.8163 33.4669 35.8525 33.3632C36.692 32.3353 37.1272 31.0468 36.7004 29.7332L35.6519 31.8115L35.0018 32.4333L35.0046 32.4361ZM37.7264 31.2541C37.6953 30.7219 37.8084 29.4615 37.0481 29.3998C36.9435 29.5231 37.2714 31.1925 37.7264 31.2541ZM38.5772 30.918C38.3086 30.6659 38.286 30.974 38.221 31.1504C37.6671 32.6266 38.6676 33.5061 38.7383 31.9879C38.7496 31.7555 38.7015 31.0328 38.5772 30.918ZM37.3844 31.7611C37.0255 31.3941 36.285 33.1952 36.9605 33.4444C37.5512 32.9851 37.554 32.4165 37.3844 31.7611ZM37.7292 35.4723C38.6365 34.8897 39.035 33.6433 39.0887 32.6042C38.792 32.649 38.7948 32.9431 38.7043 33.1475C38.3652 33.9094 37.9893 34.6797 37.7321 35.4723H37.7292ZM35.0046 38.3405C37.4353 38.2229 40.0412 35.6068 39.7699 33.1111L38.498 35.478C37.5173 36.6628 36.1917 37.3994 35.0046 38.3405ZM43.6901 37.8364C43.9586 36.9821 44.0462 35.7833 42.9298 35.6348C42.5171 35.5788 41.5137 35.5956 41.1237 35.7188C40.9513 35.7721 38.4245 37.7103 38.2436 37.926C37.5879 38.7019 37.3872 39.6374 37.2375 40.6093C37.3477 41.0743 39.3177 40.8894 39.7699 40.8754C39.8716 41.3908 39.3714 41.1471 38.9955 41.3712C38.8626 41.4496 38.6365 41.7241 38.58 41.8866C39.4957 42.0042 40.2928 41.4776 41.1322 41.2143C41.2622 41.7605 40.256 41.6933 40.6178 42.1471C40.875 42.4664 42.5086 43.1498 42.8817 43.049C43.5148 42.8781 43.7183 41.6373 42.4945 42.2283L43.1757 41.6373C43.3028 41.3404 42.4041 41.3936 43.0993 40.7186C43.4018 40.4273 44.1338 40.3993 44.2045 39.783L43.9388 39.3601C43.8568 39.3433 42.9156 40.0407 43.1785 39.4469C43.3255 39.1108 44.3599 38.2369 44.6171 37.8336C44.9421 37.321 44.9845 36.73 44.798 36.1502L44.1988 35.9849C44.1847 36.6179 44.3684 37.4806 43.6901 37.8392V37.8364ZM28.8742 36.4863C28.9929 37.377 30.2196 37.2678 30.7425 36.7384C30.7453 36.3491 29.1851 36.5087 28.8742 36.4863ZM31.938 37.3322C31.3727 37.1025 30.8103 37.1641 30.2818 37.461C30.0924 37.5675 29.9906 37.447 30.0641 37.8336C30.7679 38.2005 31.7515 38.2845 31.9352 37.3322H31.938ZM45.7307 39.0156C46.3242 39.0856 46.604 37.7075 46.1518 37.5003C45.8127 37.3462 45.8861 37.8448 45.8466 38.0352C45.7787 38.3629 45.6798 38.6767 45.7279 39.0156H45.7307ZM29.383 39.5226C29.4141 38.8475 30.1376 38.2901 29.1314 38.0044C28.7668 38.08 28.6368 39.6346 29.383 39.5226ZM11.3338 39.5226L9.29315 38.1753C8.9766 38.5198 10.8674 39.7298 11.3338 39.5226ZM28.1705 38.1949L27.5063 38.2593C27.5939 38.545 27.8454 39.6038 28.2722 39.5226C28.8092 39.1584 28.1365 38.6627 28.1676 38.1949H28.1705ZM26.1496 42.5616C26.3616 41.6569 27.3593 41.2227 27.5006 40.2732C27.902 37.5871 25.4035 38.7747 24.1175 39.6206C22.6817 40.5645 22.4047 41.7297 22.5743 43.4047L23.5946 43.0686C23.75 43.3991 23.5889 44.0041 23.6709 44.2562C23.7189 44.399 24.5668 45.6035 24.6827 45.7799C25.1971 46.5474 25.2989 47.2476 26.4973 46.8751C26.7205 46.8051 26.8986 46.5446 27.1247 46.4858C27.6278 46.3541 28.0207 46.5474 28.5972 46.2561C29.5921 45.7547 30.4089 44.2814 31.2569 43.5784C31.0194 44.8136 29.6628 45.7239 28.764 46.5054C28.3937 46.8275 28.3514 47.4689 27.5119 47.2924C27.6391 47.861 28.5435 47.3177 28.9308 47.0936C30.4768 46.1945 32.068 44.0181 32.28 42.2283L31.6017 43.0714L31.1749 42.063C30.3976 43.0406 29.8804 44.245 28.7894 44.9284C28.7244 44.357 29.5356 43.9509 29.8691 43.4663C30.1178 43.105 31.0534 41.458 30.5842 41.1219L29.7278 41.2171V40.374L28.7103 40.3825C28.7386 41.0967 28.2694 41.825 27.6843 42.2311C27.6476 42.0154 28.7386 40.0043 28.1083 40.0407C27.9472 40.0491 26.8929 42.4888 26.1524 42.5672L26.1496 42.5616ZM31.0873 39.0184C30.457 39.024 30.1744 40.2032 30.6661 40.5337C31.1268 40.7522 31.1297 39.1976 31.0873 39.0184ZM34.4478 39.3825C33.3879 39.5394 32.7266 40.853 33.5575 41.7129C34.0013 41.4328 35.8751 39.1724 34.4478 39.3825ZM33.6423 42.7297C33.9702 42.7997 34.0493 42.5644 34.2217 42.3767C34.8633 41.6765 35.861 40.4777 35.8554 39.5254C35.2675 40.0155 34.999 40.7578 34.5665 41.3656C34.2387 41.8249 33.566 42.0826 33.6451 42.7297H33.6423ZM19.8496 41.8838L20.1181 39.8503C18.8152 39.2957 16.8961 39.9959 16.0934 41.1191C15.904 41.3852 15.2935 42.8417 15.2596 43.1694C15.2059 43.696 15.3557 44.0881 15.4235 44.5867C15.9408 45.1273 15.7034 43.2927 15.7627 43.2366H16.2715C16.2828 43.8669 16.3873 45.2001 16.8 45.6707C17.0431 45.948 17.3624 45.8976 17.4274 45.9732C17.5377 46.0992 17.3992 46.4718 17.7101 46.7911C18.134 47.228 18.9339 47.3625 19.5133 47.2084C20.2086 47.0207 22.6562 44.9536 21.6359 44.0853L19.6801 45.9368C19.9373 44.7464 21.6472 43.8949 21.4663 42.5616C21.3448 42.9089 19.5133 45.2477 19.1685 44.9228L20.7343 43.0182C20.9915 42.528 21.6048 40.8026 21.2996 40.3628C20.5195 39.2453 20.6749 42.0714 19.8496 41.8838ZM31.4293 41.8838C32.3167 41.8109 31.9013 40.4217 31.7656 39.8615C31.5141 39.9119 31.2823 40.6149 31.2597 40.8054C31.2116 41.2087 31.3388 41.514 31.4293 41.8866V41.8838ZM33.4727 43.9089C33.6536 44.1049 35.1799 42.5028 35.341 42.3011C35.748 41.7913 36.2737 41.0099 36.3641 40.3656C35.6603 40.937 35.2647 41.8109 34.6626 42.4748C34.2726 42.9033 33.371 43.133 33.4727 43.9089ZM36.3245 42.6904L36.2821 41.8866C36.1154 42.1863 33.7893 44.5867 33.9843 44.7548C34.2217 44.9592 34.4054 44.6735 34.5439 44.5475C35.1318 44.0041 35.6292 43.1414 36.3245 42.6932V42.6904ZM40.2815 42.0546C40.2249 41.9986 39.459 42.2899 39.2979 42.3515C39.1679 42.3991 38.7665 42.3263 38.922 42.6456C39.1509 43.1134 40.0327 43.1694 40.3747 42.7409L40.2815 42.0574V42.0546ZM48.7945 45.2617C48.9782 43.5756 48.6871 42.8137 46.9234 42.5616L48.0229 43.5812L48.7945 45.2617ZM36.8757 43.0686C36.7372 42.9201 36.1578 43.5812 36.0334 43.7072C35.9034 43.8444 35.0357 44.8024 35.1742 44.9228C35.7762 45.1553 37.1272 43.3403 36.8757 43.0686ZM40.2815 43.5728C40.8722 43.7968 41.4968 43.7912 41.9801 43.3207C41.9858 43.0042 40.1627 42.7801 40.2815 43.5728ZM40.3662 48.973C41.2226 49.1215 42.4408 48.8638 43.3452 48.973C43.382 49.2195 43.0456 49.2083 42.8676 49.2587C41.5024 49.6453 40.3775 49.5136 39.0887 48.9758C38.7383 49.2979 40.2362 49.8721 40.4397 49.9142C41.1237 50.0486 41.8049 49.973 42.4917 49.9898C42.7687 50.1971 42.4917 50.2951 42.2401 50.3259C41.2396 50.4519 40.2475 50.169 39.2583 50.1578C39.7586 51.4827 42.0055 51.099 43.1728 51.1718C43.0287 51.4407 42.1751 51.5079 41.9038 51.5135C41.0841 51.5303 40.3973 51.3398 39.5975 51.3398C39.1311 51.676 42.1497 51.858 42.4154 51.8496C43.1191 51.83 43.9925 51.5975 44.7047 51.5079C44.5973 51.774 43.0683 52.1801 42.9156 52.1801H40.1062C40.1317 52.8356 41.1915 52.9868 41.7172 53.0288C43.4215 53.1661 45.0693 52.4938 46.7482 52.3482L44.5691 53.1409L41.6409 53.5302C41.6409 53.6871 41.7936 53.7879 41.9349 53.8271C45.3604 54.7682 51.3212 51.4015 52.5422 48.0459C52.2596 47.6762 52.2511 48.0683 52.1494 48.1748C50.8888 49.5164 49.8431 51.2474 47.9409 51.8384C49.1449 50.8189 50.4422 49.8581 51.3156 48.5193C51.488 48.2588 52.1437 47.0852 52.1946 46.8555C52.2681 46.5194 52.2539 46.3653 51.8611 46.4409C51.1517 48.5333 49.4248 50.1522 47.6046 51.3342C47.5254 51.0037 47.777 50.9337 47.9607 50.76C49.4615 49.326 51.1828 47.9675 51.6802 45.8387C51.7396 45.315 51.3467 45.8668 51.2817 45.9508C50.1059 47.4493 49.4982 49.4296 47.435 50.1522C48.2207 49.1243 49.3597 48.3764 50.0579 47.27C50.4394 46.665 51.6548 44.4102 50.4988 44.2478C50.5186 46.1496 49.4332 47.637 48.0285 48.8022C47.8363 48.9618 47.7515 49.2111 47.4322 49.1383L49.4474 46.665C49.9052 45.5362 50.9312 43.4215 49.1336 43.0658C49.6226 44.8248 49.0602 47.0656 47.6837 48.2952L48.1077 47.116L47.2569 47.7042C48.3705 46.2813 48.5966 43.0602 46.067 43.4047C45.9144 43.5391 46.9234 45.1105 47.0082 45.4242C47.3898 46.8751 46.2847 47.6314 45.3859 48.5529C45.0298 48.7461 45.2728 48.298 45.3491 48.1776C46.197 46.8247 47.0676 46.9059 46.3214 44.9256C46.2677 44.7856 45.8211 43.8445 45.5555 44.0825C45.2417 44.6735 45.7561 44.7296 45.937 45.1357C46.1801 45.6819 46.0868 46.1973 45.6374 46.609C45.1569 46.6874 45.6713 46.0264 45.6939 45.8079C45.725 45.5194 45.7166 45.441 45.4678 45.2617L44.7047 45.7659L44.8715 44.7548C43.9529 44.9788 43.1898 45.6875 42.209 45.7547C41.5138 45.8023 39.9988 45.0377 39.9451 46.0096C39.8942 46.9115 40.9767 47.5557 41.8077 47.4521L40.9541 47.791L41.2933 48.2952L39.2527 47.791C39.2329 48.3512 39.8547 48.8834 40.3578 48.973H40.3662ZM44.8771 43.2366L42.9495 44.4467L42.4945 44.9228C42.9524 45.0965 45.2276 43.5756 44.8771 43.2366ZM27.3395 48.466C28.3203 48.5473 29.2586 47.8834 29.9822 47.2896C31.1099 46.3709 32.3846 44.85 32.6163 43.4047C31.7628 44.5867 31.1325 45.8163 29.9822 46.7827C29.1173 47.5109 28.1507 47.7434 27.3395 48.4633V48.466ZM35.6858 49.1411C35.8865 48.1047 36.333 47.186 35.6858 46.1861C35.5445 45.9676 35.0103 45.4522 34.7446 45.4242C33.2636 45.2701 32.5344 47.0992 31.6017 47.875C30.5079 48.7826 28.7979 49.2979 29.1201 51.1746C29.4254 51.6003 30.5559 50.9673 30.4089 51.6676L28.8855 51.8468C28.8177 52.393 28.8064 53.0933 29.4819 53.1913C30.0161 53.2669 30.5305 52.7851 30.9177 53.2725C30.5164 53.561 29.561 53.3145 29.5582 54.0288L31.4293 53.8635C30.4429 54.8243 32.2433 55.1492 32.9668 54.7934C33.2297 54.6646 33.2579 54.2613 33.3258 54.2136C33.4134 54.152 33.9532 54.5554 34.657 54.1072C36.4602 52.9616 38.2776 49.2979 38.3737 47.1916L37.7292 46.9451C37.5455 48.4885 37.0905 50.2531 35.6858 51.1634C35.6716 50.7152 36.1295 50.578 36.3274 50.1971C36.7004 49.4716 37.7745 46.567 37.1781 45.9732L35.8582 45.8471C36.6157 46.6762 36.6807 48.4492 35.6886 49.1383L35.6858 49.1411ZM18.8265 48.2952C19.0752 48.3092 19.2448 48.466 19.5105 48.3988C19.8468 48.312 22.1305 46.4297 21.8903 45.7659C21.065 46.9479 19.7535 47.2812 18.8265 48.2952ZM32.2772 45.7687C32.1585 45.6483 31.2032 46.5698 31.0901 46.693C30.7877 47.0236 30.5446 47.4605 30.2337 47.791C30.4909 48.0235 32.3676 46.3037 32.2772 45.7687ZM22.7438 46.4437C22.4442 46.1609 21.2459 47.4633 21.0424 47.707C20.8841 47.8975 20.6297 47.9787 20.7032 48.298C21.2346 48.4801 23.018 46.6986 22.7438 46.4437ZM23.425 50.3231C23.7076 49.3708 24.6658 48.6369 23.5098 47.8246C21.8111 48.0515 21.0706 51.5079 22.139 52.3678C22.6675 52.7936 23.5352 51.4435 23.7642 51.6732C23.8376 52.3594 22.3905 52.6731 22.5743 53.2725C23.066 53.8831 23.7076 53.2081 24.2757 53.1913L23.2554 53.8663C23.36 54.4629 24.1316 53.9139 24.2757 54.0344C23.6426 55.0847 25.2169 55.0371 25.9348 54.7486C26.3559 54.5806 28.0122 52.3678 28.1903 51.9196C28.3061 51.6255 28.0376 51.6283 27.8539 51.6704C27.3508 52.6927 26.2825 54.0904 25.1265 54.3677C26.7036 53.1045 27.9528 51.5919 28.0207 49.4772C26.9919 49.2643 27.3423 50.0094 27.0823 50.6564C26.7516 51.4883 26.1779 52.2165 25.5504 52.8496L26.6668 50.7516C26.8901 50.1746 27.0738 49.1551 26.1666 49.3288L25.4656 50.3203C25.5109 49.7881 25.9263 49.3652 25.3469 49.001C24.2955 48.3372 24.1909 49.9478 23.4222 50.3203L23.425 50.3231ZM42.8365 54.7094C45.0524 54.9307 47.0704 54.152 48.9697 53.1101C50.3433 52.3566 51.8356 51.4435 52.2002 49.8161C50.4818 51.4603 48.0653 53.2893 45.7335 53.9504C44.846 54.2024 43.9953 54.2417 43.0937 54.3761C42.7969 54.4209 42.8054 54.2865 42.8393 54.7094H42.8365ZM34.4931 54.8775C34.8746 55.264 36.6128 53.4154 36.87 53.1017C37.5851 52.2306 38.286 51.1634 38.2352 49.9842C37.2374 51.1326 36.6637 52.5975 35.5953 53.6955C35.2251 54.0764 34.3489 54.2276 34.4902 54.8775H34.4931ZM45.7307 55.0455C46.7482 55.0988 47.7402 54.7542 48.6277 54.2921C48.916 54.1408 50.968 52.8412 50.6655 52.5163L48.3988 53.8971L45.7307 55.0455ZM26.8308 54.7094C27.4158 55.1996 29.2784 53.4182 28.1055 52.858L26.8308 54.7094ZM25.8076 55.5553C23.8066 56.1351 22.8682 54.5442 21.4748 53.5386C18.0832 54.3733 16.4721 56.9026 17.5575 60.2721C18.2075 62.2832 19.5642 63.0787 21.6585 63.2972C21.8451 63.3168 22.2718 63.4484 22.2323 63.1515C21.992 63.0339 19.9033 62.5325 20.4488 62.1376C20.8417 61.8519 21.7744 62.5577 22.334 62.6278C22.9869 62.709 23.4872 62.5689 24.1061 62.4765L23.767 63.1487C24.7082 63.2524 24.4764 62.4317 24.2729 61.7987C23.4674 62.0312 22.8145 62.0984 22.0542 61.7174C21.8055 61.5914 21.6416 61.7174 21.7235 61.2945C22.1079 61.1825 23.832 61.8827 23.9366 61.3757C24.0666 60.7399 22.0853 60.9864 22.2351 60.1125C22.5912 60.0313 23.9366 60.7539 23.9337 60.0285C23.9337 59.754 23.0576 59.8912 23.2582 59.5243C24.1429 59.1405 23.945 58.3983 24.3068 57.6925C24.4594 57.3927 25.915 55.6477 25.8104 55.5581L25.8076 55.5553ZM48.6249 59.7708C49.258 58.9193 50.8182 58.1462 51.098 57.0762C51.341 56.1547 51.4937 53.6562 49.9872 54.2024C50.3066 55.2668 50.544 56.0091 49.9844 57.0706L49.6452 56.8213C49.9476 56.1771 50.3038 55.3452 49.5661 54.8635C48.5655 54.2108 48.6305 56.0035 48.4638 56.4908C48.2151 57.2079 47.4293 57.5244 47.435 58.2526L48.6249 57.9165L48.7069 58.4207L49.3032 58.0846C49.5943 58.3647 48.3196 58.9529 48.1925 59.0901C47.2908 60.0789 48.9443 60.7931 50.0692 59.768C50.2557 59.5971 51.4484 58.0062 51.5163 57.8269C51.6293 57.5384 51.2873 57.4852 51.1799 57.5776C51.0725 57.67 50.6457 58.5523 50.332 58.8493C49.9561 59.2022 49.1506 59.74 48.6221 59.768L48.6249 59.7708ZM32.6192 56.3956C32.6813 56.0987 32.4637 55.9783 32.2828 55.8046C32.0143 55.5469 30.3383 54.2837 30.067 54.5414C29.7956 55.3116 32.3591 56.6337 32.6192 56.3956ZM34.1511 55.0511C34.1143 54.9979 33.6197 54.9279 33.4643 54.9503C33.3088 54.9727 32.4807 55.1856 32.6192 55.4685C32.9018 56.0483 34.6089 55.7066 34.1482 55.0511H34.1511ZM50.3292 60.1097C52.2313 59.3814 53.2177 56.9222 52.5394 55.0483L52.1126 57.4067L50.3292 60.1097ZM30.3355 58.5215C30.7114 58.051 31.6921 57.1855 31.271 56.6421C31.1212 56.4488 29.3604 55.306 29.089 55.2528C26.5707 54.7738 23.7952 58.628 24.8721 60.9668C25.8557 61.2805 26.6612 61.3589 27.6843 61.1264L25.9857 61.8827C26.4605 62.5661 27.3084 62.2412 28.0235 62.3056L27.0032 62.6418V63.1459L29.2162 62.807C29.2558 63.3924 29.3745 63.9918 30.0217 64.1291C31.2512 63.6921 32.6163 62.7258 33.4727 61.709C32.8425 61.3701 32.3902 62.5969 31.7713 62.3869C32.3507 61.9667 34.2387 59.964 34.1539 59.3534C34.1284 59.1658 33.9363 59.0733 33.7243 59.2638C32.899 60.0033 32.2037 61.7006 31.0901 62.3028C30.9742 61.8379 31.1551 61.9163 31.3021 61.7483C32.003 60.936 32.7237 60.2721 33.2692 59.317C33.4049 59.0789 34.1171 57.6953 33.9843 57.5804C33.9645 57.5636 33.4332 57.4908 33.4784 57.7009C33.4586 58.2526 32.9809 58.9249 32.6163 59.345C32.4185 59.5747 31.1834 60.7007 30.9997 60.7819C30.9262 60.8155 30.7199 60.8239 30.7481 60.7007C31.2342 60.2301 33.2636 58.2695 33.1138 57.6981C33.0742 57.5524 32.6955 57.1883 32.6248 57.2415C32.6785 57.5692 31.6186 59.4403 31.2597 59.0957C31.5875 58.5131 32.2828 57.7849 32.0256 57.0734L29.6402 59.6027C29.4339 59.2162 30.1461 58.7568 30.3355 58.5187V58.5215ZM47.093 57.5776C47.7318 57.2079 48.5316 56.0399 47.8589 55.3873C47.2852 55.6982 47.6639 56.0427 47.5735 56.4348C47.483 56.827 47.0789 57.1407 47.093 57.5776ZM44.8771 57.9165C45.3011 56.306 43.0259 55.3732 41.7399 55.5609C41.4544 55.6029 41.2396 55.8102 41.0107 55.8522C40.0158 56.0315 38.8089 56.0035 38.0684 56.8998C38.7072 56.897 39.2555 56.5104 39.8716 56.4096C40.044 56.3816 40.4963 56.2752 40.451 56.5637C39.5127 56.446 38.6761 57.4124 38.0599 57.6616C37.8366 57.7513 37.6134 57.5692 37.3929 57.6616C36.2454 58.1322 36.8333 60.5915 36.7231 61.611L38.238 61.7959C38.5008 60.6699 37.1668 60.6895 37.2177 59.7736L37.814 60.1069L38.58 59.0985C38.3369 59.6363 38.8541 60.1461 38.8909 60.3982C38.922 60.6055 38.6111 60.7959 38.58 61.0452C38.4754 61.8631 39.4279 62.4149 39.7699 63.0647L38.7496 63.3168C38.6761 65.0394 40.061 64.6557 41.3018 64.6669L39.9423 65.003C39.5692 65.3559 41.7257 66.1626 41.8953 66.171C42.2316 66.1878 42.6386 65.8461 43.0061 65.8461C43.0061 65.3307 42.4973 64.9946 42.0677 65.3391L41.9858 65.0086C42.8167 64.7789 43.8144 64.3728 44.5238 63.8938C45.0015 63.5717 45.2135 63.2272 45.5752 62.9107C46.0218 62.5213 46.7736 62.5689 46.5814 61.6334C45.9625 61.5522 45.7363 62.1488 45.2756 62.4457C44.6199 62.8686 43.772 63.4036 43.0061 63.4877C42.8308 63.356 46.4599 61.7483 46.0699 60.7903C45.4057 60.6951 45.1626 61.4037 44.6991 61.7062C43.8031 62.2916 42.3673 62.8602 41.3046 62.8995C42.8704 62.1684 45.0524 61.6166 45.7307 59.8632C45.3209 59.2806 44.993 59.9864 44.5945 60.2525C43.642 60.8912 42.4917 61.5942 41.4233 62.0031C41.2565 62.0676 40.9061 62.2776 40.7959 62.0564C41.6579 61.4261 44.8404 60.1069 45.2219 59.1854C45.3463 58.8801 45.0241 58.8773 44.8234 58.9585C44.2073 59.2078 43.3707 60.471 42.3306 60.2833C42.8817 59.4851 45.2163 59.3562 44.2864 58.0902L43.9755 58.1154L42.503 59.2722L43.5233 58.0034C43.6137 57.5972 42.9382 57.5412 42.6726 57.5832C42.9863 56.9418 42.6782 56.7989 42.503 56.2359C43.0513 56.1519 43.3989 56.6057 43.5459 57.065L44.2016 56.9082C44.1705 57.3647 44.4843 57.7373 44.8828 57.9221L44.8771 57.9165ZM34.835 61.2917C35.2562 61.7539 36.073 59.0761 35.8554 58.7624L35.0922 60.1125L34.835 61.2917ZM54.4726 62.695C54.549 62.5773 54.8599 62.6138 54.9305 62.2216C55.069 61.4654 54.7666 60.2637 54.1278 59.8016C53.9554 59.6755 53.1471 59.2638 52.9888 59.2918C52.4801 59.726 52.09 60.1573 51.5078 60.5214C51.1545 60.7427 50.5412 60.8323 50.3264 61.0396C50.1116 61.2469 49.8431 62.1404 49.6424 62.4709H49.306C49.4728 62.3337 49.9448 61.0732 49.3937 61.2917C48.5175 62.1936 47.4096 63.4204 48.7069 64.4988L52.0307 66.1822C52.5083 65.6948 49.8855 64.2775 50.4027 63.4821C50.5101 63.3168 52.285 62.2664 52.5394 61.7959C52.709 62.6502 51.9798 62.7286 51.5219 63.23L51.9798 63.6333C52.7062 63.8238 54.3398 61.7987 54.0741 60.9528C54.9588 61.6194 54.0204 62.877 53.3958 63.4008C54.1391 64.1347 54.1278 63.2356 54.4726 62.695ZM55.5721 60.3198C55.4167 60.2189 54.9984 60.1657 55.0973 60.5298C56.0865 60.8996 55.8802 62.5661 55.6597 63.454C55.3545 64.6753 54.1391 65.5772 53.393 66.5211C55.7982 65.6304 56.6942 64.0955 56.2787 61.555C56.242 61.3253 55.6936 60.401 55.5721 60.3198ZM39.0887 62.9779C39.2894 62.1208 36.6411 61.8659 36.5365 61.9667C36.4885 63.2216 37.7716 62.6082 38.2973 62.6894C38.5093 62.723 38.7496 63.0927 39.0887 62.9751V62.9779ZM33.7893 63.8042C33.9023 63.6753 33.9306 62.4401 33.4106 62.4933C33.2636 62.5073 31.0279 63.9554 30.9177 64.0843C30.7425 64.2887 30.7651 64.6192 30.7312 64.6501C30.4853 64.8797 29.3971 64.0815 29.5554 64.8349C30.1461 64.9834 30.6492 64.8517 31.2286 64.7229C31.5423 64.6529 33.7017 63.9078 33.7921 63.807L33.7893 63.8042ZM29.0438 64.3279L28.7103 63.3896L27.6815 63.4877C27.8483 64.0703 28.4361 64.3868 29.0438 64.3279ZM22.9134 63.9918L19.55 63.8602C19.0328 65.0786 19.6631 66.8964 21.0424 67.1961C20.9971 66.0646 19.2957 65.2775 20.7004 64.1599C20.7286 65.0142 20.4545 65.8209 21.2967 66.3475C21.5794 66.0674 23.213 64.2747 22.9134 63.9918ZM47.2626 63.6557C47.1184 63.5157 45.4424 65.0282 45.1739 65.2131C43.8681 66.1094 42.5821 66.7032 40.9626 66.776C41.8699 67.409 43.3509 66.7564 44.2582 66.3306C45.4735 65.762 46.7256 64.9246 47.2626 63.6557ZM25.98 68.042C26.4577 67.2045 26.1835 64.0983 25.1745 63.8462C21.6613 65.0898 20.5958 69.3277 23.0858 72.1735C24.3944 73.6664 27.3847 74.5655 28.9647 73.1118C30.2789 71.9018 32.7237 67.9244 31.0873 66.3559C31.3614 68.0168 30.9064 69.4845 30.0613 70.9102C29.8408 70.9438 29.626 70.9606 29.7306 70.6693C29.8804 70.2576 30.3185 69.7926 30.4909 69.2268C30.7368 68.4286 30.799 67.6975 30.7425 66.8628L29.5497 70.2352C29.2304 70.2716 29.4084 69.8935 29.4621 69.7282C29.8069 68.6835 30.7905 67.6415 29.8069 66.5295C29.5102 66.5183 29.5158 67.9888 29.431 68.3501C29.4084 68.4426 29.154 69.4005 28.8714 69.056C28.7781 68.9439 29.7815 66.7536 28.7018 66.3587L28.1903 67.3698C28.2524 66.5043 28.2411 65.594 27.1699 66.0225C27.1841 65.6164 26.9664 65.143 26.486 65.1794C26.3192 65.3671 26.8308 67.7199 25.9772 68.0476L25.98 68.042ZM45.2191 63.9918L43.1813 65.087C43.1559 65.7144 45.9483 65.0142 45.2191 63.9918ZM38.4076 65.5128L36.8785 65.1738C36.9068 65.8741 37.8027 65.8797 38.3256 65.8489L38.4104 65.5128H38.4076ZM49.6452 69.224C50.0607 67.5659 49.7498 67.3838 48.7945 66.2718C48.2886 65.6836 48.3027 64.9134 47.028 65.5352C45.7081 67.0673 43.8596 67.1485 44.2751 69.5714C44.5408 71.1343 45.6289 71.7421 47.0167 72.2575C47.5028 72.2491 47.3389 72.2575 47.0591 72.0474C46.3581 71.5237 45.2078 70.6665 45.3944 69.731C45.9398 70.2156 46.344 71.4928 47.3389 71.2435C48.1105 71.0503 46.3525 69.8879 46.7538 69.3921C47.2061 69.2072 47.158 69.8907 47.3474 69.8935C47.777 69.8991 49.0517 67.8124 48.6249 67.1989C48.868 67.1877 48.8934 67.8264 48.9217 68.0168C48.998 68.5658 48.6362 69.2885 49.6452 69.224ZM51.5191 67.8712C51.4937 66.9104 50.7701 66.2606 49.99 65.8461L50.1596 66.3503L49.6452 66.4371L49.99 67.1933L50.6684 66.9301L51.5191 67.8712ZM37.8479 67.0785C37.7405 66.9581 36.4206 66.1654 36.2934 66.1766L35.8554 67.1989L35.2816 66.7088C33.7045 67.4902 33.4953 68.5714 33.5462 70.2436L35.6858 70.7422L33.648 71.1651C33.6564 71.5601 35.1996 71.3892 35.5162 71.42C35.6377 71.955 34.9283 71.7169 34.5354 71.8822C33.8854 72.1539 34.6824 72.4368 35.0951 72.4396C35.6575 72.448 36.268 72.1287 36.8785 72.2631L35.6886 72.5992C35.7649 73.5375 36.887 72.9241 37.4749 72.9213C37.8762 72.9213 38.221 73.1146 38.6422 73.095C39.9366 73.039 41.7738 71.9354 41.7314 70.5741L38.922 72.4284C38.8372 72.0614 39.1255 72.053 39.3092 71.8878C40.1967 71.0811 42.8902 69.8319 41.6466 68.381C41.2848 70.1204 39.3629 71.1735 37.7292 71.5853C38.9389 70.4873 40.7195 70.2996 41.135 68.4566L40.7139 68.0448C40.2871 68.7787 40.1741 69.2941 39.524 69.9047C39.3007 70.1148 37.5286 71.3696 37.3929 71.2491C37.0961 70.9915 37.636 70.8794 37.7123 70.8122C38.1843 70.4005 38.8937 70.0952 39.2696 69.6498C39.5664 69.2997 40.3125 68.0841 39.6116 67.874C39.3346 68.5574 38.5065 69.4201 37.7349 69.5602L39.0294 68.0504L38.6732 67.5379C38.1645 68.2633 37.6134 69.084 36.7174 69.3893C36.3641 69.0476 38.6337 67.958 37.8564 67.0757L37.8479 67.0785ZM40.451 67.1961C40.1175 66.5351 39.247 66.4399 38.58 66.3559C38.498 66.7956 38.6648 66.6528 38.9191 66.7704C39.3572 66.9749 39.9649 67.1541 40.4539 67.1961H40.451ZM32.2772 66.692C32.0285 66.4595 31.9691 66.706 31.938 66.9413C31.873 67.4622 31.9748 68.0196 31.8956 68.5882C31.7684 69.4705 31.288 70.0895 31.0901 70.9102C32.15 69.7758 33.1618 68.2437 32.2772 66.692ZM8.10042 69.2212C7.47862 68.5602 6.18414 68.8459 5.3758 68.8879L6.65332 69.2212H8.0976H8.10042ZM48.4044 69.4089C48.2659 69.4453 47.6385 70.0587 47.6187 70.1736L48.054 70.7282L49.1365 69.8123C48.9301 69.5882 48.7493 69.3193 48.4073 69.4089H48.4044ZM32.6192 69.7282C32.1867 69.633 32.3224 69.8431 32.1783 70.0447C31.4067 71.1371 30.8244 72.0922 29.725 72.9325C31.2484 72.7645 32.5739 71.2015 32.6192 69.7282ZM49.7554 70.9326C49.0517 71.1175 50.055 71.5685 50.4338 71.5797C50.8125 71.5909 50.9566 71.42 51.1743 71.1623C51.1771 70.8402 50.0183 70.8626 49.7526 70.9326H49.7554ZM41.9858 75.9716C43.1841 75.0165 44.2327 72.9605 43.0852 71.5937C42.3673 70.7338 41.8812 72.2855 41.364 72.7421C40.7704 73.2659 40.0158 73.2658 39.6088 73.5319C39.2724 73.7532 38.3567 75.924 38.58 76.1396L39.4279 76.3945L38.7524 77.1536L39.6879 76.6522L40.0243 77.6662L40.9654 77.4925C40.6347 78.0947 41.6381 79.019 42.0734 79.005C42.5086 78.991 41.9038 78.0023 42.4125 77.8286L42.6726 78.6689C44.097 78.6745 43.2209 78.0051 43.4272 77.4953C43.577 77.1228 44.9647 76.3413 45.3661 75.6943C45.8494 74.91 46.5334 73.0922 45.3915 72.5964C45.2926 74.3498 44.6623 76.627 42.6669 76.9827L44.1027 75.7923C44.6765 74.7252 45.5724 72.8177 44.114 72.095C43.6618 72.4788 43.9388 73.1118 43.8201 73.6552C43.642 74.4675 42.9806 75.9632 41.9886 75.9716H41.9858ZM36.1945 75.9716C37.9497 73.2266 35.7762 74.0473 34.2641 73.0782C33.5745 72.6356 33.5943 72.1931 33.2099 71.7589C32.7944 71.2912 31.9069 72.6328 31.5112 72.9353C30.3524 73.8232 29.4706 73.8961 28.7894 75.4674C28.1083 77.0388 28.1874 78.4561 28.8375 79.9714C30.4287 83.6827 37.4042 83.4978 38.9163 79.8537C37.1611 81.3382 34.8548 82.0077 32.5542 81.89C32.2941 81.2458 32.068 80.7584 31.2569 80.8677L31.7656 81.7108C30.1178 81.257 28.8403 79.442 28.8686 77.753C28.8827 76.9239 29.8804 74.1257 30.6859 73.8036C31.7571 73.3779 30.1913 75.1145 30.1094 75.2573C29.4056 76.487 28.8658 78.753 30.2309 79.6829C30.2846 79.1731 29.6939 78.7362 29.7193 78.2628C29.7278 78.1003 30.3807 76.0444 30.4937 75.7979C30.6068 75.5514 30.4711 75.3834 30.912 75.4618C31.0053 76.3581 30.3326 77.5401 30.6011 78.3888C30.6916 78.6773 30.994 78.7922 31.1749 78.5037C31.3275 77.8314 31.254 76.8987 31.9352 76.473C31.4999 77.6886 32.0143 81.1394 33.3879 81.5315C34.0663 81.7248 32.9244 80.498 32.8255 80.2319C32.622 79.6997 32.5739 79.2263 32.6192 78.6633H33.1279V79.5064C34.4111 79.2375 37.8225 78.274 37.8988 76.7251C37.9101 76.515 37.896 76.3721 37.6416 76.4702C36.5309 76.8987 35.1799 78.7109 33.6395 78.6605C33.5519 78.2236 33.7328 78.3664 33.9702 78.2376C35.1149 77.627 36.2426 77.3973 37.1301 76.2993C37.7971 75.473 37.5173 75.2994 37.814 74.6131C37.9412 74.319 38.4839 74.207 38.4076 73.7672C36.7457 73.4003 37.571 75.6943 36.1945 75.9576V75.9716ZM50.1568 71.7561C49.5491 71.8794 48.379 71.1091 48.2829 72.0894C48.9019 72.2239 49.73 72.4228 50.1568 71.7561ZM48.9641 75.2966C48.9499 74.5543 49.2043 73.1986 48.1133 73.2743C48.0201 73.9325 48.2094 74.4199 48.5401 74.9632C48.6701 75.1761 48.5062 75.3918 48.9612 75.2966H48.9641ZM47.045 73.8288C46.9969 73.7728 46.4345 73.4115 46.4118 73.4395C46.5079 74.3638 45.9342 75.5599 45.3293 76.2517C45.1485 76.459 43.4442 77.5905 43.8568 77.9967C44.6878 78.0499 46.5306 76.4225 46.5758 75.7111C46.5899 75.4814 46.3977 75.1929 46.426 75.0557C46.4486 74.9436 47.6978 74.6047 47.045 73.8316V73.8288ZM47.9437 78.3328C48.5034 78.837 49.9674 76.2237 50.0748 75.8091C50.2698 75.0613 50.1879 74.4479 49.5604 73.9521C49.1789 73.9437 49.3371 75.8764 49.2241 76.3161C49.0093 77.148 48.2151 77.5906 47.9437 78.3356V78.3328ZM28.1083 74.4535C27.2095 74.4983 26.2853 74.4535 25.3837 74.4535C25.2254 74.4535 24.1655 75.7195 24.0666 76.0164C23.7952 76.8315 23.815 78.6073 24.7873 78.8426L24.8721 78.3356C25.4091 79.5204 26.6584 78.6493 27.673 78.6633C27.3706 77.0219 28.0885 75.9296 28.5322 74.5347C28.6933 74.0249 28.1365 74.4535 28.1083 74.4535ZM47.7233 76.4982C47.0647 76.6662 46.3977 78.3496 47.7996 77.6018C48.8114 77.0612 48.3366 76.3413 47.7233 76.4982ZM44.5408 78.6717C45.465 78.8762 45.5357 78.2656 46.0699 77.7446C45.824 77.4421 45.8861 77.5233 45.6205 77.6298C45.4339 77.7054 44.2638 78.4364 44.5408 78.6717ZM37.896 77.9967C37.4636 78.2992 37.017 78.5429 36.528 78.7502C36.0391 78.9574 33.3625 79.6045 33.4699 80.103C33.6508 80.9293 34.6655 79.7193 34.7418 79.7221C34.835 79.7221 35.0272 80.0302 35.406 80.0218C36.0306 80.0106 38.45 78.7558 37.8932 77.9967H37.896ZM47.093 78.1676C46.3242 77.8146 45.6516 78.3972 45.5611 79.1787L47.093 78.1676ZM47.6046 79.8537C48.461 80.0022 49.2467 78.7053 49.4756 77.9995L47.6046 79.8537ZM47.2145 78.7053C46.6436 78.8538 45.4198 79.8902 46.7171 79.568C47.7176 79.3188 48.0794 78.4813 47.2145 78.7053ZM35.8554 81.0329C35.9543 81.1282 38.0119 79.9238 38.2267 79.7585C38.7806 79.3272 38.5432 78.8846 38.0684 79.0919C37.8225 79.2011 35.4455 80.638 35.8554 81.0329ZM31.7684 80.3579C31.6921 79.7809 31.4547 79.0667 30.7481 79.1787C30.6888 79.9462 30.9403 80.4111 31.7684 80.3579ZM28.0207 81.3719C28.5803 79.386 27.5628 79.0135 25.8133 79.6045C23.6002 80.3551 21.992 82.5483 23.0463 84.8675C23.1311 85.0579 23.3261 85.4137 23.5126 85.0859C23.7613 84.6462 23.4165 83.1757 23.6426 82.3438C23.7133 82.0861 23.88 81.4083 24.2757 81.5399C24.4086 81.7052 23.066 85.3773 24.7873 85.2512C25.0671 84.9599 24.1683 83.0132 25.1265 83.058C25.5024 84.2933 24.8947 86.6349 26.8279 85.2512L25.8076 86.4304L27.8511 85.5901L26.1496 86.8562L27.3395 86.7721L27.0003 87.4444C27.4356 88.041 29.2897 86.8674 29.7278 86.5229C30.4909 85.9178 30.9884 85.0691 31.254 84.1532C30.9884 83.8199 30.9827 84.1196 30.8753 84.2905C30.2902 85.2092 29.9087 86.1643 28.8742 86.7721C29.1597 86.0607 29.7871 85.6461 30.1574 84.9235C30.3694 84.5061 30.5701 84.0468 30.5757 83.5678C30.1461 83.8871 29.8522 84.5538 29.4706 84.9151C29.2784 85.0972 28.9421 85.2708 28.7075 85.4221C28.4927 85.1952 30.5333 83.2177 30.2365 82.5539C29.9285 82.2178 29.2332 83.9235 28.8771 83.9039C28.9392 83.1281 29.8578 82.271 29.1314 81.5455L27.8567 83.565L28.5266 81.6155C28.6594 81.1814 28.1111 81.4531 28.0235 81.3719H28.0207ZM44.7075 81.0357L42.6669 80.3579C42.3051 80.7276 44.4419 81.9237 44.7075 81.0357ZM40.9626 83.058C42.1553 81.7612 40.68 81.1282 39.5381 80.5484C39.1029 81.3579 37.4749 82.4026 37.1301 83.058C37.0396 83.2289 37.0198 83.3745 37.0453 83.5622L37.7264 83.9011L36.8757 84.4081L38.4076 83.9039L37.3872 85.0832L39.2583 84.4109C39.4788 84.621 38.1306 85.3324 39.264 85.845C40.0723 86.2119 41.5901 84.5566 41.8529 83.8591C41.9688 83.5538 42.291 82.5175 41.8162 82.3858C41.8981 82.8312 40.2334 85.0131 39.9423 84.747C40.2221 84.1252 40.7591 83.7387 40.9626 83.0609C40.8835 83.1477 39.9847 83.9544 39.9423 83.9039C39.9479 83.0608 41.1463 82.5959 40.6206 81.7108C41.3611 81.6716 41.1011 82.5903 40.9598 83.058H40.9626ZM41.9858 88.1222C42.9298 88.2454 43.2407 87.3912 43.6957 87.0326C43.9755 86.8113 44.3938 86.8169 44.6341 86.6125C45.4113 85.9515 45.0354 82.7527 44.1112 82.3858C43.7127 82.2654 43.8201 82.96 43.8625 83.1393C44.0066 83.7471 44.6482 83.7107 44.3571 84.4669C43.9699 85.4697 42.5284 86.5873 41.6918 87.2399C41.4883 87.3996 41.2283 87.4332 41.3046 87.7833C42.4436 87.9289 43.7748 85.4109 44.1197 85.2596C44.9619 84.8927 44.1875 86.2568 43.9473 86.4388L41.9858 88.1222ZM40.1119 86.4332C40.8778 86.324 41.8388 85.5873 42.3249 84.9991C42.6245 84.635 43.6024 83.2121 42.9185 82.8928C42.5906 82.7387 42.209 84.5089 41.8105 84.6574L40.1119 86.4304V86.4332ZM28.8742 87.7833C29.8889 87.8057 31.0166 86.3856 31.4943 85.5705C31.6186 85.3576 32.7294 83.2177 32.0228 83.2289L30.8866 85.8114L28.8742 87.7805V87.7833ZM33.3003 83.397C32.9159 83.1029 32.15 85.2232 31.9691 85.5341C31.6017 86.1643 31.0731 86.6321 30.7481 87.2763C31.7402 87.2903 33.9165 83.8675 33.3003 83.397ZM32.9612 86.0971C33.8317 85.5621 34.2839 84.7778 34.1482 83.7359L32.9612 86.0971ZM40.6234 87.2763C41.0502 87.66 43.9501 84.8115 43.5176 83.9039L42.6669 85.1672C41.8897 85.7526 41.0587 86.394 40.6234 87.2763ZM35.0018 85.929C34.8124 85.733 32.2291 87.3911 31.938 87.702C31.2766 88.4079 30.946 89.3546 31.0873 90.3154L31.5141 89.8084C32.2178 90.4134 32.1048 90.4918 33.1279 90.3182L32.2772 90.9904L33.4529 90.8391C33.5095 91.1024 33.6988 91.9007 34.0606 91.8419L36.1917 90.1473L35.341 91.8335C35.9232 91.9567 36.1069 91.3573 36.5309 91.1585C36.6128 91.671 36.4065 91.9539 36.0249 92.2564L36.9294 92.9931L39.0859 91.2425L38.8344 90.9932L37.5568 92.0043C37.3138 91.7355 38.6365 90.8195 38.7467 90.5675C38.8372 90.3602 38.71 90.2509 38.4952 90.3182L37.8988 90.6543C37.6388 90.1361 39.247 89.1053 38.9191 88.8C38.4584 88.3715 37.619 90.0801 37.2177 90.1501C37.1668 89.5815 38.3002 88.646 38.238 88.2118C38.1278 87.422 37.3307 89.0157 37.0453 88.7972L37.3844 87.618L36.0249 88.2903L36.5337 87.2791L35.1714 87.9513L35.5105 87.1111L33.6395 88.6292C33.6395 88.1362 34.3404 87.7413 34.4874 87.3603C34.6852 86.8478 33.6027 87.422 33.8091 86.7749C34.0945 86.8029 35.4512 86.4024 34.999 85.929H35.0018ZM28.1903 89.1334C27.7267 87.6348 25.1604 88.0886 24.0468 88.6572C22.9332 89.2258 22.1729 90.9876 22.1051 92.136C22.0853 92.4553 21.9638 92.615 22.3171 92.8446C23.0915 91.9623 22.8569 90.87 23.5946 89.8952C23.8687 89.5311 25.4798 88.1418 25.8048 88.8841C25.9405 89.1922 24.8947 89.3882 24.6234 89.5647C24.0214 89.9512 23.1226 91.0632 23.5833 91.7551C23.6935 91.9203 23.8829 92.094 24.0214 91.8335C24.1598 91.573 23.7302 90.8167 24.3605 90.4862C24.7449 90.6571 24.386 91.1164 24.6149 91.2481C24.7732 91.3377 24.9512 91.1473 25.0134 91.1753C25.1463 91.2313 25.2395 91.5982 25.638 91.5814C25.0021 92.108 24.0751 92.4665 23.2582 92.1724C22.3171 94.3432 25.313 92.8755 25.4685 93.0183C25.6126 93.7101 23.9337 93.7914 23.9366 93.9454C24.287 94.2647 25.5928 93.6485 25.4713 94.3656C25.1123 94.2815 23.6426 94.388 23.7698 94.9538C23.9394 95.7044 25.6861 94.5112 26.1524 94.7857C25.7935 95.189 25.2452 95.2535 24.793 95.4691C24.5471 95.5868 24.3662 95.4327 24.451 95.8809L26.8958 95.0154L29.0466 93.6905C29.4565 94.0967 26.387 95.5588 26.2372 95.8837C25.9122 96.5867 27.4215 95.7829 27.5741 95.6876C28.0687 95.3795 30.2902 93.3684 29.8974 92.8474L29.219 93.1836C29.8267 92.2788 28.846 92.248 28.7244 91.8923C28.5322 91.3265 29.6034 90.4246 28.7103 89.9792C28.7357 90.6487 28.2383 91.8615 27.8313 92.4021C27.6561 92.6346 26.2966 93.6793 26.1553 93.5225C26.0139 93.3656 26.1327 93.1275 26.3701 92.9735C27.8709 92.0015 28.4248 91.7046 28.1959 89.6431C27.283 89.4583 27.7126 90.6039 27.006 90.8223C26.9919 90.4946 27.2265 90.2509 27.1841 89.9064C27.1304 89.4779 26.616 89.4051 26.6668 88.9681L28.1959 89.1334H28.1903ZM30.067 92.3405C30.3694 92.2788 30.392 92.0043 30.4174 91.7523C30.4513 91.3909 30.2789 89.6375 30.1998 89.2566C30.1518 89.0241 29.985 88.6936 29.7278 88.6292C29.496 89.9877 30.2563 91.0016 30.067 92.3405ZM38.7496 93.3516C39.8208 93.374 40.5782 91.8923 40.68 90.9596C40.7111 90.6683 40.9174 90.5647 40.5358 90.3182C39.7897 90.8391 40.3323 90.9148 40.4143 91.2761C40.533 91.7971 39.0859 92.9455 38.7496 93.3516ZM33.4699 94.0266C33.3314 93.3208 32.6276 92.8726 31.938 93.0155C32.2348 93.7129 32.6418 94.1751 33.4699 94.0266ZM28.5351 95.8837C28.8318 96.2142 30.4683 93.9342 30.4061 93.5225C30.0472 93.7634 28.2779 95.598 28.5351 95.8837ZM28.0235 97.7407C28.3514 98.0769 31.7684 94.6765 31.0844 93.6905L29.6995 95.7745L28.9449 96.3767L28.0235 97.7407ZM30.2365 96.7268C30.5277 96.9873 32.068 95.049 31.7684 94.5364L30.2365 96.7268ZM31.938 98.2449C32.5033 98.7799 33.4699 96.8444 33.566 96.3991C33.7328 95.6232 33.5943 95.3571 32.8425 95.0658C32.2913 95.0154 31.5565 97.2113 30.9149 97.4914C31.1438 98.3934 31.8561 96.9116 32.02 96.9032C32.6276 97.1973 31.6836 98.0096 31.9352 98.2477L31.938 98.2449ZM33.6197 98.2225C33.7271 97.4018 35.0583 96.2954 34.4054 95.5476L33.6225 97.4662L33.1336 98.1637L33.6197 98.2225Z" fill="#540B14"/>
<path d="M20.1885 95.2117L19.9455 95.5366L17.1248 94.8728L20.1885 95.2117Z" fill="#210002"/>
<path d="M14.7392 71.5856C14.8127 72.0757 14.6403 71.8825 14.3153 71.9217C13.5635 72.0085 12.7099 72.1542 12.0175 71.9217L14.7392 71.5884V71.5856Z" fill="#210002"/>
<path d="M45.3912 6.44904L45.4365 5.56673L45.8972 3.7489C46.0159 4.37912 45.8519 5.20541 45.7276 5.85523C45.6795 6.10172 45.7276 6.37901 45.3912 6.44624V6.44904Z" fill="#210002"/>
<path d="M24.021 29.9043C24.281 29.9267 24.7248 30.2293 25.1261 30.0752V30.2433H22.6587C22.475 30.2433 21.9182 29.9043 21.5536 30.0724V29.9043C22.3535 29.9548 23.2296 29.8343 24.021 29.9043Z" fill="#210002"/>
<path d="M39.942 20.2857L38.9188 17.7537C39.3626 18.0478 40.0889 19.297 40.2076 19.776C40.2811 20.0729 40.2585 20.1849 39.942 20.2857Z" fill="#210002"/>
<path d="M23.2523 66.1853C23.3908 66.3309 22.6757 67.3449 22.6107 67.6558C22.1726 69.7593 23.4812 71.3251 24.9566 72.5939C22.9668 71.9609 21.9465 69.6613 22.3083 67.695C22.345 67.5045 22.8877 65.8015 23.2523 66.1853Z" fill="#210002"/>
<path d="M25.0074 71.5351C25.2166 71.7648 25.7621 71.874 25.9769 72.1765C24.5835 72.2942 23.6818 70.8181 23.9362 69.5604C24.6004 69.9133 24.5806 71.0645 25.0074 71.5351Z" fill="#210002"/>
<path d="M27.8508 71.7564C27.3788 72.86 25.2223 71.5184 25.8074 70.9105C26.1098 70.5968 27.1329 72.2438 27.8508 71.7564Z" fill="#210002"/>
<path d="M29.3826 71.5856C29.5805 71.8125 28.269 73.4006 27.6812 73.1037L28.0768 72.5688C28.5008 72.6668 29.1565 71.3279 29.3826 71.5856Z" fill="#210002"/>
<path d="M32.9608 31.5933C33.2463 30.8567 33.6165 30.3497 33.4639 29.4926C33.4187 29.2377 32.763 28.5291 33.3819 28.5571C34.3825 29.3974 34.0009 30.9659 32.9608 31.5933Z" fill="#210002"/>
<path d="M33.984 31.7614C34.0293 30.8875 34.9111 30.0976 34.6313 29.1817C34.603 29.0865 33.7297 28.2042 34.4023 28.389C35.6544 28.7307 34.6737 31.1676 33.9812 31.7614H33.984Z" fill="#210002"/>
<path d="M31.087 32.9433C31.3809 33.1926 30.8637 33.3131 30.7676 33.3803C29.9395 33.9573 28.3709 34.8088 28.7072 33.1114C29.3573 34.3522 30.8185 32.7165 31.087 32.9433Z" fill="#210002"/>
<path d="M31.4262 31.9323C31.2227 32.4784 29.2612 33.0778 29.2159 32.3524L31.4262 31.9323Z" fill="#210002"/>
<path d="M34.1508 49.1414C34.6002 48.1022 35.3802 47.1695 34.1508 46.3572C34.4023 46.1303 34.945 46.3236 35.0863 46.6093C35.4226 47.2843 34.5436 49.5307 34.1479 49.1386L34.1508 49.1414Z" fill="#210002"/>
<path d="M28.0203 56.0626C27.1555 57.0402 25.7649 57.4519 25.5529 58.928C24.4676 58.4827 27.1018 55.6621 28.0203 56.0626Z" fill="#210002"/>
<path d="M25.6406 41.2119L26.4037 39.3577C27.0369 39.9515 26.2002 40.901 25.6406 41.2119Z" fill="#210002"/>
<path d="M20.3581 54.5416C20.4344 55.2923 19.5921 55.4379 19.1682 55.9757C18.7188 56.5443 18.3287 57.7851 18.3061 58.505C18.2863 59.0708 18.4898 59.5217 18.4927 60.0231C18.4955 60.3592 18.4701 60.2948 18.1478 60.278C17.3028 58.3257 18.3287 55.3091 20.3581 54.5416Z" fill="#210002"/>
<path d="M20.1885 56.2306C20.3044 56.337 19.612 57.3538 19.547 57.7039C19.4537 58.2109 19.5667 58.7151 19.5074 59.1856C19.4763 59.4321 19.383 59.6982 19.1682 59.4349C19.2219 59.0624 18.9902 58.6843 18.9986 58.3369C19.0071 57.9896 19.5894 55.6788 20.1885 56.2306Z" fill="#210002"/>
<path d="M36.7058 67.1993C37.0252 67.5438 35.6968 68.667 35.3463 68.7174C35.2107 68.5718 36.4599 66.936 36.7058 67.1993Z" fill="#210002"/>
<path d="M41.6434 39.1839C42.2935 38.2876 43.7293 36.6715 41.813 36.3157L41.9798 35.89C44.1872 35.7751 43.0001 38.7246 41.6434 39.1839Z" fill="#210002"/>
<path d="M41.6406 38.0047L41.3014 37.9179C42.008 36.2429 40.3574 37.0636 40.2839 36.9907C40.2839 36.2457 41.406 36.0496 41.8017 36.5846C42.1974 37.1196 41.7508 37.4781 41.6434 38.0047H41.6406Z" fill="#210002"/>
<path d="M28.7015 92.3408C28.9785 92.6013 26.9152 94.251 26.6608 94.3659C26.5874 94.0494 26.8389 93.9654 27 93.7749C27.1724 93.5704 28.5121 92.1615 28.7015 92.3408Z" fill="#210002"/>
<path d="M40.7927 75.9719C41.0386 75.2661 42.0646 74.9524 42.2822 74.1597C42.3529 73.8992 42.367 73.6331 42.319 73.367C42.2709 73.1009 41.618 72.4035 42.237 72.4315C43.3789 73.7619 42.2907 75.563 40.7927 75.9719Z" fill="#210002"/>
<path d="M25.8073 75.1288C25.8328 75.4481 25.5699 75.5769 25.4795 75.8991C25.3579 76.3388 25.3693 76.8122 25.2901 77.2351C25.2392 77.5096 25.4032 77.5292 24.9566 77.49C24.6485 76.6217 24.5892 75.1316 25.8045 75.1288H25.8073Z" fill="#210002"/>
</svg>
