<svg width="403" height="281" viewBox="0 0 403 281" fill="none" xmlns="http://www.w3.org/2000/svg">
<g clip-path="url(#clip0_57_485)">
<path d="M340.605 240.443C352.739 237.849 350.658 253.092 348.504 260.397L356.601 247.352C357.862 245.959 359.035 244.186 360.519 243.022C360.872 242.746 361.422 242.205 361.547 243.027C361.619 243.5 359.985 244.425 359.523 245.465C357.255 250.57 360.187 259.617 359.492 265.216C364.142 259.923 372.368 253.815 372.55 246.099C372.628 242.814 371.039 240.937 368.766 244.228C368.901 240.427 374.211 238.535 374.922 243.048C376.416 252.478 366.322 258.478 361.215 264.712C359.912 266.303 358.972 268.179 357.592 269.687L356.787 269.183L356.393 249.042C354.125 251.896 351.981 255.333 350.274 258.566C348.566 261.8 347.331 265.606 345.686 268.777C345.483 269.172 345.53 269.905 344.897 269.682C344.144 269.417 344.627 268.912 344.72 268.497C345.188 266.448 346.236 264.348 346.755 262.263C348.001 257.282 349.267 246.879 344.726 243.359C340.74 240.266 335.851 243.64 334.911 247.992C334.833 248.361 334.89 252.193 334.076 251.106C333.889 247.035 335.783 242.704 339.587 240.937C338.518 237.89 333.064 238.738 330.977 240.609C327.323 243.885 324.863 253.622 323.431 258.333C324.515 258.369 325.611 258.291 326.695 258.333C327.111 258.348 327.972 258.073 327.894 258.67L322.912 259.357C320.68 266.958 314.602 282.024 304.695 280.709C302.328 280.397 301.882 277.22 303.682 275.879C303.138 280.652 310.227 279.404 312.609 277.252C316.492 273.742 318.77 264.291 320.337 259.362L317.249 259.534C318.293 258.509 319.569 258.234 320.991 258.291C322.663 251.501 329.166 236.824 337.34 236.622C339.863 236.559 340.854 238.004 340.605 240.432V240.443Z" fill="#540B14"/>
<path d="M194.281 238.727L191.187 240.786C200.145 240.63 202.014 252.042 192.563 253.18L195.993 256.102C197.659 258.54 198.173 260.708 197.27 263.573C194.748 271.59 180.802 270.43 174.709 267.784C173.852 267.415 169.706 265.06 169.363 264.535C168.823 263.708 170.52 262.892 171.154 262.882C171.88 262.871 172.581 263.984 173.51 264.166C176.484 264.738 178.041 263.505 179.229 260.984C182.157 254.756 181.996 246.708 187.751 241.826C183.304 241.238 178.632 243.765 177.101 248.012C176.473 248.096 176.79 247.274 176.915 246.967C178.482 243.162 183.179 241.186 186.937 240.49C187.912 240.308 188.924 240.573 189.911 240.37C191.109 240.126 192.838 238.737 194.281 238.727ZM187.414 253.856C189.516 250.706 192.386 254.189 194.919 250.887C197.317 247.758 195.313 243.91 191.971 242.585C189.298 241.524 189.08 241.95 187.611 244.254C183.765 250.279 184.352 259.429 178.259 264.129L174.704 265.554C181.056 270.378 196.948 271.449 194.545 259.617C193.912 256.497 190.196 254.626 187.409 253.856H187.414Z" fill="#540B14"/>
<path d="M78.1835 254.553C77.5918 256.019 73.6369 254.787 73.0712 255.281C70.7149 263.791 63.5941 271.205 54.0495 269.609C48.3456 268.652 47.5723 260.755 53.1049 259.024C53.0686 260.017 52.041 260.308 51.8074 261.332C50.3646 267.665 57.5788 269.214 62.3122 267.727C67.3881 266.131 69.1267 259.778 70.6215 255.239L62.2032 256.263L62.0371 255.587C64.8138 254.36 67.7306 255.218 70.6371 254.735C72.2356 250.685 72.8688 244.857 77.8357 243.536C77.9136 242.626 77.872 242.969 77.3115 242.865C73.2373 242.101 66.7082 241.223 63.236 243.884C61.8139 244.976 61.4143 246.416 60.3192 247.669C63.7031 236.517 77.3011 241.503 85.7298 241.82C85.5326 245.267 81.4117 243.016 79.455 243.266C75.5002 243.77 74.8255 251.719 73.367 254.553H78.1783H78.1835Z" fill="#540B14"/>
<path d="M250.266 240.443C249.078 240.677 249.892 239.419 249.264 238.524C248.527 237.469 246.171 237.578 245.024 237.776C236.569 239.237 232.111 256.107 230.004 263.152C231.976 261.026 234.239 258.192 237.426 258.021C240.613 257.849 237.644 261.774 237.151 263.266C236.58 264.998 236.372 266.479 236.528 268.32C237.789 268.559 238.344 267.758 239.102 266.942C239.642 267.644 237.249 269.453 236.611 269.614C231.561 270.898 234.909 262.356 236.175 260.225C235.822 259.736 235.594 259.679 235.007 259.715C233.274 259.825 230.466 263.906 229.703 265.434C228.686 267.462 229.028 270.202 225.883 269.692C228.758 259.419 233.746 243.697 242.803 237.271C246.752 234.474 252.451 234.178 250.261 240.448L250.266 240.443Z" fill="#540B14"/>
<path d="M160.612 240.443C159.424 240.677 160.239 239.419 159.611 238.524C158.874 237.469 156.517 237.578 155.37 237.776C146.916 239.237 142.457 256.107 140.35 263.152C142.323 261.026 144.585 258.192 147.772 258.021C151.104 257.839 147.99 261.774 147.497 263.266C146.926 264.998 146.719 266.479 146.874 268.32C148.135 268.559 148.691 267.758 149.449 266.942C149.988 267.644 147.596 269.453 146.957 269.614C141.907 270.898 145.255 262.356 146.521 260.225C146.168 259.736 145.94 259.679 145.354 259.715C143.62 259.825 140.812 263.906 140.049 265.434C139.032 267.462 139.375 270.202 136.229 269.692C139.105 259.419 144.092 243.697 153.149 237.271C157.099 234.474 162.797 234.178 160.607 240.448L160.612 240.443Z" fill="#540B14"/>
<path d="M104.295 261.431C106.879 258.208 111.442 255.515 110.99 262.117C112.204 260.402 114.654 257.392 117.01 258.13C120.202 259.133 115.272 265.398 116.019 267.738C116.626 269.635 118.137 266.661 119.061 267.103C117.815 268.273 116.756 270.041 114.779 269.698C111.608 269.141 116.279 261.348 115.625 259.362C113.061 259.175 111.094 262.591 110.071 264.634C109.049 266.677 109.023 270.191 106.013 269.682C105.54 269.245 109.589 261.093 108.608 259.689C107.378 257.932 104.321 262.611 103.807 263.521C102.53 265.767 102.136 270.15 99.141 269.682C99.7223 266.557 101.855 262.939 102.219 259.861C102.385 258.431 100.205 260.272 99.9974 260.74C99.5302 259.56 102.655 257.776 103.708 258.041L104.585 258.92L104.3 261.431H104.295Z" fill="#540B14"/>
<path d="M246.835 256.96L246.15 260.402C254.159 253.31 254.709 265.226 248.32 268.6C246.42 269.604 244.526 269.812 242.403 269.729C241.92 272.489 240.15 276.373 240.654 279.154C240.924 280.631 242.102 279.685 243.052 279.326V280.007L238.785 281C237.306 280.652 239.05 273.987 239.372 272.713C239.72 271.325 240.291 269.209 240.747 267.899C241.246 266.479 245.065 259.102 244.422 258.338L242.533 259.71C242.278 259.762 242.299 259.351 242.367 259.201C242.73 258.358 246.129 256.263 246.83 256.96H246.835ZM248.434 267.509C251.823 264.124 250.365 255.624 245.725 262.211C244.489 263.968 243.758 266.089 243.078 268.117C244.401 269.495 247.24 268.699 248.434 267.509Z" fill="#540B14"/>
<path d="M225.535 252.489L222.79 258.333L226.22 258.676L222.141 259.066C221.513 260.792 218.155 270.306 222.572 267.925C223.444 267.452 223.47 266.635 224.16 266.251C224.087 268.845 218.71 271.403 217.786 268.325C217.216 266.427 219.1 261.436 220.039 259.539C218.274 258.769 217.485 260.137 216.774 261.431C214.6 258.385 212.238 263.391 211.392 265.325C210.437 267.509 210.993 270.129 207.676 269.687C208.564 266.287 210.292 262.975 210.079 259.367C209 259.175 208.512 260.121 207.847 260.74C207.515 259.398 210.852 257.672 211.792 258.145C213.136 258.821 212.14 260.719 212.311 261.774C213.297 260.282 214.574 257.844 216.712 258.062C217.631 258.156 217.646 259.04 217.833 259.04C218.036 259.04 220.169 258.296 220.366 258.145C221.85 257.022 222.042 252.109 225.535 252.489Z" fill="#540B14"/>
<path d="M383.49 258.384L383.023 262.809C383.34 260.797 389.885 256.544 391.052 258.379C391.602 259.242 389.023 263.937 388.779 265.465C388.203 269.053 389.625 268.871 391.618 266.588C392.054 267.27 389.744 269.308 389.059 269.531C383.246 271.418 388.141 261.915 388.348 260.209C388.442 259.435 387.746 259.596 387.17 259.726C386.07 259.97 384.44 261.592 383.745 262.492C382.707 263.833 380.615 269.141 380.314 269.375C379.655 269.879 378.793 269.666 378.051 269.687L381.144 259.892L380.454 259.539C380.034 259.721 379.411 261.176 378.736 260.578C379.977 259.31 381.575 257.339 383.496 258.39L383.49 258.384Z" fill="#540B14"/>
<path d="M275.002 240.1C274.426 236.772 270.559 238.878 268.81 240.266C263.184 244.732 258.69 255.39 257.574 262.388C257.091 265.414 256.198 270.8 260.402 266.251C260.745 267.067 258.679 268.783 257.844 269.193C251.974 272.063 255.944 261.223 256.785 258.847C258.783 253.217 266.615 237.745 272.578 236.133C275.832 235.254 276.974 237.89 274.997 240.1H275.002Z" fill="#540B14"/>
<path d="M274.997 257.994C275.313 258.338 273.533 260.849 273.222 261.545C272.386 263.433 271.115 266.469 272.428 268.309L274.654 266.937C272.018 270.586 269.007 271.174 269.334 265.559C266.76 270.067 260.439 272.297 262.099 264.504C262.696 261.696 266.61 258.343 269.433 258.062C271.395 257.864 272.807 259.32 274.997 257.989V257.994ZM268.026 259.097C263.516 260.142 262.644 272.396 268.115 266.068C268.971 265.075 271.94 260.771 271.405 259.715C270.762 258.779 269.049 258.857 268.021 259.097H268.026Z" fill="#540B14"/>
<path d="M136.235 252.489L133.489 258.333L136.92 258.676L132.84 259.066C132.503 260.625 129.181 268.075 131.948 268.33C133.235 268.382 133.562 267.587 134.236 266.828C134.496 266.531 134.896 265.705 134.859 266.76C134.153 268.06 132.747 269.458 131.231 269.672C125.04 270.555 131.024 259.97 130.396 259.367L128.34 259.539C128.818 258.494 130.494 258.65 131.003 258.244C132.166 257.319 132.892 251.99 136.24 252.484L136.235 252.489Z" fill="#540B14"/>
<path d="M311.67 258.057C318.895 257.22 313.772 271.559 307.264 269.536C302.598 268.086 307.04 258.592 311.67 258.057ZM309.936 259.778C307.331 260.573 306.355 268.179 309.521 268.346C313.518 268.554 314.582 258.364 309.936 259.778Z" fill="#540B14"/>
<path d="M93.9042 258.057C100.527 257.147 97.2415 268.632 91.6725 269.609C84.4012 270.883 88.4754 258.8 93.9042 258.057ZM92.1655 259.783C89.9494 260.448 88.9425 267.098 91.2417 268.138C95.5599 270.093 97.501 258.176 92.1655 259.783Z" fill="#540B14"/>
<path d="M154.166 263.911C152.734 268.517 156.492 269.495 159.585 266.594C160.27 267.337 156.424 269.542 155.614 269.666C147.321 270.971 152.853 257.636 158.365 258C159.419 258.067 161.137 259.627 160.825 260.755C159.595 263.251 156.549 263.36 154.166 263.911ZM154.094 263.152C156.045 263.235 159.258 262.346 157.903 259.851C155.671 258.156 154.172 261.156 154.094 263.152Z" fill="#540B14"/>
<path d="M290.188 263.911C288.756 268.517 292.513 269.495 295.607 266.594C296.292 267.337 292.446 269.542 291.636 269.666C283.342 270.971 288.875 257.636 294.387 258C295.441 258.067 297.158 259.627 296.847 260.755C295.617 263.251 292.57 263.36 290.188 263.911ZM290.116 263.152C292.067 263.235 295.28 262.346 293.925 259.851C291.693 258.156 290.193 261.156 290.116 263.152Z" fill="#540B14"/>
<path d="M395.905 263.843C395.687 266.271 395.838 268.897 399.014 268.169C400.332 267.867 400.566 266.791 401.744 266.594C401.007 268.242 398.905 269.531 397.109 269.687C388.847 270.399 396.367 255.265 401.718 258.535C406.036 261.171 398.308 264.306 395.91 263.838L395.905 263.843ZM396.248 263.152C398.334 263.282 401.448 262.206 399.86 259.705C398.152 258.15 395.853 261.405 396.248 263.152Z" fill="#540B14"/>
<path d="M82.3095 261.774C83.7939 260.1 84.998 257.126 87.7539 258.384C87.9512 259.455 87.8474 260.916 86.7782 261.431C86.8664 260.646 85.9945 260.345 85.3042 260.459C83.6174 260.74 82.1902 263.88 81.5622 265.325C80.6072 267.509 81.1625 270.129 77.8461 269.687C78.7336 266.287 80.4619 262.986 80.2491 259.367C79.1695 259.175 78.6817 260.121 78.0173 260.74C77.5087 259.637 80.7785 257.813 81.7283 258.041C83.2749 258.816 82.5691 260.469 82.3147 261.774H82.3095Z" fill="#540B14"/>
<path d="M283.929 262.117L283.607 259.861C279.45 257.641 277.893 267.249 279.886 268.086C281.879 268.923 282.943 266.796 284.614 266.25C282.948 268.663 279.798 271.065 277.031 268.855C274.867 265.237 280.695 256.586 284.521 258.244C287.578 259.57 284.422 262.689 283.924 262.117H283.929Z" fill="#540B14"/>
<path d="M205.616 266.942C204.848 267.93 203.617 269.51 202.325 269.682C197.358 270.342 202.014 262.596 202.522 260.911C202.917 259.596 201.022 261.27 200.815 261.436C201.272 259.606 204.064 258.962 205.616 257.995C205.917 258.374 202.502 265.2 202.512 267.129C202.528 269.781 204.588 267.197 205.621 266.942H205.616Z" fill="#540B14"/>
<path d="M376.671 258.338C375.913 259.835 375.14 261.374 374.605 262.975C374.33 263.802 372.768 268.055 374.102 268.315L376.671 267.108C375.326 268.585 373.66 270.249 371.496 269.541C370.038 268.517 372.737 261.285 373.925 260.064C373.463 259.627 372.025 262.008 371.522 260.755L376.671 258.348V258.338Z" fill="#540B14"/>
<path d="M380.101 251.459L376.328 256.274C374.859 254.755 379.655 251.064 380.101 251.459Z" fill="#540B14"/>
<path d="M209.052 251.459L205.792 256.274C205.169 255.79 205.128 255.249 205.444 254.558C205.61 254.199 208.699 251.137 209.052 251.459Z" fill="#540B14"/>
<path d="M29.0647 190.678C30.4349 192.077 33.3413 190.995 35.2357 191.713L32.0542 192.124L30.4401 193.091C29.5837 194.318 35.7651 194.926 36.6059 194.806L33.8655 195.149L34.5454 195.831L33.1805 196.174C34.3534 196.964 34.9555 195.96 35.6769 195.924C36.8135 195.867 38.7027 196.491 40.0366 196.179C41.2562 197.109 37.1093 196.834 36.7876 196.865L34.2133 197.546L36.2634 197.9L35.2409 198.581L39.0089 198.929L38.329 199.272V199.958L39.3515 200.302L37.6439 200.645L39.694 200.998V201.336L37.9813 201.679C38.7079 201.887 40.6594 201.087 40.3791 202.366C39.803 202.808 37.8723 201.393 37.9865 202.532C38.5522 203.437 40.6075 202.776 40.3791 204.081L37.6387 204.424C38.4017 204.908 40.2701 204.565 40.7476 204.924C41.2666 205.313 40.5348 206.53 42.3929 206.182L42.8392 208.147L46.8927 209.582L46.5449 210.606L48.6002 211.292H46.2024C50.7593 212.706 53.8526 211.719 57.6932 209.244L62.9975 205.116C63.1428 205.761 62.6342 205.932 62.3124 206.317C53.1675 217.271 45.2007 215.254 36.0817 205.464C18.9544 187.049 3.85126 153.89 0.659355 128.982C-2.68306 102.893 7.00164 84.3694 23.4075 64.9772C25.7846 62.1698 29.9834 59.8978 29.3657 55.5827C29.0595 54.6936 27.3416 55.1719 26.589 53.8982C26.3762 53.5395 25.3278 49.7078 25.333 49.3491C25.333 48.8292 25.6548 48.3561 25.9818 47.9765C28.0423 45.6006 37.3429 43.5366 40.54 43.3338C43.0261 43.1727 48.1123 43.8485 50.1053 43.2975C51.325 42.9595 49.6071 41.9769 50.1417 41.2751C50.7541 40.7759 51.5897 41.0047 52.2955 40.6824C55.0722 39.419 54.5999 40.1209 56.9459 39.5594C57.2054 39.497 57.1587 38.9511 57.4182 38.8887C59.4267 38.3948 61.9595 39.8037 64.0355 39.5646C64.186 38.66 63.8902 38.9563 63.2933 38.7795C61.1083 38.1297 56.1414 38.244 54.7453 36.3204C54.1692 35.525 54.8646 35.0415 54.6207 34.4228C54.2989 33.6065 52.0828 32.6447 52.3578 30.8459L53.0377 30.1648C52.145 28.7975 51.107 27.2222 51.4911 25.4649L56.676 25.4337C57.4026 25.1686 56.8057 24.342 57.1379 23.926C58.1603 22.6315 60.5737 24.3316 61.9803 24.1132L61.6377 22.0544C66.1271 20.999 67.6011 23.8896 70.0405 26.8531L70.8034 26.0056C69.2879 23.2346 66.5008 18.6751 68.3537 15.5557C69.4644 13.6788 70.6269 15.0566 71.2342 14.6874L73.2843 10.8714C73.9642 10.4295 74.2756 11.6356 75.0022 11.2613C75.1164 11.2041 76.8758 9.68601 76.9589 9.58723C78.6768 7.46604 78.1318 5.28247 82.1956 6.93575C82.3462 5.57361 83.0832 4.68979 84.1004 3.85795L85.6315 4.88735C85.4291 1.87713 87.6764 3.10929 88.9635 2.579C90.1053 2.11109 90.7956 0.327836 91.2939 0.0782848C91.8285 -0.186863 91.761 0.322637 91.8804 0.515C92.6693 1.84074 93.1156 3.41083 93.5256 4.88735L95.0204 4.55981L95.5757 5.05371V11.4069C96.6137 11.7916 96.484 9.51964 97.4649 10.3723C97.7607 11.7188 97.9787 13.0861 98.233 14.4431C98.3265 14.937 98.0721 15.4205 98.124 15.7064C98.1915 16.112 99.2866 17.105 99.5357 18.2539C100.029 20.5571 99.6499 21.6905 98.7884 23.7233C97.9995 25.5845 95.2851 28.5947 94.9581 29.8633C94.7401 30.6951 94.984 31.3918 95.9182 31.3242C95.4096 28.8859 97.278 28.5843 98.3264 27.3834C98.9337 26.6815 99.1828 25.6417 99.8575 24.7943C102.52 21.4513 103.273 23.7597 103.812 26.8635C105.177 27.2326 107.58 24.5915 108.276 24.9502C109.117 25.3869 108.951 26.9414 109.361 27.6589C109.682 28.2204 110.45 28.3192 110.622 28.8079C111.348 30.8511 108.722 34.4696 108.94 35.577C108.987 35.8109 109.605 35.7693 109.651 36.0033C109.952 37.4902 107.181 39.7933 106.584 41.1659L107.596 42.1485C107.85 43.5262 103.755 45.2263 102.437 44.7168L102.748 45.8917C102.484 47.0251 95.42 46.5312 94.0394 46.7756C93.453 46.8796 93.0793 47.1447 93.1831 47.7998C95.9909 49.0839 98.3109 47.2799 101.067 49.5258C99.4319 51.0283 102.525 51.1635 103.709 51.855C104.165 52.1201 105.53 53.2587 105.707 53.6538C106.179 54.6936 104.98 55.0576 105.209 55.6762C105.245 55.775 106.537 56.4301 106.843 56.9396C108.587 59.825 104.025 58.1198 102.437 58.4525L102.774 60.4905C100.153 61.7331 97.9579 61.6447 95.2435 60.8596L95.5861 62.227C94.5221 62.2998 93.6087 62.253 92.5655 61.993C90.9513 61.5927 89.9029 60.2929 88.3874 59.825L88.6729 61.3795L87.9255 61.837C87.3235 61.6551 86.9342 61.2807 86.519 60.8284C84.2509 58.3745 82.3046 53.7786 79.9587 51.6054C79.5643 51.2415 79.1906 50.914 78.6145 50.914C76.964 50.914 73.8344 56.5757 72.6096 57.9222C75.3032 59.7055 77.3689 62.5077 78.3446 65.5803C79.0505 67.8003 78.573 70.4882 81.7804 71.0652C86.192 71.8607 88.7923 70.7793 91.6105 75.2972C93.9149 78.9833 93.7021 81.8011 92.8405 85.9135C102.499 84.645 106.869 96.3063 103.911 104.042C103.371 105.462 101.56 107.339 101.809 108.67C102.058 110 103.008 109.746 103.641 110.297C106.833 113.099 106.714 115.345 105.681 119.223C109.065 121.423 111.79 121.833 112.646 126.346C113.824 132.522 108.4 135.413 103.62 137.425C103.833 140.856 104.383 143.513 101.767 146.201C100.849 147.147 99.5721 147.563 98.7313 148.582C102.333 152.762 99.733 161.049 95.5601 164.023C93.4581 165.52 90.7437 165.713 88.7248 167.158C90.505 169.534 90.6918 174.749 89.2127 177.244C87.6401 179.896 84.2198 180.218 81.6818 181.377C81.5313 184.658 81.7597 186.108 79.9535 188.916C77.7893 192.274 75.0697 193.548 71.4055 194.78C71.3484 197.562 71.0577 199.881 68.8104 201.799C66.5631 203.717 60.008 205.23 57.6413 202.912C57.0393 202.319 56.5826 200.551 55.9286 200.333C50.9306 200.588 47.0691 200.036 43.8201 195.976C39.6784 190.798 40.1352 183.561 45.128 179.111C44.609 177.161 42.8755 176.028 42.5226 173.927C41.8116 169.685 42.2994 164.772 46.192 162.281C44.2561 158.455 44.0174 154.192 47.2352 150.994C44.7024 149.045 40.8722 146.113 40.4154 142.723C40.2597 141.579 40.623 140.019 40.322 139.042C40.0885 138.278 37.7944 137.17 37.1145 136.416C34.6648 133.713 36.5955 131.238 35.8585 128.743C35.6821 128.14 33.3465 126.097 32.7756 124.963C29.2516 118.002 32.35 108.701 40.7061 107.869L40.3843 99.6493C32.3708 101.968 26.0752 93.686 27.3364 86.2879L21.5339 84.1979L22.219 85.2221L17.5894 82.4822C17.0289 82.8253 17.7036 83.2413 17.932 83.5116C18.9648 84.749 20.5426 85.4664 21.5339 86.7714C20.226 87.3381 19.0582 85.1337 17.7659 85.3936L22.219 88.6534C19.3956 88.487 16.2037 83.8807 13.8162 83.8599L13.7124 84.645L20.1585 90.0311C17.6102 89.1369 15.6639 87.4368 13.6501 85.7368C13.3803 85.508 12.9599 84.8373 12.6225 85.3936C14.2211 87.624 16.9614 90.1403 19.4838 91.2269C21.046 91.9028 23.148 91.9236 24.2794 93.1193C22.4733 92.953 20.8955 92.5474 19.2503 91.8092C17.1067 90.8474 15.8144 89.1265 13.6501 88.3207L16.048 91.7468L13.1311 90.3795C12.4772 91.0917 13.9304 91.4193 14.356 91.9132C14.5999 92.1991 14.3716 92.667 14.6674 92.9426C15.1345 93.3741 16.1777 93.3741 16.3905 94.1539L10.562 91.4141L11.9322 92.9582L10.9046 93.2961L14.6726 96.2127L8.15903 94.8454C7.44799 95.5161 11.543 97.2525 11.5845 97.9336C10.8371 97.5905 6.7629 97.7464 7.48432 98.9526L11.9218 101.713L6.78366 100.169C10.1209 102.815 14.3197 103.32 18.1707 104.568C18.5288 104.682 19.2035 104.656 19.1257 105.15C14.8387 104.734 10.9357 102.992 6.78366 102.067L10.5569 104.464L8.28878 103.876L4.73357 104.115C5.38234 104.344 11.5845 105.519 10.2143 106.865L6.10376 106.179C6.06224 107.261 6.48263 107.791 7.1314 108.581L4.73357 108.924L22.2138 112.018L8.15903 110.307C8.31993 110.702 8.83893 111.316 9.20224 111.487C9.90809 111.82 11.2783 111.534 11.5845 112.361C10.1105 111.716 8.83893 112.319 7.60369 112.33C6.80961 112.34 4.82181 111.316 5.07093 112.704C8.65728 113.499 12.2436 113.655 15.8767 114.082C16.3853 114.144 16.9251 114.352 16.3853 114.768C12.2281 114.004 8.16941 114.446 4.04329 114.087L4.38065 114.602L15.3525 117.17C14.1588 117.159 12.9547 117.206 11.7558 117.17C9.38389 117.102 6.85632 116.603 4.5623 116.473C4.18861 116.452 3.26478 116.25 3.3582 116.822L5.75083 117.523L5.40829 118.194L9.18148 118.886C9.26971 119.473 8.36664 119.255 7.98776 119.223C7.1314 119.156 6.30617 118.73 5.41348 118.886L8.83893 120.086L5.9221 119.92L5.75602 120.596C5.9792 120.83 12.3474 121.724 11.5845 122.317L8.15903 121.979L10.4842 123.32L21.5235 123.695L15.5082 124.396L5.06574 123.695C7.18849 125.696 10.562 125.327 13.0948 125.779C15.0515 126.128 16.9874 127.142 19.1205 126.788C19.1984 127.391 18.342 127.11 17.9268 127.126C13.9356 127.308 9.39427 126.195 5.57437 125.072C5.03979 125.436 5.61589 125.847 5.99996 126.019C8.08637 126.949 14.3352 127.687 16.9459 128.103C18.3316 128.322 19.7589 128.54 21.1706 128.509C21.2484 129.112 20.3921 128.831 19.9769 128.847C15.3265 129.055 10.6243 127.656 6.083 127.646C6.11414 129.164 11.8025 129.871 13.2246 130.11C14.8906 130.391 16.5099 130.666 18.2174 130.604L22.8885 131.587C18.8247 131.857 14.683 130.573 10.7074 130.209C9.30604 130.079 7.49989 130.599 5.97401 130.219C5.60032 130.126 5.88058 129.429 5.57956 129.533C5.27853 129.637 4.87371 130.115 5.4031 130.391L12.6017 132.273C9.89771 132.211 6.98088 132.159 4.54154 130.906L4.37546 131.581C10.4427 133.625 16.8472 134.212 23.2311 133.994C23.2414 134.649 23.4335 134.706 22.7484 134.633C21.0149 134.451 19.3125 134.784 17.5635 134.69C14.3664 134.519 11.2056 133.708 8.03966 133.339L7.46356 134.326L10.2039 135.023L9.51884 136.047C11.3717 136.261 13.3336 136.931 15.1812 137.077C16.676 137.196 17.8282 136.723 19.3022 137.066C19.9042 137.207 20.309 136.754 20.1429 137.768C16.0532 137.914 11.9686 137.248 7.97738 136.39L8.46525 136.926L11.2264 138.106L6.43073 137.768C6.43073 138.309 7.51027 138.392 7.92548 138.496C11.2004 139.318 14.3923 139.151 17.7399 139.141L13.9719 139.822L23.2259 140.17C23.3193 140.622 22.5927 140.716 22.2865 140.768C18.1863 141.434 13.6813 141.33 9.51365 141.543C9.4306 142.073 10.152 141.943 10.5465 142.047C14.2989 143.03 17.932 142.712 21.6844 143.264C22.2865 143.352 22.2553 143.082 22.1982 143.945H9.34237C9.06211 143.945 7.37014 142.957 7.11583 143.945C9.80429 144.329 12.4668 145.026 15.176 145.317C15.8767 145.395 19.0738 145.021 19.1049 145.837C19.1361 146.534 18.1136 146.081 17.8697 146.055C15.4303 145.801 12.9754 145.582 10.5413 145.328L11.5689 146.009H8.82855C9.5396 147.35 11.4599 146.83 12.6796 147.132C13.2297 147.267 13.7539 147.818 14.5636 147.989C16.4113 148.385 18.5911 148.379 20.4803 148.764C20.5633 149.352 19.6862 149.102 19.2814 149.112C16.3801 149.164 13.4477 149.003 10.5413 149.112C10.3648 150.085 10.7696 149.679 11.2938 149.887C12.4668 150.355 13.7488 150.651 14.9944 150.833C14.4806 151.779 12.7315 150.584 11.9115 150.833C11.0811 151.457 17.1794 152.435 17.6154 152.497C19.6914 152.788 21.8038 152.97 23.9058 152.892C23.8798 153.422 22.3591 153.584 22.0218 153.573C18.7624 153.511 15.1708 152.367 12.3682 152.221C11.4392 152.175 9.57074 152.674 10.9721 153.313C12.7834 154.14 15.3681 154.041 17.2884 154.556C17.8801 154.717 18.2434 154.311 18.0773 155.289L10.0275 153.911L9.851 154.597L17.0497 156.318H12.2488C12.2903 156.807 13.7851 156.921 14.1795 156.963C15.5809 157.108 17.0393 157.03 18.4458 157.155C18.9025 157.197 19.3644 156.797 19.7952 157.519C17.1379 157.987 14.5844 157.883 11.9115 157.691L17.0548 159.063C17.0652 159.646 17.2469 159.807 16.5722 159.724C15.1397 159.542 13.6917 159.235 12.254 159.063C14.1224 161.122 17.1483 159.994 19.2814 160.056C21.2069 160.113 23.2518 160.732 25.2811 160.436C24.212 161.923 21.7674 160.8 20.3246 160.763C17.6413 160.691 14.9373 160.847 12.254 160.779L16.0843 162.261L20.8228 162.838C20.6879 163.815 19.5201 163.176 19.2814 163.176H13.6242C13.7747 163.888 16.0324 164.548 16.5358 164.548H23.9058C24.1497 165.884 22.8055 164.855 22.0529 164.917C21.2277 164.985 20.3765 165.52 19.5876 165.546C17.8749 165.604 15.4252 164.834 13.619 164.891C14.2678 165.858 16.4528 166.16 17.5687 166.259C19.4475 166.42 28.8519 165.364 29.3917 165.926C29.6512 167.215 28.1045 166.222 27.217 166.285C25.7482 166.383 24.0718 166.846 22.5304 166.784L18.7624 167.642H28.7066L26.1323 168.323H21.6844C21.0927 168.962 17.7244 168.094 17.7451 168.843C17.7607 169.321 22.1204 169.752 22.8781 170.049C22.219 171.463 19.8367 169.898 19.1101 171.073L27.845 171.785L31.447 171.421C32.0127 171.853 31.4106 172.045 30.9383 172.108C29.7654 172.258 28.3692 172.014 27.1496 172.092C26.7032 172.123 26.2517 172.445 26.1323 172.445H19.79V172.783C20.117 172.705 20.4855 173.132 20.6464 173.132H25.6185L23.2207 173.48C24.7466 176.017 28.0267 173.563 29.973 173.589C30.8345 173.6 31.5923 174.229 32.4746 174.166C32.1736 174.827 30.5283 174.795 29.9003 174.837C26.8797 175.045 23.8331 174.993 20.8177 175.196C21.674 176.371 23.4335 175.393 24.5857 175.539L23.558 176.563C24.4092 176.594 25.2759 176.532 26.1323 176.563C26.5527 176.579 27.4039 176.303 27.326 176.906H21.8401L25.6081 178.799L22.8677 179.308C23.5528 179.277 24.9593 180 25.4368 180H32.8068V180.343H27.1496C26.942 180.343 26.3762 180.821 25.9507 180.691L26.9731 181.372H23.5476C23.7656 182.053 26.3347 182.75 26.807 182.75H31.7791C31.7791 183.332 30.6425 183.405 30.2377 183.441C28.2135 183.608 26.2309 183.28 24.2379 183.098C25.4576 184.258 27.7776 184.424 29.3761 184.814C29.4643 185.401 28.5613 185.183 28.1824 185.152C27.5025 185.095 26.8589 184.84 26.1271 184.798C25.7534 184.777 24.8296 184.58 24.9178 185.152L29.3709 186.192L28.3433 187.559C29.9522 186.753 31.0837 188.937 31.2549 188.937H38.6249C38.464 189.67 38.0124 189.483 37.5246 189.535C34.2496 189.872 30.9591 188.791 27.653 188.942L30.6062 189.93L36.5644 190.32C36.0817 191.593 34.4209 190.658 33.9953 190.658H29.0232L29.0647 190.678ZM85.6315 49.5258H90.4323C90.0638 50.5448 87.3598 49.0215 87.692 50.5552C89.4047 50.8152 91.0499 50.3473 92.6693 50.2173C93.0481 50.1861 93.946 49.9678 93.863 50.5552L90.095 51.2467H96.266C95.2539 52.9 92.389 51.5378 91.4651 52.9572L98.3213 55.7074C95.7366 55.7542 93.4893 54.1217 91.1226 53.3107C90.7385 53.685 93.7903 56.5861 94.2263 56.8928C95.5134 57.7974 97.2936 58.0522 98.4406 58.8528C98.8506 59.1388 99.6343 60.6413 100.029 60.1786C100.377 59.7678 99.2399 58.9256 99.0012 58.6293L99.515 57.7818L100.714 58.4629L100.029 57.0956L102.427 57.4335L101.742 56.4093H103.797L103.112 55.7178L103.797 54.6936L102.427 54.3505L104.139 53.6642L99.6863 54.3453C99.7122 52.6972 102.266 53.6174 102.769 52.2917L99.1465 52.5984L98.8039 51.9226L97.9735 52.2865L98.2849 51.2779L97.6258 50.9192L98.3109 50.7424L97.6258 49.8898L98.3109 49.2035C95.3318 50.0041 89.6175 49.3491 93.0377 45.429C94.5377 45.7358 97.6881 46.1049 99.105 45.7566C99.6084 45.6318 101.378 44.1917 101.819 43.9629C102.442 43.6354 104.897 43.2871 105.167 43.0167C106.247 41.9249 103.428 42.8607 103.454 42.5072C104.248 41.8053 105.878 40.8331 106.35 39.9077C106.636 39.3566 106.558 37.9113 107.565 37.1886L105.333 38.556C104.695 37.8073 106.657 36.9131 106.875 36.3256L106.189 35.9877C107.233 34.8439 108.878 33.7417 108.93 32.0364L106.88 34.0952C106.843 33.175 107.881 32.5408 108.245 31.8597C108.722 30.9655 107.015 32.078 107.565 31.1838C107.881 30.6743 108.738 30.43 108.587 29.6345L106.195 31.6933C105.779 31.241 108.971 28.7559 108.245 27.5705L107.046 28.9431L106.875 27.9137L103.963 31.6881L105.162 27.9137L104.129 28.9379L103.62 28.2516L101.736 29.6241C102.25 27.7369 102.743 26.4631 102.074 24.4771C100.761 25.0282 100.989 26.7179 100.704 27.9085L100.361 26.1928C99.2762 26.7751 99.3178 28.4751 99.3333 29.6241L97.6258 28.9379C97.3351 30.352 97.0756 31.8909 95.6847 32.6603C91.107 31.2306 96.375 26.3124 97.4493 23.7857C98.0254 22.4339 98.586 20.4219 98.643 18.9766L97.958 20.6923L97.6154 19.3197C97.1275 19.1378 97.3299 20.6923 96.593 20.006C95.5342 19.0182 97.3144 15.826 97.2002 15.1034C97.1275 14.6562 96.2868 13.9492 96.5878 13.1433C96.4321 12.9718 95.01 13.7984 94.9529 13.9024C94.6363 14.4327 95.2643 15.5453 94.5377 15.5453C94.2263 14.5419 95.0359 13.1641 94.8906 12.3375C94.8439 12.0723 94.2055 12.2491 94.1536 11.6096C94.0602 10.3879 94.8283 8.96855 94.5325 7.64801C93.8111 7.77278 94.3612 9.27009 93.1675 9.02054L92.825 7.30487L92.4824 9.02054C91.8129 7.45565 93.0377 6.49383 92.8198 4.90294L91.7973 6.27548C91.8648 4.84575 92.6277 3.61879 91.2731 2.50101L89.7887 3.22367L89.7317 4.55981L89.0518 4.21148L89.3891 6.61861L88.0397 6.60821L88.0189 5.58921H87.3338L86.9913 6.61861L86.3062 5.24608L86.9861 7.99114L86.3062 7.31007L84.4118 11.0793C83.2285 10.9858 83.9966 8.07433 82.533 8.33947L83.2337 10.549L81.8479 12.1139L80.8099 7.99634C80.239 7.89756 80.4258 8.84897 80.4673 9.19731C80.6698 10.8506 82.1386 12.5766 79.4916 12.743C79.2529 12.5922 78.3446 9.7224 77.727 10.4035C78.1474 11.4693 78.6041 12.2335 77.727 13.1433H78.7598C78.464 14.2299 78.3187 15.8104 78.573 16.9126C78.6716 17.3389 79.0401 18.5763 79.7823 18.2955L79.2684 15.5557C81.8687 19.7357 79.9016 25.231 80.4985 29.7749C80.7372 31.5893 81.9777 33.8249 82.3721 35.7953C82.5745 36.7987 82.2476 39.1955 83.0468 39.5854C83.8046 39.7413 83.8565 38.4884 83.898 38.0465C84.0537 36.4036 83.6022 34.9999 83.5606 33.409L84.9256 35.8109L84.2457 31.345L85.2682 32.3744C85.455 30.5495 84.9464 27.9241 86.2699 26.6399C86.4671 25.938 85.5017 25.4545 85.5952 24.6643C85.6159 24.4823 86.2284 24.5187 86.2958 24.2484C86.7941 22.1896 85.6055 20.9886 85.5848 19.85C85.564 18.8726 86.6695 17.786 86.3062 16.5851L86.6488 18.6439C88.1124 17.8328 86.9031 15.8468 86.9913 14.5263L88.1902 16.9282L88.3615 14.5263C88.9428 14.3807 88.5743 15.0306 88.7403 15.1761C88.9895 15.3893 90.4116 14.3079 90.069 15.3789C89.4722 17.2297 87.8373 19.3613 88.1954 21.3837L87.3338 23.1098L88.1902 22.4235C88.595 23.193 87.0484 23.9884 87.0224 25.0698L87.6712 26.0212L86.6488 27.9137L88.1902 26.198L88.0189 27.5705C90.9565 26.1148 91.4392 22.3039 92.991 19.6629C93.2505 19.221 92.9288 18.7946 93.8422 18.987L91.4444 24.4771C92.6277 24.7163 93.2298 22.6679 93.51 22.4235C93.728 22.2312 94.4287 22.3663 94.1848 22.933C93.3543 24.8774 90.0015 26.7439 88.704 28.4336C87.666 29.7853 85.9844 33.1074 85.7197 34.7139C85.6211 35.3066 85.9221 36.3308 85.808 36.6739C85.6315 37.2042 84.9983 37.3914 84.9204 38.0621C84.8737 38.4624 85.3097 39.1019 85.2319 39.2111C85.154 39.3202 84.6194 39.3358 84.417 39.601C84.2561 39.8141 84.4118 41.4362 83.5555 41.8313L84.2405 42.1693L83.2129 43.3702C83.6281 43.7342 86.3581 41.5038 86.9809 41.1971C87.3442 41.0203 89.0829 40.3964 89.7161 40.1521C90.1261 39.9909 90.588 40.4328 91.2835 39.9753C92.6641 39.0603 93.8318 35.2494 95.3837 34.1004C95.9338 34.4176 95.2591 34.8699 95.0723 35.1662C94.7141 35.7381 92.2125 38.8835 93.8318 38.5612C95.6432 35.577 97.3974 32.8215 100.185 30.6691C100.652 31.3606 99.5046 31.8545 99.2399 32.4836C99.0738 32.8839 99.3333 33.3518 99.1413 33.7365C98.8974 34.2408 95.856 37.1627 96.24 37.5318C97.849 36.9859 99.2347 35.8109 100.662 34.9219C100.953 34.7399 101.404 34.0589 101.721 34.61C99.3074 36.8247 96.1155 38.6964 93.1519 40.1105C91.0188 41.1243 88.211 41.2699 86.6384 43.2039L88.3563 43.0323L88.5172 43.7134L91.7817 42.0029L90.069 43.547C92.0516 44.0149 93.3492 41.0723 95.2124 40.6304L91.7869 43.8901C91.735 44.1449 92.1347 44.1189 92.2956 44.0565C94.4546 43.1727 95.6743 40.1729 98.8091 39.9337C99.2036 39.9025 99.5513 39.8713 99.162 40.2872C98.1707 41.3374 95.9183 41.8729 95.2176 43.3702L100.361 42.1693C97.5791 44.1553 93.453 45.3666 90.0794 44.748L91.4444 46.1153C89.3113 46.2245 87.7283 45.1847 85.8131 44.4048L85.2786 45.0807L87.6764 46.1101C86.0726 46.3337 84.4637 44.2853 83.1247 45.0859C82.7821 45.2887 82.7977 46.1881 81.5054 45.7722C81.3341 47.3215 83.1714 46.3493 83.5606 47.1395H80.8203C82.5797 48.9332 85.7612 46.8796 88.0189 47.8362L84.936 48.1793L88.0189 48.5224L85.6211 49.5466L85.6315 49.5258ZM59.2347 43.6874H64.3781C64.622 43.3338 62.0789 42.4396 63.5061 42.3252L66.942 43.7082L67.2897 42.9907L69.0232 44.0201L69.6875 43.3494C70.2117 43.9421 70.6737 44.5296 71.5767 44.3736L69.1789 41.8001C70.4557 41.6442 71.6234 43.9005 72.7808 44.7168V43.3442L74.151 45.0599L74.4884 44.3736L75.6873 45.403L70.8865 39.3982L71.0629 38.8835C72.703 39.5594 73.4452 42.8867 75.3499 41.457C73.2324 39.2526 70.0976 37.4226 67.352 36.0709C64.9178 34.8751 62.3539 34.3656 60.2675 32.8631L63.0027 33.7209L61.6325 31.319C62.0944 30.8511 63.5944 32.9723 64.0563 33.1958C65.6393 33.9653 65.0943 33.9133 66.1064 34.584C66.423 34.7971 67.5648 34.3552 67.98 35.4366L68.3174 34.7503L69.3502 35.7797L68.3174 32.3484C69.9367 33.5442 71.037 36.3204 72.7134 37.2406C73.0196 37.407 73.549 37.1523 73.5905 37.199C74.4365 38.1869 73.8292 38.4936 75.5887 39.9857C75.9883 40.3236 76.5955 42.2681 77.5817 42.6476L77.7529 41.6182C78.9311 42.0081 77.9605 43.625 78.9518 44.358C80.0054 43.5886 78.8325 42.3096 79.1283 41.2751L80.4985 45.0495C81.8427 44.7012 80.156 42.7412 80.4985 42.3045L81.8635 42.9907C82.3306 41.3426 80.976 40.438 80.4985 39.3826C80.021 38.3272 81.9621 39.7725 81.5209 38.7067C80.5296 36.3308 75.4641 31.9221 75.1475 29.9569C75.08 29.5461 75.1735 28.8287 75.5212 28.5739L76.3828 30.9759L77.4052 30.2896L77.0523 31.4646C78.1422 31.8285 77.8515 32.8475 78.4277 33.591C78.8013 34.0693 79.7615 33.4766 79.9847 35.1246C80.4725 34.8335 81.1836 36.1644 81.5209 35.7849C82.2268 34.9895 80.2701 33.4454 80.213 33.3102C80.0106 32.8631 79.7615 30.1388 79.0453 28.8235C78.5418 27.8981 77.6128 27.6797 77.4882 27.4613C77.2755 27.0922 77.4363 26.2344 77.1457 25.5741C76.7772 24.7319 74.1303 20.2348 74.3275 19.9852C74.9814 20.3959 75.2306 20.8274 76.0194 20.3387C77.1457 22.5015 77.7062 25.6105 79.4605 27.2014C79.4968 25.8393 80.2909 23.1566 80.0937 21.966C79.9276 20.9574 78.5314 18.8882 78.1889 17.6665C77.6491 15.7376 78.0488 13.7516 76.8914 12.0931L77.0678 13.8088L76.3776 12.7846L76.0454 13.5697C74.5662 14.703 74.6648 12.4051 73.2998 12.7846L72.9469 15.5349L72.267 15.1865L71.9297 16.7566L70.8968 16.5643L71.5767 18.2799L69.5266 15.878C69.6668 17.1777 70.5802 18.1188 71.2342 19.143C71.6598 19.8136 71.7532 19.7668 71.0629 20.3387L68.8364 17.2557C68.7897 17.8484 68.8156 18.4099 68.9973 18.9818C69.8432 21.7061 71.3536 24.5499 72.5992 27.0454L71.5767 27.217L72.2618 28.0748L71.5715 28.9275L70.2066 28.2464L71.229 29.9621C68.9194 28.6051 67.4921 26.1356 66.4282 23.7805L66.0908 24.4615H65.4109L64.2016 22.7511C63.3141 23.6453 65.9143 24.9398 65.4005 25.4961L63.693 24.1236V26.1824L61.9751 25.5013L63.6878 27.5549L59.2295 24.4719L60.5997 26.1824L58.5444 24.8099C58.2278 26.198 58.8766 26.0576 59.5669 26.8687C56.6967 26.0524 58.643 27.8201 58.5392 27.8981L54.0861 25.8393C53.4841 26.4423 56.0376 27.6277 56.4788 27.5601L55.4563 28.236C55.6899 28.236 57.797 29.0782 57.1638 29.6137L53.0533 28.2464C53.6346 29.4422 54.8698 29.8997 56.1362 29.9621C56.2193 30.4716 55.6224 30.274 55.3058 30.6743C54.8958 31.189 55.394 31.8233 54.0861 31.8441L56.1414 32.7071L55.1138 33.0503C55.4823 33.9705 56.6241 34.0953 57.5116 34.0797L56.484 34.4228L58.1967 35.4522C58.3783 35.9253 56.8161 35.7589 57.5168 36.4712C57.9891 36.9547 66.724 38.0205 65.5926 39.9181C63.8643 41.1451 60.745 40.5316 58.887 39.9129L59.2243 41.2854L54.0861 40.2612C53.7436 41.5454 55.6639 40.7863 55.7937 41.6286L52.363 41.8053C53.92 42.7048 55.721 42.658 57.4493 42.7204L57.8489 43.6874L54.766 44.2021C55.394 45.3563 57.5531 44.3373 57.797 44.436C57.9164 44.4828 58.534 45.9177 59.9042 45.4082C59.6759 46.3753 57.4078 45.1327 57.1638 45.4082L57.1846 46.1881L56.1362 46.4376L58.534 47.2955L57.5064 48.4912C59.2866 48.6576 61.399 47.3995 63.0702 48.1741C63.5373 48.3925 63.0494 49.1983 64.705 48.4964L62.6498 49.8638L66.4178 48.8396L65.5614 50.2121C66.8486 50.3317 68.2914 48.9228 69.3502 48.85C70.2117 48.7876 71.4885 49.2867 72.5888 48.8396L72.2411 49.5206C74.2548 48.9903 75.6406 48.9436 77.727 49.1775L75.9468 46.8484L74.1303 46.7756L74.3015 46.0893L62.9871 46.4272L69.3242 45.3926L69.8432 44.7168C66.9627 44.0929 63.9992 44.6128 61.1031 44.3684C60.6879 44.3321 59.2658 44.2437 59.2139 43.6874H59.2347ZM54.4391 45.4082C51.0551 44.5504 47.4584 44.566 43.9655 44.7064C39.5175 44.8883 34.4987 45.5746 30.3363 47.1967C29.7758 47.4151 27.6634 48.4237 28.3796 49.1827C38.8532 51.3143 49.9756 54.0905 60.6308 51.7666L60.6412 50.4357L61.6377 49.7026C61.399 49.0371 59.0842 49.5674 58.1292 49.4375C55.9546 49.1515 53.5931 47.8986 54.4442 45.4082H54.4391ZM83.9188 51.2415C83.6956 51.4599 81.2147 47.909 80.156 49.6974L86.8356 58.7956L86.3218 56.7368L87.6868 58.1094L87.5155 56.7368L89.4099 59.1388L90.2611 58.1146L93.0066 60.8596L91.4651 58.1146L93.0066 59.4871C93.2765 56.9604 94.7245 60.3137 96.2608 59.8302C96.8577 59.3727 88.6314 52.7232 88.2006 51.9382L87.8632 52.9624C86.8615 50.8724 85.2578 51.9694 84.0848 50.2225L83.9136 51.2467L83.9188 51.2415ZM73.2895 50.9036C65.3694 51.9278 57.5116 54.1269 49.4514 53.6642C42.1956 53.2483 34.5714 51.2207 27.352 50.3889C27.1911 51.0959 27.845 50.9764 28.307 51.1323C29.7187 51.6054 32.2099 52.1565 33.4296 52.7232C33.5074 52.7596 34.3223 53.7942 34.5558 53.9918L31.4729 53.6538C30.7359 54.1945 36.445 54.9432 36.9588 54.6832C36.3256 56.0038 34.7375 55.1147 33.6943 55.0264C33.3206 54.9952 32.4123 54.7768 32.5057 55.3643C34.7634 56.0558 37.1924 55.5671 39.5279 55.7178C48.2161 56.2793 57.496 56.5809 66.179 55.2759C68.9609 54.86 72.9884 54.3037 73.2998 50.9088L73.2895 50.9036ZM76.7201 50.2173C74.8984 50.0925 74.3742 52.2969 73.9849 53.6486C74.5818 53.5135 77.0315 50.5032 76.7201 50.2173ZM26.6669 83.5272C29.9366 84.2187 28.8208 82.607 31.011 81.1773C33.3465 79.654 37.4363 79.524 40.1248 79.8307C41.5469 79.9919 43.5554 81.1305 44.936 80.7146C45.4291 80.5638 46.0052 79.7008 46.6539 79.3368C48.4445 78.3282 52.9599 76.9713 53.3388 74.7045C53.3803 74.4602 52.3526 71.372 52.3526 70.301C52.3526 66.6097 54.138 61.5875 57.2106 59.3415L60.6101 57.0852L48.6158 57.7714L49.1244 58.4577L52.0412 58.7956C50.1676 59.0088 47.8165 58.5253 46.0207 58.7696C45.1436 58.8892 45.9014 59.1804 43.6437 59.1388C40.5971 59.0868 37.592 58.8892 34.561 58.7956C34.3949 59.7834 34.779 59.3623 35.3551 59.5287C37.1249 60.033 39.2321 60.3449 41.0746 60.5165C41.1628 61.0884 40.2442 60.8856 39.8653 60.87C38.9726 60.844 38.2667 60.5789 37.4727 60.5165C37.0938 60.4853 36.1959 60.2617 36.2789 60.8544C37.4208 60.7037 37.6958 60.9792 38.1941 61.8994L40.3947 61.5459L39.0245 62.227L42.45 62.5753C42.507 63.1888 41.2926 62.9392 40.9189 62.908C39.1958 62.7677 37.3118 62.1906 35.599 61.8838C34.8672 62.4921 37.0419 63.012 37.3066 63.09C41.1057 64.1766 45.1488 63.7763 48.9687 64.6289L48.2888 63.9478L52.3993 64.1142L49.659 64.6341L50.3389 65.3152C43.7786 65.5855 37.4052 63.927 31.1459 62.227C30.9487 63.1056 31.3847 62.8248 31.7895 63.116C32.6874 63.7555 33.7462 64.0726 34.5714 64.8057L30.1183 63.6047C30.1391 65.3827 32.158 65.6687 32.8587 67.036C31.9037 67.3168 29.3917 65.7103 28.909 65.7571C28.3018 65.8195 27.9592 67.3792 26.0026 65.6635C25.4109 66.2926 30.1235 69.9787 30.7982 70.301C29.8744 70.8469 26.205 67.5039 26.0026 67.7223C26.1323 69.4743 30.2636 70.5921 29.7654 72.313L29.0855 72.5366L30.4557 73.9039C29.4955 73.7271 28.4315 72.9993 27.6063 72.469C26.7292 71.9075 24.7517 70.0722 24.1082 69.7915C22.3072 69.0064 25.961 72.5885 25.6496 72.8797L23.257 71.6787L29.428 77.0025C26.4697 77.1117 23.449 72.8589 21.3626 72.2038C21.1862 72.1466 20.8021 72.1102 20.8592 72.3702L23.9421 74.9437C22.3799 75.3232 21.7986 73.202 20.5166 73.3996C22.7588 75.7131 25.2863 78.0267 28.4004 79.0717L27.9229 79.7215L24.4611 78.0319L26.3451 80.0907L21.8868 79.0665C22.7328 80.8757 25.7275 81.1565 26.8641 82.4978C27.4143 83.1425 25.9091 82.3834 26.6876 83.5324C23.8694 82.9397 21.4405 80.621 18.4614 80.4442C19.0271 82.1443 27.2689 86.4334 28.0578 85.5912L28.0111 84.2655C27.4039 84.0159 27.108 84.1459 26.6876 83.5324L26.6669 83.5272ZM68.4938 66.0118C68.5717 64.9096 69.5318 64.1714 69.9315 63.1628C72.4902 56.69 64.7102 55.9102 60.3765 58.0522C56.157 60.137 53.4841 66.3498 54.1796 70.9093C54.5429 73.3008 56.7798 74.3718 58.8922 73.0512C58.015 72.1362 56.8992 72.8381 55.8352 72.0011C55.1812 71.4864 54.6467 70.301 54.7868 69.4484C55.9286 69.2924 56.1466 70.9977 56.8369 71.3356C58.5392 72.1726 62.0166 70.5141 63.693 69.7863C63.4854 71.6631 59.9509 71.112 60.2675 73.2176L64.7206 71.8451C64.9127 72.7601 64.4871 72.4378 64.0459 72.6977C63.1688 73.2176 62.1671 73.5608 61.2952 74.0754C61.7363 75.0996 65.3953 73.9819 66.4333 74.4186C65.7171 75.0633 65.1255 75.8743 64.3573 76.4618C64.0563 76.6905 61.3315 77.7459 61.9803 78.3698L69.1789 74.5953L65.0684 78.0319L65.2396 78.7181C66.8486 78.8429 72.0127 73.6803 71.2342 71.4968L70.5543 71.3356C71.8103 70.275 72.1476 68.1122 70.2117 67.8991C71.9037 65.8091 72.7756 63.1836 71.9193 60.5165L69.8069 64.7485L68.499 66.0118H68.4938ZM73.9745 63.6099C73.9123 62.5233 74.1406 59.9602 72.6096 59.8354C72.3968 60.085 73.0611 63.4851 73.9745 63.6099ZM75.6873 62.9236C75.1475 62.4141 75.1008 63.038 74.971 63.3967C73.8552 66.3966 75.8689 68.1902 76.0143 65.102C76.035 64.6289 75.9364 63.1576 75.6925 62.9236H75.6873ZM73.2895 64.6393C72.5629 63.8958 71.0733 67.5611 72.4331 68.0654C73.6216 67.1296 73.632 65.9754 73.2895 64.6393ZM73.9797 72.1934C75.8066 71.008 76.6059 68.4657 76.7149 66.355C76.1129 66.4485 76.1233 67.0464 75.9416 67.4623C75.2565 69.0116 74.5039 70.5817 73.9797 72.1934ZM68.4938 78.0267C73.3881 77.7875 78.6353 72.4638 78.0903 67.3844L75.5316 72.1986C73.5542 74.6109 70.8865 76.1083 68.4938 78.0267ZM85.9792 77.0025C86.519 75.266 86.7007 72.8277 84.4482 72.521C83.6177 72.4066 81.5988 72.443 80.8151 72.6925C80.4674 72.8017 75.3811 76.7477 75.0126 77.1844C73.6891 78.7649 73.2895 80.6678 72.9884 82.6434C73.2116 83.5896 77.1768 83.2153 78.0851 83.1893C78.2875 84.2395 77.2806 83.7456 76.5281 84.1979C76.2634 84.359 75.8067 84.9153 75.6873 85.2429C77.535 85.482 79.1335 84.411 80.8255 83.8703C81.085 84.9829 79.0608 84.8477 79.7926 85.768C80.3117 86.4178 83.597 87.806 84.3547 87.6032C85.6315 87.2549 86.0363 84.7282 83.571 85.9291L84.9412 84.7282C85.2007 84.1251 83.3894 84.2343 84.7907 82.8617C85.3979 82.2691 86.8719 82.2119 87.0121 80.9589L86.4775 80.0959C86.3114 80.0595 84.417 81.484 84.9464 80.2726C85.2474 79.5864 87.3287 77.8083 87.8425 76.9921C88.5016 75.9523 88.5795 74.7461 88.2058 73.5659L87.0017 73.2332C86.9705 74.5226 87.3442 76.2798 85.974 77.0077L85.9792 77.0025ZM56.1518 74.2574C56.3905 76.0719 58.861 75.8483 59.9146 74.7721C59.9198 73.9819 56.7798 74.3042 56.1518 74.2574ZM62.3176 75.9731C61.181 75.5052 60.0495 75.63 58.9856 76.233C58.6067 76.4462 58.3991 76.207 58.5496 76.9921C59.9665 77.7355 61.9491 77.9123 62.3176 75.9731ZM90.0898 79.4044C91.2835 79.5448 91.8492 76.7425 90.941 76.3162C90.2611 75.9991 90.4064 77.0181 90.3285 77.408C90.1936 78.0735 89.9912 78.7129 90.0898 79.4044ZM57.1742 80.439C57.2365 79.0665 58.6949 77.9331 56.6656 77.3508C55.9286 77.5068 55.6691 80.6678 57.1742 80.439ZM20.8384 80.4338L16.7279 77.6887C16.0895 78.3906 19.899 80.8497 20.8384 80.4338ZM54.7349 77.7355L53.401 77.8655C53.5775 78.4478 54.0861 80.6002 54.9425 80.4338C56.0272 79.6956 54.6674 78.687 54.7349 77.7355ZM50.6659 86.6154C51.0966 84.775 53.1 83.8859 53.3855 81.9571C54.1899 76.493 49.1607 78.9105 46.5709 80.6314C43.68 82.555 43.1195 84.9257 43.462 88.3363L45.5121 87.65C45.8287 88.3259 45.5017 89.5528 45.6678 90.0675C45.7612 90.3587 47.4688 92.8074 47.7075 93.1661C48.7455 94.731 48.9531 96.1555 51.3613 95.3965C51.8077 95.2561 52.171 94.7206 52.6225 94.6011C53.6398 94.3307 54.4235 94.7258 55.5861 94.1331C57.5894 93.1141 59.2347 90.1143 60.937 88.6794C60.4596 91.1905 57.7296 93.0414 55.9182 94.6374C55.176 95.2925 55.0878 96.5975 53.401 96.2387C53.6553 97.3929 55.4771 96.2907 56.2556 95.8332C59.3644 94.0032 62.5719 89.5736 62.9975 85.9343L61.6325 87.65L60.771 85.5964C59.2087 87.5876 58.1655 90.0363 55.9701 91.4245C55.8352 90.2651 57.4701 89.4333 58.1448 88.4507C58.6482 87.7176 60.527 84.3642 59.5824 83.678L57.8593 83.8703V82.1547L55.8144 82.1703C55.8715 83.6208 54.9269 85.1077 53.7488 85.9343C53.6761 85.4976 55.8715 81.4008 54.5999 81.4788C54.273 81.4996 52.1502 86.4594 50.6607 86.6258L50.6659 86.6154ZM60.6049 79.4096C59.3385 79.42 58.7676 81.8219 59.7537 82.4978C60.6827 82.9397 60.6879 79.7787 60.6049 79.4096ZM67.3728 80.1479C65.2396 80.465 63.911 83.1425 65.577 84.8945C66.4697 84.3279 70.2429 79.7215 67.3728 80.1479ZM65.7483 86.9585C66.4074 87.1041 66.5683 86.6206 66.9108 86.2411C68.2032 84.8166 70.2117 82.373 70.1962 80.4338C69.0128 81.432 68.4731 82.9397 67.5959 84.1823C66.9368 85.1181 65.577 85.6432 65.7431 86.9585H65.7483ZM37.9813 85.2429L38.5211 81.1045C35.9001 79.9763 32.0334 81.4008 30.4193 83.6884C30.0353 84.2291 28.8104 87.1925 28.7429 87.858C28.6339 88.929 28.935 89.7296 29.0699 90.7382C30.1131 91.8404 29.6304 88.1023 29.755 87.9879H30.7826C30.8034 89.2721 31.0162 91.9808 31.8466 92.9426C32.3345 93.5093 32.9832 93.4053 33.113 93.5613C33.331 93.8212 33.0559 94.5751 33.6787 95.2301C34.5299 96.1244 36.1388 96.3947 37.3118 96.0776C38.7131 95.698 43.6385 91.4921 41.5884 89.7192L37.6491 93.4885C38.1629 91.0605 41.6143 89.3345 41.2458 86.6206C40.9967 87.3277 37.3118 92.0899 36.6163 91.4245L39.7719 87.546C40.2909 86.553 41.5209 83.0333 40.9085 82.1443C39.3411 79.8723 39.6525 85.6224 37.9865 85.2429H37.9813ZM61.2952 85.2429C63.0806 85.0973 62.2449 82.2639 61.9751 81.1253C61.4664 81.2293 60.9993 82.659 60.9578 83.0437C60.8644 83.8651 61.1187 84.4838 61.3004 85.2429H61.2952ZM65.4057 89.3657C65.769 89.7608 68.8467 86.5062 69.1685 86.0955C69.9886 85.0609 71.0473 83.4648 71.229 82.1547C69.8121 83.3193 69.0128 85.0973 67.8035 86.4438C67.0198 87.3173 65.2033 87.78 65.4057 89.3657ZM71.1511 86.8806L71.0681 85.2429C70.7307 85.8512 66.0493 90.7382 66.4385 91.0761C66.9212 91.4921 67.2897 90.9098 67.5648 90.6498C68.7533 89.5476 69.7498 87.7904 71.1511 86.8754V86.8806ZM79.1179 85.586C79.0037 85.4716 77.4623 86.0643 77.1405 86.1891C76.881 86.2879 76.0714 86.1371 76.3828 86.787C76.8447 87.7384 78.6197 87.8528 79.3048 86.9793L79.1179 85.5912V85.586ZM96.2556 92.1107C96.6241 88.6794 96.0376 87.1301 92.4876 86.6154L94.6986 88.6898L96.2504 92.1107H96.2556ZM72.2618 87.65C71.9867 87.3485 70.8138 88.6898 70.5699 88.9497C70.3052 89.2305 68.5613 91.1749 68.8364 91.4245C70.0457 91.8976 72.7704 88.2011 72.2618 87.65ZM79.1231 88.6742C80.3116 89.1317 81.5676 89.1213 82.5434 88.1647C82.5538 87.5252 78.8844 87.0677 79.1231 88.6742ZM79.2892 99.6701C81.0175 99.9716 83.4672 99.4465 85.2889 99.6701C85.3668 100.174 84.6869 100.148 84.3288 100.252C81.578 101.043 79.3152 100.772 76.7201 99.6753C76.0143 100.33 79.0349 101.5 79.4397 101.583C80.8151 101.859 82.1905 101.703 83.571 101.739C84.1264 102.166 83.5658 102.363 83.0624 102.426C81.0486 102.68 79.0505 102.103 77.0575 102.082C78.0643 104.781 82.5901 104.001 84.9412 104.146C84.6558 104.697 82.9326 104.833 82.3877 104.843C80.7424 104.874 79.3515 104.49 77.7477 104.49C76.8083 105.171 82.8859 105.545 83.4205 105.529C84.8426 105.488 86.5968 105.015 88.0345 104.833C87.8165 105.373 84.7388 106.205 84.4326 106.205H78.7754C78.8221 107.541 80.9604 107.848 82.0192 107.936C85.4498 108.217 88.7663 106.845 92.1451 106.554L87.7594 108.165L81.8635 108.955C81.8635 109.273 82.1697 109.481 82.4552 109.564C89.3528 111.477 101.352 104.63 103.812 97.7984C103.241 97.0446 103.226 97.8452 103.023 98.0636C100.486 100.793 98.3835 104.318 94.5481 105.519C96.9718 103.445 99.5825 101.485 101.342 98.7654C101.684 98.2299 103.008 95.8436 103.107 95.3809C103.257 94.6946 103.221 94.3827 102.432 94.5335C101.005 98.7914 97.5272 102.082 93.8578 104.49C93.7021 103.814 94.2055 103.673 94.574 103.32C97.5998 100.398 101.062 97.6321 102.063 93.3013C102.183 92.2355 101.394 93.3533 101.259 93.5301C98.8922 96.5819 97.6673 100.611 93.5152 102.082C95.0982 99.9872 97.3922 98.4691 98.7987 96.2179C99.5669 94.991 102.017 90.3951 99.6863 90.0675C99.7226 93.9408 97.5427 96.9666 94.7141 99.3373C94.3301 99.6597 94.1588 100.169 93.5152 100.024L97.5739 94.991C98.4977 92.693 100.563 88.3935 96.9407 87.6604C97.9216 91.2373 96.7902 95.7968 94.0239 98.3027L94.8802 95.9008L93.1675 97.1018C95.4096 94.2059 95.8663 87.65 90.7749 88.3519C90.4635 88.6274 92.5032 91.8196 92.6693 92.4591C93.4374 95.4121 91.2108 96.951 89.4047 98.8278C88.6885 99.2229 89.1815 98.3079 89.332 98.0636C91.0396 95.3133 92.7938 95.4797 91.2939 91.4453C91.1901 91.1593 90.287 89.2461 89.7524 89.7296C89.1192 90.9358 90.1572 91.0449 90.5206 91.8768C91.0136 92.9842 90.8216 94.0396 89.9133 94.8766C88.9428 95.0378 89.9808 93.6912 90.0275 93.2441C90.0898 92.6566 90.0742 92.5007 89.5708 92.1315L88.0345 93.1609L88.3719 91.1021C86.519 91.5544 84.9879 92.9998 83.0105 93.1401C81.6092 93.2389 78.5626 91.6792 78.4536 93.66C78.355 95.4953 80.5296 96.8054 82.206 96.5975L80.4881 97.2837L81.1732 98.3079L77.0627 97.2837C77.0211 98.4223 78.2771 99.5089 79.2892 99.6857V99.6701ZM88.3719 87.9931L84.4897 90.4575L83.571 91.4245C84.4949 91.778 89.0725 88.6846 88.3667 87.9931H88.3719ZM53.0637 98.6355C55.0359 98.7966 56.9251 97.4449 58.3835 96.2439C60.6516 94.3723 63.2259 91.2789 63.6878 88.3363C61.9699 90.7382 60.6983 93.2441 58.3835 95.2145C56.6397 96.6962 54.6934 97.1693 53.0637 98.6355ZM69.864 100.013C70.2636 97.9024 71.1667 96.036 69.864 94.0032C69.5785 93.5612 68.5042 92.5111 67.9696 92.4539C64.9853 92.1419 63.5165 95.8644 61.6377 97.4449C59.4371 99.2957 55.9909 100.341 56.6397 104.162C57.2521 105.03 59.5305 103.741 59.2347 105.165L56.1674 105.529C56.0324 106.642 56.0065 108.066 57.3663 108.264C58.4406 108.42 59.4734 107.437 60.2571 108.43C59.4527 109.018 57.522 108.514 57.5168 109.969L61.2848 109.631C59.3022 111.586 62.9249 112.252 64.3781 111.524C64.9075 111.259 64.9646 110.437 65.0995 110.344C65.276 110.219 66.3659 111.04 67.7828 110.13C71.4158 107.801 75.0697 100.341 75.2669 96.0516L73.9694 95.5525C73.6009 98.6926 72.6822 102.285 69.8588 104.141C69.8277 103.231 70.7567 102.951 71.146 102.176C71.8933 100.699 74.0628 94.7882 72.8587 93.5769L70.2014 93.3221C71.7221 95.0066 71.857 98.6199 69.8588 100.018L69.864 100.013ZM35.9208 98.2923C36.4191 98.3235 36.7616 98.6407 37.3014 98.5003C37.9761 98.3235 42.5745 94.4919 42.0918 93.1453C40.431 95.5525 37.7892 96.2283 35.926 98.2923H35.9208ZM63.0027 93.1453C62.764 92.8958 60.8384 94.7778 60.6153 95.0274C60.008 95.7032 59.5202 96.5871 58.8922 97.2629C59.4112 97.736 63.1895 94.2371 63.0027 93.1453ZM43.8046 94.5179C43.2025 93.9408 40.7891 96.5923 40.3791 97.0914C40.0573 97.4761 39.5487 97.6477 39.694 98.2923C40.7632 98.6615 44.3547 95.0378 43.8046 94.5179ZM45.1799 102.415C45.7457 100.476 47.6764 98.9838 45.3512 97.3305C41.9361 97.7932 40.4362 104.827 42.5901 106.574C43.654 107.443 45.4031 104.692 45.8598 105.16C46.0052 106.559 43.0935 107.198 43.462 108.415C44.4533 109.663 45.7457 108.285 46.8875 108.248L44.8322 109.621C45.0398 110.832 46.5968 109.72 46.8875 109.964C45.6107 112.101 48.7819 112.002 50.2299 111.42C51.0759 111.077 54.4131 106.574 54.7712 105.664C55.0048 105.067 54.4598 105.072 54.0965 105.16C53.0844 107.24 50.9357 110.089 48.6054 110.65C51.7765 108.077 54.2989 104.999 54.4339 100.694C52.363 100.258 53.0637 101.776 52.5499 103.096C51.8855 104.786 50.7281 106.273 49.4669 107.562L51.7143 103.294C52.1606 102.124 52.5343 100.044 50.7074 100.398L49.2957 102.415C49.3891 101.334 50.2247 100.471 49.0569 99.7272C46.9394 98.3755 46.7266 101.651 45.1799 102.415ZM84.2613 111.342C88.7248 111.789 92.7834 110.208 96.6085 108.087C99.3748 106.554 102.38 104.697 103.112 101.381C99.6551 104.729 94.7868 108.446 90.0898 109.798C88.3044 110.312 86.5865 110.39 84.7751 110.661C84.1783 110.749 84.199 110.479 84.2613 111.337V111.342ZM67.4662 111.685C68.2343 112.47 71.7324 108.711 72.2566 108.072C73.6943 106.299 75.106 104.126 75.0074 101.729C72.9988 104.063 71.8466 107.047 69.6927 109.283C68.9454 110.058 67.1859 110.364 67.4714 111.69L67.4662 111.685ZM90.0898 112.028C92.1347 112.132 94.1329 111.435 95.9234 110.494C96.5047 110.188 100.631 107.541 100.029 106.881L95.4667 109.689L90.095 112.028H90.0898ZM52.036 111.342C53.2142 112.34 56.9666 108.716 54.6051 107.573L52.036 111.342ZM49.9756 113.063C45.9481 114.243 44.0537 111.004 41.251 108.955C34.4209 110.656 31.1771 115.803 33.3673 122.66C34.6752 126.757 37.4104 128.368 41.6247 128.816C42.0036 128.857 42.86 129.128 42.7769 128.519C42.2942 128.28 38.0903 127.261 39.1854 126.455C39.9795 125.873 41.8531 127.308 42.9793 127.453C44.2924 127.62 45.2993 127.334 46.5501 127.147L45.865 128.514C47.7594 128.722 47.2923 127.053 46.8875 125.769C45.2682 126.242 43.9551 126.382 42.4188 125.603C41.9154 125.348 41.5884 125.608 41.7545 124.74C42.5278 124.511 46 125.935 46.2076 124.906C46.4671 123.611 42.4811 124.116 42.7821 122.338C43.4983 122.171 46.2128 123.643 46.2024 122.166C46.2024 121.61 44.4378 121.885 44.8374 121.142C46.6176 120.357 46.2231 118.854 46.9498 117.414C47.256 116.806 50.1884 113.25 49.9808 113.068L49.9756 113.063ZM95.9182 121.646C97.1898 119.915 100.335 118.34 100.901 116.166C101.389 114.29 101.695 109.205 98.6638 110.318C99.3074 112.48 99.7901 113.998 98.6586 116.151L97.9787 115.641C98.586 114.331 99.3074 112.636 97.8178 111.654C95.8041 110.323 95.9338 113.978 95.5965 114.965C95.0982 116.421 93.51 117.066 93.5256 118.553L95.9234 117.872L96.0895 118.896L97.2936 118.215C97.8801 118.782 95.311 119.977 95.0567 120.263C93.2402 122.275 96.5722 123.731 98.8351 121.646C99.2088 121.298 101.612 118.059 101.747 117.695C101.97 117.107 101.29 117.003 101.072 117.191C100.854 117.378 99.9977 119.177 99.3645 119.775C98.6119 120.492 96.9874 121.584 95.9234 121.646H95.9182ZM63.6878 114.778C63.8124 114.175 63.3764 113.931 63.0079 113.572C62.4681 113.047 59.0946 110.479 58.5496 111.004C58.0046 112.574 63.1636 115.262 63.6878 114.778ZM66.7759 112.033C66.7032 111.929 65.7067 111.784 65.3953 111.83C65.0839 111.877 63.4179 112.309 63.693 112.886C64.2587 114.066 67.6997 113.375 66.7759 112.038V112.033ZM99.3489 122.332C103.179 120.846 105.167 115.844 103.802 112.033L102.94 116.832L99.3489 122.332ZM59.0894 119.099C59.8471 118.142 61.8194 116.38 60.9734 115.272C60.6724 114.877 57.1275 112.548 56.5774 112.444C51.5118 111.472 45.9221 119.312 48.0864 124.069C50.0638 124.708 51.6883 124.87 53.7488 124.396L50.3285 125.941C51.2835 127.329 52.991 126.674 54.4339 126.804L52.3786 127.49V128.514L56.8369 127.828C56.9199 129.018 57.1535 130.24 58.4614 130.521C60.937 129.632 63.6878 127.667 65.4109 125.597C64.1445 124.906 63.2311 127.407 61.9854 126.975C63.1532 126.122 66.9524 122.041 66.7863 120.799C66.7344 120.419 66.3503 120.227 65.9247 120.612C64.2639 122.119 62.8626 125.571 60.6205 126.798C60.3869 125.852 60.7554 126.013 61.046 125.665C62.4577 124.012 63.9058 122.66 65.0061 120.721C65.2812 120.232 66.7136 117.425 66.4437 117.185C66.4022 117.149 65.333 116.998 65.4265 117.435C65.3901 118.558 64.4248 119.925 63.693 120.783C63.2933 121.251 60.8073 123.539 60.4388 123.71C60.2883 123.778 59.8783 123.799 59.9302 123.544C60.9111 122.587 64.9957 118.6 64.6895 117.43C64.6116 117.133 63.8487 116.39 63.7034 116.499C63.8124 117.165 61.674 120.976 60.9578 120.274C61.6221 119.088 63.0183 117.601 62.5045 116.156L57.7036 121.303C57.2832 120.518 58.7209 119.582 59.1049 119.099H59.0894ZM92.8353 117.18C94.1225 116.426 95.7314 114.05 94.3768 112.725C93.2246 113.359 93.9875 114.056 93.8007 114.856C93.6138 115.657 92.8042 116.291 92.8353 117.18ZM88.3719 117.872C89.223 114.591 84.6454 112.694 82.0555 113.078C81.4794 113.161 81.0435 113.588 80.5867 113.671C78.5834 114.035 76.1544 113.983 74.6648 115.808C75.952 115.803 77.0575 115.017 78.2979 114.81C78.6456 114.752 79.5591 114.534 79.4657 115.121C77.5765 114.882 75.8897 116.853 74.6493 117.357C74.2029 117.539 73.7462 117.17 73.305 117.357C70.9903 118.314 72.1788 123.315 71.9608 125.395L75.0074 125.774C75.5368 123.487 72.8483 123.523 72.9521 121.657L74.151 122.338L75.6925 120.284C75.2046 121.376 76.2426 122.416 76.3205 122.93C76.3879 123.351 75.7599 123.736 75.6925 124.251C75.4849 125.915 77.4 127.038 78.0903 128.363L76.035 128.878C75.8897 132.382 78.6768 131.602 81.1784 131.628L78.438 132.314C77.6855 133.032 82.0296 134.675 82.3721 134.69C83.0468 134.722 83.8721 134.03 84.609 134.025C84.609 132.975 83.5814 132.288 82.7199 132.99L82.5538 132.314C84.225 131.847 86.2335 131.02 87.666 130.048C88.6314 129.393 89.0518 128.691 89.7836 128.046C90.6814 127.251 92.1918 127.349 91.8129 125.447C90.5673 125.28 90.1105 126.497 89.1815 127.1C87.858 127.963 86.1505 129.05 84.6142 129.216C84.2613 128.951 91.569 125.675 90.7852 123.726C89.4462 123.533 88.9583 124.974 88.0241 125.592C86.218 126.783 83.3323 127.942 81.1888 128.02C84.3392 126.528 88.7352 125.41 90.1002 121.844C89.2749 120.658 88.6106 122.093 87.8113 122.639C85.8962 123.939 83.5762 125.369 81.4223 126.2C81.0902 126.33 80.3791 126.762 80.156 126.304C81.8946 125.02 88.2992 122.338 89.0673 120.461C89.3216 119.842 88.6677 119.837 88.2629 120.003C87.0224 120.513 85.3357 123.081 83.2389 122.696C84.3495 121.074 89.0466 120.809 87.173 118.236L86.5501 118.288L83.5814 120.643L85.6315 118.064C85.8131 117.237 84.4533 117.123 83.9188 117.206C84.552 115.901 83.9291 115.61 83.5814 114.461C84.6869 114.29 85.3824 115.215 85.6834 116.151L87.0069 115.829C86.9446 116.754 87.5778 117.513 88.377 117.893L88.3719 117.872ZM68.1513 124.734C68.9973 125.675 70.6425 120.227 70.2014 119.587L68.6651 122.338L68.1461 124.734H68.1513ZM107.695 127.594C107.845 127.355 108.473 127.433 108.618 126.627C108.899 125.088 108.286 122.639 107.004 121.703C106.657 121.449 105.032 120.606 104.71 120.669C103.683 121.553 102.899 122.426 101.726 123.169C101.015 123.617 99.7797 123.804 99.3489 124.225C98.9181 124.646 98.3783 126.466 97.9683 127.142H97.2884C97.6206 126.866 98.5704 124.298 97.4649 124.745C95.7003 126.58 93.4685 129.076 96.0791 131.275L102.769 134.701C103.729 133.708 98.451 130.822 99.4942 129.206C99.7122 128.868 103.283 126.731 103.797 125.774C104.139 127.511 102.671 127.672 101.752 128.691L102.676 129.512C104.139 129.897 107.425 125.774 106.895 124.059C108.675 125.415 106.786 127.973 105.525 129.039C107.02 130.536 106.999 128.701 107.695 127.604V127.594ZM109.906 122.759C109.594 122.551 108.748 122.447 108.945 123.185C110.933 123.939 110.523 127.329 110.077 129.138C109.464 131.623 107.015 133.458 105.515 135.382C110.357 133.567 112.158 130.443 111.322 125.275C111.245 124.807 110.144 122.925 109.9 122.764L109.906 122.759ZM76.7201 128.171C77.1249 126.429 71.7947 125.904 71.5819 126.112C71.4833 128.665 74.068 127.417 75.1268 127.583C75.5575 127.651 76.035 128.405 76.7201 128.166V128.171ZM66.0493 129.85C66.2776 129.59 66.3347 127.074 65.2863 127.183C64.9905 127.214 60.4855 130.162 60.2675 130.417C59.9146 130.833 59.9613 131.503 59.8886 131.571C59.3904 132.039 57.2054 130.417 57.522 131.945C58.7157 132.247 59.7278 131.982 60.8903 131.717C61.5183 131.576 65.8676 130.058 66.0493 129.85ZM56.4891 130.916L55.8196 129.008L53.7488 129.206C54.0861 130.396 55.2695 131.036 56.4891 130.916ZM44.1471 130.235L37.374 129.965C36.336 132.444 37.6024 136.146 40.3791 136.754C40.2909 134.451 36.8602 132.85 39.694 130.573C39.7511 132.314 39.201 133.952 40.8981 135.023C41.4638 134.456 44.7595 130.802 44.1523 130.23L44.1471 130.235ZM93.1779 129.549C92.8872 129.268 89.5137 132.34 88.9739 132.715C86.3477 134.54 83.7579 135.751 80.4933 135.897C82.3202 137.186 85.3045 135.855 87.1262 134.992C89.5708 133.833 92.0932 132.127 93.1727 129.549H93.1779ZM50.3233 138.475C51.2887 136.775 50.7333 130.448 48.704 129.939C41.6299 132.47 39.4864 141.096 44.5 146.882C47.1314 149.923 53.1571 151.748 56.3334 148.79C58.9804 146.326 63.9006 138.231 60.6101 135.039C61.1602 138.423 60.2416 141.402 58.5444 144.309C58.0981 144.376 57.6673 144.413 57.8801 143.815C58.1811 142.978 59.0634 142.031 59.4112 140.882C59.9042 139.255 60.034 137.768 59.9146 136.068L57.5116 142.931C56.868 143.004 57.2261 142.234 57.3351 141.896C58.0306 139.77 60.008 137.654 58.0306 135.382C57.4337 135.361 57.4441 138.356 57.2728 139.089C57.2313 139.276 56.7123 141.226 56.1466 140.524C55.9598 140.295 57.9787 135.839 55.804 135.034L54.7764 137.092C54.9062 135.33 54.875 133.479 52.7211 134.347C52.7471 133.521 52.3111 132.554 51.3458 132.626C51.0084 133.006 52.0412 137.794 50.3181 138.465L50.3233 138.475ZM89.0569 130.235L84.9516 132.465C84.8997 133.739 90.5257 132.32 89.0569 130.235ZM75.3447 133.328L72.2618 132.637C72.3189 134.061 74.1199 134.077 75.1735 134.009L75.3447 133.328ZM97.9735 140.882C98.8091 137.508 98.1811 137.134 96.2608 134.872C95.2435 133.671 95.2695 132.107 92.7056 133.37C90.0483 136.489 86.327 136.65 87.1626 141.584C87.6972 144.766 89.8926 146.003 92.6848 147.048C93.6606 147.033 93.3336 147.048 92.7679 146.622C91.3562 145.556 89.0414 143.815 89.4151 141.912C90.5102 142.9 91.3302 145.499 93.3336 144.995C94.8854 144.605 91.351 142.239 92.1554 141.231C93.0689 140.856 92.9703 142.25 93.3543 142.255C94.2211 142.265 96.785 138.018 95.9286 136.77C96.4217 136.749 96.4684 138.044 96.5255 138.434C96.6812 139.551 95.9494 141.023 97.9839 140.893L97.9735 140.882ZM101.742 138.132C101.69 136.177 100.236 134.857 98.6638 134.009L99.0063 135.039L97.9683 135.216L98.6638 136.754L100.029 136.219L101.742 138.132ZM74.2185 136.515C74.0005 136.266 71.3432 134.659 71.0837 134.675L70.2014 136.754L69.044 135.756C65.8676 137.347 65.4472 139.546 65.551 142.952L69.8588 143.965L65.7534 144.828C65.769 145.634 68.8779 145.281 69.5163 145.343C69.7602 146.43 68.3329 145.946 67.544 146.284C66.2361 146.835 67.8399 147.412 68.6703 147.423C69.8017 147.438 71.0318 146.794 72.2566 147.064L69.8588 147.75C70.0145 149.663 72.2722 148.411 73.4555 148.405C74.26 148.405 74.9555 148.795 75.8067 148.759C78.4121 148.645 82.1074 146.404 82.0296 143.627L76.3724 147.402C76.2011 146.658 76.7824 146.638 77.1561 146.3C78.9415 144.657 84.3651 142.115 81.8635 139.162C81.1369 142.702 77.2651 144.844 73.9745 145.681C76.4087 143.446 79.9951 143.066 80.8307 139.312L79.9795 138.475C79.1179 139.973 78.8896 141.018 77.5817 142.26C77.1301 142.686 73.5645 145.239 73.2895 145C72.6926 144.475 73.7773 144.246 73.933 144.111C74.8828 143.274 76.3153 142.65 77.0678 141.745C77.6647 141.033 79.1646 138.558 77.7529 138.132C77.1924 139.525 75.5264 141.283 73.9745 141.563L76.58 138.496L75.8586 137.456C74.8361 138.933 73.7254 140.607 71.9193 141.226C71.203 140.529 75.7755 138.309 74.2133 136.52L74.2185 136.515ZM79.4605 136.754C78.7858 135.408 77.0367 135.216 75.6925 135.044C75.5264 135.943 75.8637 135.647 76.3724 135.886C77.2547 136.302 78.4796 136.671 79.4605 136.754ZM63.0027 135.73C62.5045 135.257 62.3799 135.756 62.3228 136.24C62.193 137.3 62.4007 138.434 62.2346 139.593C61.9803 141.387 61.0149 142.65 60.6101 144.319C62.7432 142.011 64.7829 138.891 63.0027 135.735V135.73ZM14.3249 140.877C13.074 139.531 10.4686 140.113 8.83893 140.196L11.4132 140.877H14.3249ZM95.4719 141.262C95.1968 141.335 93.9304 142.588 93.8889 142.816L94.766 143.945L96.9407 142.078C96.5255 141.626 96.1622 141.075 95.4719 141.257V141.262ZM63.6878 141.912C62.8159 141.714 63.0909 142.146 62.8003 142.556C61.2485 144.782 60.0755 146.726 57.8593 148.431C60.9267 148.088 63.5944 144.906 63.6878 141.912ZM98.1967 144.361C96.7798 144.74 98.7987 145.65 99.5617 145.681C100.325 145.712 100.61 145.359 101.056 144.828C101.062 144.173 98.7261 144.22 98.1967 144.361ZM82.5486 154.613C84.962 152.669 87.0692 148.489 84.7647 145.702C83.3167 143.955 82.341 147.111 81.2978 148.041C80.104 149.107 78.5834 149.107 77.7633 149.653C77.0834 150.105 75.2409 154.519 75.6925 154.961L77.4 155.476L76.035 157.02L77.919 155.996L78.5937 158.06L80.4881 157.706C79.8186 158.933 81.8427 160.81 82.7199 160.789C83.597 160.769 82.3773 158.746 83.4049 158.398L83.9291 160.108C86.7941 160.124 85.0346 158.757 85.4498 157.722C85.7509 156.963 88.5483 155.377 89.3528 154.057C90.3285 152.461 91.7039 148.764 89.4047 147.75C89.2023 151.317 87.9359 155.954 83.9188 156.677L86.8096 154.254C87.967 152.081 89.768 148.197 86.8304 146.731C85.9169 147.511 86.4775 148.8 86.2387 149.903C85.8806 151.556 84.552 154.603 82.5486 154.618V154.613ZM70.8916 154.613C74.4261 149.029 70.0508 150.698 67.0043 148.722C65.6185 147.823 65.6548 146.924 64.8815 146.04C64.0459 145.088 62.2553 147.818 61.4612 148.437C59.1257 150.246 57.3559 150.391 55.9805 153.589C54.6051 156.786 54.7712 159.666 56.0791 162.76C59.2814 170.314 73.3258 169.94 76.3724 162.515C72.8379 165.536 68.1928 166.898 63.558 166.659C63.0338 165.349 62.5771 164.356 60.9474 164.579L61.9751 166.295C58.6534 165.375 56.0843 161.678 56.1414 158.242C56.1674 156.557 58.1759 150.859 59.8004 150.209C61.9543 149.346 58.8039 152.876 58.643 153.168C57.2261 155.674 56.1362 160.285 58.887 162.177C58.996 161.138 57.8074 160.249 57.8593 159.287C57.8749 158.954 59.1932 154.769 59.4215 154.275C59.6499 153.781 59.38 153.433 60.2623 153.594C60.4492 155.419 59.0946 157.821 59.6343 159.547C59.816 160.134 60.4232 160.368 60.7917 159.781C61.0979 158.413 60.9526 156.516 62.3228 155.648C61.4457 158.122 62.4837 165.146 65.2448 165.947C66.6098 166.342 64.3106 163.841 64.1082 163.306C63.6982 162.224 63.5996 161.262 63.693 160.113H64.7206V161.829C67.3001 161.283 74.1718 159.318 74.3275 156.167C74.3482 155.736 74.3223 155.45 73.8085 155.653C71.5767 156.526 68.8519 160.212 65.7483 160.113C65.5718 159.224 65.9351 159.51 66.4126 159.256C68.717 158.013 70.9902 157.545 72.7756 155.31C74.1199 153.625 73.5542 153.272 74.151 151.878C74.4105 151.275 75.5004 151.052 75.3447 150.157C71.9971 149.409 73.6631 154.077 70.8916 154.618V154.613ZM99.0063 146.035C97.7815 146.284 95.4304 144.719 95.2332 146.716C96.484 146.986 98.15 147.397 99.0063 146.035ZM96.6033 153.24C96.5722 151.733 97.086 148.972 94.8906 149.123C94.7038 150.459 95.0826 151.452 95.7522 152.565C96.0117 153.001 95.6847 153.433 96.6033 153.24ZM92.7367 150.256C92.6381 150.142 91.5067 149.404 91.4651 149.466C91.6572 151.348 90.505 153.786 89.2853 155.19C88.922 155.611 85.4914 157.914 86.3166 158.741C87.993 158.845 91.6987 155.538 91.7921 154.088C91.8233 153.62 91.434 153.032 91.4911 152.752C91.5378 152.528 94.055 151.837 92.7367 150.256ZM94.5481 159.422C95.6743 160.446 98.6223 155.133 98.8403 154.285C99.2347 152.762 99.0634 151.514 97.8023 150.506C97.0341 150.49 97.3507 154.421 97.1275 155.315C96.6968 157.01 95.093 157.909 94.5481 159.422ZM54.6051 151.525C52.7938 151.618 50.9357 151.525 49.1192 151.525C48.8026 151.525 46.6695 154.098 46.4671 154.707C45.9221 156.365 45.9636 159.978 47.9151 160.457L48.0864 159.427C49.1659 161.84 51.6831 160.067 53.728 160.098C53.1156 156.76 54.5688 154.535 55.4563 151.696C55.7833 150.662 54.6622 151.53 54.6051 151.53V151.525ZM94.1017 155.684C92.7782 156.022 91.434 159.453 94.2574 157.93C96.2971 156.828 95.3421 155.367 94.1017 155.684ZM87.692 160.108C89.55 160.524 89.6953 159.282 90.7697 158.221C90.2766 157.602 90.4012 157.769 89.8666 157.987C89.4929 158.143 87.1366 159.625 87.692 160.103V160.108ZM74.3171 158.736C73.4452 159.354 72.5473 159.848 71.5664 160.269C70.5854 160.691 65.1929 162.011 65.4109 163.025C65.7742 164.709 67.8191 162.245 67.9748 162.25C68.1617 162.25 68.5509 162.874 69.3139 162.859C70.5699 162.833 75.4433 160.28 74.3223 158.736H74.3171ZM92.8301 159.084C91.2783 158.367 89.9289 159.552 89.7472 161.143L92.8301 159.084ZM93.863 162.515C95.5861 162.817 97.1691 160.176 97.631 158.741L93.863 162.515ZM93.0793 160.176C91.9323 160.477 89.467 162.588 92.0776 161.933C94.0913 161.429 94.8231 159.724 93.0793 160.176ZM70.2066 164.917C70.4038 165.11 74.5507 162.661 74.9814 162.323C76.0973 161.444 75.6198 160.545 74.6596 160.966C74.1614 161.184 69.3761 164.111 70.2014 164.917H70.2066ZM61.9751 163.545C61.8246 162.37 61.3419 160.919 59.9198 161.143C59.8004 162.703 60.309 163.649 61.9751 163.545ZM54.4339 165.604C55.5601 161.564 53.51 160.805 49.9911 162.011C45.5381 163.534 42.2942 168 44.4222 172.721C44.5935 173.106 44.9827 173.834 45.3616 173.168C45.865 172.274 45.1696 169.279 45.6211 167.584C45.7612 167.059 46.0986 165.682 46.8979 165.952C47.1626 166.29 44.4637 173.761 47.9255 173.506C48.4912 172.913 46.6747 168.952 48.6106 169.04C49.3683 171.556 48.1435 176.319 52.0412 173.506L49.9911 175.908L54.1017 174.198L50.6762 176.771L53.0741 176.599L52.389 177.967C53.2661 179.183 57.003 176.792 57.8801 176.09C59.4163 174.863 60.418 173.132 60.9526 171.27C60.418 170.595 60.4077 171.203 60.1897 171.546C59.0115 173.418 58.2434 175.357 56.1622 176.599C56.7331 175.149 57.9995 174.307 58.7416 172.835C59.1724 171.983 59.5721 171.052 59.5824 170.075C58.7157 170.725 58.124 172.082 57.3559 172.82C56.9666 173.194 56.2919 173.542 55.8196 173.849C55.3837 173.392 59.4942 169.362 58.9025 168.011C58.2849 167.324 56.8836 170.797 56.1674 170.756C56.2919 169.175 58.1396 167.434 56.676 165.957L54.1069 170.07L55.4563 166.103C55.7262 165.224 54.6207 165.775 54.4442 165.604H54.4339ZM88.0345 164.923L83.924 163.545C83.1973 164.299 87.4947 166.732 88.0345 164.923ZM80.4933 169.04C82.8911 166.399 79.9276 165.115 77.6232 163.93C76.7461 165.572 73.4711 167.704 72.7756 169.035C72.594 169.383 72.5577 169.68 72.6044 170.059L73.9745 170.745L72.2618 171.775L75.3447 170.751L73.2895 173.153L77.0575 171.78C77.5038 172.206 74.7894 173.652 77.073 174.702C78.7027 175.45 81.7545 172.076 82.2839 170.657C82.5174 170.033 83.1662 167.922 82.206 167.657C82.3721 168.562 79.0193 173.007 78.4328 172.461C78.9986 171.193 80.0781 170.407 80.4881 169.03C80.3272 169.206 78.5211 170.849 78.4328 170.745C78.4432 169.03 80.8566 168.084 79.803 166.285C81.2926 166.207 80.7736 168.078 80.4881 169.03L80.4933 169.04ZM82.5486 179.339C84.4482 179.589 85.0761 177.852 85.9896 177.125C86.5553 176.672 87.3961 176.688 87.8788 176.272C89.441 174.931 88.6885 168.416 86.8252 167.668C86.0259 167.423 86.2387 168.832 86.3218 169.201C86.6124 170.433 87.9048 170.366 87.3183 171.905C86.5398 173.943 83.6333 176.22 81.9517 177.551C81.5417 177.873 81.0175 177.941 81.1732 178.658C83.4672 178.955 86.1505 173.828 86.8408 173.522C88.5379 172.773 86.9757 175.549 86.493 175.918L82.5434 179.339H82.5486ZM78.7754 175.908C80.3168 175.684 82.2527 174.187 83.2337 172.991C83.8357 172.253 85.808 169.357 84.4274 168.702C83.7682 168.39 82.9949 171.993 82.1956 172.295L78.7754 175.908ZM56.1518 178.653C58.1915 178.695 60.4647 175.809 61.4249 174.151C61.6792 173.714 63.911 169.362 62.4889 169.388L60.2001 174.645L56.1466 178.653H56.1518ZM65.058 169.732C64.2847 169.134 62.738 173.449 62.3747 174.078C61.6377 175.357 60.5737 176.308 59.9146 177.624C61.9128 177.65 66.2932 170.683 65.0528 169.732H65.058ZM64.3833 175.222C66.1375 174.13 67.0458 172.534 66.7759 170.418L64.3833 175.222ZM79.803 177.624C80.6646 178.403 86.4982 172.607 85.6263 170.761L83.9136 173.334C82.3513 174.525 80.675 175.83 79.803 177.624ZM68.4886 174.879C68.1098 174.478 62.9093 177.852 62.3228 178.487C60.9889 179.922 60.3246 181.85 60.6101 183.805L61.4664 182.771C62.8833 183.998 62.655 184.164 64.7206 183.81L63.0079 185.178L65.3746 184.871C65.4888 185.407 65.8676 187.029 66.5994 186.914L70.8916 183.462L69.1789 186.893C70.3519 187.143 70.7204 185.926 71.5715 185.521C71.7376 186.566 71.3224 187.138 70.5543 187.751L72.376 189.249L76.7201 185.687L76.2115 185.178L73.6372 187.237C73.1493 186.685 75.8118 184.824 76.0298 184.315C76.2115 183.894 75.952 183.67 75.5264 183.81L74.3223 184.492C73.8033 183.436 77.0367 181.341 76.3724 180.717C75.4485 179.844 73.7566 183.322 72.9469 183.462C72.8483 182.303 75.1216 180.4 75.0022 179.521C74.779 177.915 73.1753 181.154 72.6044 180.712L73.2843 178.31L70.5439 179.682L71.5664 177.624L68.826 178.991L69.5111 177.281L65.7431 180.369C65.7431 179.365 67.1548 178.565 67.4506 177.785C67.8503 176.74 65.6704 177.91 66.0856 176.594C66.6617 176.651 69.3969 175.835 68.4834 174.873L68.4886 174.879ZM54.7764 181.403C53.8422 178.357 48.6781 179.277 46.4359 180.431C44.1938 181.585 42.6627 185.178 42.5226 187.512C42.4811 188.162 42.2372 188.484 42.9482 188.952C44.5052 187.159 44.0329 184.933 45.5225 182.953C46.0778 182.214 49.3164 179.386 49.9756 180.894C50.2507 181.523 48.1435 181.918 47.5933 182.277C46.384 183.062 44.5675 185.329 45.5017 186.737C45.7249 187.075 46.1038 187.429 46.384 186.899C46.6643 186.368 45.8027 184.829 47.0691 184.159C47.8476 184.507 47.121 185.443 47.5829 185.708C47.9047 185.89 48.2577 185.505 48.3822 185.557C48.6521 185.672 48.8389 186.415 49.6382 186.384C48.3563 187.455 46.493 188.188 44.8478 187.585C42.9534 192.004 48.9895 189.015 49.2957 189.306C49.5863 190.715 46.2076 190.876 46.2076 191.193C46.9134 191.838 49.5396 190.59 49.2957 192.051C48.5743 191.879 45.6159 192.098 45.8702 193.252C46.2076 194.78 49.7265 192.352 50.6659 192.914C49.9444 193.735 48.8389 193.865 47.9255 194.307C47.4324 194.546 47.0691 194.234 47.2404 195.144L52.1606 193.382L56.4943 190.683C57.3196 191.515 51.1382 194.484 50.8371 195.144C50.1832 196.574 53.2194 194.941 53.5308 194.744C54.5273 194.12 58.996 190.023 58.2122 188.963L56.8421 189.644C58.0617 187.803 56.0895 187.736 55.8456 187.013C55.4563 185.864 57.6154 184.024 55.8144 183.119C55.8663 184.481 54.8595 186.951 54.0498 188.048C53.6969 188.521 50.9617 190.647 50.671 190.33C50.3804 190.013 50.6243 189.524 51.1018 189.212C54.1225 187.237 55.2383 186.628 54.7816 182.433C52.9443 182.058 53.8111 184.388 52.389 184.835C52.3578 184.169 52.8353 183.67 52.7471 182.968C52.6381 182.1 51.6053 181.944 51.7039 181.06L54.7868 181.398L54.7764 181.403ZM58.5548 187.928C59.162 187.803 59.2139 187.242 59.2606 186.732C59.3281 185.999 58.9856 182.428 58.8195 181.653C58.7209 181.18 58.3887 180.504 57.8697 180.379C57.4026 183.145 58.9389 185.209 58.5548 187.933V187.928ZM76.035 189.987C78.1889 190.034 79.7148 187.013 79.9224 185.121C79.9899 184.528 80.3999 184.315 79.6369 183.816C78.137 184.876 79.2269 185.027 79.393 185.765C79.6318 186.826 76.7201 189.16 76.0402 189.987H76.035ZM65.4057 191.359C65.1254 189.924 63.7086 189.009 62.3228 189.306C62.9197 190.73 63.7449 191.666 65.4057 191.359ZM55.4667 195.139C56.0636 195.81 59.3644 191.167 59.2347 190.335C58.5133 190.829 54.9477 194.557 55.4667 195.139ZM54.4391 198.919C55.0982 199.6 61.9803 192.685 60.6049 190.678L57.8126 194.915L56.2971 196.142L54.4391 198.913V198.919ZM58.8922 196.855C59.4786 197.385 62.5771 193.439 61.9751 192.394L58.8922 196.855ZM62.3228 199.948C63.4594 201.04 65.4057 197.094 65.6029 196.189C65.9403 194.609 65.66 194.068 64.1497 193.475C63.039 193.371 61.5599 197.842 60.2727 198.409C60.7294 200.244 62.1671 197.229 62.4993 197.208C63.7189 197.806 61.8245 199.459 62.328 199.948H62.3228ZM65.7015 199.901C65.9143 198.227 68.5976 195.981 67.2845 194.458L65.7067 198.362L64.7206 199.777L65.7015 199.901Z" fill="#540B14"/>
<path d="M121.292 197.889C121.806 197.811 121.931 197.239 122.154 196.865C128.647 185.957 133.266 175.695 142.369 166.29C142.878 165.765 144.57 163.742 145.281 164.236L145.478 165.947C144.575 166.555 143.548 167.309 142.888 168.182C138.285 174.317 141.477 189.555 141.856 197.031C142.016 200.161 141.606 203.353 142.027 206.473C150.149 195.659 165.086 186.072 165.849 171.27C165.969 168.957 165.304 161.943 161.547 164.21C160.747 164.694 159.943 167.886 159.004 166.976C158.152 166.16 162.382 160.436 164.339 160.129C167.697 159.599 169.892 162.422 170.287 165.463C172.965 186.025 147.087 197.406 139.017 213.58C136.172 214.931 137.377 212.639 137.418 211.126C137.74 200.234 135.555 189.503 136.017 178.814C136.058 177.837 136.494 176.906 136.37 175.908C127.785 187.091 121.298 200.088 116.294 213.32C115.044 214.796 114.249 213.938 114.499 212.223C114.841 209.868 117.306 204.695 118.101 201.736C120.545 192.623 124.214 167.387 111.836 163.909C103.065 161.444 97.4128 168.936 96.2606 176.771C96.0945 177.889 96.8575 179.999 95.2278 180.025C94.5064 168.889 102.328 158.403 114.218 159.801C120.13 160.498 123.337 166.362 124.277 171.707C125.797 180.369 123.555 189.555 121.287 197.884L121.292 197.889Z" fill="#540B14"/>
<path d="M276.17 160.202C286.161 158.829 286.519 167.257 282.247 173.849L281.412 173.319C283.586 165.879 277.374 163.316 271.104 165.089C267.57 166.087 265.499 168.816 263.854 171.905C258.134 182.625 258.555 196.48 250.204 205.963C250.204 206.618 257.989 208.838 259.1 209.067C263.989 210.081 271.198 211.006 275.018 207.128C275.526 206.608 277.244 203.748 277.457 203.738C278.147 203.702 277.872 204.897 277.706 205.355C276.72 208.064 273.092 211.776 270.424 212.826C262.401 215.992 254.377 212.592 246.934 209.602C241.962 212.493 235.749 214.76 229.89 213.944C224.03 213.127 223.729 208.448 228.146 205.162C232.48 201.939 237.374 202.23 242.388 203.483C243.618 203.79 247.297 205.48 248.143 204.944C248.688 204.601 250.526 200.047 250.889 199.095C255.513 187.034 259.863 162.442 276.17 160.196V160.202ZM245.055 208.537C242.922 208.006 241.002 206.883 238.879 206.301C236.559 205.667 228.509 204.003 228.265 207.689C227.933 212.789 238.142 212.056 241.266 211.089C242.652 210.658 244.282 209.821 245.055 208.537Z" fill="#540B14"/>
<path d="M388.021 158.392C388.489 155.205 385.068 155.424 382.795 155.736C368.813 157.659 361.277 182.911 358.428 194.515C357.618 197.816 355.355 206.441 355.817 209.368C356.051 210.834 356.72 211.276 358.106 210.673C359.315 210.148 359.632 208.661 360.763 208.183C361.277 208.926 360.197 210.044 359.741 210.595C358.075 212.607 353.492 215.929 351.535 212.628C350.201 210.372 351.572 207.793 351.509 205.443C349.817 208.396 344.456 214.084 340.875 214.042C338.217 214.011 336.884 210.642 336.93 208.38C337.107 199.376 345.753 190.226 355.127 192.939C360.317 180.062 366.846 163.539 377.735 154.441C380.574 152.07 388.758 147.469 389.667 153.848C389.822 154.94 389.501 158.236 388.027 158.392H388.021ZM342.51 210.164C344.876 212.384 349.065 206.961 350.243 205.209C351.421 203.457 354.193 197.712 354.27 195.851C354.327 194.593 351.878 193.74 350.819 193.74C347.082 193.751 343.88 197.92 342.748 201.138C342.058 203.109 340.901 208.656 342.504 210.164H342.51Z" fill="#540B14"/>
<path d="M185.058 200.977C188.115 197.047 192.843 192.259 198.256 192.581C202.922 192.862 198.505 198.617 197.571 200.982C196.616 203.405 195.35 207.143 195.713 209.717C195.973 211.521 197.244 211.495 198.599 210.595C198.796 210.46 202.045 206.852 201.505 208.698C201.163 209.862 197.556 213.023 196.367 213.512C188.649 216.657 191.618 205.916 192.936 202.173C193.834 199.625 197.997 193.496 192.36 195.757C189.298 196.984 186.117 201.222 184.534 204.06C183.682 205.594 180.978 212.8 180.6 213.169C179.883 213.855 177.491 214.063 176.484 214.027C175.783 213.335 182.572 197.806 181.97 195.139C179.961 194.421 179.141 197.057 178.025 197.541C177.117 197.931 177.683 196.787 177.921 196.402C178.996 194.666 182.12 192.539 184.201 192.576C188.514 192.648 184.954 198.544 185.063 200.977H185.058Z" fill="#540B14"/>
<path d="M317.052 201.663C320.047 197.457 324.957 192.269 330.598 192.576C335.269 192.836 331.273 197.801 330.36 200.057C329.244 202.812 327.759 206.374 328.019 209.394C328.19 211.386 329.342 211.651 330.936 210.59C331.133 210.46 334.808 206.488 333.795 208.994C333.256 210.325 329.233 213.559 327.697 213.876C322.138 215.025 323.54 208.271 324.349 205.027C324.926 202.714 327.598 197.863 327.671 196.303C327.692 195.898 327.707 195.565 327.349 195.289C321.874 195.461 317.888 201.83 315.729 206.353C315.121 207.627 313.487 212.644 312.936 213.169C312.443 213.642 309.132 214.333 308.826 214.027C310.331 207.715 313.596 201.689 314.307 195.144C312.402 194.541 311.359 197.114 310.362 197.541C309.449 197.931 310.02 196.787 310.258 196.402C311.379 194.588 316.082 191.416 318.064 192.924C319.896 194.317 317.343 199.683 317.057 201.663H317.052Z" fill="#540B14"/>
<path d="M306.418 192.394C306.833 192.935 304.689 195.581 304.305 196.283C302.484 199.61 299.53 206.306 300.262 210.07C300.885 213.268 303.724 209.405 304.539 208.875C304.98 208.589 305.291 208.506 305.395 209.051C305.541 209.826 299.484 216.195 296.816 213.179C295.098 211.24 296.167 208.032 295.97 205.786C293.936 209.946 283.716 219.273 282.164 209.998C280.607 200.702 290.749 190.839 299.92 192.898C300.527 193.033 301.046 193.709 301.788 193.73C302.349 193.746 306.231 192.139 306.423 192.394H306.418ZM287.666 210.486C289.726 212.228 293.78 206.92 294.901 205.402C296.022 203.884 299.899 197.822 299.873 196.329C299.837 194.458 296.531 193.683 295.041 193.834C291.517 194.187 288.626 197.614 287.557 200.785C286.83 202.932 285.782 208.88 287.671 210.481L287.666 210.486Z" fill="#540B14"/>
<path d="M216.863 192.482C219.001 192.415 221.856 194.083 222.079 196.376C222.541 201.029 213.152 202.958 209.721 203.192C207.941 209.088 211.19 213.756 217.179 209.977C218.259 209.296 219.728 206.925 220.023 208.703C212.399 217.614 200.343 215.69 206.249 201.778C207.951 197.764 212.135 192.628 216.857 192.487L216.863 192.482ZM209.742 202.007C211.808 202.007 216.697 200.957 217.21 198.669C217.724 196.381 216.515 194.458 214.05 194.811C211.029 195.243 209.742 199.355 209.737 202.007H209.742Z" fill="#540B14"/>
<path d="M173.743 192.737C171.88 197.156 169.451 201.378 168.429 206.129C168.003 208.11 167.033 213.075 170.645 210.746C170.853 210.611 173.92 207.263 173.396 209.041C172.643 211.609 164.759 216.626 163.529 212.41C162.299 208.193 166.472 199.729 168.6 196.173L164.656 198.57C164.339 198.555 164.453 197.977 164.541 197.769C165.003 196.662 173.048 192.108 173.743 192.737Z" fill="#540B14"/>
<path d="M179.914 180.374L176.069 185.271L174.117 188.744L173.084 188.937C172.731 187.866 172.436 187.065 173.043 186.015C173.494 185.235 176.832 182.063 177.698 181.408C178.352 180.909 179.011 180.27 179.914 180.369V180.374Z" fill="#540B14"/>
<path d="M38.6663 193.771L38.1784 194.437L32.4952 193.085L38.6663 193.771Z" fill="#540B14"/>
<path d="M27.6892 145.691C27.8397 146.689 27.492 146.294 26.8381 146.372C25.3225 146.549 23.6046 146.845 22.2085 146.372L27.6892 145.691Z" fill="#540B14"/>
<path d="M89.4097 13.1222L89.5031 11.3286L90.4321 7.63208C90.6709 8.91623 90.3387 10.5955 90.0896 11.9212C89.9961 12.4255 90.0896 12.987 89.4097 13.1274V13.1222Z" fill="#540B14"/>
<path d="M46.3787 60.8594C46.9029 60.9062 47.7956 61.5197 48.6053 61.2077V61.5457H43.6332C43.2595 61.5457 42.1384 60.8542 41.4066 61.1973V60.8594C43.0207 60.9634 44.7802 60.7138 46.3787 60.8594Z" fill="#540B14"/>
<path d="M78.4378 41.2853L76.3826 36.1331C77.2805 36.7309 78.7389 39.2732 78.9776 40.2507C79.1229 40.8589 79.0814 41.0825 78.443 41.2853H78.4378Z" fill="#540B14"/>
<path d="M44.832 134.7C45.1123 134.997 43.6694 137.061 43.5397 137.695C42.6574 141.974 45.2939 145.161 48.2627 147.745C44.2559 146.455 42.2006 141.776 42.9324 137.773C43.0051 137.383 44.1002 133.915 44.832 134.7Z" fill="#540B14"/>
<path d="M48.3665 145.582C48.7869 146.05 49.8872 146.274 50.318 146.887C47.5101 147.126 45.6988 144.121 46.2074 141.563C47.5413 142.281 47.5049 144.625 48.3665 145.582Z" fill="#540B14"/>
<path d="M54.0912 146.034C53.1414 148.28 48.8025 145.551 49.9807 144.313C50.5931 143.674 52.6484 147.027 54.0912 146.034Z" fill="#540B14"/>
<path d="M57.1741 145.691C57.5738 146.154 54.932 149.383 53.7487 148.779L54.5427 147.693C55.3939 147.896 56.7174 145.166 57.1741 145.696V145.691Z" fill="#540B14"/>
<path d="M64.3831 64.296C64.9592 62.7987 65.7013 61.7641 65.3951 60.0224C65.3017 59.5077 63.9834 58.0624 65.2342 58.1196C67.2532 59.83 66.4799 63.0222 64.3831 64.296Z" fill="#540B14"/>
<path d="M66.4384 64.639C66.5318 62.8609 68.3016 61.2492 67.7411 59.388C67.684 59.1956 65.9245 57.402 67.2843 57.7763C69.8015 58.473 67.8293 63.4328 66.4384 64.639Z" fill="#540B14"/>
<path d="M60.6047 67.0461C61.1964 67.5556 60.1532 67.7999 59.9612 67.9351C58.2951 69.1101 55.1344 70.8413 55.8091 67.3892C57.117 69.9107 60.065 66.5834 60.6047 67.0461Z" fill="#540B14"/>
<path d="M61.2898 64.9873C60.8798 66.0999 56.9353 67.3216 56.8419 65.8399L61.2898 64.9873Z" fill="#540B14"/>
<path d="M66.7757 100.008C67.684 97.8919 69.2514 95.9942 66.7757 94.341C67.2791 93.8782 68.3742 94.2734 68.6597 94.8556C69.3344 96.2282 67.5646 100.803 66.7705 100.003L66.7757 100.008Z" fill="#540B14"/>
<path d="M54.4338 114.097C52.6951 116.088 49.8924 116.925 49.4668 119.93C47.2818 119.026 52.5861 113.281 54.4338 114.097Z" fill="#540B14"/>
<path d="M49.6381 83.8702L51.1743 80.0957C52.4459 81.3019 50.7643 83.2359 49.6381 83.8702Z" fill="#540B14"/>
<path d="M39.0035 111.004C39.1592 112.527 37.4621 112.829 36.6057 113.92C35.6974 115.074 34.9137 117.601 34.867 119.067C34.8307 120.216 35.2355 121.136 35.2459 122.155C35.2511 122.837 35.1992 122.712 34.5504 122.675C32.8481 118.703 34.9137 112.563 38.9983 111.004H39.0035Z" fill="#540B14"/>
<path d="M38.661 114.435C38.8946 114.653 37.4984 116.723 37.3687 117.43C37.1818 118.459 37.4102 119.488 37.2908 120.45C37.2286 120.955 37.0365 121.49 36.6057 120.96C36.7147 120.201 36.2476 119.431 36.2632 118.724C36.2788 118.017 37.4517 113.312 38.661 114.435Z" fill="#540B14"/>
<path d="M71.9191 136.759C72.5627 137.456 69.8898 139.744 69.1839 139.848C68.9088 139.546 71.426 136.219 71.9191 136.759Z" fill="#540B14"/>
<path d="M81.8633 79.7473C83.1712 77.9224 86.0621 74.6315 82.2058 73.9088L82.5432 73.0406C86.9859 72.8066 84.5985 78.8063 81.8633 79.7473Z" fill="#540B14"/>
<path d="M81.8581 77.3454L81.173 77.1687C82.5951 73.7581 79.2682 75.4322 79.1229 75.2814C79.1229 73.7633 81.3806 73.363 82.1799 74.4548C82.9792 75.5466 82.0761 76.2693 81.8581 77.3402V77.3454Z" fill="#540B14"/>
<path d="M55.8039 187.933C56.3592 188.463 52.2072 191.817 51.6933 192.051C51.5428 191.406 52.0515 191.234 52.3732 190.85C52.721 190.434 55.4146 187.564 55.7987 187.933H55.8039Z" fill="#540B14"/>
<path d="M80.1506 154.613C80.6437 153.173 82.7145 152.538 83.1505 150.927C83.2958 150.396 83.3218 149.856 83.2232 149.315C83.1246 148.774 81.8115 147.35 83.0571 147.407C85.3563 150.116 83.1609 153.781 80.1506 154.613Z" fill="#540B14"/>
<path d="M49.9754 152.902C50.0222 153.552 49.498 153.817 49.3163 154.472C49.0724 155.367 49.0931 156.334 48.9374 157.192C48.8336 157.748 49.1658 157.789 48.2679 157.711C47.6503 155.949 47.5257 152.913 49.9754 152.908V152.902Z" fill="#540B14"/>
</g>
<defs>
<clipPath id="clip0_57_485">
<rect width="403" height="281" fill="white"/>
</clipPath>
</defs>
</svg>
