<svg width="273" height="511" viewBox="0 0 273 511" fill="none" xmlns="http://www.w3.org/2000/svg">
<path d="M70.2414 455.953C73.5563 459.292 80.5712 456.716 85.1516 458.42L77.4626 459.401L73.5563 461.705C71.4793 464.649 86.417 466.094 88.4664 465.808L81.8504 466.626L83.501 468.248L80.1998 469.066C83.0333 470.961 84.4913 468.562 86.2244 468.466C88.9754 468.33 93.542 469.816 96.7606 469.08C99.7041 471.301 89.6906 470.647 88.9066 470.729L82.6894 472.351L87.6549 473.196L85.1791 474.818L94.2847 475.65L92.6341 476.468V478.103L95.11 478.921L90.9836 479.739L95.949 480.584V481.389L91.8089 482.206C93.5695 482.697 98.2873 480.789 97.5996 483.856C96.2104 484.905 91.5475 481.525 91.8089 484.265C93.1843 486.432 98.1498 484.851 97.5996 487.972L90.9836 488.79C92.8267 489.949 97.3383 489.117 98.5074 489.99C99.7591 490.93 97.9985 493.82 102.483 493.002L103.569 497.705L113.363 501.14L112.524 503.594L117.489 505.229H111.698C122.716 508.61 130.198 506.252 139.469 500.322L152.289 490.453C152.646 491.994 151.422 492.403 150.638 493.329C128.534 519.529 109.277 514.703 87.2285 491.285C45.7992 447.283 9.30782 367.991 1.5914 308.423C-6.49639 246.033 16.9142 201.745 56.5692 155.372C62.3049 148.652 72.4697 143.227 70.9704 132.908C70.2414 130.781 66.0737 131.927 64.2581 128.887C63.7492 128.028 61.2045 118.868 61.2183 118.009C61.2183 116.769 61.9885 115.637 62.7863 114.724C67.7655 109.053 90.2408 104.105 97.971 103.615C103.982 103.233 116.279 104.855 121.079 103.533C124.022 102.729 119.869 100.37 121.175 98.7074C122.661 97.5215 124.669 98.0667 126.388 97.2897C133.101 94.2636 131.959 95.9402 137.626 94.6044C138.259 94.4545 138.135 93.1595 138.768 92.9959C143.623 91.81 149.744 95.1769 154.764 94.618C155.136 92.4507 154.407 93.1731 152.976 92.7506C147.694 91.1966 135.687 91.4692 132.317 86.8619C130.927 84.9535 132.605 83.8085 132.014 82.3227C131.23 80.3598 125.879 78.0698 126.553 73.776L128.204 72.1402C126.044 68.8688 123.541 65.1066 124.463 60.9082L136.993 60.8264C138.754 60.1993 137.31 58.2228 138.107 57.2141C140.583 54.1198 146.415 58.1819 149.799 57.6639L148.974 52.7431C159.826 50.2213 163.389 57.1323 169.276 64.2205L171.119 62.2031C167.46 55.5784 160.72 44.6735 165.204 37.2036C167.9 32.7189 170.692 36.004 172.178 35.1316L177.13 25.9988C178.766 24.9355 179.523 27.8253 181.284 26.9257C181.559 26.7894 185.809 23.1499 186.015 22.9181C190.169 17.8473 188.849 12.613 198.683 16.5796C199.041 13.3218 200.829 11.209 203.291 9.21881L206.991 11.6724C206.51 4.47516 211.929 7.4195 215.038 6.1518C217.789 5.03404 219.467 0.767489 220.677 0.18135C221.97 -0.459315 221.819 0.767489 222.094 1.23095C224.006 4.39338 225.079 8.15558 226.069 11.686L229.687 10.9091L231.034 12.095V27.2937C233.552 28.207 233.235 22.7818 235.601 24.8129C236.316 28.0298 236.839 31.3013 237.458 34.5455C237.678 35.7178 237.073 36.8901 237.197 37.5716C237.362 38.5394 240.016 40.9113 240.608 43.6647C241.804 49.1717 240.883 51.8843 238.806 56.7507C236.908 61.1944 230.347 68.3917 229.535 71.4314C229.013 73.4216 229.604 75.0846 231.86 74.921C230.622 69.0869 235.147 68.3644 237.678 65.5019C239.15 63.8252 239.741 61.3307 241.378 59.3133C247.815 51.3118 249.631 56.8324 250.938 64.2614C254.239 65.1475 260.043 58.8226 261.721 59.695C263.757 60.7446 263.344 64.4659 264.335 66.1698C265.105 67.5056 266.976 67.751 267.388 68.9097C269.135 73.8032 262.808 82.4454 263.331 85.1035C263.441 85.6623 264.94 85.5669 265.05 86.1258C265.765 89.6835 259.08 95.1905 257.636 98.4756L260.085 100.834C260.703 104.133 250.8 108.195 247.623 106.981L248.379 109.79C247.747 112.502 230.663 111.33 227.321 111.902C225.904 112.148 224.996 112.788 225.244 114.356C232.039 117.437 237.637 113.102 244.294 118.486C240.346 122.085 247.829 122.398 250.676 124.048C251.777 124.688 255.078 127.415 255.504 128.342C256.646 130.836 253.744 131.695 254.308 133.181C254.39 133.412 257.512 134.994 258.255 136.207C262.464 143.118 251.447 139.028 247.595 139.819L248.407 144.685C242.066 147.657 236.756 147.439 230.195 145.571L231.021 148.843C228.449 149.02 226.234 148.897 223.717 148.284C219.811 147.33 217.28 144.222 213.621 143.104L214.309 146.825L212.507 147.929C211.049 147.493 210.113 146.594 209.109 145.517C203.621 139.655 198.931 128.669 193.25 123.462C192.301 122.589 191.393 121.812 190.004 121.812C186.015 121.812 178.45 135.348 175.493 138.579C181.999 142.845 186.992 149.552 189.344 156.899C191.049 162.215 189.894 168.635 197.652 170.026C208.312 171.92 214.598 169.344 221.42 180.14C226.991 188.946 226.482 195.693 224.391 205.521C247.733 202.495 258.296 230.371 251.144 248.868C249.837 252.262 245.463 256.747 246.068 259.923C246.674 263.099 248.971 262.499 250.497 263.822C258.214 270.528 257.925 275.885 255.422 285.168C263.606 290.43 270.181 291.411 272.258 302.193C275.105 316.969 261.996 323.867 250.442 328.679C250.951 336.885 252.286 343.237 245.958 349.671C243.73 351.933 240.649 352.929 238.613 355.368C247.32 365.36 241.034 385.18 230.952 392.282C225.876 395.853 219.302 396.316 214.432 399.779C218.738 405.463 219.178 417.935 215.602 423.892C211.805 430.231 203.539 431.008 197.404 433.775C197.046 441.626 197.597 445.089 193.223 451.809C187.996 459.838 181.421 462.877 172.563 465.822C172.425 472.474 171.724 478.008 166.291 482.602C160.858 487.195 145.012 490.808 139.29 485.26C137.832 483.842 136.732 479.616 135.15 479.099C123.06 479.712 113.748 478.39 105.894 468.684C95.8803 456.294 96.9806 438.996 109.044 428.35C107.792 423.688 103.597 420.975 102.744 415.959C101.025 405.804 102.207 394.067 111.616 388.111C106.939 378.964 106.361 368.768 114.133 361.121C108.012 356.459 98.7412 349.453 97.6409 341.342C97.2695 338.602 98.136 334.867 97.407 332.536C96.8431 330.71 91.2999 328.065 89.6494 326.266C83.7348 319.791 88.3977 313.889 86.6233 307.918C86.1969 306.473 80.5575 301.58 79.1682 298.881C70.6403 282.237 78.1504 259.991 98.3424 258.015L97.5721 238.359C78.1917 243.906 62.9926 224.1 66.0324 206.407L52.0026 201.405L53.6532 203.858L42.4568 197.302C41.1088 198.119 42.7319 199.114 43.2821 199.769C45.7854 202.727 49.5817 204.444 51.9888 207.566C48.8252 208.915 46.0055 203.64 42.8832 204.267L53.6532 212.064C46.8308 211.669 39.1144 200.641 33.3511 200.6L33.0898 202.481L48.6739 215.363C42.5118 213.223 37.8077 209.161 32.9522 205.085C32.292 204.54 31.2879 202.931 30.4626 204.267C34.3277 209.597 40.9438 215.622 47.0371 218.225C50.8197 219.834 55.8952 219.888 58.6324 222.751C54.2721 222.356 50.4483 221.388 46.4732 219.616C41.3014 217.312 38.1653 213.195 32.9385 211.273L38.743 219.466L31.7006 216.194C30.1188 217.898 33.64 218.675 34.6578 219.861C35.2493 220.543 34.6991 221.66 35.4143 222.315C36.5422 223.351 39.0594 223.337 39.582 225.205L25.4972 218.648L28.8121 222.342L26.3362 223.16L35.4419 230.139L19.7064 226.868C18.0008 228.476 27.8905 232.62 27.9868 234.242C26.1849 233.41 16.3365 233.792 18.0834 236.682L28.8121 243.279L16.3915 239.585C24.4656 245.924 34.6028 247.11 43.9148 250.095C44.7813 250.368 46.4182 250.299 46.2256 251.485C35.8683 250.49 26.4325 246.333 16.3915 244.111L25.5109 249.85L20.0228 248.446L11.4261 249.018C12.9941 249.563 27.9868 252.371 24.6719 255.588L14.741 253.953C14.6309 256.543 15.6488 257.797 17.2168 259.691L11.4261 260.509L53.6807 267.897L19.7064 263.808C20.0916 264.762 21.357 266.221 22.2373 266.63C23.9429 267.42 27.2578 266.752 27.9868 268.715C24.4243 267.175 21.357 268.606 18.3722 268.647C16.4603 268.674 11.6461 266.221 12.2513 269.533C20.9168 271.428 29.5823 271.809 38.3716 272.818C39.6096 272.968 40.9025 273.472 39.5958 274.454C29.5548 272.627 19.7339 273.691 9.76173 272.818L10.5733 274.059L37.0924 280.193C34.2039 280.165 31.3017 280.274 28.3994 280.193C22.6637 280.029 16.5566 278.843 11.0134 278.53C10.1056 278.475 7.87733 277.998 8.0974 279.375L13.8882 281.051L13.0629 282.66L22.1823 284.323C22.3886 285.727 20.2153 285.195 19.3075 285.127C17.2443 284.964 15.2361 283.955 13.0766 284.323L21.357 287.199L14.3008 286.804L13.9019 288.426C14.4521 288.985 29.8299 291.125 27.9868 292.542L19.7064 291.738L25.3321 294.955L52.0163 295.855L37.4776 297.531L12.2376 295.855C17.3681 300.639 25.5247 299.753 31.6455 300.83C36.3772 301.662 41.0538 304.088 46.2118 303.243C46.4044 304.674 44.3412 304.006 43.3233 304.061C33.6813 304.497 22.705 301.825 13.4755 299.14C12.1826 300.012 13.5856 300.994 14.5071 301.403C19.5551 303.625 34.6578 305.397 40.9713 306.392C44.3274 306.923 47.7799 307.441 51.1911 307.359C51.3836 308.791 49.3067 308.123 48.3026 308.177C37.0512 308.668 25.7035 305.328 14.7272 305.315C14.796 308.954 28.5507 310.645 31.9894 311.203C36.0196 311.871 39.9259 312.526 44.0523 312.389L55.345 314.748C45.5241 315.402 35.5106 312.321 25.8961 311.449C22.5124 311.149 18.1521 312.376 14.4521 311.462C13.5443 311.244 14.2183 309.568 13.503 309.813C12.7878 310.058 11.7974 311.203 13.0766 311.871L30.4764 316.37C23.9429 316.22 16.9004 316.097 10.9997 313.098L10.6008 314.72C25.2633 319.614 40.7374 321.018 56.1703 320.486C56.184 322.04 56.6655 322.19 55.0011 322.013C50.8059 321.577 46.6932 322.381 42.4705 322.149C34.7404 321.74 27.1065 319.805 19.4451 318.919L18.0558 321.291L24.6856 322.954L23.0351 325.407C27.5054 325.912 32.2645 327.52 36.7211 327.861C40.3248 328.147 43.117 327.016 46.6795 327.834C48.1375 328.161 49.1141 327.084 48.7152 329.51C38.8255 329.851 28.9634 328.27 19.3075 326.211L20.4904 327.493L27.1753 330.314L15.58 329.51C15.58 330.805 18.1796 331.01 19.1975 331.255C27.1065 333.231 34.8229 332.823 42.9244 332.795L33.8188 334.417L56.184 335.249C56.4041 336.326 54.6573 336.557 53.9145 336.68C43.9973 338.275 33.1173 338.03 23.0488 338.534C22.8425 339.802 24.6031 339.502 25.5384 339.734C34.6166 342.078 43.3921 341.328 52.4565 342.651C53.9145 342.869 53.8457 342.214 53.7082 344.273H22.6362C21.9622 344.273 17.8633 341.914 17.2581 344.273C23.7641 345.186 30.1875 346.863 36.7348 347.558C38.4404 347.735 46.1568 346.849 46.2393 348.798C46.3081 350.461 43.846 349.384 43.2546 349.316C37.3538 348.703 31.4255 348.185 25.5384 347.571L28.0143 349.194H21.3845C23.1038 352.411 27.753 351.156 30.6965 351.879C32.0307 352.206 33.2961 353.515 35.2493 353.924C39.7196 354.864 44.9877 354.864 49.5405 355.777C49.7468 357.181 47.6286 356.582 46.6382 356.609C39.6371 356.745 32.5396 356.336 25.5109 356.609C25.0845 358.926 26.0611 357.958 27.3266 358.463C30.16 359.581 33.2549 360.289 36.2671 360.726C35.0292 362.988 30.7928 360.126 28.8121 360.726C26.8039 362.211 41.549 364.556 42.6081 364.706C47.6286 365.401 52.7316 365.837 57.8209 365.646C57.7658 366.914 54.0796 367.296 53.268 367.282C45.3866 367.132 36.7073 364.406 29.94 364.052C27.6979 363.942 23.1726 365.128 26.5563 366.655C30.9303 368.632 37.175 368.4 41.8241 369.627C43.2546 370.008 44.1211 369.041 43.736 371.385L24.273 368.086L23.8466 369.722L41.2464 373.839H29.6511C29.7474 375.011 33.3649 375.284 34.314 375.379C37.6976 375.733 41.2326 375.543 44.6163 375.842C45.7167 375.938 46.8446 374.984 47.8762 376.715C41.4527 377.833 35.2768 377.587 28.8258 377.124L41.2464 380.409C41.2739 381.799 41.714 382.195 40.0772 381.99C36.6248 381.554 33.1035 380.818 29.6511 380.409C34.1627 385.33 41.4802 382.631 46.6382 382.794C51.3011 382.931 56.2391 384.417 61.1357 383.694C58.5499 387.252 52.6491 384.566 49.1554 384.471C42.6631 384.294 36.1296 384.662 29.6511 384.512L38.9081 388.056L50.3658 389.446C50.0357 391.777 47.2159 390.264 46.6382 390.264H32.966C33.3374 391.968 38.7843 393.549 40.0084 393.549H57.8209C58.4123 396.739 55.1662 394.285 53.3368 394.435C51.3424 394.599 49.2929 395.88 47.381 395.948C43.2408 396.085 37.3263 394.245 32.9522 394.381C34.5203 396.698 39.8021 397.421 42.4981 397.639C47.0371 398.02 69.76 395.499 71.0667 396.848C71.6856 399.929 67.9581 397.557 65.8124 397.707C62.2636 397.952 58.206 399.043 54.4784 398.893L45.3728 400.937H69.4024L63.1715 402.573H52.4152C50.9847 404.1 42.8419 402.028 42.8969 403.814C42.9382 404.945 53.4743 405.995 55.3037 406.69C53.7082 410.07 47.9449 406.335 46.1981 409.143L67.3116 410.847L76.0184 409.975C77.3801 411.011 75.9359 411.474 74.7942 411.611C71.9607 411.965 68.5771 411.393 65.6336 411.583C64.5607 411.652 63.4603 412.428 63.1715 412.428H47.8349V413.233C48.6189 413.042 49.513 414.064 49.9119 414.064H61.9335L56.129 414.896C59.8153 420.962 67.738 415.1 72.4422 415.155C74.5191 415.182 76.3485 416.681 78.4942 416.531C77.7653 418.113 73.7901 418.031 72.2771 418.14C64.9733 418.631 57.6145 418.508 50.3245 418.999C52.4015 421.807 56.6517 419.476 59.4302 419.817L56.9543 422.27C59.0175 422.352 61.1082 422.188 63.1715 422.27C64.1893 422.311 66.2525 421.643 66.06 423.088H52.8004L61.906 427.614L55.29 428.827C56.9543 428.759 60.338 430.476 61.4934 430.476H79.3058V431.294H65.6336C65.1384 431.294 63.7629 432.439 62.7313 432.126L65.2072 433.748H56.9268C57.4495 435.37 63.6666 437.046 64.7945 437.046H76.8162C76.8162 438.437 74.0652 438.614 73.0886 438.696C68.2057 439.091 63.4053 438.3 58.5774 437.878C61.5209 440.645 67.1328 441.054 70.9979 441.981C71.2042 443.385 69.031 442.853 68.1232 442.785C66.4726 442.649 64.9321 442.049 63.1577 441.94C62.2499 441.885 60.0216 441.408 60.2417 442.785L71.0117 445.266L68.522 448.537C72.4009 446.615 75.1381 451.823 75.5645 451.823H93.3769C92.9918 453.581 91.9051 453.131 90.7222 453.254C82.8132 454.058 74.8492 451.468 66.8715 451.836L74.0102 454.194L88.4114 455.121C87.2423 458.161 83.2396 455.939 82.1943 455.939H70.1726L70.2414 455.953ZM206.977 118.432H218.573C217.679 120.872 211.145 117.232 211.943 120.885C216.083 121.499 220.058 120.381 223.965 120.081C224.872 120.013 227.059 119.481 226.839 120.885L217.734 122.535H232.644C230.195 126.488 223.277 123.23 221.049 126.638L237.609 133.208C231.365 133.317 225.918 129.418 220.21 127.469C219.288 128.369 226.66 135.307 227.72 136.029C230.842 138.197 235.133 138.797 237.912 140.719C238.902 141.4 240.8 144.999 241.749 143.881C242.602 142.9 239.851 140.882 239.274 140.173L240.512 138.142L243.414 139.764L241.763 136.493L247.568 137.297L245.917 134.844H250.883L249.232 133.181L250.896 130.727L247.581 129.909L251.722 128.273L240.952 129.909C241.02 125.97 247.183 128.164 248.407 124.988L239.645 125.724L238.82 124.116L236.811 124.988L237.568 122.576L235.972 121.717L237.637 121.294L235.972 119.263L237.623 117.614C230.416 119.522 216.62 117.968 224.872 108.59C228.49 109.326 236.124 110.198 239.549 109.381C240.759 109.094 245.051 105.632 246.11 105.087C247.609 104.31 253.551 103.478 254.197 102.824C256.811 100.207 249.989 102.456 250.057 101.611C251.983 99.9342 255.903 97.6033 257.058 95.395C257.746 94.0728 257.554 90.6241 259.988 88.8929L254.596 92.1644C253.056 90.3651 257.787 88.2386 258.324 86.821L256.673 86.0031C259.19 83.2769 263.166 80.6324 263.289 76.5567L258.338 81.4776C258.255 79.283 260.759 77.7563 261.639 76.1205C262.794 73.9804 258.668 76.6385 260.002 74.4984C260.772 73.2716 262.835 72.6991 262.478 70.7908L256.687 75.7116C255.683 74.6211 263.399 68.6916 261.639 65.8563L258.737 69.1414L258.324 66.6878L251.281 75.7116L254.184 66.6878L251.68 69.1414L250.456 67.5056L245.903 70.7771C247.141 66.2652 248.338 63.2118 246.715 58.4682C243.551 59.7904 244.102 63.8252 243.4 66.6741L242.575 62.5712C239.961 63.9615 240.058 68.0236 240.099 70.7771L235.972 69.1414C235.271 72.5219 234.638 76.2023 231.282 78.0425C220.209 74.6211 232.96 62.8574 235.546 56.8324C236.935 53.5882 238.297 48.7901 238.435 45.3414L236.77 49.4444L235.945 46.1729C234.762 45.7367 235.257 49.4444 233.483 47.8086C230.924 45.4504 235.23 37.817 234.941 36.0858C234.762 35.009 232.726 33.3187 233.455 31.3967C233.07 30.9878 229.645 32.9643 229.494 33.2096C228.737 34.4773 230.25 37.1354 228.49 37.1491C227.733 34.75 229.687 31.4512 229.343 29.4883C229.233 28.8613 227.678 29.2839 227.568 27.7436C227.334 24.8265 229.191 21.4323 228.476 18.2699C226.743 18.5698 228.063 22.1548 225.175 21.5414L224.35 17.4384L223.524 21.5414C221.901 17.7928 224.872 15.5028 224.336 11.6997L221.874 14.9848C222.039 11.5634 223.882 8.63267 220.608 5.96096L217.032 7.69212L216.895 10.8954L215.244 10.0639L216.056 15.8163L212.796 15.789L212.754 13.349H211.104L210.279 15.8027L208.614 12.5175L210.251 19.0878L208.614 17.452L204.034 26.4759C201.173 26.2441 203.03 19.2922 199.495 19.9193L201.187 25.2082L197.831 28.9567L195.327 19.1014C193.952 18.8697 194.406 21.1324 194.502 21.9639C194.997 25.917 198.546 30.0472 192.136 30.4425C191.558 30.0881 189.371 23.218 187.872 24.8401C188.89 27.3891 189.99 29.2157 187.872 31.3967H190.375C189.66 33.9866 189.316 37.7761 189.922 40.4069C190.155 41.4156 191.049 44.3736 192.851 43.7193L191.6 37.1627C197.886 47.1543 193.126 60.3084 194.571 71.1724C195.148 75.5071 198.147 80.8642 199.096 85.5669C199.591 87.966 198.793 93.7047 200.719 94.6317C202.562 94.9997 202.672 92.0145 202.782 90.9512C203.167 87.0118 202.067 83.6722 201.957 79.8555L205.258 85.5942L203.621 74.921L206.097 77.3746C206.551 73.0126 205.313 66.7423 208.518 63.6617C208.986 61.985 206.661 60.8264 206.895 58.9453C206.95 58.5091 208.422 58.5909 208.587 57.9502C209.783 53.0157 206.922 50.1668 206.867 47.4269C206.826 45.096 209.495 42.4925 208.614 39.6163L209.44 44.5371C212.975 42.5879 210.058 37.8579 210.265 34.6818L213.167 40.4205L213.58 34.6818C214.983 34.3274 214.089 35.895 214.488 36.2358C215.093 36.7401 218.531 34.1638 217.706 36.7129C216.262 41.143 212.314 46.241 213.181 51.0801L211.104 55.2103L213.167 53.5746C214.144 55.4148 210.402 57.3095 210.347 59.8995L211.915 62.1759L209.44 66.7014L213.167 62.5984L212.754 65.8835C219.852 62.394 221.021 53.2883 224.776 46.9771C225.409 45.9139 224.625 44.9052 226.839 45.3686L221.035 58.4954C223.896 59.068 225.354 54.1744 226.028 53.5882C226.55 53.1248 228.242 53.4519 227.665 54.8014C225.656 59.4496 217.555 63.9206 214.419 67.9555C211.915 71.1861 207.844 79.133 207.211 82.977C206.977 84.3946 207.693 86.8483 207.418 87.6661C206.991 88.9338 205.451 89.3837 205.272 90.9921C205.162 91.9463 206.221 93.4866 206.028 93.7456C205.836 94.0046 204.543 94.0455 204.061 94.6725C203.676 95.1769 204.048 99.0618 201.984 100.016L203.649 100.82L201.159 103.696C202.163 104.569 208.766 99.239 210.265 98.5029C211.145 98.0803 215.354 96.5945 216.881 96.0084C217.871 95.6267 218.985 96.6763 220.663 95.5858C223.992 93.4049 226.826 84.2856 230.581 81.5457C231.901 82.3091 230.278 83.3859 229.838 84.0948C228.971 85.4579 222.933 92.9823 226.839 92.2189C231.213 85.0898 235.45 78.4924 242.19 73.3398C243.317 75.0028 240.553 76.1751 239.906 77.6745C239.507 78.6287 240.126 79.7464 239.672 80.6733C239.081 81.8729 231.722 88.8657 232.658 89.7517C236.55 88.4567 239.906 85.6351 243.345 83.5086C244.046 83.0724 245.147 81.4503 245.903 82.7589C240.071 88.0614 232.355 92.5325 225.189 95.8994C220.031 98.3257 213.236 98.6665 209.44 103.287L213.593 102.879L213.979 104.501L221.874 100.411L217.734 104.105C222.52 105.223 225.67 98.1894 230.154 97.1262L221.874 104.923C221.736 105.537 222.713 105.468 223.098 105.318C228.311 103.206 231.268 96.0357 238.847 95.4495C239.81 95.3814 240.649 95.2996 239.7 96.2947C237.307 98.8164 231.86 100.084 230.168 103.669L242.588 100.793C235.862 105.537 225.89 108.44 217.734 106.968L221.035 110.239C215.877 110.498 212.053 108.017 207.418 106.15L206.125 107.758L211.915 110.226C208.037 110.757 204.158 105.864 200.925 107.772C200.1 108.263 200.141 110.403 197.019 109.408C196.606 113.116 201.049 110.785 201.984 112.679H195.355C199.605 116.96 207.308 112.066 212.754 114.342L205.299 115.16L212.754 115.978L206.964 118.432H206.977ZM143.169 104.473H155.603C156.195 103.628 150.046 101.502 153.499 101.216L161.807 104.528L162.646 102.81L166.841 105.264L168.437 103.655C169.702 105.073 170.816 106.477 173.003 106.109L167.212 99.9478C170.293 99.5661 173.127 104.964 175.919 106.927V103.655L179.234 107.758L180.059 106.123L182.962 108.59L171.353 94.2227L171.779 92.9823C175.74 94.6044 177.542 102.551 182.136 99.1436C177.02 93.8683 169.441 89.4927 162.811 86.2757C156.924 83.4132 150.72 82.1864 145.686 78.615L152.302 80.6733L149.001 74.9346C150.115 73.8169 153.747 78.8877 154.847 79.4193C158.671 81.2595 157.35 81.1368 159.799 82.7316C160.569 83.236 163.32 82.1864 164.324 84.7763L165.149 83.1406L167.639 85.5942L165.149 77.3882C169.056 80.2508 171.724 86.8892 175.768 89.0838C176.511 89.4791 177.79 88.8793 177.886 88.9884C179.936 91.3465 178.464 92.0826 182.714 95.6404C183.691 96.4582 185.149 101.093 187.528 102.006L187.941 99.5525C190.788 100.493 188.436 104.351 190.829 106.109C193.374 104.269 190.54 101.216 191.256 98.7346L194.571 107.758C197.817 106.913 193.745 102.238 194.571 101.188L197.872 102.824C199 98.8846 195.726 96.7309 194.571 94.1955C193.415 91.6601 198.119 95.136 197.033 92.5734C194.639 86.8892 182.398 76.3523 181.627 71.6495C181.462 70.6681 181.682 68.9642 182.535 68.3371L184.612 74.0895L187.088 72.4401L186.235 75.2481C188.876 76.1205 188.161 78.5605 189.564 80.3326C190.472 81.4776 192.796 80.0599 193.319 83.9993C194.502 83.3042 196.221 86.4802 197.033 85.5806C198.738 83.6858 194.007 79.9918 193.869 79.6646C193.388 78.6014 192.783 72.0721 191.049 68.9369C189.839 66.7287 187.583 66.1971 187.294 65.6791C186.785 64.793 187.171 62.7484 186.469 61.1672C185.575 59.1497 179.179 48.3948 179.66 47.8086C181.242 48.7901 181.834 49.826 183.759 48.6537C186.483 53.8336 187.831 61.2626 192.081 65.052C192.177 61.7942 194.089 55.3875 193.608 52.525C193.209 50.1123 189.825 45.1642 189 42.2335C187.693 37.6125 188.656 32.8689 185.864 28.9022L186.29 33.0052L184.626 30.5516L183.828 32.4327C180.252 35.1453 180.486 29.6519 177.185 30.5516L176.332 37.1218L174.681 36.2903L173.87 40.0389L171.366 39.5754L173.003 43.6784L168.051 37.926C168.395 41.0339 170.61 43.2831 172.178 45.7367C173.21 47.3452 173.43 47.2361 171.765 48.5856L166.387 41.2111C166.263 42.6288 166.346 43.9646 166.772 45.3414C168.808 51.8571 172.467 58.659 175.479 64.6295L173.003 65.0384L174.654 67.0831L172.976 69.1278L169.675 67.5056L172.15 71.6086C166.566 68.3644 163.127 62.4621 160.541 56.8324L159.716 58.4682H158.079L155.163 54.3788C153.018 56.5189 159.303 59.6132 158.066 60.9491L153.939 57.6639V62.5848L149.785 60.9627L153.925 65.8699L143.155 58.4954L146.47 62.5848L141.505 59.3133C140.735 62.6257 142.303 62.2985 143.981 64.2342C137.048 62.2849 141.752 66.5106 141.491 66.7014L130.721 61.7806C129.263 63.2255 135.439 66.0607 136.512 65.8972L134.036 67.5193C134.6 67.5193 139.689 69.5367 138.162 70.8044L128.218 67.5329C129.621 70.3955 132.605 71.4859 135.673 71.6359C135.879 72.8491 134.435 72.3856 133.665 73.3398C132.674 74.5666 133.885 76.0933 130.707 76.1478L135.673 78.2197L133.197 79.0376C134.091 81.2322 136.856 81.5321 138.988 81.5048L136.512 82.3227L140.652 84.79C141.092 85.9213 137.31 85.526 139.001 87.2299C140.143 88.375 161.257 90.9376 158.519 95.4768C154.352 98.4075 146.8 96.949 142.316 95.4632L143.142 98.7346L130.721 96.281C129.896 99.348 134.531 97.5351 134.847 99.5525L126.553 99.9751C130.322 102.115 134.669 102.006 138.85 102.17L139.813 104.487L132.358 105.727C133.871 108.481 139.084 106.055 139.689 106.286C139.978 106.395 141.464 109.83 144.778 108.617C144.228 110.935 138.754 107.963 138.162 108.617L138.217 110.485L135.673 111.084L141.464 113.129L138.974 115.992C143.279 116.387 148.382 113.388 152.426 115.242C153.554 115.76 152.371 117.696 156.374 116.005L151.408 119.277L160.514 116.823L158.451 120.108C161.559 120.395 165.053 117.028 167.598 116.85C169.675 116.701 172.756 117.886 175.438 116.823L174.599 118.459C179.468 117.191 182.81 117.069 187.858 117.641L183.553 112.08L179.165 111.902L179.592 110.267L152.247 111.071L167.57 108.59L168.822 106.968C161.862 105.468 154.696 106.722 147.694 106.136C146.69 106.055 143.252 105.836 143.128 104.501L143.169 104.473ZM131.574 108.59C123.39 106.545 114.711 106.573 106.251 106.913C95.5089 107.35 83.3772 108.999 73.3087 112.87C71.947 113.388 66.8577 115.801 68.5771 117.627C93.8858 122.725 120.763 129.364 146.525 123.802L146.553 120.613L148.96 118.868C148.382 117.287 142.784 118.541 140.473 118.241C135.219 117.559 129.511 114.56 131.56 108.604L131.574 108.59ZM202.823 122.535C202.287 123.053 196.29 114.56 193.732 118.841L209.88 140.596L208.642 135.675L211.943 138.96L211.53 135.675L216.111 141.414L218.16 138.96L224.804 145.517L221.076 138.947L224.804 142.232C225.45 136.193 228.958 144.208 232.671 143.05C234.102 141.959 214.24 126.051 213.195 124.17L212.383 126.624C209.962 121.621 206.083 124.252 203.25 120.067L202.837 122.521L202.823 122.535ZM177.143 121.73C157.997 124.184 139.001 129.432 119.525 128.328C101.987 127.333 83.5698 122.48 66.1012 120.504C65.7161 122.194 67.2979 121.908 68.412 122.276C71.8232 123.407 77.834 124.729 80.7913 126.079C80.9701 126.161 82.937 128.641 83.501 129.105L76.0459 128.301C74.2715 129.596 88.0538 131.381 89.3055 130.768C87.7787 133.93 83.9274 131.804 81.424 131.586C80.53 131.504 78.3292 131 78.5493 132.39C84.0099 134.039 89.8832 132.867 95.5226 133.235C116.526 134.571 138.946 135.293 159.936 132.186C166.662 131.19 176.387 129.855 177.143 121.744V121.73ZM185.424 120.081C181.022 119.781 179.757 125.043 178.808 128.287C180.252 127.96 186.166 120.776 185.424 120.081ZM64.4506 199.728C72.3596 201.377 69.6499 197.52 74.9455 194.112C80.5987 190.472 90.4746 190.159 96.9806 190.895C100.406 191.29 105.275 194.003 108.617 193.008C109.8 192.653 111.203 190.581 112.771 189.709C117.104 187.296 128.011 184.052 128.933 178.64C129.029 178.054 126.553 170.68 126.54 168.117C126.54 159.284 130.859 147.275 138.286 141.905L146.498 136.507L117.503 138.142L118.727 139.778L125.783 140.596C121.258 141.114 115.577 139.955 111.231 140.541C109.099 140.828 110.942 141.523 105.481 141.427C98.1223 141.305 90.846 140.828 83.5285 140.61C83.1296 142.968 84.0512 141.959 85.4404 142.354C89.7181 143.568 94.8074 144.304 99.2639 144.713C99.484 146.076 97.2557 145.599 96.3342 145.558C94.1747 145.49 92.4691 144.862 90.5434 144.713C89.6356 144.644 87.4486 144.113 87.6687 145.517C90.4196 145.149 91.0936 145.817 92.2903 148.025L97.5996 147.18L94.2985 148.802L102.579 149.647C102.716 151.106 99.7866 150.519 98.8788 150.438C94.7111 150.11 90.1583 148.72 86.0181 147.998C84.2437 149.443 89.5118 150.697 90.1445 150.874C99.3327 153.464 109.099 152.51 118.328 154.554L116.677 152.932L126.608 153.327L119.992 154.568L121.643 156.19C105.784 156.844 90.3784 152.878 75.2481 148.816C74.7667 150.915 75.8258 150.247 76.8024 150.942C78.9757 152.469 81.534 153.218 83.5285 154.977L72.7585 152.101C72.7998 156.354 77.6965 157.035 79.3883 160.307C77.0913 160.975 71.0117 157.131 69.8425 157.253C68.3708 157.403 67.5455 161.138 62.8138 157.035C61.3833 158.535 72.7723 167.354 74.4091 168.131C72.1808 169.439 63.309 161.438 62.8138 161.97C63.1302 166.154 73.1161 168.84 71.9057 172.956L70.2689 173.488L73.5701 176.759C71.2455 176.337 68.6734 174.592 66.6789 173.324C64.5607 171.975 59.7878 167.586 58.2197 166.918C53.8732 165.05 62.7038 173.611 61.9473 174.306L56.1565 171.43L71.0667 184.147C63.9142 184.406 56.6104 174.238 51.5762 172.67C51.1498 172.534 50.2282 172.452 50.352 173.065L57.8071 179.227C54.0383 180.14 52.6216 175.055 49.5267 175.533C54.9461 181.067 61.0532 186.587 68.5771 189.096L67.4217 190.65L59.0588 186.615L63.6116 191.536L52.8416 189.082C54.8773 193.403 62.1261 194.085 64.8633 197.274C66.1837 198.815 62.5662 197.002 64.4369 199.742C57.6283 198.324 51.755 192.776 44.5475 192.353C45.9092 196.416 65.8261 206.68 67.7518 204.662L67.6417 201.5C66.17 200.9 65.4547 201.214 64.4506 199.742V199.728ZM165.548 157.853C165.741 155.209 168.051 153.45 169.014 151.037C175.19 135.566 156.401 133.685 145.92 138.81C135.714 143.799 129.249 158.644 130.941 169.549C131.821 175.274 137.227 177.823 142.33 174.674C140.212 172.493 137.516 174.169 134.944 172.166C133.362 170.939 132.069 168.104 132.413 166.059C135.164 165.677 135.7 169.753 137.365 170.571C141.477 172.575 149.881 168.608 153.939 166.877C153.43 171.375 144.888 170.053 145.659 175.083L156.415 171.811C156.869 173.992 155.851 173.229 154.778 173.856C152.66 175.096 150.239 175.914 148.135 177.141C149.207 179.595 158.038 176.923 160.555 177.959C158.822 179.499 157.392 181.435 155.535 182.839C154.806 183.384 148.217 185.906 149.785 187.405L167.185 178.381L157.254 186.601L157.667 188.237C161.559 188.523 174.035 176.187 172.15 170.98L170.514 170.584C173.54 168.049 174.365 162.869 169.675 162.365C173.76 157.362 175.878 151.092 173.801 144.699L168.698 154.813L165.534 157.839L165.548 157.853ZM178.794 152.101C178.643 149.511 179.193 143.377 175.493 143.077C174.984 143.677 176.579 151.801 178.794 152.101ZM182.934 150.465C181.627 149.238 181.517 150.738 181.201 151.596C178.505 158.78 183.374 163.06 183.718 155.672C183.773 154.541 183.539 151.024 182.934 150.465ZM177.13 154.568C175.383 152.782 171.779 161.547 175.066 162.76C177.941 160.525 177.955 157.758 177.13 154.568ZM178.808 172.629C183.223 169.794 185.162 163.728 185.424 158.671C183.979 158.889 183.993 160.32 183.553 161.315C181.902 165.023 180.073 168.772 178.821 172.629H178.808ZM165.548 186.587C177.377 186.015 190.059 173.283 188.739 161.138L182.549 172.656C177.776 178.422 171.325 182.007 165.548 186.587ZM207.816 184.134C209.123 179.976 209.55 174.142 204.116 173.42C202.108 173.147 197.225 173.229 195.327 173.829C194.488 174.088 182.191 183.52 181.311 184.57C178.12 188.346 177.143 192.899 176.414 197.629C176.951 199.891 186.538 198.992 188.739 198.924C189.234 201.432 186.799 200.246 184.97 201.336C184.323 201.718 183.223 203.054 182.948 203.844C187.404 204.417 191.283 201.854 195.368 200.573C196.001 203.231 191.104 202.904 192.865 205.112C194.117 206.666 202.067 209.992 203.883 209.501C206.964 208.67 207.954 202.631 201.998 205.507L205.313 202.631C205.932 201.186 201.558 201.445 204.942 198.16C206.413 196.743 209.976 196.606 210.32 193.607L209.027 191.549C208.628 191.467 204.048 194.862 205.327 191.972C206.042 190.336 211.076 186.083 212.328 184.12C213.91 181.626 214.116 178.75 213.208 175.928L210.292 175.124C210.224 178.204 211.118 182.403 207.816 184.147V184.134ZM135.714 177.564C136.292 181.898 142.261 181.367 144.806 178.79C144.82 176.896 137.227 177.673 135.714 177.564ZM150.624 181.68C147.873 180.562 145.136 180.862 142.564 182.307C141.642 182.825 141.147 182.239 141.505 184.12C144.93 185.906 149.716 186.315 150.61 181.68H150.624ZM217.747 189.873C220.636 190.213 221.998 183.507 219.797 182.498C218.146 181.748 218.504 184.175 218.311 185.102C217.981 186.696 217.5 188.223 217.734 189.873H217.747ZM138.19 192.34C138.341 189.055 141.862 186.342 136.966 184.952C135.191 185.32 134.559 192.885 138.19 192.34ZM50.352 192.34L40.4211 185.783C38.8805 187.46 48.0825 193.349 50.352 192.34ZM132.289 185.879L129.057 186.192C129.483 187.583 130.707 192.735 132.784 192.34C135.398 190.568 132.124 188.155 132.275 185.879H132.289ZM122.454 207.13C123.486 202.727 128.341 200.614 129.029 195.993C130.982 182.921 118.823 188.7 112.565 192.817C105.577 197.411 104.229 203.081 105.055 211.233L110.02 209.597C110.777 211.205 109.993 214.15 110.392 215.376C110.625 216.072 114.752 221.933 115.316 222.792C117.819 226.527 118.314 229.935 124.146 228.122C125.233 227.781 126.099 226.513 127.2 226.227C129.648 225.586 131.56 226.527 134.366 225.109C139.208 222.669 143.183 215.499 147.309 212.078C146.154 218.089 139.552 222.519 135.178 226.322C133.376 227.89 133.169 231.011 129.084 230.153C129.703 232.92 134.105 230.275 135.989 229.185C143.513 224.809 151.257 214.218 152.289 205.507L148.987 209.61L146.91 204.703C143.128 209.461 140.611 215.322 135.301 218.648C134.985 215.867 138.933 213.891 140.556 211.532C141.766 209.774 146.319 201.759 144.036 200.123L139.868 200.587V196.484L134.916 196.525C135.054 200.001 132.771 203.545 129.923 205.521C129.744 204.472 135.054 194.684 131.986 194.862C131.202 194.902 126.072 206.775 122.468 207.157L122.454 207.13ZM146.484 189.886C143.417 189.913 142.041 195.652 144.435 197.261C146.677 198.324 146.69 190.759 146.484 189.886ZM162.838 191.658C157.68 192.422 154.462 198.815 158.506 202.999C160.665 201.636 169.785 190.636 162.838 191.658ZM158.918 207.947C160.514 208.288 160.899 207.143 161.738 206.23C164.86 202.822 169.716 196.988 169.688 192.353C166.827 194.739 165.521 198.351 163.416 201.309C161.821 203.545 158.547 204.799 158.932 207.947H158.918ZM91.7951 203.831L93.1018 193.935C86.7609 191.236 77.4214 194.643 73.515 200.11C72.5935 201.405 69.6224 208.493 69.4574 210.088C69.196 212.65 69.925 214.559 70.2551 216.985C72.7723 219.616 71.6169 210.687 71.9057 210.415H74.3816C74.4366 213.482 74.9455 219.97 76.9537 222.26C78.1366 223.61 79.6909 223.364 80.0073 223.732C80.5437 224.346 79.8697 226.159 81.3827 227.713C83.446 229.839 87.3386 230.493 90.1583 229.744C93.542 228.83 105.454 218.771 100.488 214.545L90.9698 223.555C92.2215 217.762 100.543 213.618 99.6628 207.13C99.0714 208.82 90.1583 220.202 88.4802 218.621L96.1003 209.351C97.352 206.966 100.337 198.569 98.8513 196.429C95.055 190.99 95.8115 204.744 91.7951 203.831ZM148.148 203.831C152.467 203.476 150.445 196.715 149.785 193.989C148.561 194.235 147.433 197.656 147.323 198.583C147.089 200.546 147.708 202.032 148.148 203.844V203.831ZM158.093 213.686C158.973 214.64 166.401 206.843 167.185 205.862C169.166 203.381 171.724 199.578 172.164 196.443C168.739 199.224 166.814 203.476 163.884 206.707C161.986 208.793 157.598 209.91 158.093 213.686ZM171.972 207.757L171.765 203.844C170.954 205.303 159.634 216.985 160.583 217.803C161.738 218.798 162.632 217.407 163.306 216.794C166.167 214.15 168.588 209.951 171.972 207.77V207.757ZM191.228 204.662C190.953 204.39 187.226 205.807 186.442 206.107C185.809 206.339 183.856 205.985 184.612 207.539C185.726 209.815 190.018 210.088 191.682 208.002L191.228 204.676V204.662ZM232.658 220.27C233.552 212.064 232.135 208.356 223.552 207.13L228.902 212.091L232.658 220.27ZM174.654 209.597C173.98 208.874 171.16 212.091 170.555 212.705C169.922 213.373 165.699 218.035 166.373 218.621C169.303 219.752 175.878 210.919 174.654 209.597ZM191.228 212.05C194.103 213.141 197.143 213.114 199.495 210.824C199.522 209.283 190.651 208.193 191.228 212.05ZM191.641 238.331C195.809 239.054 201.737 237.8 206.138 238.331C206.317 239.531 204.68 239.476 203.814 239.722C197.17 241.603 191.696 240.962 185.424 238.345C183.718 239.913 191.008 242.707 191.998 242.911C195.327 243.566 198.642 243.198 201.984 243.279C203.332 244.288 201.984 244.765 200.76 244.915C195.891 245.529 191.063 244.152 186.249 244.097C188.684 250.545 199.619 248.677 205.299 249.032C204.598 250.34 200.444 250.668 199.123 250.695C195.135 250.777 191.792 249.85 187.9 249.85C185.63 251.485 200.32 252.371 201.613 252.331C205.038 252.235 209.288 251.104 212.754 250.668C212.232 251.962 204.79 253.939 204.048 253.939H190.375C190.499 257.129 195.657 257.865 198.216 258.069C206.51 258.737 214.529 255.466 222.699 254.757L212.094 258.615L197.844 260.509C197.844 261.273 198.587 261.763 199.275 261.954C215.946 266.534 244.954 250.15 250.896 233.819C249.521 232.02 249.48 233.928 248.984 234.446C242.85 240.976 237.761 249.4 228.504 252.276C234.363 247.314 240.677 242.639 244.927 236.123C245.766 234.855 248.957 229.144 249.205 228.026C249.562 226.39 249.493 225.641 247.581 226.009C244.129 236.191 235.725 244.07 226.867 249.822C226.482 248.214 227.706 247.873 228.6 247.028C235.904 240.049 244.28 233.438 246.701 223.078C246.99 220.529 245.078 223.214 244.762 223.623C239.04 230.916 236.082 240.553 226.042 244.07C229.865 239.067 235.408 235.428 238.806 230.044C240.663 227.099 246.577 216.126 240.952 215.336C241.048 224.591 235.766 231.829 228.93 237.5C227.995 238.277 227.582 239.49 226.028 239.136L235.835 227.099C238.063 221.606 243.056 211.314 234.308 209.583C236.688 218.144 233.951 229.049 227.252 235.033L229.315 229.294L225.175 232.156C230.594 225.232 231.695 209.556 219.384 211.233C218.641 211.887 223.552 219.534 223.965 221.061C225.821 228.122 220.443 231.802 216.069 236.287C214.336 237.227 215.519 235.046 215.891 234.46C220.017 227.876 224.253 228.272 220.622 218.634C220.361 217.953 218.188 213.373 216.895 214.531C215.368 217.408 217.871 217.68 218.751 219.657C219.934 222.315 219.48 224.823 217.293 226.827C214.955 227.208 217.459 223.991 217.569 222.928C217.72 221.524 217.679 221.142 216.468 220.27L212.754 222.724L213.566 217.803C209.096 218.893 205.382 222.342 200.609 222.669C197.225 222.901 189.853 219.18 189.591 223.91C189.344 228.299 194.612 231.434 198.656 230.93L194.502 232.579L196.152 235.033L186.221 232.579C186.125 235.305 189.151 237.895 191.6 238.331H191.641ZM213.593 210.415L204.213 216.303L201.998 218.621C204.226 219.466 215.299 212.064 213.593 210.415ZM128.245 235.864C133.018 236.259 137.585 233.029 141.106 230.139C146.594 225.668 152.797 218.266 153.925 211.233C149.771 216.985 146.704 222.969 141.106 227.672C136.897 231.216 132.193 232.347 128.245 235.85V235.864ZM168.863 239.149C169.84 234.106 172.013 229.635 168.863 224.768C168.175 223.705 165.576 221.197 164.283 221.061C157.075 220.311 153.526 229.212 148.987 232.988C143.664 237.404 135.343 239.913 136.911 249.045C138.396 251.117 143.898 248.037 143.183 251.445L135.769 252.317C135.439 254.975 135.384 258.383 138.671 258.86C141.271 259.228 143.774 256.883 145.659 259.255C143.706 260.659 139.056 259.46 139.043 262.936L148.148 262.131C143.348 266.807 152.11 268.388 155.631 266.657C156.91 266.03 157.048 264.067 157.378 263.835C157.804 263.535 160.431 265.498 163.856 263.317C172.632 257.742 181.476 239.913 181.944 229.662L178.808 228.462C177.914 235.973 175.699 244.561 168.863 248.991C168.794 246.81 171.022 246.142 171.985 244.288C173.801 240.758 179.028 226.622 176.126 223.732L169.702 223.119C173.388 227.154 173.705 235.782 168.877 239.136L168.863 239.149ZM86.8159 235.033C88.0263 235.101 88.8516 235.864 90.1445 235.537C91.7813 235.114 102.895 225.954 101.726 222.724C97.7096 228.476 91.3274 230.098 86.8159 235.033ZM152.275 222.737C151.697 222.151 147.048 226.636 146.498 227.236C145.026 228.844 143.843 230.97 142.33 232.579C143.582 233.71 152.715 225.341 152.275 222.737ZM105.88 226.022C104.422 224.646 98.59 230.984 97.5996 232.17C96.8293 233.097 95.5914 233.492 95.949 235.046C98.5349 235.932 107.214 227.263 105.88 226.022ZM109.195 244.902C110.57 240.267 115.233 236.696 109.608 232.743C101.341 233.847 97.7372 250.668 102.936 254.852C105.509 256.924 109.731 250.354 110.845 251.472C111.203 254.811 104.161 256.338 105.055 259.255C107.448 262.227 110.57 258.942 113.335 258.86L108.37 262.145C108.879 265.048 112.634 262.377 113.335 262.963C110.254 268.075 117.915 267.843 121.409 266.439C123.459 265.621 131.519 254.852 132.385 252.671C132.949 251.24 131.643 251.254 130.749 251.458C128.3 256.434 123.101 263.235 117.475 264.585C125.15 258.437 131.23 251.076 131.56 240.785C126.553 239.749 128.259 243.375 126.994 246.524C125.384 250.572 122.592 254.116 119.538 257.197L124.972 246.987C126.058 244.179 126.952 239.217 122.537 240.062L119.126 244.888C119.346 242.298 121.368 240.24 118.548 238.468C113.431 235.237 112.922 243.075 109.181 244.888L109.195 244.902ZM203.663 266.248C214.446 267.325 224.267 263.535 233.51 258.465C240.195 254.798 247.458 250.354 249.232 242.434C240.869 250.436 229.109 259.337 217.761 262.554C213.442 263.781 209.302 263.972 204.914 264.626C203.47 264.844 203.511 264.19 203.676 266.248H203.663ZM163.059 267.066C164.915 268.947 173.375 259.95 174.626 258.424C178.106 254.184 181.517 248.991 181.27 243.252C176.414 248.841 173.622 255.97 168.423 261.313C166.621 263.167 162.357 263.903 163.045 267.066H163.059ZM217.747 267.884C222.699 268.143 227.527 266.466 231.846 264.217C233.249 263.481 243.235 257.156 241.763 255.575L230.732 262.295L217.747 267.884ZM125.769 266.248C128.617 268.633 137.681 259.964 131.973 257.238L125.769 266.248ZM120.79 270.365C111.052 273.186 106.485 265.444 99.7041 260.55C83.1984 264.612 75.3582 276.921 80.64 293.319C83.8036 303.107 90.4059 306.978 100.598 308.041C101.506 308.136 103.583 308.777 103.39 307.332C102.221 306.76 92.0564 304.32 94.7111 302.398C96.623 301.007 101.162 304.442 103.886 304.783C107.063 305.179 109.497 304.497 112.51 304.047L110.859 307.319C115.44 307.823 114.312 303.829 113.321 300.748C109.401 301.88 106.224 302.207 102.524 300.353C101.313 299.74 100.516 300.353 100.915 298.295C102.785 297.75 111.176 301.157 111.684 298.69C112.317 295.596 102.675 296.795 103.404 292.542C105.137 292.147 111.684 295.664 111.671 292.134C111.671 290.798 107.407 291.466 108.383 289.68C112.689 287.812 111.726 284.2 113.486 280.765C114.229 279.307 121.313 270.814 120.804 270.378L120.79 270.365ZM231.832 290.879C234.913 286.736 242.506 282.973 243.868 277.766C245.051 273.282 245.793 261.123 238.462 263.781C240.016 268.961 241.172 272.573 238.448 277.739L236.798 276.526C238.27 273.391 240.003 269.342 236.413 266.998C231.543 263.822 231.86 272.546 231.048 274.917C229.838 278.407 226.014 279.947 226.042 283.491L231.832 281.856L232.231 284.309L235.133 282.673C236.55 284.037 230.347 286.899 229.728 287.567C225.34 292.379 233.387 295.855 238.861 290.866C239.769 290.034 245.573 282.292 245.903 281.419C246.454 280.015 244.789 279.756 244.267 280.206C243.744 280.656 241.667 284.95 240.14 286.395C238.311 288.112 234.391 290.729 231.818 290.866L231.832 290.879ZM153.939 274.454C154.242 273.009 153.183 272.423 152.302 271.578C150.996 270.324 142.839 264.176 141.519 265.43C140.198 269.179 152.674 275.613 153.939 274.454ZM161.394 267.911C161.215 267.652 158.808 267.311 158.052 267.42C157.295 267.529 153.265 268.565 153.939 269.942C155.315 272.764 163.622 271.101 161.38 267.911H161.394ZM240.126 292.529C249.383 288.985 254.184 277.017 250.883 267.897L248.806 279.375L240.126 292.529ZM142.825 284.8C144.655 282.51 149.428 278.298 147.378 275.653C146.649 274.713 138.08 269.151 136.759 268.892C124.504 266.561 110.997 285.318 116.237 296.7C121.024 298.227 124.944 298.608 129.923 297.477L121.657 301.157C123.967 304.483 128.094 302.902 131.574 303.216L126.608 304.851V307.305L137.378 305.656C137.571 308.505 138.149 311.422 141.298 312.09C147.282 309.963 153.925 305.26 158.093 300.312C155.026 298.663 152.825 304.633 149.813 303.611C152.632 301.566 161.821 291.82 161.408 288.848C161.284 287.935 160.349 287.485 159.317 288.412C155.301 292.011 151.917 300.271 146.498 303.202C145.934 300.939 146.814 301.321 147.529 300.503C150.941 296.55 154.448 293.319 157.103 288.671C157.763 287.513 161.229 280.779 160.583 280.22C160.486 280.138 157.9 279.784 158.121 280.806C158.024 283.491 155.7 286.763 153.925 288.807C152.963 289.925 146.952 295.405 146.058 295.8C145.7 295.964 144.696 296.005 144.833 295.405C147.199 293.115 157.075 283.573 156.346 280.792C156.154 280.084 154.31 278.312 153.967 278.57C154.228 280.165 149.07 289.271 147.323 287.594C148.919 284.759 152.302 281.215 151.051 277.753L139.442 290.062C138.437 288.18 141.904 285.945 142.825 284.786V284.8ZM224.377 280.206C227.486 278.407 231.378 272.723 228.105 269.547C225.312 271.06 227.156 272.736 226.715 274.645C226.275 276.553 224.308 278.08 224.377 280.206ZM213.593 281.856C215.657 274.018 204.584 269.479 198.326 270.392C196.936 270.596 195.891 271.605 194.777 271.809C189.935 272.682 184.062 272.546 180.458 276.908C183.567 276.894 186.235 275.013 189.234 274.522C190.073 274.386 192.274 273.868 192.054 275.272C187.487 274.699 183.416 279.402 180.417 280.615C179.33 281.051 178.244 280.165 177.171 280.615C171.586 282.905 174.447 294.873 173.911 299.835L181.284 300.735C182.563 295.255 176.07 295.35 176.318 290.893L179.22 292.515L182.948 287.608C181.765 290.225 184.282 292.706 184.461 293.933C184.612 294.942 183.099 295.868 182.948 297.082C182.439 301.062 187.074 303.747 188.739 306.91L183.773 308.137C183.416 316.52 190.155 314.652 196.194 314.707L189.578 316.342C187.762 318.06 198.257 321.986 199.082 322.027C200.719 322.108 202.7 320.445 204.488 320.445C204.488 317.937 202.012 316.302 199.921 317.978L199.522 316.37C203.566 315.252 208.422 313.275 211.874 310.945C214.199 309.377 215.23 307.7 216.991 306.16C219.164 304.265 222.823 304.497 221.888 299.944C218.875 299.549 217.775 302.452 215.533 303.897C212.342 305.956 208.215 308.559 204.488 308.968C203.635 308.327 221.296 300.503 219.398 295.841C216.166 295.378 214.983 298.826 212.727 300.299C208.367 303.147 201.379 305.915 196.207 306.105C203.828 302.548 214.446 299.862 217.747 291.329C215.753 288.494 214.157 291.929 212.218 293.224C207.583 296.332 201.984 299.753 196.785 301.743C195.974 302.057 194.268 303.079 193.732 302.002C197.927 298.935 213.415 292.515 215.272 288.031C215.877 286.545 214.309 286.531 213.332 286.926C210.334 288.14 206.262 294.287 201.2 293.374C203.883 289.489 215.244 288.862 210.719 282.701L209.206 282.823L202.039 288.453L207.005 282.278C207.445 280.302 204.158 280.029 202.865 280.234C204.392 277.112 202.892 276.417 202.039 273.677C204.708 273.268 206.4 275.476 207.115 277.712L210.306 276.948C210.155 279.17 211.682 280.983 213.621 281.883L213.593 281.856ZM164.723 298.281C166.772 300.53 170.747 287.499 169.688 285.972L165.975 292.542L164.723 298.281ZM260.291 305.11C260.662 304.538 262.175 304.715 262.519 302.807C263.193 299.126 261.721 293.279 258.613 291.029C257.774 290.416 253.84 288.412 253.07 288.548C250.594 290.661 248.696 292.761 245.862 294.533C244.143 295.609 241.158 296.046 240.113 297.054C239.067 298.063 237.761 302.411 236.784 304.02H235.147C235.959 303.352 238.256 297.218 235.574 298.281C231.31 302.67 225.918 308.641 232.231 313.889L248.407 322.081C250.731 319.709 237.967 312.812 240.484 308.941C241.007 308.136 249.645 303.025 250.883 300.735C251.708 304.892 248.159 305.274 245.931 307.714L248.159 309.677C251.694 310.604 259.644 300.748 258.351 296.632C262.657 299.876 258.09 305.996 255.05 308.545C258.668 312.117 258.613 307.741 260.291 305.11ZM265.641 293.551C264.885 293.06 262.849 292.801 263.331 294.573C268.145 296.373 267.141 304.483 266.068 308.804C264.582 314.748 258.668 319.137 255.037 323.731C266.742 319.396 271.102 311.926 269.08 299.562C268.901 298.445 266.233 293.946 265.641 293.551ZM185.424 306.487C186.4 302.316 173.512 301.076 173.003 301.566C172.769 307.673 179.014 304.688 181.572 305.083C182.604 305.247 183.773 307.046 185.424 306.473V306.487ZM159.634 310.508C160.184 309.881 160.321 303.87 157.79 304.129C157.075 304.197 146.195 311.244 145.659 311.871C144.806 312.866 144.916 314.475 144.751 314.625C143.554 315.743 138.259 311.858 139.029 315.525C141.904 316.247 144.352 315.606 147.172 314.979C148.699 314.639 159.207 311.013 159.647 310.522L159.634 310.508ZM136.539 313.057L134.916 308.491L129.91 308.968C130.721 311.803 133.582 313.344 136.539 313.057ZM106.705 311.422L90.3371 310.781C87.82 316.711 90.8873 325.557 97.5996 327.016C97.3795 321.509 89.0992 317.678 95.9353 312.239C96.0728 316.397 94.7386 320.323 98.8375 322.885C100.213 321.522 108.163 312.798 106.705 311.422ZM225.202 309.786C224.501 309.104 216.344 316.465 215.038 317.365C208.683 321.727 202.425 324.617 194.543 324.971C198.958 328.052 206.166 324.876 210.581 322.804C216.496 320.036 222.589 315.961 225.202 309.786ZM121.629 331.132C123.954 327.057 122.62 311.94 117.709 310.713C100.612 316.765 95.4264 337.389 107.544 351.238C113.913 358.504 128.465 362.879 136.154 355.805C142.55 349.916 154.448 330.56 146.484 322.926C147.818 331.01 145.604 338.152 141.491 345.091C140.418 345.254 139.373 345.336 139.882 343.918C140.611 341.915 142.743 339.652 143.582 336.898C144.778 333.013 145.081 329.456 144.806 325.394L139.001 341.805C137.447 341.983 138.314 340.142 138.575 339.338C140.253 334.254 145.04 329.183 140.253 323.771C138.809 323.717 138.836 330.873 138.424 332.632C138.314 333.082 137.076 337.743 135.7 336.067C135.246 335.521 140.129 324.862 134.875 322.94L132.385 327.861C132.688 323.649 132.633 319.219 127.42 321.304C127.489 319.328 126.43 317.024 124.091 317.201C123.28 318.115 125.769 329.565 121.615 331.16L121.629 331.132ZM215.258 311.422L205.341 316.751C205.217 319.805 218.807 316.397 215.258 311.422ZM182.109 318.823L174.668 317.174C174.805 320.582 179.165 320.609 181.71 320.459L182.123 318.823H182.109ZM236.798 336.885C238.82 328.815 237.307 327.929 232.658 322.517C230.195 319.655 230.264 315.906 224.061 318.932C217.637 326.389 208.642 326.784 210.664 338.575C211.957 346.181 217.252 349.139 224.006 351.647C226.372 351.606 225.574 351.647 224.212 350.625C220.801 348.076 215.203 343.905 216.111 339.352C218.765 341.71 220.732 347.926 225.574 346.713C229.329 345.772 220.773 340.115 222.727 337.702C224.927 336.803 224.694 340.129 225.615 340.142C227.706 340.17 233.909 330.014 231.832 327.029C233.015 326.975 233.139 330.083 233.277 331.01C233.648 333.681 231.887 337.198 236.798 336.885ZM245.917 330.301C245.793 325.625 242.272 322.463 238.476 320.445L239.301 322.899L236.798 323.322L238.476 327.002L241.777 325.721L245.917 330.301ZM179.385 326.443C178.863 325.857 172.439 321.999 171.82 322.054L169.688 327.029L166.896 324.644C159.221 328.447 158.203 333.709 158.451 341.846L168.863 344.273L158.946 346.331C158.987 348.253 166.497 347.421 168.038 347.571C168.629 350.175 165.177 349.016 163.265 349.821C160.101 351.143 163.98 352.52 165.988 352.533C168.725 352.574 171.696 351.02 174.668 351.674L168.877 353.31C169.248 357.877 174.709 354.891 177.57 354.878C179.523 354.878 181.201 355.818 183.25 355.723C189.55 355.45 198.491 350.08 198.284 343.455L184.612 352.479C184.2 350.693 185.603 350.652 186.497 349.848C190.816 345.922 203.924 339.843 197.872 332.782C196.111 341.247 186.758 346.372 178.808 348.376C184.695 343.032 193.36 342.119 195.382 333.15L193.333 331.146C191.256 334.717 190.706 337.225 187.542 340.197C186.455 341.219 177.831 347.326 177.171 346.74C175.727 345.486 178.354 344.941 178.725 344.613C181.022 342.61 184.475 341.124 186.304 338.957C187.748 337.253 191.38 331.337 187.968 330.314C186.62 333.64 182.59 337.839 178.835 338.52L185.135 331.173L183.402 328.679C180.926 332.209 178.244 336.203 173.883 337.689C172.164 336.026 183.209 330.723 179.427 326.43L179.385 326.443ZM192.054 327.016C190.43 323.799 186.194 323.335 182.948 322.926C182.549 325.066 183.361 324.371 184.598 324.944C186.73 325.939 189.688 326.811 192.067 327.016H192.054ZM152.275 324.562C151.064 323.431 150.775 324.63 150.624 325.775C150.308 328.311 150.803 331.023 150.418 333.79C149.799 338.084 147.461 341.097 146.498 345.091C151.656 339.57 156.58 332.114 152.275 324.562ZM34.6166 336.871C31.5905 333.654 25.2908 335.044 21.357 335.249L27.5741 336.871H34.6028H34.6166ZM230.759 337.784C230.085 337.961 227.032 340.947 226.936 341.506L229.054 344.205L234.322 339.747C233.318 338.657 232.437 337.348 230.773 337.784H230.759ZM153.939 339.338C151.835 338.875 152.495 339.897 151.793 340.879C148.038 346.195 145.205 350.843 139.854 354.932C147.268 354.114 153.719 346.508 153.939 339.338ZM237.334 345.2C233.909 346.099 238.792 348.294 240.635 348.348C242.478 348.403 243.18 347.571 244.239 346.317C244.253 344.75 238.613 344.859 237.32 345.2H237.334ZM199.522 369.722C205.354 365.074 210.457 355.069 204.873 348.417C201.379 344.232 199.013 351.784 196.496 354.005C193.608 356.554 189.935 356.554 187.955 357.849C186.318 358.926 181.861 369.49 182.948 370.54L187.074 371.78L183.787 375.474L188.34 373.034L189.977 377.969L194.557 377.124C192.948 380.055 197.831 384.553 199.949 384.485C202.067 384.416 199.123 379.605 201.599 378.76L202.865 382.849C209.797 382.876 205.533 379.618 206.537 377.137C207.266 375.325 214.02 371.521 215.973 368.373C218.325 364.556 221.654 355.709 216.097 353.297C215.615 361.83 212.548 372.912 202.837 374.643L209.825 368.85C212.617 363.656 216.977 354.373 209.88 350.857C207.679 352.724 209.027 355.805 208.449 358.449C207.583 362.402 204.364 369.681 199.536 369.722H199.522ZM171.339 369.722C179.881 356.364 169.303 360.357 161.944 355.641C158.588 353.487 158.684 351.334 156.814 349.221C154.792 346.944 150.473 353.474 148.547 354.946C142.908 359.267 138.616 359.621 135.301 367.268C131.986 374.916 132.372 381.813 135.535 389.187C143.279 407.249 177.226 406.349 184.585 388.615C176.043 395.839 164.819 399.097 153.623 398.525C152.357 395.39 151.257 393.018 147.309 393.549L149.785 397.652C141.766 395.444 135.549 386.611 135.687 378.392C135.755 374.357 140.611 360.739 144.531 359.172C149.744 357.1 142.124 365.551 141.725 366.246C138.3 372.23 135.673 383.258 142.316 387.783C142.578 385.303 139.703 383.176 139.827 380.872C139.868 380.082 143.045 370.076 143.596 368.877C144.146 367.677 143.485 366.86 145.631 367.241C146.085 371.603 142.811 377.356 144.118 381.486C144.558 382.89 146.03 383.449 146.91 382.045C147.653 378.773 147.296 374.234 150.61 372.162C148.492 378.078 150.996 394.872 157.68 396.78C160.982 397.72 155.425 391.75 154.943 390.455C153.953 387.865 153.719 385.561 153.939 382.822H156.415V386.925C162.66 385.616 179.262 380.927 179.633 373.389C179.688 372.367 179.619 371.671 178.381 372.148C172.976 374.234 166.401 383.053 158.905 382.808C158.478 380.682 159.358 381.377 160.514 380.75C166.085 377.778 171.573 376.66 175.892 371.317C179.138 367.296 177.776 366.451 179.22 363.111C179.839 361.68 182.48 361.134 182.109 358.994C174.021 357.209 178.037 368.373 171.339 369.654V369.722ZM239.287 349.207C236.33 349.807 230.636 346.058 230.168 350.829C233.18 351.484 237.21 352.451 239.287 349.207ZM233.483 366.437C233.414 362.825 234.652 356.227 229.343 356.595C228.889 359.799 229.81 362.17 231.42 364.815C232.052 365.851 231.255 366.9 233.469 366.437H233.483ZM224.143 359.294C223.91 359.022 221.172 357.263 221.062 357.4C221.53 361.898 218.738 367.718 215.794 371.085C214.914 372.094 206.62 377.601 208.628 379.577C212.672 379.836 221.64 371.917 221.86 368.454C221.929 367.337 220.994 365.933 221.131 365.265C221.241 364.719 227.321 363.07 224.143 359.308V359.294ZM228.517 381.213C231.241 383.667 238.366 370.949 238.888 368.931C239.838 365.292 239.439 362.307 236.385 359.894C234.528 359.853 235.298 369.259 234.748 371.399C233.703 375.447 229.838 377.601 228.517 381.227V381.213ZM131.986 362.334C127.612 362.552 123.115 362.334 118.727 362.334C117.957 362.334 112.799 368.495 112.317 369.94C110.997 373.907 111.093 382.549 115.825 383.694L116.237 381.227C118.851 386.993 124.93 382.753 129.868 382.822C128.396 374.834 131.89 369.518 134.05 362.729C134.834 360.248 132.124 362.334 131.986 362.334ZM227.445 372.285C224.24 373.103 220.994 381.295 227.816 377.655C232.74 375.025 230.429 371.521 227.445 372.285ZM211.957 382.863C216.454 383.858 216.798 380.886 219.398 378.351C218.201 376.878 218.504 377.274 217.211 377.792C216.303 378.16 210.609 381.717 211.957 382.863ZM179.619 379.577C177.515 381.05 175.341 382.235 172.962 383.244C170.582 384.253 157.557 387.402 158.079 389.828C158.96 393.849 163.898 387.961 164.269 387.974C164.723 387.974 165.658 389.474 167.501 389.433C170.541 389.378 182.315 383.271 179.605 379.577H179.619ZM224.377 380.409C220.636 378.691 217.362 381.527 216.922 385.33L224.377 380.409ZM226.867 388.615C231.034 389.337 234.858 383.026 235.972 379.591L226.867 388.615ZM224.969 383.026C222.19 383.749 216.234 388.792 222.548 387.225C227.417 386.011 229.178 381.936 224.969 383.026ZM169.688 394.354C170.17 394.817 180.183 388.956 181.229 388.151C183.924 386.052 182.769 383.898 180.458 384.907C179.262 385.439 167.694 392.432 169.688 394.354ZM149.799 391.069C149.428 388.26 148.272 384.785 144.833 385.33C144.545 389.065 145.769 391.327 149.799 391.069ZM131.56 396.003C134.284 386.338 129.332 384.526 120.818 387.402C110.048 391.055 102.221 401.728 107.352 413.015C107.764 413.942 108.713 415.673 109.621 414.078C110.832 411.938 109.154 404.781 110.254 400.733C110.598 399.479 111.409 396.18 113.335 396.821C113.982 397.625 107.448 415.496 115.825 414.882C117.186 413.464 112.812 403.991 117.475 404.209C119.305 410.22 116.347 421.616 125.756 414.882L120.79 420.621L130.735 416.531L122.454 422.693L128.245 422.284L126.595 425.555C128.713 428.459 137.736 422.747 139.868 421.071C143.582 418.126 146.003 413.996 147.296 409.539C146.003 407.917 145.975 409.375 145.452 410.207C142.605 414.678 140.748 419.326 135.714 422.284C137.103 418.822 140.157 416.804 141.959 413.287C142.99 411.256 143.967 409.021 143.994 406.69C141.904 408.244 140.473 411.488 138.616 413.246C137.681 414.132 136.044 414.978 134.903 415.714C133.857 414.609 143.788 404.986 142.344 401.755C140.845 400.12 137.461 408.421 135.728 408.326C136.03 404.55 140.501 400.379 136.966 396.848L130.762 406.676L134.022 397.189C134.669 395.076 132 396.398 131.574 396.003H131.56ZM212.768 394.367L202.837 391.069C201.077 392.868 211.475 398.688 212.768 394.367ZM194.543 404.209C200.348 397.898 193.168 394.817 187.611 391.995C185.492 395.935 177.57 401.019 175.892 404.209C175.452 405.04 175.355 405.749 175.479 406.663L178.794 408.312L174.654 410.779L182.109 408.326L177.143 414.064L186.249 410.793C187.322 411.815 180.761 415.277 186.277 417.772C190.21 419.558 197.597 411.502 198.876 408.107C199.44 406.622 201.008 401.578 198.697 400.937C199.096 403.105 190.994 413.723 189.578 412.428C190.939 409.402 193.553 407.521 194.543 404.223C194.158 404.645 189.784 408.571 189.578 408.326C189.605 404.223 195.437 401.96 192.879 397.652C196.483 397.461 195.217 401.933 194.529 404.209H194.543ZM199.522 428.854C204.116 429.454 205.629 425.296 207.844 423.552C209.206 422.475 211.241 422.502 212.411 421.507C216.193 418.29 214.364 402.723 209.866 400.937C207.926 400.351 208.449 403.732 208.656 404.604C209.357 407.562 212.479 407.385 211.063 411.065C209.178 415.945 202.163 421.384 198.092 424.56C197.102 425.337 195.836 425.501 196.207 427.205C201.751 427.913 208.229 415.659 209.907 414.923C214.006 413.137 210.237 419.776 209.068 420.662L199.522 428.854ZM190.403 420.634C194.13 420.103 198.807 416.518 201.173 413.655C202.631 411.883 207.39 404.959 204.061 403.405C202.466 402.655 200.609 411.27 198.67 411.992L190.403 420.621V420.634ZM135.714 427.205C140.652 427.314 146.14 420.403 148.465 416.436C149.07 415.4 154.476 404.986 151.037 405.04L145.507 417.608L135.714 427.191V427.205ZM157.254 405.858C155.383 404.427 151.656 414.746 150.775 416.259C148.987 419.326 146.415 421.602 144.833 424.737C149.661 424.806 160.253 408.148 157.254 405.858ZM155.603 418.999C159.84 416.395 162.041 412.578 161.38 407.508L155.603 418.999ZM192.893 424.737C194.97 426.605 209.082 412.742 206.977 408.326L202.837 414.473C199.055 417.322 195.011 420.444 192.893 424.737ZM165.534 418.181C164.613 417.227 152.041 425.296 150.624 426.809C147.406 430.244 145.796 434.852 146.484 439.527L148.561 437.06C151.986 440.004 151.436 440.386 156.415 439.541L152.275 442.812L157.997 442.076C158.272 443.358 159.193 447.243 160.954 446.956L171.325 438.709L167.185 446.915C170.018 447.515 170.912 444.598 172.976 443.63C173.375 446.125 172.37 447.501 170.514 448.974L174.915 452.559L185.41 444.039L184.186 442.826L177.969 447.747C176.786 446.438 183.223 441.981 183.759 440.754C184.2 439.745 183.581 439.214 182.535 439.541L179.633 441.177C178.368 438.655 186.194 433.639 184.598 432.153C182.356 430.067 178.271 438.382 176.318 438.723C176.07 435.956 181.586 431.403 181.284 429.29C180.747 425.446 176.868 433.202 175.479 432.139L177.13 426.4L170.514 429.672L172.989 424.751L166.36 428.023L168.01 423.933L158.905 431.321C158.905 428.922 162.316 427 163.031 425.146C163.994 422.652 158.726 425.446 159.73 422.297C161.119 422.434 167.721 420.485 165.521 418.181H165.534ZM132.385 433.775C130.13 426.482 117.64 428.69 112.221 431.458C106.802 434.225 103.102 442.799 102.771 448.388C102.675 449.941 102.084 450.718 103.803 451.836C107.572 447.542 106.43 442.226 110.02 437.483C111.354 435.711 119.195 428.949 120.776 432.562C121.437 434.061 116.347 435.015 115.027 435.874C112.097 437.755 107.723 443.167 109.965 446.534C110.502 447.338 111.423 448.183 112.097 446.915C112.771 445.648 110.68 441.967 113.748 440.359C115.618 441.19 113.871 443.426 114.986 444.066C115.756 444.503 116.622 443.576 116.925 443.712C117.572 443.985 118.025 445.77 119.965 445.689C116.87 448.251 112.358 449.996 108.383 448.565C103.803 459.129 118.383 451.986 119.14 452.681C119.841 456.048 111.671 456.444 111.684 457.193C113.39 458.747 119.745 455.748 119.153 459.238C117.406 458.829 110.254 459.347 110.873 462.1C111.698 465.754 120.199 459.947 122.468 461.283C120.721 463.245 118.053 463.559 115.852 464.609C114.656 465.181 113.775 464.431 114.188 466.612L126.086 462.4L136.553 455.953C138.548 457.929 123.61 465.045 122.881 466.626C121.299 470.047 128.644 466.135 129.387 465.672C131.794 464.172 142.605 454.385 140.693 451.85L137.392 453.486C140.349 449.083 135.576 448.933 134.985 447.202C134.05 444.448 139.263 440.059 134.916 437.892C135.04 441.149 132.619 447.052 130.639 449.682C129.786 450.814 123.17 455.898 122.482 455.135C121.794 454.372 122.372 453.213 123.527 452.463C130.831 447.733 133.527 446.288 132.413 436.256C127.97 435.356 130.061 440.931 126.622 441.995C126.553 440.4 127.695 439.214 127.489 437.537C127.227 435.452 124.724 435.097 124.972 432.971L132.413 433.775H132.385ZM141.519 449.383C142.99 449.083 143.1 447.747 143.224 446.52C143.389 444.762 142.55 436.229 142.165 434.375C141.931 433.243 141.12 431.635 139.868 431.321C138.74 437.932 142.44 442.867 141.519 449.383ZM183.773 454.303C188.986 454.412 192.672 447.202 193.168 442.662C193.319 441.245 194.323 440.74 192.466 439.541C188.835 442.076 191.476 442.444 191.875 444.203C192.452 446.738 185.41 452.327 183.773 454.303ZM158.079 457.589C157.405 454.154 153.98 451.972 150.624 452.668C152.068 456.062 154.049 458.311 158.079 457.589ZM134.063 466.626C135.508 468.234 143.472 457.139 143.169 455.135C141.422 456.307 132.812 465.236 134.063 466.626ZM131.574 475.663C133.169 477.299 149.799 460.751 146.47 455.953L139.73 466.094L136.058 469.025L131.574 475.663ZM142.344 470.729C143.761 471.997 151.257 462.564 149.799 460.069L142.344 470.729ZM150.624 478.117C153.375 480.721 158.079 471.301 158.547 469.134C159.358 465.358 158.684 464.063 155.026 462.646C152.344 462.4 148.767 473.087 145.645 474.45C146.759 478.84 150.225 471.629 151.023 471.588C153.98 473.019 149.386 476.972 150.61 478.131L150.624 478.117ZM158.808 478.008C159.331 474.014 165.809 468.63 162.632 464.99L158.822 474.328L156.442 477.722L158.808 478.008Z" fill="white"/>
<path d="M93.4442 463.356L92.2613 464.937L78.5341 461.706L93.4442 463.356Z" fill="white"/>
<path d="M66.9249 348.377C67.2825 350.763 66.4435 349.822 64.8617 350.013C61.2029 350.435 57.049 351.144 53.6791 350.013L66.9249 348.391V348.377Z" fill="white"/>
<path d="M216.095 31.3848L216.316 27.0909L218.558 18.2443C219.135 21.3113 218.337 25.3325 217.732 28.495C217.498 29.6945 217.732 31.044 216.095 31.3711V31.3848Z" fill="white"/>
<path d="M112.096 145.532C113.361 145.641 115.521 147.113 117.474 146.363V147.181H105.466C104.572 147.181 101.862 145.532 100.088 146.35V145.532C103.98 145.777 108.244 145.191 112.096 145.532Z" fill="white"/>
<path d="M189.576 98.7222L184.597 86.3997C186.757 87.8309 190.292 93.9104 190.869 96.2414C191.227 97.6863 191.117 98.2315 189.576 98.7222Z" fill="white"/>
<path d="M108.354 322.096C109.028 322.805 105.548 327.739 105.232 329.252C103.1 339.489 109.469 347.109 116.649 353.284C106.965 350.204 102 339.012 103.76 329.443C103.939 328.516 106.58 320.229 108.354 322.096Z" fill="white"/>
<path d="M116.896 348.132C117.914 349.249 120.569 349.781 121.614 351.253C114.833 351.826 110.445 344.642 111.683 338.522C114.915 340.239 114.819 345.842 116.896 348.132Z" fill="white"/>
<path d="M130.733 349.209C128.436 354.579 117.941 348.05 120.789 345.092C122.26 343.565 127.24 351.58 130.733 349.209Z" fill="white"/>
<path d="M138.189 348.377C139.151 349.482 132.769 357.21 129.908 355.765L131.834 353.162C133.897 353.639 137.088 347.123 138.189 348.377Z" fill="white"/>
<path d="M155.602 153.752C156.991 150.167 158.793 147.699 158.05 143.528C157.83 142.288 154.639 138.839 157.652 138.975C162.521 143.065 160.664 150.698 155.602 153.752Z" fill="white"/>
<path d="M160.581 154.57C160.801 150.317 165.093 146.473 163.731 142.015C163.593 141.552 159.343 137.258 162.617 138.158C168.71 139.821 163.937 151.68 160.567 154.57H160.581Z" fill="white"/>
<path d="M146.483 160.322C147.913 161.535 145.396 162.121 144.928 162.448C140.898 165.256 133.264 169.4 134.901 161.139C138.065 167.178 145.176 159.217 146.483 160.322Z" fill="white"/>
<path d="M148.133 155.401C147.143 158.059 137.597 160.976 137.377 157.446L148.133 155.401Z" fill="white"/>
<path d="M161.393 239.151C163.58 234.093 167.376 229.554 161.393 225.601C162.617 224.497 165.258 225.438 165.946 226.828C167.582 230.113 163.305 241.045 161.379 239.137L161.393 239.151Z" fill="white"/>
<path d="M131.559 272.833C127.35 277.591 120.582 279.595 119.551 286.778C114.269 284.611 127.088 270.884 131.559 272.833Z" fill="white"/>
<path d="M119.977 200.561L123.691 191.537C126.772 194.427 122.7 199.048 119.977 200.561Z" fill="white"/>
<path d="M94.2694 265.431C94.6408 269.084 90.5419 269.793 88.4787 272.41C86.2917 275.178 84.3935 281.216 84.2835 284.719C84.1872 287.473 85.1775 289.668 85.1913 292.108C85.205 293.743 85.0812 293.43 83.5132 293.348C79.4005 283.847 84.3935 269.166 94.2694 265.431Z" fill="white"/>
<path d="M93.4442 273.651C94.0082 274.169 90.6382 279.117 90.3219 280.821C89.868 283.288 90.4182 285.742 90.1293 288.032C89.978 289.231 89.5241 290.526 88.4787 289.245C88.7401 287.432 87.6122 285.592 87.6535 283.901C87.6947 282.211 90.5282 270.966 93.4442 273.651Z" fill="white"/>
<path d="M173.827 327.031C175.381 328.707 168.917 334.174 167.211 334.419C166.551 333.71 172.63 325.749 173.827 327.031Z" fill="white"/>
<path d="M197.857 190.692C201.02 186.33 208.008 178.465 198.682 176.733L199.493 174.662C210.236 174.103 204.459 188.456 197.857 190.692Z" fill="white"/>
<path d="M197.843 184.953L196.192 184.53C199.631 176.379 191.598 180.373 191.24 180.018C191.24 176.393 196.701 175.438 198.627 178.042C200.552 180.645 198.379 182.39 197.857 184.953H197.843Z" fill="white"/>
<path d="M134.874 449.384C136.221 450.652 126.181 458.681 124.943 459.239C124.585 457.699 125.809 457.29 126.593 456.363C127.432 455.368 133.952 448.512 134.874 449.384Z" fill="white"/>
<path d="M193.716 369.724C194.913 366.289 199.906 364.762 200.965 360.904C201.309 359.637 201.378 358.342 201.144 357.047C200.91 355.752 197.733 352.357 200.745 352.494C206.302 358.969 201.006 367.733 193.716 369.724Z" fill="white"/>
<path d="M120.789 365.62C120.913 367.174 119.633 367.801 119.193 369.369C118.602 371.509 118.657 373.813 118.272 375.871C118.024 377.207 118.822 377.302 116.649 377.111C115.149 372.886 114.86 365.634 120.775 365.62H120.789Z" fill="white"/>
</svg>
