<svg width="50" height="50" viewBox="0 0 37 53" fill="none" xmlns="http://www.w3.org/2000/svg">
<path d="M9.4851 47.2914C9.9327 47.6378 10.8799 47.3706 11.4984 47.5473L10.4602 47.6491L9.9327 47.888C9.65226 48.1934 11.6692 48.3433 11.9459 48.3136L11.0526 48.3984L11.2755 48.5667L10.8297 48.6515C11.2123 48.848 11.4092 48.5992 11.6432 48.5893C12.0147 48.5752 12.6313 48.7293 13.0659 48.6529C13.4633 48.8834 12.1112 48.8155 12.0054 48.824L11.1659 48.9922L11.8364 49.0799L11.5021 49.2481L12.7316 49.3344L12.5087 49.4192V49.5889L12.843 49.6737L12.2858 49.7585L12.9563 49.8462V49.9296L12.3973 50.0144C12.635 50.0653 13.272 49.8674 13.1792 50.1855C12.9916 50.2944 12.362 49.9437 12.3973 50.2279C12.583 50.4527 13.2534 50.2887 13.1792 50.6125L12.2858 50.6973C12.5347 50.8175 13.1439 50.7312 13.3017 50.8217C13.4707 50.9193 13.233 51.219 13.8385 51.1342L13.9852 51.622L15.3076 51.9782L15.1943 52.2327L15.8647 52.4024H15.0828C16.5705 52.753 17.5808 52.5084 18.8326 51.8934L20.5635 50.8698C20.6118 51.0296 20.4465 51.072 20.3407 51.1681C17.3561 53.8855 14.756 53.385 11.7788 50.956C6.18479 46.3922 1.25752 38.168 0.215612 31.9896C-0.876446 25.5185 2.28458 20.925 7.63901 16.1152C8.41348 15.4182 9.78598 14.8555 9.58354 13.7852C9.4851 13.5647 8.92236 13.6834 8.67721 13.3681C8.60849 13.2791 8.2649 12.329 8.26675 12.2399C8.26675 12.1112 8.37076 11.9939 8.47848 11.8992C9.1508 11.311 12.1855 10.7978 13.2293 10.7469C14.0409 10.7073 15.7013 10.8756 16.3495 10.7384C16.7469 10.655 16.186 10.4104 16.3625 10.2379C16.5631 10.1149 16.8342 10.1715 17.0664 10.0909C17.9727 9.77702 17.8185 9.95092 18.5837 9.81237C18.6692 9.79681 18.6524 9.6625 18.7379 9.64553C19.3935 9.52253 20.22 9.87175 20.8979 9.81378C20.948 9.58898 20.8496 9.66391 20.6564 9.62009C19.9432 9.45891 18.3219 9.48719 17.8668 9.00931C17.6793 8.81138 17.9058 8.69262 17.826 8.53851C17.7201 8.33492 16.9976 8.0974 17.0887 7.65204L17.3115 7.48238C17.0199 7.14307 16.6819 6.75285 16.8063 6.31739L18.4983 6.30891C18.736 6.24387 18.541 6.03887 18.6487 5.93425C18.983 5.61331 19.7705 6.03463 20.2274 5.9809L20.116 5.47051C21.5813 5.20896 22.0623 5.92576 22.8572 6.66095L23.1061 6.45171C22.6121 5.76459 21.702 4.63353 22.3075 3.85875C22.6715 3.39361 23.0485 3.73434 23.2491 3.64385L23.9177 2.69659C24.1387 2.58631 24.2409 2.88604 24.4786 2.79273C24.5158 2.77859 25.0896 2.4011 25.1175 2.37707C25.6784 1.85112 25.5001 1.30822 26.828 1.71964C26.8763 1.38174 27.1178 1.16259 27.4502 0.956175L27.9498 1.21066C27.8848 0.464164 28.6165 0.76955 29.0363 0.638064C29.4077 0.522131 29.6343 0.079604 29.7978 0.0188096C29.9723 -0.0476401 29.9519 0.079604 29.989 0.127674C30.2472 0.455681 30.3921 0.845896 30.5258 1.21208L31.0142 1.13149L31.1963 1.25449V2.8309C31.5361 2.92563 31.4934 2.36293 31.8129 2.57359C31.9094 2.90725 31.98 3.24657 32.0636 3.58306C32.0933 3.70465 32.0116 3.82624 32.0283 3.89693C32.0506 3.99731 32.409 4.24331 32.4889 4.52891C32.6505 5.10009 32.526 5.38144 32.2456 5.88618C31.9893 6.34708 31.1034 7.09358 30.9938 7.40887C30.9232 7.61528 31.0031 7.78777 31.3077 7.7708C31.1405 7.16569 31.7516 7.09075 32.0933 6.79385C32.292 6.61995 32.3719 6.36122 32.5929 6.15198C33.4621 5.32206 33.7072 5.89466 33.8837 6.66519C34.3294 6.75709 35.1132 6.10108 35.3398 6.19156C35.6146 6.30043 35.5589 6.6864 35.6926 6.86313C35.7966 7.00168 36.0492 7.02713 36.1049 7.14731C36.3408 7.65487 35.4865 8.55123 35.5571 8.82693C35.5719 8.8849 35.7744 8.875 35.7892 8.93297C35.8858 9.30198 34.9832 9.87316 34.7882 10.2139L35.1187 10.4585C35.2023 10.8006 33.8651 11.2219 33.4361 11.0961L33.5382 11.3874C33.4528 11.6687 31.1461 11.5471 30.6948 11.6065C30.5035 11.632 30.3809 11.6984 30.4144 11.861C31.3318 12.1805 32.0877 11.7309 32.9866 12.2894C32.4536 12.6626 33.4639 12.6952 33.8484 12.8662C33.997 12.9327 34.4427 13.2154 34.5003 13.3116C34.6544 13.5703 34.2626 13.6594 34.3387 13.8135C34.3498 13.8375 34.7714 14.0015 34.8717 14.1274C35.4401 14.8442 33.9524 14.42 33.4324 14.502L33.542 15.0068C32.6858 15.315 31.9689 15.2923 31.083 15.0987L31.1944 15.438C30.8471 15.4563 30.5481 15.4436 30.2082 15.38C29.6807 15.281 29.339 14.9587 28.845 14.8428L28.9378 15.2287L28.6946 15.3432C28.4977 15.298 28.3714 15.2047 28.2358 15.093C27.4948 14.4851 26.8615 13.3455 26.0944 12.8054C25.9663 12.7149 25.8437 12.6344 25.6561 12.6344C25.1175 12.6344 24.096 14.0383 23.6967 14.3734C24.5752 14.8159 25.2494 15.5115 25.567 16.2735C25.7973 16.8249 25.6412 17.4908 26.6887 17.6351C28.1281 17.8316 28.9769 17.5644 29.898 18.6841C30.6502 19.5974 30.5815 20.2973 30.2992 21.3166C33.4509 21.0028 34.8773 23.894 33.9115 25.8126C33.7351 26.1646 33.1445 26.6298 33.2262 26.9592C33.3079 27.2886 33.6181 27.2264 33.8242 27.3636C34.8662 28.0592 34.8272 28.6148 34.4891 29.5776C35.5942 30.1234 36.482 30.2251 36.7624 31.3435C37.1469 32.8761 35.3769 33.5915 33.8168 34.0905C33.8855 34.9417 34.0657 35.6005 33.2114 36.2678C32.9105 36.5025 32.4945 36.6057 32.2196 36.8588C33.3952 37.8951 32.5465 39.9508 31.1851 40.6874C30.4998 41.0579 29.612 41.1059 28.9546 41.465C29.5359 42.0546 29.5953 43.3483 29.1124 43.9661C28.5998 44.6235 27.4836 44.7041 26.6553 44.9911C26.607 45.8055 26.6813 46.1646 26.0907 46.8616C25.3849 47.6944 24.4972 48.0096 23.3011 48.315C23.2826 49.005 23.1878 49.579 22.4542 50.0554C21.7206 50.5319 19.5811 50.9066 18.8085 50.3311C18.6116 50.1841 18.463 49.7458 18.2494 49.6921C16.6169 49.7557 15.3596 49.6186 14.2991 48.6119C12.947 47.3268 13.0956 45.5326 14.7244 44.4284C14.5554 43.9449 13.9889 43.6635 13.8738 43.1433C13.6416 42.09 13.8013 40.8727 15.0717 40.2548C14.4402 39.3061 14.3622 38.2486 15.4116 37.4554C14.5851 36.9719 13.3333 36.2452 13.1847 35.404C13.1346 35.1198 13.2516 34.7324 13.1532 34.4907C13.077 34.3012 12.3285 34.0269 12.1057 33.8403C11.3071 33.1687 11.9367 32.5565 11.6971 31.9373C11.6395 31.7874 10.878 31.2799 10.6905 30.9999C9.53897 29.2736 10.553 26.9663 13.2794 26.7613L13.1754 24.7225C10.5586 25.298 8.50634 23.2437 8.91679 21.4085L7.0224 20.8897L7.24527 21.1442L5.73348 20.4641C5.55147 20.5489 5.77062 20.6521 5.84491 20.72C6.18293 21.0268 6.69553 21.205 7.02055 21.5287C6.59338 21.6687 6.21265 21.1215 5.79105 21.1866L7.24527 21.9953C6.32408 21.9543 5.28217 20.8105 4.50398 20.8063L4.4687 21.0014L6.57295 22.3374C5.74091 22.1155 5.10573 21.6941 4.45012 21.2714C4.36097 21.2149 4.2254 21.048 4.11396 21.1866C4.63585 21.7394 5.52918 22.3643 6.35194 22.6343C6.86268 22.8012 7.548 22.8068 7.91759 23.1037C7.32885 23.0627 6.81253 22.9623 6.27579 22.7785C5.57747 22.5396 5.15402 22.1126 4.44827 21.9133L5.23202 22.763L4.28111 22.4237C4.06753 22.6004 4.54298 22.681 4.68042 22.804C4.76028 22.8747 4.68599 22.9906 4.78257 23.0585C4.93486 23.1659 5.27474 23.1645 5.34531 23.3582L3.4435 22.6782L3.89109 23.0613L3.55679 23.1461L4.78628 23.87L2.6616 23.5307C2.4313 23.6975 3.76666 24.1273 3.77966 24.2956C3.53636 24.2093 2.20658 24.2489 2.44244 24.5486L3.89109 25.2329L2.214 24.8498C3.3042 25.5072 4.67299 25.6302 5.93034 25.9398C6.04735 25.9681 6.26836 25.9611 6.24236 26.0841C4.84386 25.9809 3.56979 25.5496 2.214 25.3192L3.44535 25.9144L2.70432 25.7688L1.54354 25.8282C1.75527 25.8847 3.77966 26.176 3.33206 26.5096L1.99114 26.34C1.97628 26.6086 2.11371 26.7387 2.32544 26.9352L1.54354 27.02L7.24899 27.7863L2.6616 27.3622C2.7136 27.4611 2.88447 27.6124 3.00333 27.6548C3.23363 27.7368 3.68122 27.6675 3.77966 27.8711C3.29863 27.7114 2.88447 27.8598 2.48145 27.8641C2.22329 27.8669 1.57326 27.6124 1.65497 27.956C2.82504 28.1525 3.9951 28.1921 5.18188 28.2967C5.34903 28.3122 5.52361 28.3646 5.34717 28.4664C3.99138 28.2769 2.66531 28.3872 1.31881 28.2967L1.42839 28.4254L5.00915 29.0616C4.61913 29.0587 4.22725 29.0701 3.83538 29.0616C3.06091 29.0446 2.23629 28.9216 1.48782 28.8891C1.36524 28.8834 1.06437 28.8339 1.09409 28.9767L1.87599 29.1506L1.76455 29.3175L2.9959 29.49C3.02376 29.6356 2.73032 29.5804 2.60774 29.5734C2.32915 29.5564 2.058 29.4518 1.76641 29.49L2.88447 29.7883L1.9317 29.7473L1.87784 29.9155C1.95213 29.9735 4.02853 30.1955 3.77966 30.3425L2.6616 30.2591L3.42121 30.5927L7.02426 30.6861L5.06116 30.86L1.65312 30.6861C2.34587 31.1823 3.44721 31.0904 4.27368 31.2021C4.91258 31.2883 5.54404 31.54 6.2405 31.4523C6.2665 31.6008 5.98792 31.5315 5.85048 31.5372C4.54856 31.5824 3.06648 31.3053 1.82027 31.0268C1.64569 31.1173 1.83513 31.2191 1.95956 31.2615C2.64117 31.4919 4.68042 31.6757 5.53289 31.7789C5.98606 31.8341 6.45223 31.8878 6.91283 31.8793C6.93883 32.0278 6.65838 31.9585 6.5228 31.9642C5.00358 32.015 3.47136 31.6687 1.98928 31.6672C1.99856 32.0447 3.85581 32.2201 4.32012 32.278C4.86429 32.3473 5.39174 32.4152 5.94892 32.401L7.47371 32.6456C6.14764 32.7135 4.79557 32.394 3.49736 32.3035C3.04048 32.2724 2.45173 32.3996 1.95213 32.3049C1.82956 32.2823 1.92056 32.1084 1.82398 32.1338C1.72741 32.1593 1.59369 32.278 1.76641 32.3473L4.11582 32.8139C3.23363 32.7983 2.28272 32.7856 1.48597 32.4745L1.43211 32.6428C3.41192 33.1503 5.50132 33.296 7.58515 33.2408C7.587 33.402 7.65201 33.4176 7.42728 33.3992C6.86082 33.3539 6.30551 33.4374 5.73533 33.4133C4.69156 33.3709 3.6608 33.1701 2.62631 33.0782L2.43873 33.3242L3.33392 33.4967L3.11105 33.7512C3.71466 33.8035 4.35726 33.9704 4.95901 34.0057C5.4456 34.0354 5.82262 33.9181 6.30365 34.0029C6.50052 34.0368 6.63238 33.9251 6.57852 34.1768C5.24317 34.2121 3.91152 34.0481 2.60774 33.8346L2.76746 33.9675L3.67008 34.2602L2.10443 34.1768C2.10443 34.3111 2.45545 34.3323 2.59288 34.3578C3.6608 34.5628 4.70271 34.5203 5.79662 34.5175L4.56713 34.6858L7.587 34.772C7.61672 34.8837 7.38085 34.9077 7.28056 34.9205C5.94149 35.0859 4.47241 35.0604 3.11291 35.1127C3.08505 35.2442 3.32278 35.2131 3.44907 35.2372C4.67485 35.4803 5.85977 35.4026 7.08369 35.5397C7.28056 35.5623 7.27127 35.4945 7.2527 35.708H3.05719C2.96619 35.708 2.41273 35.4634 2.33101 35.708C3.20949 35.8027 4.07682 35.9766 4.96086 36.0487C5.19116 36.0671 6.23307 35.9752 6.24422 36.1773C6.2535 36.3498 5.92106 36.2381 5.8412 36.2311C5.04444 36.1675 4.24397 36.1137 3.44907 36.0501L3.78337 36.2183H2.88818C3.12034 36.552 3.74809 36.4219 4.14553 36.4969C4.32569 36.5308 4.49655 36.6665 4.76028 36.7089C5.36389 36.8065 6.07521 36.8065 6.68996 36.9012C6.71781 37.0468 6.4318 36.9846 6.29808 36.9875C5.35274 37.0016 4.39441 36.9592 3.44535 36.9875C3.38778 37.2278 3.51964 37.1274 3.69051 37.1797C4.0731 37.2957 4.49098 37.3692 4.89772 37.4144C4.73057 37.6491 4.15854 37.3522 3.89109 37.4144C3.61994 37.5686 5.6109 37.8117 5.75391 37.8273C6.4318 37.8994 7.12084 37.9446 7.80802 37.9248C7.80059 38.0563 7.30285 38.0959 7.19327 38.0945C6.12907 38.0789 4.95715 37.7962 4.04339 37.7594C3.74066 37.7481 3.12962 37.8711 3.58651 38.0295C4.17711 38.2345 5.0203 38.2104 5.64804 38.3377C5.8412 38.3773 5.9582 38.2769 5.9062 38.5201L3.2782 38.1779L3.22063 38.3476L5.57004 38.7745H4.00438C4.01739 38.8961 4.50584 38.9244 4.63399 38.9343C5.09087 38.9711 5.56818 38.9513 6.02506 38.9824C6.17364 38.9923 6.32594 38.8933 6.46523 39.0729C5.5979 39.1888 4.764 39.1633 3.89295 39.1153L5.57004 39.456C5.57375 39.6002 5.63319 39.6412 5.41217 39.62C4.94601 39.5748 4.47055 39.4984 4.00438 39.456C4.61356 39.9664 5.60161 39.6865 6.29808 39.7034C6.92768 39.7176 7.59443 39.8717 8.25561 39.7967C7.90645 40.1657 7.10969 39.8872 6.63795 39.8773C5.76134 39.8589 4.87915 39.8971 4.00438 39.8816L5.25431 40.2492L6.80139 40.3934C6.75682 40.6351 6.37608 40.4782 6.29808 40.4782H4.45198C4.50213 40.6549 5.23759 40.8189 5.40289 40.8189H7.80802C7.88788 41.1498 7.44957 40.8953 7.20255 40.9108C6.93325 40.9278 6.65653 41.0607 6.39837 41.0678C5.83934 41.0819 5.04073 40.891 4.45012 40.9052C4.66185 41.1455 5.37503 41.2205 5.73905 41.2431C6.35194 41.2827 9.4201 41.0211 9.59654 41.1611C9.68011 41.4806 9.1768 41.2346 8.88707 41.2501C8.4079 41.2756 7.86002 41.3887 7.35671 41.3731L6.12721 41.5852H9.37181L8.53048 41.7549H7.07812C6.88497 41.9132 5.78548 41.6983 5.79291 41.8835C5.79848 42.0009 7.22113 42.1098 7.46814 42.1819C7.2527 42.5325 6.47452 42.1451 6.23865 42.4363L9.08951 42.6131L10.2651 42.5226C10.449 42.63 10.254 42.6781 10.0999 42.6922C9.71726 42.729 9.26038 42.6696 8.86293 42.6894C8.71806 42.6965 8.56948 42.7771 8.53048 42.7771H6.45966V42.8605C6.56552 42.8407 6.68624 42.9467 6.7401 42.9467H8.36333L7.57958 43.033C8.07732 43.6621 9.14709 43.0542 9.78226 43.0598C10.0627 43.0627 10.3097 43.2182 10.5994 43.2026C10.501 43.3666 9.96427 43.3582 9.75998 43.3695C8.77378 43.4204 7.78016 43.4076 6.79582 43.4585C7.07626 43.7498 7.65015 43.508 8.02531 43.5434L7.69101 43.7979C7.9696 43.8063 8.2519 43.7894 8.53048 43.7979C8.66792 43.8021 8.9465 43.7328 8.9205 43.8827H7.13012L8.35962 44.3521L7.46628 44.4779C7.69101 44.4708 8.14789 44.649 8.3039 44.649H10.709V44.7338H8.86293C8.79607 44.7338 8.61034 44.8526 8.47105 44.8201L8.80535 44.9883H7.68729C7.75787 45.1565 8.59734 45.3304 8.74964 45.3304H10.3729C10.3729 45.4747 10.0014 45.493 9.86955 45.5015C9.21023 45.5425 8.56206 45.4605 7.91016 45.4167C8.30761 45.7037 9.06537 45.7461 9.58725 45.8422C9.61511 45.9879 9.32167 45.9327 9.19909 45.9257C8.97622 45.9115 8.76821 45.8493 8.52862 45.838C8.40605 45.8323 8.10517 45.7829 8.13489 45.9257L9.58911 46.183L9.25295 46.5223C9.77669 46.3229 10.1463 46.863 10.2039 46.863H12.609C12.557 47.0454 12.4103 46.9988 12.2505 47.0115C11.1826 47.0949 10.1073 46.8263 9.03008 46.8644L9.99399 47.109L11.9385 47.2052C11.7807 47.5205 11.2402 47.29 11.099 47.29H9.47582L9.4851 47.2914ZM27.9479 12.2837H29.5136C29.3929 12.5368 28.5107 12.1593 28.6184 12.5382C29.1774 12.6018 29.7142 12.4859 30.2416 12.4548C30.3642 12.4477 30.6595 12.3926 30.6298 12.5382L29.4003 12.7093H31.4136C31.083 13.1193 30.1488 12.7814 29.8479 13.1349L32.084 13.8163C31.2408 13.8276 30.5054 13.4233 29.7346 13.2211C29.6102 13.3144 30.6057 14.034 30.7487 14.109C31.1703 14.3338 31.7497 14.396 32.1249 14.5953C32.2586 14.666 32.5149 15.0393 32.643 14.9233C32.7582 14.8215 32.3867 14.6123 32.3087 14.5388L32.4759 14.3281L32.8678 14.4964L32.6449 14.157L33.4287 14.2405L33.2058 13.986H33.8763L33.6534 13.8135L33.8781 13.559L33.4305 13.4742L33.9895 13.3045L32.5353 13.4742C32.5446 13.0656 33.3767 13.2932 33.542 12.9638L32.3589 13.0401L32.2475 12.8733L31.9763 12.9638L32.0784 12.7135L31.863 12.6245L32.0877 12.5806L31.863 12.37L32.0859 12.1989C31.1127 12.3968 29.2499 12.2357 30.3642 11.2629C30.8527 11.3393 31.8834 11.4298 32.3459 11.3449C32.5093 11.3153 33.0888 10.9561 33.2318 10.8996C33.4342 10.819 34.2366 10.7328 34.3238 10.6649C34.6767 10.3934 33.7555 10.6267 33.7648 10.5391C34.0248 10.3652 34.5541 10.1234 34.7102 9.89437C34.803 9.75723 34.777 9.39953 35.1057 9.21997L34.3777 9.55929C34.1697 9.37267 34.8086 9.15211 34.881 9.00507L34.6582 8.92024C34.998 8.63748 35.5348 8.3632 35.5515 7.94046L34.8829 8.45085C34.8717 8.22323 35.2098 8.06488 35.3286 7.89522C35.4846 7.67325 34.9275 7.94895 35.1076 7.72698C35.2116 7.59973 35.4902 7.54035 35.4419 7.34242L34.66 7.85281C34.5244 7.7397 35.5663 7.12469 35.3286 6.83061L34.9367 7.17134L34.881 6.91685L33.9301 7.85281L34.322 6.91685L33.984 7.17134L33.8187 7.00168L33.2039 7.341C33.3711 6.87303 33.5327 6.55633 33.3135 6.06432C32.8863 6.20146 32.9606 6.61995 32.8659 6.91544L32.7545 6.48988C32.4016 6.63409 32.4146 7.05541 32.4202 7.341L31.863 7.17134C31.7683 7.52197 31.6829 7.9037 31.2297 8.09457C29.7346 7.7397 31.4563 6.51957 31.8054 5.89466C31.993 5.55817 32.1769 5.0605 32.1955 4.70281L31.9707 5.12837L31.8593 4.78905C31.6996 4.74381 31.7664 5.12837 31.5268 4.95871C31.1814 4.71412 31.7627 3.92238 31.7237 3.74282C31.6996 3.63113 31.4247 3.45581 31.5231 3.25647C31.4711 3.21405 31.0087 3.41906 30.9882 3.4445C30.8861 3.57599 31.0904 3.85169 30.8527 3.8531C30.7505 3.60427 31.0142 3.26212 30.9678 3.05853C30.953 2.99349 30.7431 3.03732 30.7282 2.87756C30.6967 2.575 30.9474 2.22296 30.8508 1.89495C30.6168 1.92606 30.7951 2.29789 30.4051 2.23427L30.2936 1.80871L30.1822 2.23427C29.963 1.84547 30.3642 1.60795 30.2918 1.21349L29.9593 1.55422C29.9816 1.19935 30.2305 0.89538 29.7885 0.618271L29.3056 0.797826L29.287 1.13007L29.0641 1.04383L29.1737 1.64047L28.7336 1.63764L28.728 1.38456H28.5051L28.3937 1.63905L28.169 1.29832L28.39 1.97978L28.169 1.81012L27.5505 2.74608C27.1642 2.72204 27.4149 2.00099 26.9376 2.06603L27.166 2.61459L26.7129 3.00339L26.3749 1.9812C26.1891 1.95716 26.2504 2.19186 26.2634 2.2781C26.3303 2.68811 26.8095 3.1165 25.944 3.1575C25.866 3.12074 25.5707 2.40817 25.3682 2.57642C25.5057 2.8408 25.6542 3.03025 25.3682 3.25647H25.7062C25.6097 3.52509 25.5632 3.91813 25.645 4.191C25.6765 4.29563 25.7973 4.60243 26.0406 4.53456L25.8715 3.85451C26.7203 4.89085 26.0777 6.25519 26.2727 7.382C26.3507 7.8316 26.7556 8.38723 26.8837 8.875C26.9506 9.12383 26.8429 9.71905 27.1029 9.81519C27.3518 9.85337 27.3666 9.54374 27.3815 9.43346C27.4335 9.02487 27.2849 8.67848 27.27 8.28261L27.7158 8.87783L27.4948 7.7708L27.8291 8.02529C27.8904 7.57287 27.7232 6.92251 28.156 6.60299C28.2191 6.42909 27.9052 6.30891 27.9368 6.1138C27.9442 6.06856 28.1429 6.07704 28.1652 6.01059C28.3268 5.49879 27.9405 5.2033 27.9331 4.91912C27.9275 4.67736 28.2878 4.40732 28.169 4.109L28.2804 4.61939C28.7577 4.41721 28.364 3.92662 28.3918 3.5972L28.7837 4.19242L28.8394 3.5972C29.0289 3.56044 28.9081 3.72303 28.962 3.75837C29.0437 3.81068 29.508 3.54347 29.3966 3.80786C29.2016 4.26735 28.6686 4.79612 28.7856 5.29803L28.5051 5.72642L28.7837 5.55676C28.9156 5.74762 28.4104 5.94414 28.403 6.21277L28.6147 6.44888L28.2804 6.91827L28.7837 6.49271L28.728 6.83344C29.6863 6.4715 29.8442 5.52707 30.3512 4.87247C30.4366 4.76219 30.3308 4.65756 30.6298 4.70563L29.846 6.06715C30.2323 6.12653 30.4292 5.61896 30.5202 5.55817C30.5908 5.5101 30.8192 5.54403 30.7412 5.684C30.4701 6.16611 29.3762 6.62985 28.9527 7.04834C28.6147 7.38342 28.0649 8.20767 27.9795 8.60637C27.9479 8.75341 28.0445 9.0079 28.0074 9.09273C27.9498 9.22421 27.7418 9.27087 27.7176 9.4377C27.7028 9.53667 27.8458 9.69643 27.8198 9.72329C27.7938 9.75016 27.6192 9.7544 27.5542 9.81943C27.5022 9.87175 27.5523 10.2747 27.2738 10.3737L27.4985 10.4571L27.1623 10.7554C27.2979 10.8459 28.1894 10.2931 28.3918 10.2167C28.5107 10.1729 29.079 10.0188 29.2852 9.95799C29.4189 9.9184 29.5693 10.0273 29.7959 9.91416C30.2453 9.68795 30.6279 8.7421 31.135 8.45792C31.3133 8.5371 31.0941 8.64879 31.0347 8.72231C30.9177 8.86369 30.1023 9.64412 30.6298 9.56495C31.2204 8.82552 31.7924 8.14123 32.7025 7.6068C32.8548 7.77929 32.4815 7.90088 32.3942 8.0564C32.3403 8.15536 32.4239 8.2713 32.3626 8.36744C32.2827 8.49185 31.2891 9.21714 31.4154 9.30904C31.941 9.17473 32.3942 8.88207 32.8585 8.66151C32.9532 8.61627 33.1018 8.44802 33.2039 8.58375C32.4165 9.13373 31.3745 9.59746 30.4069 9.94668C29.7105 10.1983 28.793 10.2337 28.2804 10.713L28.8413 10.6706L28.8933 10.8388L29.9593 10.4147L29.4003 10.7978C30.0466 10.9137 30.4719 10.1842 31.0774 10.0739L29.9593 10.8826C29.9408 10.9463 30.0726 10.9392 30.1246 10.9236C30.8285 10.7045 31.2278 9.96082 32.2512 9.90002C32.3812 9.89295 32.4945 9.88447 32.3663 9.98768C32.0432 10.2492 31.3077 10.3807 31.0792 10.7526L32.7563 10.4542C31.8481 10.9463 30.5016 11.2474 29.4003 11.0947L29.846 11.434C29.1496 11.4609 28.6333 11.2036 28.0074 11.0099L27.8328 11.1767L28.6147 11.4326C28.0909 11.4877 27.5672 10.9802 27.1308 11.1781C27.0193 11.229 27.0249 11.451 26.6033 11.3478C26.5476 11.7323 27.1475 11.4906 27.2738 11.6871H26.3786C26.9525 12.131 27.9925 11.6235 28.728 11.8596L27.7214 11.9444L28.728 12.0292L27.9461 12.2837H27.9479ZM19.3322 10.836H21.0111C21.091 10.7483 20.2608 10.5278 20.727 10.4981L21.8488 10.8416L21.9621 10.6635L22.5285 10.918L22.7439 10.7511C22.9148 10.8982 23.0653 11.0438 23.3606 11.0056L22.5787 10.3666C22.9947 10.327 23.3773 10.8869 23.7543 11.0905V10.7511L24.2019 11.1767L24.3133 11.007L24.7052 11.2629L23.1377 9.77278L23.1953 9.64412C23.7301 9.81237 23.9734 10.6366 24.5938 10.2832C23.9029 9.73602 22.8795 9.28218 21.9843 8.94852C21.1894 8.65162 20.3518 8.52437 19.6721 8.15395L20.5654 8.36744L20.1197 7.77222C20.2701 7.65628 20.7604 8.18223 20.909 8.23737C21.4253 8.42823 21.247 8.41551 21.5776 8.58092C21.6816 8.63324 22.0531 8.52437 22.1886 8.793L22.3001 8.62334L22.6362 8.87783L22.3001 8.02671C22.8275 8.32361 23.1878 9.01214 23.7339 9.23977C23.8342 9.28077 24.0069 9.21856 24.0199 9.22987C24.2966 9.47446 24.0979 9.55081 24.6718 9.91982C24.8036 10.0046 25.0005 10.4853 25.3218 10.5801L25.3775 10.3256C25.762 10.4231 25.4444 10.8232 25.7675 11.0056C26.1111 10.8148 25.7285 10.4981 25.8251 10.2408L26.2727 11.1767C26.711 11.089 26.1613 10.6041 26.2727 10.4952L26.7184 10.6649C26.8707 10.2563 26.4287 10.0329 26.2727 9.76995C26.1167 9.50698 26.7519 9.86751 26.6052 9.60171C26.282 9.01214 24.629 7.91926 24.525 7.43149C24.5028 7.32969 24.5325 7.15296 24.6476 7.08793L24.9281 7.68456L25.2624 7.51349L25.1472 7.80474C25.5038 7.89522 25.4072 8.14829 25.5967 8.33209C25.7193 8.45085 26.0331 8.30381 26.1037 8.71241C26.2634 8.64031 26.4956 8.96973 26.6052 8.87641C26.8355 8.67989 26.1966 8.29675 26.178 8.26281C26.113 8.15254 26.0313 7.47531 25.7973 7.15014C25.6338 6.9211 25.3292 6.86596 25.2902 6.81223C25.2215 6.72033 25.2735 6.50826 25.1788 6.34426C25.0581 6.13501 24.1945 5.0195 24.2595 4.95871C24.473 5.0605 24.5529 5.16795 24.8129 5.04637C25.1807 5.58362 25.3627 6.35415 25.9365 6.7472C25.9495 6.40929 26.2077 5.74479 26.1427 5.44789C26.0888 5.19764 25.632 4.68443 25.5205 4.38046C25.3441 3.90117 25.4741 3.40916 25.0971 2.99774L25.1546 3.4233L24.9299 3.16881L24.8222 3.36392C24.3393 3.64527 24.3709 3.0755 23.9252 3.16881L23.81 3.85027L23.5871 3.76403L23.4776 4.15283L23.1395 4.10476L23.3606 4.53032L22.6919 3.93369C22.7384 4.25604 23.0374 4.48932 23.2491 4.74381C23.3884 4.91064 23.4181 4.89933 23.1934 5.0393L22.4672 4.27442C22.4505 4.42146 22.4617 4.56001 22.5192 4.70281C22.7941 5.37861 23.2881 6.08411 23.6949 6.70337L23.3606 6.74578L23.5834 6.95786L23.3568 7.16993L22.9111 7.00168L23.2454 7.42724C22.4914 7.09075 22.0271 6.47857 21.6779 5.89466L21.5665 6.06432H21.3454L20.9517 5.64017C20.662 5.86214 21.5107 6.18308 21.3436 6.32163L20.7864 5.9809V6.49129L20.2255 6.32305L20.7846 6.83203L19.3303 6.06715L19.7779 6.49129L19.1075 6.15198C19.0035 6.49553 19.2152 6.4616 19.4418 6.66237C18.5057 6.46019 19.1409 6.89847 19.1056 6.91827L17.6514 6.40788C17.4545 6.55774 18.2884 6.85182 18.4333 6.83485L18.099 7.0031C18.1751 7.0031 18.8623 7.21234 18.6562 7.34383L17.3134 7.00451C17.5028 7.30141 17.9058 7.41452 18.32 7.43007C18.3479 7.5559 18.1528 7.50783 18.0488 7.6068C17.9151 7.73404 18.0786 7.89239 17.6495 7.89805L18.32 8.11295L17.9857 8.19778C18.1064 8.4254 18.4797 8.45651 18.7676 8.45368L18.4333 8.53851L18.9923 8.79441C19.0518 8.91176 18.541 8.87076 18.7695 9.04749C18.9236 9.16625 21.7745 9.43205 21.4049 9.90285C20.8421 10.2068 19.8225 10.0555 19.2171 9.90144L19.3285 10.2408L17.6514 9.98627C17.54 10.3044 18.1659 10.1163 18.2086 10.3256L17.0887 10.3694C17.5975 10.5914 18.1844 10.5801 18.749 10.597L18.879 10.8374L17.8724 10.966C18.0767 11.2516 18.7806 11 18.8623 11.024C18.9013 11.0353 19.1019 11.3916 19.5495 11.2658C19.4752 11.5061 18.736 11.1979 18.6562 11.2658L18.6636 11.4595L18.32 11.5217L19.1019 11.7338L18.7657 12.0307C19.3471 12.0717 20.0361 11.7606 20.5821 11.9529C20.7344 12.0066 20.5747 12.2074 21.1152 12.0321L20.4447 12.3714L21.6742 12.1169L21.3956 12.4576C21.8153 12.4873 22.2871 12.1381 22.6307 12.1197C22.9111 12.1042 23.3271 12.2272 23.6893 12.1169L23.576 12.2866C24.2335 12.1551 24.6848 12.1423 25.3664 12.2017L24.7851 11.6249L24.1926 11.6065L24.2502 11.4368L20.558 11.5203L22.6269 11.2629L22.796 11.0947C21.8562 10.9392 20.8886 11.0693 19.9432 11.0085C19.8077 11 19.3433 10.9774 19.3266 10.8388L19.3322 10.836ZM17.7665 11.2629C16.6615 11.0509 15.4896 11.0537 14.3474 11.089C12.8969 11.1343 11.2588 11.3054 9.89927 11.7069C9.7154 11.7606 9.02822 12.0109 9.26038 12.2003C12.6777 12.7291 16.3068 13.4176 19.7854 12.8408L19.7891 12.5099L20.1141 12.329C20.0361 12.165 19.2802 12.295 18.9682 12.2639C18.2587 12.1932 17.488 11.8822 17.7647 11.2644L17.7665 11.2629ZM27.3871 12.7093C27.3146 12.763 26.5049 11.8822 26.1594 12.3261L28.3398 14.5826L28.1727 14.0722L28.6184 14.4129L28.5627 14.0722L29.1811 14.6674L29.4579 14.4129L30.3549 15.093L29.8516 14.4115L30.3549 14.7523C30.4422 14.1259 30.9158 14.9573 31.4173 14.8371C31.6104 14.724 28.9286 13.0741 28.7874 12.8789L28.6778 13.1334C28.351 12.6146 27.8272 12.8874 27.4446 12.4534L27.3889 12.7079L27.3871 12.7093ZM23.9196 12.6259C21.3343 12.8804 18.7695 13.4247 16.1396 13.3102C13.7716 13.207 11.2848 12.7036 8.92607 12.4986C8.87407 12.6739 9.08766 12.6443 9.23809 12.6824C9.69869 12.7998 10.5103 12.9369 10.9096 13.0769C10.9338 13.0854 11.1993 13.3427 11.2755 13.3908L10.2689 13.3073C10.0293 13.4417 11.8902 13.6269 12.0592 13.5632C11.8531 13.8912 11.3331 13.6707 10.995 13.6481C10.8743 13.6396 10.5772 13.5873 10.6069 13.7315C11.3442 13.9026 12.1372 13.781 12.8987 13.8191C15.7347 13.9577 18.762 14.0326 21.5962 13.7103C22.5044 13.6071 23.8174 13.4685 23.9196 12.6273V12.6259ZM25.0376 12.4548C24.4433 12.4237 24.2725 12.9694 24.1443 13.3059C24.3393 13.272 25.1379 12.5269 25.0376 12.4548ZM8.70321 20.7158C9.77112 20.8868 9.40524 20.4867 10.1203 20.1333C10.8836 19.7558 12.2171 19.7233 13.0956 19.7996C13.558 19.8406 14.2155 20.122 14.6668 20.0188C14.8265 19.982 15.016 19.7671 15.2277 19.6766C15.8127 19.4264 17.2855 19.0899 17.41 18.5286C17.423 18.4678 17.0887 17.7029 17.0868 17.4371C17.0868 16.521 17.67 15.2754 18.6729 14.7183L19.7817 14.1585L15.8666 14.3281L16.0319 14.4978L16.9846 14.5826C16.3736 14.6363 15.6066 14.5162 15.0197 14.577C14.7318 14.6066 14.9807 14.6787 14.2434 14.6688C13.2497 14.6561 12.2673 14.6066 11.2792 14.584C11.2253 14.8286 11.3498 14.724 11.5374 14.765C12.115 14.8908 12.8021 14.9672 13.4039 15.0096C13.4336 15.151 13.1327 15.1015 13.0083 15.0972C12.7167 15.0902 12.4864 15.0251 12.2264 15.0096C12.1038 15.0025 11.8085 14.9474 11.8382 15.093C12.2097 15.0548 12.3007 15.1241 12.4623 15.3531L13.1792 15.2655L12.7334 15.4337L13.8515 15.5214C13.8701 15.6727 13.4745 15.6119 13.3519 15.6034C12.7891 15.5695 12.1744 15.4252 11.6154 15.3503C11.3758 15.5002 12.0871 15.6302 12.1725 15.6486C13.4132 15.9173 14.7318 15.8183 15.978 16.0304L15.7552 15.8621L17.0961 15.9031L16.2027 16.0318L16.4256 16.2C14.2842 16.2679 12.2041 15.8565 10.1611 15.4351C10.0961 15.6529 10.2391 15.5836 10.371 15.6557C10.6645 15.814 11.0099 15.8918 11.2792 16.0742L9.82498 15.7759C9.83055 16.217 10.4917 16.2877 10.7202 16.627C10.41 16.6963 9.58911 16.2976 9.43124 16.3103C9.23252 16.3259 9.12109 16.7132 8.48219 16.2877C8.28904 16.4432 9.82684 17.3579 10.0478 17.4385C9.74697 17.5743 8.54905 16.7443 8.48219 16.7995C8.52491 17.2335 9.87327 17.512 9.70983 17.939L9.48882 17.9942L9.93456 18.3335C9.62068 18.2896 9.27338 18.1087 9.00408 17.9772C8.71806 17.8372 8.0736 17.382 7.86188 17.3127C7.27499 17.119 8.46734 18.0069 8.36519 18.079L7.58329 17.7807L9.59654 19.0998C8.63077 19.1266 7.64458 18.0719 6.96483 17.9093C6.90725 17.8952 6.78282 17.8867 6.79953 17.9503L7.80616 18.5894C7.29727 18.6841 7.10598 18.1568 6.6881 18.2062C7.41985 18.7802 8.24447 19.3528 9.26038 19.613L9.10437 19.7742L7.97517 19.3557L8.58991 19.8661L7.13569 19.6116C7.41057 20.0598 8.38933 20.1304 8.75892 20.4613C8.93722 20.621 8.44876 20.433 8.70135 20.7172C7.78201 20.5701 6.98897 19.9947 6.01578 19.9509C6.19964 20.3722 8.88893 21.4368 9.14894 21.2276L9.13409 20.8996C8.93536 20.8374 8.83878 20.8699 8.70321 20.7172V20.7158ZM22.3539 16.3725C22.3799 16.0982 22.6919 15.9158 22.822 15.6656C23.6559 14.0609 21.1189 13.8658 19.7036 14.3974C18.3256 14.9149 17.4527 16.4545 17.6811 17.5856C17.8 18.1794 18.5299 18.4438 19.2189 18.1172C18.9329 17.891 18.5689 18.0649 18.2216 17.857C18.008 17.7298 17.8334 17.4357 17.8798 17.2236C18.2513 17.184 18.3237 17.6068 18.5484 17.6916C19.1038 17.8994 20.2385 17.488 20.7864 17.3085C20.7177 17.775 19.5644 17.6379 19.6684 18.1596L21.1207 17.8203C21.182 18.0465 21.0446 17.9673 20.8997 18.0323C20.6137 18.161 20.2868 18.2458 20.0027 18.3731C20.1475 18.6276 21.3399 18.3504 21.6798 18.4579C21.4457 18.6177 21.2526 18.8184 21.0019 18.964C20.9034 19.0206 20.0138 19.2822 20.2255 19.4377L22.5749 18.5017L21.234 19.3543L21.2897 19.5239C21.8153 19.5536 23.4998 18.2741 23.2454 17.734L23.0244 17.693C23.433 17.43 23.5444 16.8928 22.9111 16.8405C23.4627 16.3216 23.7487 15.6713 23.4683 15.0082L22.7792 16.0572L22.3521 16.3711L22.3539 16.3725ZM24.1425 15.7759C24.122 15.5072 24.1963 14.871 23.6967 14.8399C23.628 14.9021 23.8434 15.7448 24.1425 15.7759ZM24.7015 15.6062C24.525 15.479 24.5102 15.6345 24.4675 15.7236C24.1035 16.4686 24.7609 16.9126 24.8073 16.1463C24.8148 16.0289 24.7832 15.6642 24.7015 15.6062ZM23.9177 16.0318C23.6819 15.8466 23.1953 16.7557 23.6391 16.8815C24.0273 16.6496 24.0292 16.3626 23.9177 16.0318ZM24.1443 17.9051C24.7405 17.611 25.0024 16.9819 25.0376 16.4573C24.8426 16.48 24.8445 16.6284 24.7851 16.7316C24.5622 17.1162 24.3152 17.505 24.1462 17.9051H24.1443ZM22.3539 19.3528C23.9512 19.2935 25.6635 17.973 25.4852 16.7132L24.6495 17.9079C24.005 18.506 23.134 18.8778 22.3539 19.3528ZM28.0612 19.0984C28.2377 18.6671 28.2952 18.062 27.5616 17.9871C27.2905 17.9588 26.6312 17.9673 26.3749 18.0295C26.2616 18.0564 24.6012 19.0347 24.4823 19.1436C24.0514 19.5352 23.9196 20.0074 23.8211 20.498C23.8936 20.7327 25.1881 20.6394 25.4852 20.6324C25.5521 20.8925 25.2234 20.7695 24.9764 20.8826C24.8891 20.9222 24.7405 21.0607 24.7033 21.1427C25.3051 21.2021 25.8288 20.9363 26.3804 20.8034C26.4659 21.0791 25.8047 21.0452 26.0424 21.2742C26.2114 21.4354 27.2849 21.7804 27.5301 21.7295C27.9461 21.6432 28.0798 21.0169 27.2756 21.3152L27.7232 21.0169C27.8068 20.8671 27.2162 20.8939 27.6731 20.5532C27.8718 20.4061 28.3528 20.392 28.3993 20.081L28.2247 19.8675C28.1708 19.859 27.5523 20.211 27.7251 19.9113C27.8216 19.7416 28.5014 19.3005 28.6704 19.0969C28.884 18.8382 28.9118 18.5399 28.7893 18.2472L28.3955 18.1638C28.3862 18.4833 28.507 18.9188 28.0612 19.0998V19.0984ZM18.3256 18.4169C18.4036 18.8665 19.2096 18.8114 19.5532 18.5441C19.5551 18.3476 18.5299 18.4282 18.3256 18.4169ZM20.3388 18.8439C19.9674 18.7279 19.5978 18.759 19.2505 18.9089C19.126 18.9626 19.0592 18.9018 19.1075 19.0969C19.5699 19.2822 20.2162 19.3246 20.337 18.8439H20.3388ZM29.4022 19.6936C29.7922 19.7289 29.976 19.0333 29.6789 18.9287C29.456 18.8509 29.5043 19.1026 29.4783 19.1987C29.4337 19.3642 29.3687 19.5225 29.4003 19.6936H29.4022ZM18.6599 19.9495C18.6803 19.6087 19.1558 19.3274 18.4946 19.1832C18.255 19.2214 18.1696 20.006 18.6599 19.9495ZM6.79953 19.9495L5.4586 19.2694C5.25059 19.4433 6.49309 20.0541 6.79953 19.9495ZM17.8631 19.2793L17.4267 19.3118C17.4842 19.4561 17.6495 19.9905 17.93 19.9495C18.2829 19.7657 17.8408 19.5154 17.8613 19.2793H17.8631ZM16.5352 21.4835C16.6745 21.0268 17.3301 20.8077 17.423 20.3284C17.6867 18.9725 16.0449 19.572 15.1998 19.999C14.2564 20.4754 14.0743 21.0636 14.1858 21.909L14.8562 21.7394C14.9584 21.9062 14.8525 22.2116 14.9064 22.3388C14.938 22.4109 15.4951 23.0189 15.5713 23.108C15.9093 23.4953 15.9762 23.8488 16.7636 23.6608C16.9104 23.6254 17.0274 23.4939 17.1759 23.4642C17.5065 23.3978 17.7647 23.4953 18.1436 23.3483C18.7973 23.0952 19.3341 22.3516 19.8912 21.9967C19.7352 22.6202 18.8437 23.0797 18.2531 23.4741C18.0098 23.6367 17.982 23.9605 17.4304 23.8714C17.514 24.1584 18.1083 23.8842 18.3627 23.771C19.3786 23.3172 20.4243 22.2187 20.5635 21.3152L20.1178 21.7408L19.8374 21.2318C19.3266 21.7252 18.9868 22.3332 18.2699 22.6782C18.2271 22.3897 18.7602 22.1847 18.9793 21.9401C19.1428 21.7578 19.7575 20.9264 19.4492 20.7568L18.8865 20.8048V20.3793L18.2179 20.3835C18.2364 20.744 17.9281 21.1116 17.5437 21.3166C17.5195 21.2078 18.2364 20.1927 17.8223 20.211C17.7164 20.2153 17.0236 21.4467 16.5371 21.4863L16.5352 21.4835ZM19.7798 19.695C19.3656 19.6978 19.1799 20.293 19.5031 20.4599C19.8058 20.5701 19.8077 19.7855 19.7798 19.695ZM21.9881 19.8788C21.2916 19.958 20.857 20.621 21.403 21.0551C21.6946 20.9137 22.926 19.7728 21.9881 19.8788ZM21.4587 21.5683C21.6742 21.6037 21.7262 21.4849 21.8395 21.3902C22.2611 21.0367 22.9167 20.4316 22.913 19.9509C22.5267 20.1983 22.3502 20.573 22.0661 20.8798C21.8506 21.1116 21.4086 21.2417 21.4606 21.5683H21.4587ZM12.3954 21.1413L12.5718 20.1149C11.7157 19.835 10.4546 20.1884 9.92713 20.7554C9.80269 20.8897 9.40153 21.6249 9.37924 21.7903C9.34395 22.0561 9.44239 22.254 9.48696 22.5057C9.82684 22.7785 9.67083 21.8525 9.70983 21.8242H10.0441C10.0516 22.1423 10.1203 22.8153 10.3914 23.0528C10.5512 23.1928 10.761 23.1673 10.8037 23.2055C10.8762 23.2691 10.7852 23.4572 10.9895 23.6184C11.2681 23.8389 11.7937 23.9068 12.1744 23.829C12.6313 23.7343 14.2396 22.6909 13.5692 22.2526L12.284 23.1871C12.453 22.5863 13.5766 22.1565 13.4577 21.4835C13.3779 21.6588 12.1744 22.8393 11.9478 22.6753L12.9767 21.7139C13.1457 21.4665 13.5487 20.5956 13.3482 20.3736C12.8356 19.8095 12.9377 21.2361 12.3954 21.1413ZM20.0045 21.1413C20.5877 21.1046 20.3147 20.4033 20.2255 20.1206C20.0602 20.146 19.9079 20.5009 19.8931 20.597C19.8615 20.8006 19.9451 20.9547 20.0045 21.1427V21.1413ZM21.3473 22.1635C21.4662 22.2625 22.4691 21.4538 22.5749 21.352C22.8424 21.0947 23.1878 20.7002 23.2473 20.375C22.7848 20.6635 22.5248 21.1046 22.1292 21.4396C21.8729 21.656 21.2804 21.7719 21.3473 22.1635ZM23.2213 21.5485L23.1934 21.1427C23.0838 21.294 21.5553 22.5057 21.6835 22.5905C21.8395 22.6937 21.9602 22.5495 22.0512 22.4859C22.4375 22.2116 22.7644 21.7761 23.2213 21.5499V21.5485ZM25.8214 21.2276C25.7843 21.1993 25.2809 21.3463 25.1751 21.3774C25.0896 21.4015 24.8259 21.3647 24.9281 21.5259C25.0785 21.762 25.658 21.7903 25.8827 21.574L25.8214 21.229V21.2276ZM31.4154 22.8464C31.5361 21.9953 31.3448 21.6107 30.1859 21.4835L30.9084 21.9981L31.4154 22.8464ZM23.5834 21.7394C23.4924 21.6644 23.1117 21.9981 23.03 22.0617C22.9445 22.131 22.3744 22.6145 22.4654 22.6753C22.861 22.7927 23.7487 21.8765 23.5834 21.7394ZM25.8214 21.9939C26.2096 22.107 26.62 22.1041 26.9376 21.8666C26.9413 21.7069 25.7434 21.5938 25.8214 21.9939ZM25.8771 24.7197C26.4399 24.7947 27.2403 24.6646 27.8346 24.7197C27.8588 24.8441 27.6378 24.8385 27.5208 24.8639C26.6237 25.059 25.8845 24.9926 25.0376 24.7211C24.8073 24.8837 25.7917 25.1736 25.9254 25.1948C26.3749 25.2626 26.8225 25.2245 27.2738 25.2329C27.4558 25.3376 27.2738 25.387 27.1085 25.4026C26.451 25.4662 25.7991 25.3234 25.1491 25.3178C25.4778 25.9865 26.9543 25.7928 27.7214 25.8296C27.6266 25.9653 27.0658 25.9992 26.8875 26.0021C26.3489 26.0105 25.8975 25.9144 25.3719 25.9144C25.0655 26.0841 27.049 26.176 27.2236 26.1717C27.6861 26.1618 28.26 26.0445 28.728 25.9992C28.6574 26.1335 27.6526 26.3385 27.5523 26.3385H25.7062C25.723 26.6694 26.4194 26.7457 26.7649 26.7669C27.8848 26.8362 28.9676 26.4969 30.0708 26.4234L28.6388 26.8235L26.7147 27.02C26.7147 27.0992 26.815 27.1501 26.9079 27.1699C29.1589 27.6449 33.0758 25.9455 33.8781 24.2517C33.6924 24.0651 33.6868 24.2631 33.62 24.3168C32.7916 24.994 32.1044 25.8677 30.8545 26.1661C31.6457 25.6514 32.4982 25.1665 33.0721 24.4907C33.1854 24.3592 33.6162 23.7668 33.6497 23.6509C33.698 23.4812 33.6887 23.4035 33.4305 23.4416C32.9643 24.4977 31.8296 25.3149 30.6335 25.9116C30.5815 25.7447 30.7468 25.7094 30.8675 25.6217C31.8537 24.8979 32.9848 24.2122 33.3117 23.1376C33.3507 22.8733 33.0925 23.1518 33.0498 23.1942C32.2772 23.9506 31.8779 24.9502 30.5221 25.3149C31.0384 24.7961 31.7869 24.4186 32.2456 23.8601C32.4963 23.5547 33.2949 22.4166 32.5353 22.3346C32.5483 23.2946 31.8351 24.0453 30.9121 24.6335C30.7858 24.7141 30.7301 24.8399 30.5202 24.8031L31.8444 23.5547C32.1453 22.985 32.8195 21.9175 31.6383 21.738C31.9596 22.6258 31.59 23.7569 30.6855 24.3776L30.9641 23.7824L30.4051 24.0793C31.1368 23.361 31.2854 21.7351 29.6232 21.909C29.5229 21.9769 30.1859 22.7701 30.2416 22.9284C30.4924 23.6608 29.7662 24.0425 29.1756 24.5076C28.9416 24.6052 29.1013 24.379 29.1514 24.3182C29.7086 23.6353 30.2806 23.6763 29.7903 22.6767C29.755 22.6061 29.4616 22.131 29.287 22.2512C29.0809 22.5495 29.4189 22.5778 29.5377 22.7828C29.6975 23.0585 29.6362 23.3186 29.3409 23.5265C29.0251 23.566 29.3632 23.2324 29.378 23.1221C29.3984 22.9765 29.3929 22.9369 29.2294 22.8464L28.728 23.1009L28.8376 22.5905C28.234 22.7036 27.7325 23.0613 27.088 23.0952C26.6312 23.1193 25.6357 22.7333 25.6004 23.2239C25.567 23.6791 26.2783 24.0043 26.8243 23.952L26.2634 24.1231L26.4863 24.3776L25.1454 24.1231C25.1324 24.4058 25.541 24.6745 25.8715 24.7197H25.8771ZM28.8413 21.8242L27.5746 22.435L27.2756 22.6753C27.5765 22.763 29.0716 21.9953 28.8413 21.8242ZM17.3171 24.4638C17.9616 24.5048 18.5782 24.1697 19.0536 23.87C19.7947 23.4063 20.6323 22.6386 20.7846 21.909C20.2237 22.5057 19.8095 23.1263 19.0536 23.6141C18.4853 23.9817 17.8501 24.0991 17.3171 24.4624V24.4638ZM22.8015 24.8046C22.9334 24.2814 23.2268 23.8177 22.8015 23.313C22.7087 23.2027 22.3576 22.9425 22.1831 22.9284C21.2099 22.8506 20.7307 23.7739 20.1178 24.1655C19.3991 24.6236 18.2754 24.8837 18.4872 25.831C18.6877 26.0459 19.4306 25.7264 19.3341 26.0798L18.333 26.1703C18.2884 26.446 18.281 26.7995 18.7249 26.8489C19.0759 26.8871 19.4139 26.6439 19.6684 26.8899C19.4046 27.0356 18.7769 26.9111 18.775 27.2717L20.0045 27.1883C19.3563 27.6732 20.5394 27.8372 21.0149 27.6576C21.1876 27.5926 21.2062 27.389 21.2507 27.365C21.3083 27.3339 21.663 27.5375 22.1255 27.3113C23.3104 26.733 24.5046 24.8837 24.5678 23.8205L24.1443 23.6961C24.0236 24.4751 23.7246 25.3658 22.8015 25.8253C22.7922 25.5991 23.0931 25.5298 23.2231 25.3376C23.4683 24.9714 24.174 23.5052 23.7821 23.2055L22.9148 23.1419C23.4126 23.5604 23.4553 24.4553 22.8034 24.8031L22.8015 24.8046ZM11.7231 24.3776C11.8865 24.3846 11.998 24.4638 12.1725 24.4299C12.3935 24.3861 13.8942 23.436 13.7363 23.1009C13.194 23.6975 12.3323 23.8658 11.7231 24.3776ZM20.5617 23.1023C20.4837 23.0415 19.8559 23.5067 19.7817 23.5689C19.5829 23.7357 19.4232 23.9563 19.2189 24.1231C19.3879 24.2404 20.6211 23.3723 20.5617 23.1023ZM14.2972 23.443C14.1004 23.3002 13.3129 23.9577 13.1792 24.0807C13.0752 24.1768 12.908 24.2178 12.9563 24.379C13.3055 24.4709 14.4774 23.5717 14.2972 23.443ZM14.7448 25.4012C14.9305 24.9205 15.5601 24.5501 14.8005 24.1401C13.6843 24.2546 13.1977 25.9992 13.8998 26.4333C14.2471 26.6482 14.8172 25.9667 14.9677 26.0826C15.016 26.429 14.0651 26.5874 14.1858 26.8899C14.5089 27.1982 14.9305 26.8574 15.3038 26.8489L14.6334 27.1897C14.7021 27.4908 15.2091 27.2137 15.3038 27.2745C14.8878 27.8047 15.9223 27.7806 16.394 27.635C16.6708 27.5502 17.7591 26.4333 17.8761 26.2071C17.9523 26.0586 17.7758 26.06 17.6551 26.0812C17.3245 26.5973 16.6225 27.3028 15.8629 27.4427C16.8992 26.8051 17.7201 26.0416 17.7647 24.9742C17.0887 24.8668 17.3189 25.2428 17.1481 25.5694C16.9308 25.9893 16.5538 26.3569 16.1415 26.6765L16.8751 25.6175C17.0218 25.3263 17.1425 24.8116 16.5463 24.8993L16.0857 25.3998C16.1155 25.1311 16.3885 24.9177 16.0077 24.7339C15.3168 24.3988 15.2481 25.2117 14.743 25.3998L14.7448 25.4012ZM27.5003 27.6152C28.9564 27.7269 30.2825 27.3339 31.5306 26.8079C32.4332 26.4276 33.4138 25.9667 33.6534 25.1453C32.5242 25.9752 30.9362 26.8984 29.404 27.2321C28.8208 27.3593 28.2618 27.3791 27.6694 27.447C27.4743 27.4696 27.4799 27.4017 27.5022 27.6152H27.5003ZM22.0178 27.7001C22.2685 27.8952 23.4107 26.962 23.5797 26.8037C24.0496 26.364 24.5102 25.8253 24.4768 25.2301C23.8211 25.8098 23.4441 26.5492 22.7421 27.1034C22.4988 27.2957 21.923 27.3721 22.0159 27.7001H22.0178ZM29.4022 27.7849C30.0708 27.8118 30.7227 27.6379 31.3058 27.4046C31.4953 27.3282 32.8436 26.6722 32.6449 26.5082L31.1554 27.2052L29.4022 27.7849ZM16.9828 27.6152C17.3672 27.8626 18.5912 26.9635 17.8204 26.6807L16.9828 27.6152ZM16.3105 28.0422C14.9955 28.3349 14.3789 27.5318 13.4633 27.0243C11.2346 27.4456 10.176 28.7223 10.8892 30.4231C11.3163 31.4382 12.2078 31.8397 13.584 31.95C13.7066 31.9599 13.9871 32.0264 13.9611 31.8765C13.8032 31.8171 12.4307 31.564 12.7891 31.3647C13.0473 31.2205 13.6602 31.5768 14.0279 31.6121C14.4569 31.6531 14.7857 31.5824 15.1924 31.5358L14.9695 31.8751C15.588 31.9274 15.4357 31.5131 15.302 31.1936C14.7727 31.311 14.3436 31.3449 13.8441 31.1526C13.6806 31.089 13.5729 31.1526 13.6268 30.9391C13.8793 30.8826 15.0123 31.236 15.081 30.9801C15.1664 30.6592 13.8645 30.7836 13.9629 30.3425C14.1969 30.3015 15.081 30.6663 15.0791 30.3001C15.0791 30.1615 14.5034 30.2308 14.6352 30.0456C15.2166 29.8519 15.0865 29.4772 15.3243 29.121C15.4246 28.9697 16.381 28.0889 16.3123 28.0436L16.3105 28.0422ZM31.304 30.17C31.72 29.7402 32.7452 29.35 32.9291 28.8099C33.0888 28.3448 33.1891 27.0836 32.1992 27.3593C32.409 27.8966 32.565 28.2712 32.1973 28.8071L31.9744 28.6813C32.1732 28.3561 32.4072 27.9362 31.9224 27.693C31.265 27.3636 31.3077 28.2684 31.1981 28.5144C31.0347 28.8764 30.5184 29.0361 30.5221 29.4037L31.304 29.2341L31.3578 29.4885L31.7497 29.3189C31.941 29.4603 31.1034 29.7572 31.0198 29.8265C30.4274 30.3255 31.5138 30.6861 32.253 30.1686C32.3756 30.0824 33.1594 29.2793 33.2039 29.1888C33.2782 29.0432 33.0535 29.0163 32.9829 29.063C32.9123 29.1096 32.6319 29.555 32.4257 29.7049C32.1787 29.883 31.6494 30.1545 31.3021 30.1686L31.304 30.17ZM20.7864 28.4664C20.8273 28.3165 20.6843 28.2557 20.5654 28.168C20.389 28.038 19.2876 27.4003 19.1093 27.5304C18.931 27.9192 20.6156 28.5865 20.7864 28.4664ZM21.793 27.7877C21.7689 27.7609 21.4439 27.7255 21.3417 27.7368C21.2396 27.7481 20.6954 27.8556 20.7864 27.9984C20.9721 28.291 22.0939 28.1186 21.7912 27.7877H21.793ZM32.4239 30.3411C33.6738 29.9735 34.322 28.7322 33.8763 27.7863L33.5958 28.9767L32.4239 30.3411ZM19.2858 29.5394C19.5328 29.3019 20.1772 28.8651 19.9005 28.5908C19.8021 28.4932 18.645 27.9164 18.4667 27.8895C16.8119 27.6477 14.9881 29.5932 15.6957 30.7737C16.342 30.9321 16.8714 30.9716 17.5437 30.8543L16.4275 31.236C16.7395 31.581 17.2967 31.417 17.7665 31.4495L17.0961 31.6192V31.8737L18.5503 31.7026C18.5763 31.9981 18.6543 32.3006 19.0796 32.3699C19.8875 32.1494 20.7846 31.6616 21.3473 31.1484C20.9331 30.9773 20.636 31.5966 20.2292 31.4905C20.61 31.2784 21.8506 30.2676 21.7949 29.9593C21.7782 29.8646 21.6519 29.818 21.5126 29.9141C20.9703 30.2874 20.5134 31.1441 19.7817 31.4481C19.7055 31.2134 19.8244 31.253 19.9209 31.1682C20.3815 30.7582 20.8551 30.4231 21.2136 29.941C21.3027 29.8208 21.7708 29.1224 21.6835 29.0644C21.6705 29.0559 21.3213 29.0192 21.351 29.1252C21.338 29.4037 21.0241 29.743 20.7846 29.9551C20.6546 30.071 19.8429 30.6394 19.7222 30.6804C19.6739 30.6974 19.5384 30.7016 19.5569 30.6394C19.8764 30.4019 21.2099 29.4122 21.1114 29.1238C21.0854 29.0503 20.8366 28.8665 20.7901 28.8933C20.8254 29.0587 20.129 30.0032 19.8931 29.8293C20.1085 29.5352 20.5654 29.1676 20.3964 28.8085L18.8289 30.0852C18.6933 29.8901 19.1613 29.6582 19.2858 29.538V29.5394ZM30.2974 29.063C30.7171 28.8764 31.2427 28.2868 30.8007 27.9574C30.4236 28.1143 30.6725 28.2882 30.6131 28.4861C30.5536 28.6841 30.2881 28.8424 30.2974 29.063ZM28.8413 29.2341C29.1199 28.4211 27.6248 27.9503 26.7797 28.045C26.5922 28.0662 26.451 28.1709 26.3006 28.1921C25.6468 28.2826 24.8538 28.2684 24.3672 28.7208C24.7869 28.7194 25.1472 28.5243 25.5521 28.4734C25.6654 28.4593 25.9625 28.4056 25.9328 28.5512C25.3162 28.4918 24.7665 28.9796 24.3616 29.1054C24.2149 29.1506 24.0682 29.0587 23.9233 29.1054C23.1693 29.3429 23.5556 30.5843 23.4831 31.0989L24.4786 31.1922C24.6513 30.6238 23.7747 30.6337 23.8081 30.1714L24.2 30.3397L24.7033 29.8307C24.5436 30.1021 24.8835 30.3595 24.9076 30.4867C24.9281 30.5913 24.7238 30.6875 24.7033 30.8133C24.6346 31.2261 25.2605 31.5047 25.4852 31.8327L24.8148 31.9599C24.7665 32.8294 25.6765 32.6357 26.4919 32.6414L25.5985 32.811C25.3534 32.9892 26.7705 33.3964 26.8819 33.4006C27.1029 33.4091 27.3703 33.2366 27.6118 33.2366C27.6118 32.9764 27.2775 32.8068 26.9952 32.9807L26.9413 32.8139C27.4873 32.6979 28.1429 32.4929 28.6091 32.2512C28.923 32.0886 29.0623 31.9147 29.3 31.7549C29.5935 31.5584 30.0875 31.5824 29.9612 31.1102C29.5545 31.0692 29.4059 31.3703 29.1031 31.5202C28.6723 31.7337 28.1151 32.0037 27.6118 32.0462C27.4966 31.9797 29.8813 31.1682 29.625 30.6846C29.1886 30.6366 29.0289 30.9943 28.7243 31.147C28.1355 31.4425 27.192 31.7295 26.4937 31.7493C27.5226 31.3802 28.9564 31.1017 29.4022 30.2167C29.1329 29.9226 28.9174 30.2789 28.6555 30.4132C28.0297 30.7355 27.2738 31.0904 26.5717 31.2968C26.4621 31.3293 26.2318 31.4354 26.1594 31.3237C26.7259 31.0056 28.8171 30.3397 29.0679 29.8745C29.1496 29.7204 28.9379 29.719 28.806 29.76C28.4011 29.8858 27.8514 30.5235 27.1679 30.4287C27.5301 30.0258 29.0641 29.9608 28.4531 29.3217L28.2488 29.3344L27.2812 29.9183L27.9517 29.2779C28.0111 29.0729 27.5672 29.0446 27.3926 29.0658C27.5988 28.742 27.3963 28.6699 27.2812 28.3858C27.6415 28.3433 27.8699 28.5724 27.9665 28.8043L28.3974 28.7251C28.377 28.9555 28.5831 29.1436 28.845 29.2369L28.8413 29.2341ZM22.2425 30.9377C22.5192 31.171 23.056 29.8194 22.913 29.661L22.4115 30.3425L22.2425 30.9377ZM35.1466 31.646C35.1968 31.5867 35.4011 31.605 35.4475 31.4071C35.5385 31.0254 35.3398 30.4188 34.92 30.1856C34.8067 30.1219 34.2756 29.9141 34.1716 29.9282C33.8373 30.1474 33.581 30.3651 33.1984 30.5489C32.9662 30.6606 32.5632 30.7058 32.422 30.8105C32.2809 30.9151 32.1044 31.3661 31.9726 31.5329H31.7516C31.8611 31.4637 32.1713 30.8274 31.8091 30.9377C31.2334 31.393 30.5054 32.0122 31.3578 32.5565L33.542 33.4062C33.8558 33.1602 32.1323 32.4449 32.4722 32.0433C32.5428 31.9599 33.7091 31.4297 33.8763 31.1922C33.9877 31.6234 33.5085 31.663 33.2076 31.9161L33.5085 32.1197C33.9858 32.2158 35.0593 31.1936 34.8847 30.7666C35.4661 31.1031 34.8494 31.7379 34.439 32.0023C34.9275 32.3727 34.92 31.9189 35.1466 31.646ZM35.8691 30.4471C35.7669 30.3962 35.4921 30.3694 35.5571 30.5532C36.2071 30.7398 36.0715 31.581 35.9267 32.0292C35.7261 32.6456 34.9275 33.1009 34.4371 33.5773C36.0177 33.1277 36.6064 32.353 36.3334 31.0706C36.3092 30.9547 35.9489 30.4881 35.8691 30.4471ZM25.0376 31.7888C25.1695 31.3562 23.4293 31.2275 23.3606 31.2784C23.329 31.9118 24.1722 31.6022 24.5176 31.6432C24.6569 31.6602 24.8148 31.8468 25.0376 31.7874V31.7888ZM21.5553 32.2059C21.6296 32.1409 21.6482 31.5174 21.3064 31.5442C21.2099 31.5513 19.7408 32.2823 19.6684 32.3473C19.5532 32.4505 19.5681 32.6173 19.5458 32.6329C19.3842 32.7488 18.6692 32.3459 18.7732 32.7262C19.1613 32.8011 19.4919 32.7347 19.8727 32.6697C20.0788 32.6343 21.4977 32.2582 21.5572 32.2073L21.5553 32.2059ZM18.437 32.4703L18.2179 31.9967L17.5418 32.0462C17.6514 32.3402 18.0377 32.5 18.437 32.4703ZM14.4087 32.3006L12.1985 32.2342C11.8587 32.8492 12.2728 33.7668 13.1792 33.9181C13.1494 33.3469 12.0314 32.9496 12.9544 32.3855C12.973 32.8167 12.7929 33.2239 13.3463 33.4897C13.532 33.3483 14.6055 32.4434 14.4087 32.3006ZM30.4088 32.131C30.3141 32.0603 29.2127 32.8238 29.0363 32.9171C28.1782 33.3695 27.3332 33.6692 26.269 33.706C26.8652 34.0255 27.8384 33.6961 28.4345 33.4812C29.2332 33.1942 30.0559 32.7714 30.4088 32.131ZM16.4238 34.345C16.7376 33.9223 16.5575 32.3544 15.8944 32.2271C13.5859 32.8549 12.8857 34.994 14.5219 36.4304C15.3818 37.184 17.3468 37.6378 18.385 36.9041C19.2486 36.2933 20.8551 34.2856 19.7798 33.4939C19.9599 34.3323 19.6609 35.0732 19.1056 35.7928C18.9608 35.8098 18.8196 35.8182 18.8883 35.6712C18.9868 35.4634 19.2746 35.2287 19.3879 34.9431C19.5495 34.5401 19.5904 34.1711 19.5532 33.7498L18.7695 35.4521C18.5596 35.4704 18.6766 35.2796 18.7119 35.1962C18.9385 34.6688 19.5848 34.1429 18.9385 33.5816C18.7435 33.5759 18.7472 34.3182 18.6915 34.5006C18.6766 34.5472 18.5094 35.0307 18.3237 34.8568C18.2624 34.8003 18.9217 33.6947 18.2123 33.4953L17.8761 34.0057C17.917 33.5688 17.9096 33.1093 17.2057 33.3257C17.2149 33.1207 17.0719 32.8817 16.7562 32.9001C16.6466 32.9948 16.9828 34.1824 16.4219 34.3479L16.4238 34.345ZM29.066 32.3006L27.7269 32.8534C27.7102 33.1701 29.5452 32.8167 29.066 32.3006ZM24.59 33.0683L23.5853 32.8973C23.6039 33.2507 24.1926 33.2536 24.5362 33.238L24.5919 33.0683H24.59ZM31.9744 34.9417C32.2475 34.1047 32.0432 34.0128 31.4154 33.4515C31.083 33.1546 31.0922 32.7658 30.2546 33.0797C29.3873 33.853 28.1727 33.894 28.4457 35.117C28.6203 35.9059 29.3353 36.2127 30.2472 36.4728C30.5667 36.4686 30.4589 36.4728 30.2751 36.3668C29.8145 36.1024 29.0586 35.6698 29.1811 35.1976C29.5396 35.4422 29.8052 36.0869 30.4589 35.961C30.966 35.8635 29.8108 35.2767 30.0745 35.0265C30.3716 34.9332 30.3401 35.2782 30.4645 35.2796C30.7468 35.2824 31.5844 34.2291 31.304 33.9195C31.4637 33.9138 31.4804 34.2362 31.499 34.3323C31.5491 34.6094 31.3114 34.9742 31.9744 34.9417ZM33.2058 34.2588C33.1891 33.7738 32.7136 33.4458 32.201 33.2366L32.3125 33.4911L31.9744 33.5349L32.201 33.9166L32.6468 33.7837L33.2058 34.2588ZM24.2223 33.8587C24.1517 33.7979 23.2844 33.3978 23.2008 33.4034L22.913 33.9195L22.5359 33.6721C21.4996 34.0665 21.3622 34.6122 21.3956 35.4563L22.8015 35.708L21.4625 35.9214C21.468 36.1208 22.4821 36.0345 22.6901 36.0501C22.77 36.3201 22.3038 36.2 22.0456 36.2834C21.6185 36.4205 22.1422 36.5633 22.4134 36.5647C22.783 36.569 23.1841 36.4078 23.5853 36.4757L22.8034 36.6453C22.8535 37.119 23.5909 36.8093 23.9772 36.8079C24.2409 36.8079 24.4675 36.9055 24.7442 36.8956C25.5948 36.8673 26.802 36.3102 26.7742 35.6231L24.9281 36.5591C24.8723 36.3739 25.0618 36.3696 25.1825 36.2862C25.7657 35.879 27.5356 35.2485 26.7184 34.5161C26.4807 35.3941 25.2178 35.9257 24.1443 36.1335C24.9392 35.5793 26.1093 35.4846 26.3823 34.5543L26.1056 34.3464C25.8251 34.7169 25.7508 34.977 25.3237 35.2852C25.1769 35.3913 24.0124 36.0247 23.9233 35.9639C23.7283 35.8338 24.083 35.7772 24.1332 35.7433C24.4433 35.5355 24.9095 35.3814 25.1565 35.1566C25.3515 34.9798 25.8418 34.3662 25.3812 34.2602C25.1992 34.6052 24.6551 35.0406 24.148 35.1113L24.9986 34.3493L24.7646 34.0905C24.4303 34.4567 24.0682 34.871 23.4794 35.0251C23.2473 34.8526 24.7386 34.3026 24.2279 33.8573L24.2223 33.8587ZM25.9328 33.9181C25.7137 33.5844 25.1416 33.5363 24.7033 33.4939C24.6495 33.7159 24.7591 33.6438 24.9262 33.7032C25.2141 33.8064 25.6134 33.8968 25.9347 33.9181H25.9328ZM20.5617 33.6636C20.3983 33.5462 20.3593 33.6706 20.3388 33.7894C20.2961 34.0524 20.363 34.3337 20.311 34.6207C20.2274 35.0661 19.9117 35.3785 19.7817 35.7928C20.4781 35.2202 21.143 34.4468 20.5617 33.6636ZM4.67485 34.9403C4.26626 34.6066 3.41564 34.7508 2.88447 34.772L3.72394 34.9403H4.67299H4.67485ZM31.1591 35.035C31.0681 35.0534 30.6558 35.363 30.6428 35.4209L30.9288 35.7009L31.6401 35.2386C31.5046 35.1255 31.3857 34.9897 31.161 35.035H31.1591ZM20.7864 35.1962C20.5023 35.1481 20.5914 35.2541 20.4967 35.3559C19.9897 35.9073 19.6071 36.3894 18.8846 36.8136C19.8857 36.7287 20.7567 35.9398 20.7864 35.1962ZM32.0469 35.8041C31.5844 35.8974 32.2437 36.125 32.4926 36.1307C32.7415 36.1363 32.8362 36.0501 32.9792 35.92C32.9811 35.7574 32.2196 35.7688 32.045 35.8041H32.0469ZM26.9413 38.3476C27.7288 37.8655 28.4178 36.8277 27.6638 36.1378C27.192 35.7037 26.8726 36.487 26.5327 36.7174C26.1427 36.9818 25.6468 36.9818 25.3794 37.1161C25.1584 37.2278 24.5566 38.3235 24.7033 38.4324L25.2605 38.5611L24.8166 38.9442L25.4314 38.6911L25.6524 39.2029L26.2709 39.1153C26.0536 39.4192 26.7129 39.8858 26.9989 39.8787C27.2849 39.8717 26.8875 39.3726 27.2218 39.2849L27.3926 39.7091C28.3287 39.7119 27.7529 39.374 27.8885 39.1167C27.9869 38.9286 28.8988 38.5342 29.1626 38.2076C29.4802 37.8117 29.9296 36.8942 29.1793 36.6439C29.1143 37.529 28.7001 38.6784 27.3889 38.858L28.3324 38.2571C28.7094 37.7184 29.2982 36.7556 28.3398 36.3908C28.0427 36.5845 28.2247 36.9041 28.1467 37.1783C28.0297 37.5883 27.5951 38.3433 26.9432 38.3476H26.9413ZM23.1358 38.3476C24.2892 36.962 22.861 37.3763 21.8673 36.8871C21.4142 36.6637 21.4272 36.4403 21.1746 36.2212C20.9016 35.9851 20.3184 36.6623 20.0584 36.815C19.2969 37.2632 18.7175 37.2999 18.2699 38.0931C17.8223 38.8862 17.8743 39.6016 18.3014 40.3665C19.3471 42.2398 23.9307 42.1465 24.9244 40.3071C23.771 41.0565 22.2555 41.3944 20.7437 41.335C20.5728 41.0098 20.4243 40.7638 19.8912 40.8189L20.2255 41.2445C19.1428 41.0155 18.3033 40.0993 18.3219 39.2468C18.3311 38.8283 18.9868 37.4159 19.5161 37.2533C20.22 37.0384 19.191 37.9149 19.1372 37.987C18.6747 38.6077 18.32 39.7515 19.2171 40.2209C19.2523 39.9636 18.8642 39.743 18.8809 39.5041C18.8865 39.4221 19.3155 38.3843 19.3898 38.2599C19.4641 38.1355 19.3749 38.0507 19.6646 38.0903C19.7259 38.5427 19.2839 39.1393 19.4603 39.5677C19.5198 39.7133 19.7185 39.7713 19.8374 39.6257C19.9377 39.2863 19.8894 38.8155 20.337 38.6006C20.051 39.2142 20.389 40.9561 21.2916 41.154C21.7373 41.2516 20.987 40.6323 20.922 40.498C20.7883 40.2294 20.7567 39.9904 20.7864 39.7062H21.1207V40.1318C21.9639 39.9961 24.2056 39.5097 24.2557 38.7279C24.2632 38.6218 24.2539 38.5497 24.0867 38.5992C23.3568 38.8155 22.4691 39.7303 21.4569 39.7048C21.3993 39.4843 21.5182 39.5564 21.6742 39.4914C22.4264 39.1831 23.1674 39.0672 23.7506 38.513C24.1889 38.0959 24.005 38.0083 24.2 37.6619C24.2836 37.5134 24.6402 37.4569 24.59 37.2349C23.498 37.0497 24.0403 38.2076 23.1358 38.3405V38.3476ZM32.3106 36.2198C31.9113 36.282 31.1424 35.8932 31.0792 36.388C31.486 36.4559 32.0302 36.5563 32.3106 36.2198ZM31.5268 38.0068C31.5176 37.6322 31.6847 36.9479 30.9678 36.9861C30.9065 37.3183 31.031 37.5643 31.2483 37.8386C31.3337 37.946 31.226 38.0549 31.525 38.0068H31.5268ZM30.2658 37.266C30.2342 37.2377 29.8646 37.0553 29.8498 37.0695C29.9129 37.536 29.5359 38.1397 29.1384 38.4889C29.0196 38.5936 27.8997 39.1648 28.1708 39.3698C28.7168 39.3966 29.9278 38.5752 29.9575 38.2161C29.9668 38.1001 29.8405 37.9545 29.859 37.8852C29.8739 37.8287 30.6948 37.6576 30.2658 37.2674V37.266ZM30.8564 39.5394C31.2241 39.7939 32.1862 38.4748 32.2567 38.2656C32.3849 37.8881 32.331 37.5784 31.9187 37.3282C31.668 37.324 31.772 38.2995 31.6977 38.5215C31.5566 38.9414 31.0347 39.1648 30.8564 39.5408V39.5394ZM17.8223 37.5813C17.2317 37.6039 16.6243 37.5813 16.0319 37.5813C15.9279 37.5813 15.2314 38.2203 15.1664 38.3702C14.9881 38.7816 15.0011 39.678 15.64 39.7967L15.6957 39.5408C16.0486 40.1389 16.8695 39.6992 17.5362 39.7062C17.3375 38.8778 17.8093 38.3264 18.1008 37.6223C18.2067 37.365 17.8408 37.5813 17.8223 37.5813ZM30.7115 38.6134C30.2788 38.6982 29.8405 39.5479 30.7617 39.1704C31.4266 38.8975 31.1145 38.5342 30.7115 38.6134ZM28.6203 39.7105C29.2276 39.8137 29.274 39.5055 29.625 39.2425C29.4634 39.0898 29.5043 39.1308 29.3297 39.1845C29.2071 39.2227 28.4383 39.5917 28.6203 39.7105ZM24.2539 39.3698C23.9697 39.5225 23.6763 39.6455 23.355 39.7501C23.0337 39.8547 21.2749 40.1813 21.3454 40.433C21.4643 40.85 22.1311 40.2393 22.1812 40.2407C22.2425 40.2407 22.3688 40.3962 22.6177 40.392C23.0281 40.3863 24.6179 39.7529 24.252 39.3698H24.2539ZM30.2974 39.456C29.7922 39.2779 29.3502 39.5719 29.2907 39.9664L30.2974 39.456ZM30.6335 40.3071C31.1963 40.3821 31.7126 39.7275 31.863 39.3712L30.6335 40.3071ZM30.3772 39.7275C30.002 39.8024 29.1979 40.3255 30.0503 40.1629C30.7078 40.0371 30.9455 39.6143 30.3772 39.7275ZM22.913 40.9023C22.978 40.9504 24.33 40.3425 24.4712 40.2591C24.8352 40.0413 24.6792 39.8179 24.3672 39.9226C24.2056 39.9777 22.6437 40.703 22.913 40.9023ZM20.2274 40.5616C20.1772 40.2704 20.0212 39.9098 19.5569 39.9664C19.5179 40.3538 19.6832 40.5885 20.2274 40.5616ZM17.7647 41.0734C18.1324 40.071 17.4638 39.883 16.3142 40.1813C14.86 40.5602 13.8032 41.6672 14.4959 42.8379C14.5517 42.934 14.6798 43.1136 14.8024 42.9481C14.9658 42.7262 14.7392 41.9839 14.8878 41.564C14.9343 41.4339 15.0438 41.0918 15.3038 41.1582C15.3911 41.2417 14.5089 43.0952 15.64 43.0316C15.8239 42.8845 15.2333 41.9019 15.8629 41.9245C16.1099 42.548 15.7106 43.73 16.9809 43.0316L16.3105 43.6268L17.6533 43.2026L16.5352 43.8417L17.3171 43.7993L17.0942 44.1386C17.3802 44.4397 18.5986 43.8473 18.8865 43.6734C19.3879 43.3681 19.7148 42.9397 19.8894 42.4773C19.7148 42.3091 19.7111 42.4604 19.6405 42.5466C19.2561 43.0104 19.0053 43.4925 18.3256 43.7993C18.5132 43.4402 18.9255 43.2309 19.1688 42.8661C19.3081 42.6555 19.4399 42.4236 19.4436 42.1819C19.1613 42.343 18.9682 42.6795 18.7175 42.8619C18.5912 42.9538 18.3701 43.0415 18.216 43.1178C18.0748 43.0033 19.4158 42.0051 19.2208 41.6701C19.0183 41.5004 18.5614 42.3614 18.3274 42.3515C18.3683 41.9599 18.9719 41.5273 18.4946 41.1611L17.657 42.1804L18.0971 41.1964C18.1844 40.9773 17.8241 41.1144 17.7665 41.0734H17.7647ZM28.7298 40.9038L27.3889 40.5616C27.1512 40.7482 28.5553 41.3519 28.7298 40.9038ZM26.269 41.9245C27.0527 41.2699 26.0833 40.9504 25.3329 40.6578C25.0469 41.0663 23.9772 41.5937 23.7506 41.9245C23.6911 42.0108 23.6781 42.0843 23.6949 42.179L24.1425 42.3501L23.5834 42.606L24.59 42.3515L23.9196 42.9467L25.1491 42.6074C25.2939 42.7135 24.408 43.0726 25.1528 43.3313C25.684 43.5165 26.6813 42.6809 26.854 42.3289C26.9302 42.1748 27.1419 41.6517 26.8299 41.5852C26.8837 41.81 25.7898 42.9114 25.5985 42.7771C25.7824 42.4632 26.1353 42.2681 26.269 41.926C26.217 41.9698 25.6264 42.377 25.5985 42.3515C25.6022 41.926 26.3897 41.6913 26.0443 41.2445C26.5309 41.2247 26.36 41.6884 26.2671 41.9245H26.269ZM26.9413 44.4807C27.5616 44.5429 27.7659 44.1117 28.0649 43.9308C28.2488 43.8191 28.5237 43.8219 28.6815 43.7187C29.1923 43.385 28.9453 41.7704 28.338 41.5852C28.0761 41.5244 28.1467 41.8751 28.1745 41.9655C28.2692 42.2723 28.6908 42.254 28.4995 42.6357C28.2451 43.1418 27.2979 43.706 26.7482 44.0354C26.6144 44.116 26.4436 44.1329 26.4937 44.3097C27.2422 44.3832 28.1169 43.1122 28.3435 43.0358C28.897 42.8506 28.3881 43.5391 28.2302 43.631L26.9413 44.4807ZM25.71 43.6282C26.2133 43.5731 26.8447 43.2012 27.1642 42.9043C27.361 42.7205 28.0037 42.0023 27.5542 41.8411C27.3388 41.7634 27.088 42.6569 26.8262 42.7318L25.71 43.6268V43.6282ZM18.3256 44.3097C18.9923 44.321 19.7334 43.6042 20.0472 43.1927C20.129 43.0853 20.8589 42.0051 20.3945 42.0108L19.6479 43.3143L18.3256 44.3083V44.3097ZM21.234 42.0956C20.9814 41.9472 20.4781 43.0174 20.3593 43.1744C20.1178 43.4925 19.7705 43.7286 19.5569 44.0538C20.2088 44.0608 21.6389 42.3331 21.234 42.0956ZM21.0111 43.4585C21.5832 43.1885 21.8803 42.7926 21.7912 42.2667L21.0111 43.4585ZM26.0461 44.0538C26.3266 44.2475 28.2321 42.8096 27.9479 42.3515L27.3889 42.9891C26.8782 43.2846 26.3321 43.6084 26.0461 44.0538ZM22.3521 43.3737C22.2276 43.2747 20.5301 44.1117 20.3388 44.2687C19.9042 44.6249 19.6869 45.1028 19.7798 45.5878L20.0602 45.3319C20.5227 45.6372 20.4484 45.6768 21.1207 45.5892L20.5617 45.9285L21.3343 45.8521C21.3715 45.985 21.4959 46.388 21.7336 46.3583L23.134 45.5029L22.5749 46.354C22.9575 46.4163 23.0783 46.1137 23.3568 46.0133C23.4107 46.272 23.2751 46.4148 23.0244 46.5675L23.6187 46.9394L25.0358 46.0557L24.8705 45.9299L24.031 46.4403C23.8713 46.3046 24.7405 45.8422 24.8129 45.715C24.8723 45.6104 24.7888 45.5552 24.6476 45.5892L24.2557 45.7588C24.0849 45.4973 25.1416 44.977 24.9262 44.8229C24.6235 44.6066 24.0719 45.469 23.8081 45.5043C23.7747 45.2173 24.5195 44.7451 24.4786 44.526C24.4062 44.1273 23.8824 44.9317 23.6949 44.8215L23.9177 44.2262L23.0244 44.5656L23.3587 44.0552L22.4635 44.3945L22.6864 43.9703L21.4569 44.7366C21.4569 44.4878 21.9175 44.2885 22.0141 44.0962C22.1441 43.8374 21.4327 44.1273 21.5683 43.8007C21.7559 43.8148 22.6474 43.6126 22.3502 43.3737H22.3521ZM17.8761 44.9911C17.5715 44.2347 15.8852 44.4638 15.1534 44.7508C14.4217 45.0378 13.9221 45.9271 13.8775 46.5067C13.8645 46.6679 13.7846 46.7485 14.0168 46.8644C14.5257 46.4191 14.3715 45.8677 14.8562 45.3757C15.0364 45.1919 16.095 44.4906 16.3086 44.8653C16.3978 45.0208 15.7106 45.1198 15.5323 45.2089C15.1367 45.404 14.5461 45.9652 14.8488 46.3145C14.9212 46.3979 15.0457 46.4855 15.1367 46.354C15.2277 46.2226 14.9454 45.8408 15.3596 45.674C15.6121 45.7602 15.3763 45.9921 15.5267 46.0586C15.6307 46.1038 15.7477 46.0077 15.7886 46.0218C15.8759 46.0501 15.9372 46.2353 16.199 46.2268C15.7812 46.4926 15.172 46.6736 14.6352 46.5251C14.0168 47.6208 15.9854 46.88 16.0876 46.9521C16.1823 47.3013 15.0791 47.3423 15.081 47.4201C15.3113 47.5812 16.1693 47.2702 16.0895 47.6321C15.8536 47.5897 14.8878 47.6435 14.9714 47.9291C15.0828 48.308 16.2306 47.7057 16.5371 47.8442C16.3012 48.0478 15.9409 48.0803 15.6437 48.1892C15.4821 48.2486 15.3633 48.1708 15.419 48.397L17.0255 47.9602L18.4389 47.2914C18.7082 47.4964 16.6912 48.2344 16.5928 48.3984C16.3792 48.7533 17.371 48.3475 17.4712 48.2995C17.7963 48.1439 19.2561 47.1288 18.9979 46.8659L18.5522 47.0355C18.9515 46.5788 18.307 46.5633 18.2271 46.3837C18.1008 46.0981 18.8047 45.6429 18.2179 45.4181C18.2346 45.756 17.9077 46.3682 17.6403 46.6411C17.5251 46.7584 16.6318 47.2858 16.5389 47.2066C16.446 47.1274 16.524 47.0072 16.6801 46.9295C17.6663 46.4389 18.0303 46.289 17.8798 45.2484C17.2799 45.1551 17.5622 45.7334 17.0979 45.8437C17.0886 45.6782 17.2428 45.5552 17.2149 45.3813C17.1797 45.165 16.8416 45.1283 16.8751 44.9077L17.8798 44.9911H17.8761ZM19.1093 46.61C19.3081 46.5788 19.3229 46.4403 19.3396 46.313C19.3619 46.1307 19.2486 45.2456 19.1966 45.0533C19.165 44.936 19.0555 44.7692 18.8865 44.7366C18.7342 45.4223 19.2338 45.9341 19.1093 46.61ZM24.8148 47.1203C25.5187 47.1317 26.0164 46.3837 26.0833 45.9129C26.1037 45.7659 26.2393 45.7136 25.9885 45.5892C25.4982 45.8521 25.8548 45.8903 25.9087 46.0727C25.9867 46.3357 25.0358 46.9153 24.8148 47.1203ZM21.3454 47.4611C21.2544 47.1048 20.792 46.8786 20.3388 46.9507C20.5338 47.3027 20.8013 47.536 21.3454 47.4611ZM18.1027 48.3984C18.2977 48.5653 19.3731 47.4144 19.3322 47.2066C19.0963 47.3282 17.9337 48.2542 18.1027 48.3984ZM17.7665 49.3358C17.982 49.5055 20.2274 47.7891 19.7779 47.2914L18.8679 48.3433L18.372 48.6473L17.7665 49.3358ZM19.2208 48.824C19.4121 48.9555 20.4243 47.9771 20.2274 47.7184L19.2208 48.824ZM20.3388 49.5903C20.7103 49.8603 21.3454 48.8834 21.4086 48.6586C21.5182 48.267 21.4272 48.1326 20.9331 47.9856C20.571 47.9602 20.0881 49.0686 19.6665 49.21C19.8169 49.6652 20.285 48.9173 20.3927 48.9131C20.792 49.0615 20.1717 49.4715 20.337 49.5917L20.3388 49.5903ZM21.4439 49.579C21.5145 49.1647 22.3892 48.6063 21.9602 48.2288L21.4457 49.1973L21.1244 49.5493L21.4439 49.579Z" fill="#540B14"/>
<path d="M12.6181 48.0593L12.4584 48.2233L10.6049 47.8882L12.6181 48.0593Z" fill="#540B14"/>
<path d="M9.0373 36.1337C9.08559 36.3811 8.9723 36.2836 8.75872 36.3034C8.26469 36.3472 7.7038 36.4207 7.24878 36.3034L9.0373 36.1351V36.1337Z" fill="#540B14"/>
<path d="M29.1791 3.25526L29.2088 2.80991L29.5115 1.89233C29.5895 2.21044 29.4818 2.62752 29.4001 2.95553C29.3685 3.07995 29.4001 3.21991 29.1791 3.25385V3.25526Z" fill="#540B14"/>
<path d="M15.1365 15.0946C15.3074 15.1059 15.599 15.2586 15.8627 15.1809V15.2657H14.2413C14.1206 15.2657 13.7547 15.0946 13.5151 15.1794V15.0946C14.0407 15.1201 14.6165 15.0593 15.1365 15.0946Z" fill="#540B14"/>
<path d="M25.5983 10.2396L24.926 8.96149C25.2176 9.10994 25.6949 9.7405 25.7729 9.98227C25.8212 10.1321 25.8064 10.1887 25.5983 10.2396Z" fill="#540B14"/>
<path d="M14.6314 33.4079C14.7224 33.4814 14.2525 33.9932 14.2098 34.1502C13.9219 35.2119 14.7818 36.0023 15.7513 36.6427C14.4438 36.3232 13.7733 35.1625 14.011 34.17C14.0352 34.0738 14.3918 33.2142 14.6314 33.4079Z" fill="#540B14"/>
<path d="M15.7847 36.1083C15.9221 36.2243 16.2806 36.2794 16.4217 36.4321C15.5061 36.4915 14.9137 35.7464 15.0808 35.1116C15.5173 35.2897 15.5043 35.8708 15.7847 36.1083Z" fill="#540B14"/>
<path d="M17.653 36.22C17.3429 36.777 15.9258 36.0998 16.3102 35.793C16.509 35.6346 17.1813 36.466 17.653 36.22Z" fill="#540B14"/>
<path d="M18.6597 36.1337C18.7897 36.2482 17.9279 37.0499 17.5416 36.9L17.8016 36.63C18.0802 36.6795 18.5111 36.0037 18.6597 36.1337Z" fill="#540B14"/>
<path d="M21.011 15.9472C21.1986 15.5753 21.4419 15.3194 21.3416 14.8868C21.3119 14.7582 20.881 14.4005 21.2877 14.4146C21.9452 14.8387 21.6945 15.6305 21.011 15.9472Z" fill="#540B14"/>
<path d="M21.6833 16.032C21.713 15.5909 22.2924 15.1922 22.1086 14.7299C22.09 14.6818 21.5161 14.2365 21.9581 14.3298C22.7809 14.5023 22.1364 15.7323 21.6814 16.032H21.6833Z" fill="#540B14"/>
<path d="M19.7796 16.6286C19.9727 16.7545 19.6328 16.8153 19.5697 16.8492C19.0255 17.1404 17.9948 17.5702 18.2158 16.7135C18.6429 17.3398 19.6031 16.5141 19.7796 16.6286Z" fill="#540B14"/>
<path d="M20.0024 16.1182C19.8687 16.3939 18.5798 16.6965 18.55 16.3303L20.0024 16.1182Z" fill="#540B14"/>
<path d="M21.7929 24.8048C22.0882 24.2802 22.6008 23.8094 21.7929 23.3994C21.9582 23.2849 22.3148 23.3825 22.4076 23.5267C22.6286 23.8674 22.051 25.0013 21.791 24.8033L21.7929 24.8048Z" fill="#540B14"/>
<path d="M17.7645 28.2983C17.1961 28.7918 16.2824 28.9996 16.1431 29.7447C15.4299 29.5199 17.1609 28.0962 17.7645 28.2983Z" fill="#540B14"/>
<path d="M16.2007 20.8022L16.7021 19.8663C17.1182 20.166 16.5684 20.6453 16.2007 20.8022Z" fill="#540B14"/>
<path d="M12.7295 27.5306C12.7797 27.9095 12.2262 27.9831 11.9476 28.2545C11.6523 28.5415 11.396 29.1678 11.3812 29.5312C11.3682 29.8168 11.5019 30.0444 11.5037 30.2975C11.5056 30.4671 11.4889 30.4346 11.2772 30.4261C10.7218 29.4407 11.396 27.918 12.7295 27.5306Z" fill="#540B14"/>
<path d="M12.6181 28.3832C12.6943 28.4369 12.2392 28.9501 12.1965 29.1268C12.1352 29.3827 12.2095 29.6372 12.1705 29.8747C12.1501 29.9992 12.0888 30.1335 11.9476 30.0006C11.9829 29.8125 11.8306 29.6217 11.8362 29.4464C11.8418 29.271 12.2244 28.1046 12.6181 28.3832Z" fill="#540B14"/>
<path d="M23.4717 33.9197C23.6816 34.0936 22.8087 34.6605 22.5784 34.686C22.4893 34.6124 23.3102 33.7868 23.4717 33.9197Z" fill="#540B14"/>
<path d="M26.7164 19.7786C27.1436 19.3262 28.0871 18.5104 26.8279 18.3309L26.9374 18.116C28.3879 18.058 27.6079 19.5468 26.7164 19.7786Z" fill="#540B14"/>
<path d="M26.7145 19.1834L26.4916 19.1396C26.9559 18.2941 25.8713 18.7084 25.823 18.6716C25.823 18.2955 26.5603 18.1966 26.8203 18.4666C27.0804 18.7366 26.7869 18.9176 26.7163 19.1834H26.7145Z" fill="#540B14"/>
<path d="M18.2121 46.6102C18.3941 46.7417 17.0383 47.5744 16.8712 47.6324C16.8229 47.4726 16.9882 47.4302 17.0941 47.334C17.2073 47.2308 18.0877 46.5197 18.2121 46.6102Z" fill="#540B14"/>
<path d="M26.1573 38.3478C26.3189 37.9915 26.9931 37.8332 27.1361 37.433C27.1825 37.3016 27.1918 37.1672 27.1603 37.0329C27.1287 36.8986 26.6997 36.5466 27.1064 36.5607C27.8567 37.2323 27.1417 38.1414 26.1573 38.3478Z" fill="#540B14"/>
<path d="M16.3102 37.9222C16.327 38.0834 16.1542 38.1485 16.0948 38.311C16.0149 38.533 16.0224 38.7719 15.9704 38.9854C15.9369 39.124 16.0447 39.1339 15.7512 39.1141C15.5488 38.6758 15.5098 37.9237 16.3084 37.9222H16.3102Z" fill="#540B14"/>
</svg>
