<svg width="22" height="22" viewBox="0 0 22 22" fill="none" xmlns="http://www.w3.org/2000/svg">
<path d="M7.17659 14.8234C5.20521 12.8482 3.68914 10.4662 2.73442 7.84394C2.20917 6.41027 2.69042 4.83544 3.77025 3.7556L4.4385 3.08827C4.61816 2.90825 4.83155 2.76543 5.06647 2.66799C5.30139 2.57054 5.55322 2.52039 5.80755 2.52039C6.06187 2.52039 6.3137 2.57054 6.54862 2.66799C6.78354 2.76543 6.99693 2.90825 7.17659 3.08827L8.74134 4.65302C8.92136 4.83268 9.06417 5.04607 9.16162 5.28099C9.25906 5.51591 9.30922 5.76774 9.30922 6.02206C9.30922 6.27639 9.25906 6.52822 9.16162 6.76314C9.06417 6.99806 8.92136 7.21145 8.74134 7.3911L8.35634 7.7761C8.20223 7.93018 8.07999 8.1131 7.99658 8.31442C7.91318 8.51574 7.87025 8.73152 7.87025 8.94944C7.87025 9.16735 7.91318 9.38313 7.99658 9.58446C8.07999 9.78578 8.20223 9.9687 8.35634 10.1228L11.8763 13.6437C12.0304 13.7978 12.2133 13.92 12.4147 14.0034C12.616 14.0868 12.8318 14.1298 13.0497 14.1298C13.2676 14.1298 13.4834 14.0868 13.6847 14.0034C13.886 13.92 14.0689 13.7978 14.223 13.6437L14.6089 13.2587C14.7886 13.0787 15.002 12.9359 15.2369 12.8384C15.4718 12.741 15.7236 12.6908 15.978 12.6908C16.2323 12.6908 16.4841 12.741 16.719 12.8384C16.954 12.9359 17.1673 13.0787 17.347 13.2587L18.9118 14.8234C19.0918 15.0031 19.2346 15.2165 19.332 15.4514C19.4295 15.6863 19.4796 15.9382 19.4796 16.1925C19.4796 16.4468 19.4295 16.6986 19.332 16.9336C19.2346 17.1685 19.0918 17.3819 18.9118 17.5615L18.2444 18.2289C17.1646 19.3096 15.5898 19.7909 14.1561 19.2656C11.5338 18.3109 9.15179 16.7948 7.17659 14.8234Z" stroke="#540B14" stroke-linejoin="round"/>
</svg>
