<svg width="40" height="40" viewBox="0 0 40 40" fill="none" xmlns="http://www.w3.org/2000/svg">
<path d="M13.0483 26.9517C9.46397 23.3604 6.70748 19.0295 4.97162 14.2617C4.01662 11.655 4.89162 8.7917 6.85496 6.82837L8.06996 5.61504C8.3966 5.28773 8.78459 5.02806 9.21172 4.85089C9.63884 4.67372 10.0967 4.58252 10.5591 4.58252C11.0215 4.58252 11.4794 4.67372 11.9065 4.85089C12.3337 5.02806 12.7216 5.28773 13.0483 5.61504L15.8933 8.46004C16.2206 8.78668 16.4803 9.17467 16.6574 9.6018C16.8346 10.0289 16.9258 10.4868 16.9258 10.9492C16.9258 11.4116 16.8346 11.8695 16.6574 12.2966C16.4803 12.7237 16.2206 13.1117 15.8933 13.4384L15.1933 14.1384C14.9131 14.4185 14.6908 14.7511 14.5392 15.1171C14.3876 15.4832 14.3095 15.8755 14.3095 16.2717C14.3095 16.6679 14.3876 17.0602 14.5392 17.4263C14.6908 17.7923 14.9131 18.1249 15.1933 18.405L21.5933 24.8067C21.8734 25.0869 22.206 25.3092 22.572 25.4608C22.9381 25.6124 23.3304 25.6905 23.7266 25.6905C24.1228 25.6905 24.5152 25.6124 24.8812 25.4608C25.2472 25.3092 25.5798 25.0869 25.86 24.8067L26.5616 24.1067C26.8883 23.7794 27.2763 23.5197 27.7034 23.3426C28.1305 23.1654 28.5884 23.0742 29.0508 23.0742C29.5132 23.0742 29.9711 23.1654 30.3982 23.3426C30.8253 23.5197 31.2133 23.7794 31.54 24.1067L34.385 26.9517C34.7123 27.2783 34.9719 27.6663 35.1491 28.0935C35.3263 28.5206 35.4175 28.9785 35.4175 29.4409C35.4175 29.9033 35.3263 30.3612 35.1491 30.7883C34.9719 31.2154 34.7123 31.6034 34.385 31.93L33.1716 33.1434C31.2083 35.1084 28.345 35.9834 25.7383 35.0284C20.9705 33.2925 16.6396 30.536 13.0483 26.9517Z" stroke="#540B14" stroke-width="2" stroke-linejoin="round"/>
</svg>
